<?xml version="1.0" encoding="utf-8" standalone="no"?>
<!DOCTYPE svg PUBLIC "-//W3C//DTD SVG 1.1//EN"
  "http://www.w3.org/Graphics/SVG/1.1/DTD/svg11.dtd">
<svg xmlns:xlink="http://www.w3.org/1999/xlink" width="864pt" height="302.4pt" viewBox="0 0 864 302.4" xmlns="http://www.w3.org/2000/svg" version="1.1">
 <metadata>
  <rdf:RDF xmlns:dc="http://purl.org/dc/elements/1.1/" xmlns:cc="http://creativecommons.org/ns#" xmlns:rdf="http://www.w3.org/1999/02/22-rdf-syntax-ns#">
   <cc:Work>
    <dc:type rdf:resource="http://purl.org/dc/dcmitype/StillImage"/>
    <dc:date>2025-08-19T11:30:44.915216</dc:date>
    <dc:format>image/svg+xml</dc:format>
    <dc:creator>
     <cc:Agent>
      <dc:title>Matplotlib v3.10.3, https://matplotlib.org/</dc:title>
     </cc:Agent>
    </dc:creator>
   </cc:Work>
  </rdf:RDF>
 </metadata>
 <defs>
  <style type="text/css">*{stroke-linejoin: round; stroke-linecap: butt}</style>
 </defs>
 <g id="figure_1">
  <g id="patch_1">
   <path d="M 0 302.4 
L 864 302.4 
L 864 0 
L 0 0 
z
" style="fill: #ffffff"/>
  </g>
  <g id="axes_1">
   <g id="patch_2">
    <path d="M 74.732051 247.724 
L 413.22405 247.724 
L 413.22405 35.568 
L 74.732051 35.568 
z
" style="fill: #eaeaf2"/>
   </g>
   <g id="matplotlib.axis_1">
    <g id="xtick_1">
     <g id="line2d_1">
      <path d="M 74.732051 247.724 
L 74.732051 35.568 
" clip-path="url(#p0725fa3cb5)" style="fill: none; stroke: #ffffff; stroke-linecap: round"/>
     </g>
     <g id="text_1">
      <!-- 0.00 -->
      <g style="fill: #262626" transform="translate(64.028536 265.097594) scale(0.11 -0.11)">
       <defs>
        <path id="ArialMT-30" d="M 266 2259 
Q 266 3072 433 3567 
Q 600 4063 929 4331 
Q 1259 4600 1759 4600 
Q 2128 4600 2406 4451 
Q 2684 4303 2865 4023 
Q 3047 3744 3150 3342 
Q 3253 2941 3253 2259 
Q 3253 1453 3087 958 
Q 2922 463 2592 192 
Q 2263 -78 1759 -78 
Q 1097 -78 719 397 
Q 266 969 266 2259 
z
M 844 2259 
Q 844 1131 1108 757 
Q 1372 384 1759 384 
Q 2147 384 2411 759 
Q 2675 1134 2675 2259 
Q 2675 3391 2411 3762 
Q 2147 4134 1753 4134 
Q 1366 4134 1134 3806 
Q 844 3388 844 2259 
z
" transform="scale(0.015625)"/>
        <path id="ArialMT-2e" d="M 581 0 
L 581 641 
L 1222 641 
L 1222 0 
L 581 0 
z
" transform="scale(0.015625)"/>
       </defs>
       <use xlink:href="#ArialMT-30"/>
       <use xlink:href="#ArialMT-2e" transform="translate(55.615234 0)"/>
       <use xlink:href="#ArialMT-30" transform="translate(83.398438 0)"/>
       <use xlink:href="#ArialMT-30" transform="translate(139.013672 0)"/>
      </g>
     </g>
    </g>
    <g id="xtick_2">
     <g id="line2d_2">
      <path d="M 125.505851 247.724 
L 125.505851 35.568 
" clip-path="url(#p0725fa3cb5)" style="fill: none; stroke: #ffffff; stroke-linecap: round"/>
     </g>
     <g id="text_2">
      <!-- 0.15 -->
      <g style="fill: #262626" transform="translate(114.802336 265.097594) scale(0.11 -0.11)">
       <defs>
        <path id="ArialMT-31" d="M 2384 0 
L 1822 0 
L 1822 3584 
Q 1619 3391 1289 3197 
Q 959 3003 697 2906 
L 697 3450 
Q 1169 3672 1522 3987 
Q 1875 4303 2022 4600 
L 2384 4600 
L 2384 0 
z
" transform="scale(0.015625)"/>
        <path id="ArialMT-35" d="M 266 1200 
L 856 1250 
Q 922 819 1161 601 
Q 1400 384 1738 384 
Q 2144 384 2425 690 
Q 2706 997 2706 1503 
Q 2706 1984 2436 2262 
Q 2166 2541 1728 2541 
Q 1456 2541 1237 2417 
Q 1019 2294 894 2097 
L 366 2166 
L 809 4519 
L 3088 4519 
L 3088 3981 
L 1259 3981 
L 1013 2750 
Q 1425 3038 1878 3038 
Q 2478 3038 2890 2622 
Q 3303 2206 3303 1553 
Q 3303 931 2941 478 
Q 2500 -78 1738 -78 
Q 1113 -78 717 272 
Q 322 622 266 1200 
z
" transform="scale(0.015625)"/>
       </defs>
       <use xlink:href="#ArialMT-30"/>
       <use xlink:href="#ArialMT-2e" transform="translate(55.615234 0)"/>
       <use xlink:href="#ArialMT-31" transform="translate(83.398438 0)"/>
       <use xlink:href="#ArialMT-35" transform="translate(139.013672 0)"/>
      </g>
     </g>
    </g>
    <g id="xtick_3">
     <g id="line2d_3">
      <path d="M 176.279651 247.724 
L 176.279651 35.568 
" clip-path="url(#p0725fa3cb5)" style="fill: none; stroke: #ffffff; stroke-linecap: round"/>
     </g>
     <g id="text_3">
      <!-- 0.30 -->
      <g style="fill: #262626" transform="translate(165.576135 265.097594) scale(0.11 -0.11)">
       <defs>
        <path id="ArialMT-33" d="M 269 1209 
L 831 1284 
Q 928 806 1161 595 
Q 1394 384 1728 384 
Q 2125 384 2398 659 
Q 2672 934 2672 1341 
Q 2672 1728 2419 1979 
Q 2166 2231 1775 2231 
Q 1616 2231 1378 2169 
L 1441 2663 
Q 1497 2656 1531 2656 
Q 1891 2656 2178 2843 
Q 2466 3031 2466 3422 
Q 2466 3731 2256 3934 
Q 2047 4138 1716 4138 
Q 1388 4138 1169 3931 
Q 950 3725 888 3313 
L 325 3413 
Q 428 3978 793 4289 
Q 1159 4600 1703 4600 
Q 2078 4600 2393 4439 
Q 2709 4278 2876 4000 
Q 3044 3722 3044 3409 
Q 3044 3113 2884 2869 
Q 2725 2625 2413 2481 
Q 2819 2388 3044 2092 
Q 3269 1797 3269 1353 
Q 3269 753 2831 336 
Q 2394 -81 1725 -81 
Q 1122 -81 723 278 
Q 325 638 269 1209 
z
" transform="scale(0.015625)"/>
       </defs>
       <use xlink:href="#ArialMT-30"/>
       <use xlink:href="#ArialMT-2e" transform="translate(55.615234 0)"/>
       <use xlink:href="#ArialMT-33" transform="translate(83.398438 0)"/>
       <use xlink:href="#ArialMT-30" transform="translate(139.013672 0)"/>
      </g>
     </g>
    </g>
    <g id="xtick_4">
     <g id="line2d_4">
      <path d="M 227.053451 247.724 
L 227.053451 35.568 
" clip-path="url(#p0725fa3cb5)" style="fill: none; stroke: #ffffff; stroke-linecap: round"/>
     </g>
     <g id="text_4">
      <!-- 0.45 -->
      <g style="fill: #262626" transform="translate(216.349935 265.097594) scale(0.11 -0.11)">
       <defs>
        <path id="ArialMT-34" d="M 2069 0 
L 2069 1097 
L 81 1097 
L 81 1613 
L 2172 4581 
L 2631 4581 
L 2631 1613 
L 3250 1613 
L 3250 1097 
L 2631 1097 
L 2631 0 
L 2069 0 
z
M 2069 1613 
L 2069 3678 
L 634 1613 
L 2069 1613 
z
" transform="scale(0.015625)"/>
       </defs>
       <use xlink:href="#ArialMT-30"/>
       <use xlink:href="#ArialMT-2e" transform="translate(55.615234 0)"/>
       <use xlink:href="#ArialMT-34" transform="translate(83.398438 0)"/>
       <use xlink:href="#ArialMT-35" transform="translate(139.013672 0)"/>
      </g>
     </g>
    </g>
    <g id="xtick_5">
     <g id="line2d_5">
      <path d="M 277.827251 247.724 
L 277.827251 35.568 
" clip-path="url(#p0725fa3cb5)" style="fill: none; stroke: #ffffff; stroke-linecap: round"/>
     </g>
     <g id="text_5">
      <!-- 0.60 -->
      <g style="fill: #262626" transform="translate(267.123735 265.097594) scale(0.11 -0.11)">
       <defs>
        <path id="ArialMT-36" d="M 3184 3459 
L 2625 3416 
Q 2550 3747 2413 3897 
Q 2184 4138 1850 4138 
Q 1581 4138 1378 3988 
Q 1113 3794 959 3422 
Q 806 3050 800 2363 
Q 1003 2672 1297 2822 
Q 1591 2972 1913 2972 
Q 2475 2972 2870 2558 
Q 3266 2144 3266 1488 
Q 3266 1056 3080 686 
Q 2894 316 2569 119 
Q 2244 -78 1831 -78 
Q 1128 -78 684 439 
Q 241 956 241 2144 
Q 241 3472 731 4075 
Q 1159 4600 1884 4600 
Q 2425 4600 2770 4297 
Q 3116 3994 3184 3459 
z
M 888 1484 
Q 888 1194 1011 928 
Q 1134 663 1356 523 
Q 1578 384 1822 384 
Q 2178 384 2434 671 
Q 2691 959 2691 1453 
Q 2691 1928 2437 2201 
Q 2184 2475 1800 2475 
Q 1419 2475 1153 2201 
Q 888 1928 888 1484 
z
" transform="scale(0.015625)"/>
       </defs>
       <use xlink:href="#ArialMT-30"/>
       <use xlink:href="#ArialMT-2e" transform="translate(55.615234 0)"/>
       <use xlink:href="#ArialMT-36" transform="translate(83.398438 0)"/>
       <use xlink:href="#ArialMT-30" transform="translate(139.013672 0)"/>
      </g>
     </g>
    </g>
    <g id="xtick_6">
     <g id="line2d_6">
      <path d="M 328.60105 247.724 
L 328.60105 35.568 
" clip-path="url(#p0725fa3cb5)" style="fill: none; stroke: #ffffff; stroke-linecap: round"/>
     </g>
     <g id="text_6">
      <!-- 0.75 -->
      <g style="fill: #262626" transform="translate(317.897535 265.097594) scale(0.11 -0.11)">
       <defs>
        <path id="ArialMT-37" d="M 303 3981 
L 303 4522 
L 3269 4522 
L 3269 4084 
Q 2831 3619 2401 2847 
Q 1972 2075 1738 1259 
Q 1569 684 1522 0 
L 944 0 
Q 953 541 1156 1306 
Q 1359 2072 1739 2783 
Q 2119 3494 2547 3981 
L 303 3981 
z
" transform="scale(0.015625)"/>
       </defs>
       <use xlink:href="#ArialMT-30"/>
       <use xlink:href="#ArialMT-2e" transform="translate(55.615234 0)"/>
       <use xlink:href="#ArialMT-37" transform="translate(83.398438 0)"/>
       <use xlink:href="#ArialMT-35" transform="translate(139.013672 0)"/>
      </g>
     </g>
    </g>
    <g id="xtick_7">
     <g id="line2d_7">
      <path d="M 379.37485 247.724 
L 379.37485 35.568 
" clip-path="url(#p0725fa3cb5)" style="fill: none; stroke: #ffffff; stroke-linecap: round"/>
     </g>
     <g id="text_7">
      <!-- 0.90 -->
      <g style="fill: #262626" transform="translate(368.671335 265.097594) scale(0.11 -0.11)">
       <defs>
        <path id="ArialMT-39" d="M 350 1059 
L 891 1109 
Q 959 728 1153 556 
Q 1347 384 1650 384 
Q 1909 384 2104 503 
Q 2300 622 2425 820 
Q 2550 1019 2634 1356 
Q 2719 1694 2719 2044 
Q 2719 2081 2716 2156 
Q 2547 1888 2255 1720 
Q 1963 1553 1622 1553 
Q 1053 1553 659 1965 
Q 266 2378 266 3053 
Q 266 3750 677 4175 
Q 1088 4600 1706 4600 
Q 2153 4600 2523 4359 
Q 2894 4119 3086 3673 
Q 3278 3228 3278 2384 
Q 3278 1506 3087 986 
Q 2897 466 2520 194 
Q 2144 -78 1638 -78 
Q 1100 -78 759 220 
Q 419 519 350 1059 
z
M 2653 3081 
Q 2653 3566 2395 3850 
Q 2138 4134 1775 4134 
Q 1400 4134 1122 3828 
Q 844 3522 844 3034 
Q 844 2597 1108 2323 
Q 1372 2050 1759 2050 
Q 2150 2050 2401 2323 
Q 2653 2597 2653 3081 
z
" transform="scale(0.015625)"/>
       </defs>
       <use xlink:href="#ArialMT-30"/>
       <use xlink:href="#ArialMT-2e" transform="translate(55.615234 0)"/>
       <use xlink:href="#ArialMT-39" transform="translate(83.398438 0)"/>
       <use xlink:href="#ArialMT-30" transform="translate(139.013672 0)"/>
      </g>
     </g>
    </g>
    <g id="text_8">
     <!-- $ROC\!-\!AUC_{ovr}$ -->
     <g style="fill: #262626" transform="translate(199.458051 285.521344) scale(0.14 -0.14)">
      <defs>
       <path id="DejaVuSans-Oblique-52" d="M 1613 4147 
L 1294 2491 
L 2106 2491 
Q 2584 2491 2879 2755 
Q 3175 3019 3175 3444 
Q 3175 3784 2976 3965 
Q 2778 4147 2406 4147 
L 1613 4147 
z
M 2772 2241 
Q 2972 2194 3105 2009 
Q 3238 1825 3413 1275 
L 3809 0 
L 3144 0 
L 2778 1197 
Q 2638 1659 2453 1815 
Q 2269 1972 1888 1972 
L 1191 1972 
L 806 0 
L 172 0 
L 1081 4666 
L 2503 4666 
Q 3150 4666 3495 4373 
Q 3841 4081 3841 3531 
Q 3841 3044 3547 2687 
Q 3253 2331 2772 2241 
z
" transform="scale(0.015625)"/>
       <path id="DejaVuSans-Oblique-4f" d="M 2919 4238 
Q 2400 4238 2003 3986 
Q 1606 3734 1313 3219 
Q 1125 2891 1026 2522 
Q 928 2153 928 1778 
Q 928 1128 1239 775 
Q 1550 422 2119 422 
Q 2631 422 3032 676 
Q 3434 931 3719 1434 
Q 3909 1772 4009 2142 
Q 4109 2513 4109 2881 
Q 4109 3528 3796 3883 
Q 3484 4238 2919 4238 
z
M 2100 -91 
Q 1241 -91 748 418 
Q 256 928 256 1813 
Q 256 2319 448 2847 
Q 641 3375 978 3788 
Q 1375 4272 1862 4511 
Q 2350 4750 2938 4750 
Q 3794 4750 4287 4245 
Q 4781 3741 4781 2869 
Q 4781 2331 4593 1812 
Q 4406 1294 4056 872 
Q 3656 384 3173 146 
Q 2691 -91 2100 -91 
z
" transform="scale(0.015625)"/>
       <path id="DejaVuSans-Oblique-43" d="M 4447 4306 
L 4319 3641 
Q 4019 3944 3683 4091 
Q 3347 4238 2956 4238 
Q 2422 4238 2017 3981 
Q 1613 3725 1319 3200 
Q 1131 2863 1032 2486 
Q 934 2109 934 1728 
Q 934 1091 1264 756 
Q 1594 422 2222 422 
Q 2656 422 3056 561 
Q 3456 700 3834 978 
L 3688 231 
Q 3316 72 2936 -9 
Q 2556 -91 2175 -91 
Q 1278 -91 773 396 
Q 269 884 269 1753 
Q 269 2309 461 2846 
Q 653 3384 1013 3828 
Q 1394 4300 1883 4525 
Q 2372 4750 3022 4750 
Q 3422 4750 3780 4639 
Q 4138 4528 4447 4306 
z
" transform="scale(0.015625)"/>
       <path id="DejaVuSans-2212" d="M 678 2272 
L 4684 2272 
L 4684 1741 
L 678 1741 
L 678 2272 
z
" transform="scale(0.015625)"/>
       <path id="DejaVuSans-Oblique-41" d="M 2356 4666 
L 3072 4666 
L 3938 0 
L 3278 0 
L 3084 1197 
L 984 1197 
L 325 0 
L -341 0 
L 2356 4666 
z
M 2584 4044 
L 1275 1722 
L 2988 1722 
L 2584 4044 
z
" transform="scale(0.015625)"/>
       <path id="DejaVuSans-Oblique-55" d="M 991 4666 
L 1625 4666 
L 1075 1831 
Q 1041 1641 1027 1517 
Q 1013 1394 1013 1300 
Q 1013 869 1253 645 
Q 1494 422 1959 422 
Q 2563 422 2898 753 
Q 3234 1084 3378 1831 
L 3928 4666 
L 4563 4666 
L 4000 1753 
Q 3816 809 3300 359 
Q 2784 -91 1888 -91 
Q 1188 -91 780 261 
Q 372 613 372 1216 
Q 372 1325 387 1461 
Q 403 1597 434 1753 
L 991 4666 
z
" transform="scale(0.015625)"/>
       <path id="DejaVuSans-Oblique-6f" d="M 1625 -91 
Q 1009 -91 651 289 
Q 294 669 294 1325 
Q 294 1706 417 2101 
Q 541 2497 738 2766 
Q 1047 3184 1428 3384 
Q 1809 3584 2291 3584 
Q 2888 3584 3255 3212 
Q 3622 2841 3622 2241 
Q 3622 1825 3500 1412 
Q 3378 1000 3181 728 
Q 2875 309 2494 109 
Q 2113 -91 1625 -91 
z
M 891 1344 
Q 891 869 1089 633 
Q 1288 397 1691 397 
Q 2269 397 2648 901 
Q 3028 1406 3028 2181 
Q 3028 2634 2825 2865 
Q 2622 3097 2228 3097 
Q 1903 3097 1650 2945 
Q 1397 2794 1197 2484 
Q 1050 2253 970 1956 
Q 891 1659 891 1344 
z
" transform="scale(0.015625)"/>
       <path id="DejaVuSans-Oblique-76" d="M 459 3500 
L 1069 3500 
L 1581 525 
L 3256 3500 
L 3866 3500 
L 1875 0 
L 1100 0 
L 459 3500 
z
" transform="scale(0.015625)"/>
       <path id="DejaVuSans-Oblique-72" d="M 2853 2969 
Q 2766 3016 2653 3041 
Q 2541 3066 2413 3066 
Q 1953 3066 1609 2717 
Q 1266 2369 1153 1784 
L 800 0 
L 225 0 
L 909 3500 
L 1484 3500 
L 1375 2956 
Q 1603 3259 1920 3421 
Q 2238 3584 2597 3584 
Q 2691 3584 2781 3573 
Q 2872 3563 2963 3538 
L 2853 2969 
z
" transform="scale(0.015625)"/>
      </defs>
      <use xlink:href="#DejaVuSans-Oblique-52" transform="translate(0 0.78125)"/>
      <use xlink:href="#DejaVuSans-Oblique-4f" transform="translate(69.482422 0.78125)"/>
      <use xlink:href="#DejaVuSans-Oblique-43" transform="translate(148.193359 0.78125)"/>
      <use xlink:href="#DejaVuSans-2212" transform="translate(221.264324 0.78125)"/>
      <use xlink:href="#DejaVuSans-Oblique-41" transform="translate(308.300132 0.78125)"/>
      <use xlink:href="#DejaVuSans-Oblique-55" transform="translate(376.708335 0.78125)"/>
      <use xlink:href="#DejaVuSans-Oblique-43" transform="translate(449.901694 0.78125)"/>
      <use xlink:href="#DejaVuSans-Oblique-6f" transform="translate(519.725913 -15.625) scale(0.7)"/>
      <use xlink:href="#DejaVuSans-Oblique-76" transform="translate(562.553062 -15.625) scale(0.7)"/>
      <use xlink:href="#DejaVuSans-Oblique-72" transform="translate(603.978843 -15.625) scale(0.7)"/>
     </g>
    </g>
   </g>
   <g id="matplotlib.axis_2">
    <g id="ytick_1">
     <g id="line2d_8">
      <path d="M 74.732051 59.223312 
L 413.22405 59.223312 
" clip-path="url(#p0725fa3cb5)" style="fill: none; stroke: #ffffff; stroke-linecap: round"/>
     </g>
     <g id="text_9">
      <!-- $\frac{I_{2928}}{I_{3351}}$ -->
      <g style="fill: #262626" transform="translate(42.832051 66.783312) scale(0.14 -0.14)">
       <defs>
        <path id="DejaVuSans-Oblique-49" d="M 1081 4666 
L 1716 4666 
L 806 0 
L 172 0 
L 1081 4666 
z
" transform="scale(0.015625)"/>
        <path id="DejaVuSans-32" d="M 1228 531 
L 3431 531 
L 3431 0 
L 469 0 
L 469 531 
Q 828 903 1448 1529 
Q 2069 2156 2228 2338 
Q 2531 2678 2651 2914 
Q 2772 3150 2772 3378 
Q 2772 3750 2511 3984 
Q 2250 4219 1831 4219 
Q 1534 4219 1204 4116 
Q 875 4013 500 3803 
L 500 4441 
Q 881 4594 1212 4672 
Q 1544 4750 1819 4750 
Q 2544 4750 2975 4387 
Q 3406 4025 3406 3419 
Q 3406 3131 3298 2873 
Q 3191 2616 2906 2266 
Q 2828 2175 2409 1742 
Q 1991 1309 1228 531 
z
" transform="scale(0.015625)"/>
        <path id="DejaVuSans-39" d="M 703 97 
L 703 672 
Q 941 559 1184 500 
Q 1428 441 1663 441 
Q 2288 441 2617 861 
Q 2947 1281 2994 2138 
Q 2813 1869 2534 1725 
Q 2256 1581 1919 1581 
Q 1219 1581 811 2004 
Q 403 2428 403 3163 
Q 403 3881 828 4315 
Q 1253 4750 1959 4750 
Q 2769 4750 3195 4129 
Q 3622 3509 3622 2328 
Q 3622 1225 3098 567 
Q 2575 -91 1691 -91 
Q 1453 -91 1209 -44 
Q 966 3 703 97 
z
M 1959 2075 
Q 2384 2075 2632 2365 
Q 2881 2656 2881 3163 
Q 2881 3666 2632 3958 
Q 2384 4250 1959 4250 
Q 1534 4250 1286 3958 
Q 1038 3666 1038 3163 
Q 1038 2656 1286 2365 
Q 1534 2075 1959 2075 
z
" transform="scale(0.015625)"/>
        <path id="DejaVuSans-38" d="M 2034 2216 
Q 1584 2216 1326 1975 
Q 1069 1734 1069 1313 
Q 1069 891 1326 650 
Q 1584 409 2034 409 
Q 2484 409 2743 651 
Q 3003 894 3003 1313 
Q 3003 1734 2745 1975 
Q 2488 2216 2034 2216 
z
M 1403 2484 
Q 997 2584 770 2862 
Q 544 3141 544 3541 
Q 544 4100 942 4425 
Q 1341 4750 2034 4750 
Q 2731 4750 3128 4425 
Q 3525 4100 3525 3541 
Q 3525 3141 3298 2862 
Q 3072 2584 2669 2484 
Q 3125 2378 3379 2068 
Q 3634 1759 3634 1313 
Q 3634 634 3220 271 
Q 2806 -91 2034 -91 
Q 1263 -91 848 271 
Q 434 634 434 1313 
Q 434 1759 690 2068 
Q 947 2378 1403 2484 
z
M 1172 3481 
Q 1172 3119 1398 2916 
Q 1625 2713 2034 2713 
Q 2441 2713 2670 2916 
Q 2900 3119 2900 3481 
Q 2900 3844 2670 4047 
Q 2441 4250 2034 4250 
Q 1625 4250 1398 4047 
Q 1172 3844 1172 3481 
z
" transform="scale(0.015625)"/>
        <path id="DejaVuSans-33" d="M 2597 2516 
Q 3050 2419 3304 2112 
Q 3559 1806 3559 1356 
Q 3559 666 3084 287 
Q 2609 -91 1734 -91 
Q 1441 -91 1130 -33 
Q 819 25 488 141 
L 488 750 
Q 750 597 1062 519 
Q 1375 441 1716 441 
Q 2309 441 2620 675 
Q 2931 909 2931 1356 
Q 2931 1769 2642 2001 
Q 2353 2234 1838 2234 
L 1294 2234 
L 1294 2753 
L 1863 2753 
Q 2328 2753 2575 2939 
Q 2822 3125 2822 3475 
Q 2822 3834 2567 4026 
Q 2313 4219 1838 4219 
Q 1578 4219 1281 4162 
Q 984 4106 628 3988 
L 628 4550 
Q 988 4650 1302 4700 
Q 1616 4750 1894 4750 
Q 2613 4750 3031 4423 
Q 3450 4097 3450 3541 
Q 3450 3153 3228 2886 
Q 3006 2619 2597 2516 
z
" transform="scale(0.015625)"/>
        <path id="DejaVuSans-35" d="M 691 4666 
L 3169 4666 
L 3169 4134 
L 1269 4134 
L 1269 2991 
Q 1406 3038 1543 3061 
Q 1681 3084 1819 3084 
Q 2600 3084 3056 2656 
Q 3513 2228 3513 1497 
Q 3513 744 3044 326 
Q 2575 -91 1722 -91 
Q 1428 -91 1123 -41 
Q 819 9 494 109 
L 494 744 
Q 775 591 1075 516 
Q 1375 441 1709 441 
Q 2250 441 2565 725 
Q 2881 1009 2881 1497 
Q 2881 1984 2565 2268 
Q 2250 2553 1709 2553 
Q 1456 2553 1204 2497 
Q 953 2441 691 2322 
L 691 4666 
z
" transform="scale(0.015625)"/>
        <path id="DejaVuSans-31" d="M 794 531 
L 1825 531 
L 1825 4091 
L 703 3866 
L 703 4441 
L 1819 4666 
L 2450 4666 
L 2450 531 
L 3481 531 
L 3481 0 
L 794 0 
L 794 531 
z
" transform="scale(0.015625)"/>
       </defs>
       <use xlink:href="#DejaVuSans-Oblique-49" transform="translate(1 56.965625) scale(0.7)"/>
       <use xlink:href="#DejaVuSans-32" transform="translate(21.644531 45.48125) scale(0.49)"/>
       <use xlink:href="#DejaVuSans-39" transform="translate(51.962324 45.48125) scale(0.49)"/>
       <use xlink:href="#DejaVuSans-32" transform="translate(82.280117 45.48125) scale(0.49)"/>
       <use xlink:href="#DejaVuSans-38" transform="translate(113.45541 45.48125) scale(0.49)"/>
       <use xlink:href="#DejaVuSans-Oblique-49" transform="translate(0 -37.499844) scale(0.7)"/>
       <use xlink:href="#DejaVuSans-33" transform="translate(20.644531 -48.984219) scale(0.49)"/>
       <use xlink:href="#DejaVuSans-33" transform="translate(51.819824 -48.984219) scale(0.49)"/>
       <use xlink:href="#DejaVuSans-35" transform="translate(82.995117 -48.984219) scale(0.49)"/>
       <use xlink:href="#DejaVuSans-31" transform="translate(114.17041 -48.984219) scale(0.49)"/>
       <path d="M 0 19.784531 
L 0 26.034531 
L 147.259766 26.034531 
L 147.259766 19.784531 
L 0 19.784531 
z
"/>
      </g>
     </g>
    </g>
    <g id="ytick_2">
     <g id="line2d_9">
      <path d="M 74.732051 100.434656 
L 413.22405 100.434656 
" clip-path="url(#p0725fa3cb5)" style="fill: none; stroke: #ffffff; stroke-linecap: round"/>
     </g>
     <g id="text_10">
      <!-- $I_{2928}$ -->
      <g style="fill: #262626" transform="translate(36.112051 105.445125) scale(0.14 -0.14)">
       <use xlink:href="#DejaVuSans-Oblique-49" transform="translate(0 0.09375)"/>
       <use xlink:href="#DejaVuSans-32" transform="translate(29.492188 -16.3125) scale(0.7)"/>
       <use xlink:href="#DejaVuSans-39" transform="translate(72.80332 -16.3125) scale(0.7)"/>
       <use xlink:href="#DejaVuSans-32" transform="translate(116.114453 -16.3125) scale(0.7)"/>
       <use xlink:href="#DejaVuSans-38" transform="translate(160.650586 -16.3125) scale(0.7)"/>
      </g>
     </g>
    </g>
    <g id="ytick_3">
     <g id="line2d_10">
      <path d="M 74.732051 141.646 
L 413.22405 141.646 
" clip-path="url(#p0725fa3cb5)" style="fill: none; stroke: #ffffff; stroke-linecap: round"/>
     </g>
     <g id="text_11">
      <!-- $\log I_{2928}$ -->
      <g style="fill: #262626" transform="translate(12.452051 146.966) scale(0.14 -0.14)">
       <defs>
        <path id="DejaVuSans-6c" d="M 603 4863 
L 1178 4863 
L 1178 0 
L 603 0 
L 603 4863 
z
" transform="scale(0.015625)"/>
        <path id="DejaVuSans-6f" d="M 1959 3097 
Q 1497 3097 1228 2736 
Q 959 2375 959 1747 
Q 959 1119 1226 758 
Q 1494 397 1959 397 
Q 2419 397 2687 759 
Q 2956 1122 2956 1747 
Q 2956 2369 2687 2733 
Q 2419 3097 1959 3097 
z
M 1959 3584 
Q 2709 3584 3137 3096 
Q 3566 2609 3566 1747 
Q 3566 888 3137 398 
Q 2709 -91 1959 -91 
Q 1206 -91 779 398 
Q 353 888 353 1747 
Q 353 2609 779 3096 
Q 1206 3584 1959 3584 
z
" transform="scale(0.015625)"/>
        <path id="DejaVuSans-67" d="M 2906 1791 
Q 2906 2416 2648 2759 
Q 2391 3103 1925 3103 
Q 1463 3103 1205 2759 
Q 947 2416 947 1791 
Q 947 1169 1205 825 
Q 1463 481 1925 481 
Q 2391 481 2648 825 
Q 2906 1169 2906 1791 
z
M 3481 434 
Q 3481 -459 3084 -895 
Q 2688 -1331 1869 -1331 
Q 1566 -1331 1297 -1286 
Q 1028 -1241 775 -1147 
L 775 -588 
Q 1028 -725 1275 -790 
Q 1522 -856 1778 -856 
Q 2344 -856 2625 -561 
Q 2906 -266 2906 331 
L 2906 616 
Q 2728 306 2450 153 
Q 2172 0 1784 0 
Q 1141 0 747 490 
Q 353 981 353 1791 
Q 353 2603 747 3093 
Q 1141 3584 1784 3584 
Q 2172 3584 2450 3431 
Q 2728 3278 2906 2969 
L 2906 3500 
L 3481 3500 
L 3481 434 
z
" transform="scale(0.015625)"/>
       </defs>
       <use xlink:href="#DejaVuSans-6c" transform="translate(0 0.015625)"/>
       <use xlink:href="#DejaVuSans-6f" transform="translate(27.783203 0.015625)"/>
       <use xlink:href="#DejaVuSans-67" transform="translate(88.964844 0.015625)"/>
       <use xlink:href="#DejaVuSans-Oblique-49" transform="translate(168.677083 0.015625)"/>
       <use xlink:href="#DejaVuSans-32" transform="translate(198.16927 -16.390625) scale(0.7)"/>
       <use xlink:href="#DejaVuSans-39" transform="translate(241.480403 -16.390625) scale(0.7)"/>
       <use xlink:href="#DejaVuSans-32" transform="translate(284.791536 -16.390625) scale(0.7)"/>
       <use xlink:href="#DejaVuSans-38" transform="translate(329.327668 -16.390625) scale(0.7)"/>
      </g>
     </g>
    </g>
    <g id="ytick_4">
     <g id="line2d_11">
      <path d="M 74.732051 182.857344 
L 413.22405 182.857344 
" clip-path="url(#p0725fa3cb5)" style="fill: none; stroke: #ffffff; stroke-linecap: round"/>
     </g>
     <g id="text_12">
      <!-- $I_{3351}$ -->
      <g style="fill: #262626" transform="translate(35.692051 187.867813) scale(0.14 -0.14)">
       <use xlink:href="#DejaVuSans-Oblique-49" transform="translate(0 0.09375)"/>
       <use xlink:href="#DejaVuSans-33" transform="translate(29.492188 -16.3125) scale(0.7)"/>
       <use xlink:href="#DejaVuSans-33" transform="translate(74.02832 -16.3125) scale(0.7)"/>
       <use xlink:href="#DejaVuSans-35" transform="translate(118.564453 -16.3125) scale(0.7)"/>
       <use xlink:href="#DejaVuSans-31" transform="translate(163.100586 -16.3125) scale(0.7)"/>
      </g>
     </g>
    </g>
    <g id="ytick_5">
     <g id="line2d_12">
      <path d="M 74.732051 224.068688 
L 413.22405 224.068688 
" clip-path="url(#p0725fa3cb5)" style="fill: none; stroke: #ffffff; stroke-linecap: round"/>
     </g>
     <g id="text_13">
      <!-- $\log I_{3351}$ -->
      <g style="fill: #262626" transform="translate(12.032051 229.388688) scale(0.14 -0.14)">
       <use xlink:href="#DejaVuSans-6c" transform="translate(0 0.015625)"/>
       <use xlink:href="#DejaVuSans-6f" transform="translate(27.783203 0.015625)"/>
       <use xlink:href="#DejaVuSans-67" transform="translate(88.964844 0.015625)"/>
       <use xlink:href="#DejaVuSans-Oblique-49" transform="translate(168.677083 0.015625)"/>
       <use xlink:href="#DejaVuSans-33" transform="translate(198.16927 -16.390625) scale(0.7)"/>
       <use xlink:href="#DejaVuSans-33" transform="translate(242.705403 -16.390625) scale(0.7)"/>
       <use xlink:href="#DejaVuSans-35" transform="translate(287.241536 -16.390625) scale(0.7)"/>
       <use xlink:href="#DejaVuSans-31" transform="translate(331.777668 -16.390625) scale(0.7)"/>
      </g>
     </g>
    </g>
   </g>
   <g id="patch_3">
    <path d="M 74.732051 45.211455 
L 367.976907 45.211455 
L 367.976907 59.223312 
L 74.732051 59.223312 
z
" clip-path="url(#p0725fa3cb5)" style="fill: #08519c; opacity: 0.7; stroke: #ffffff; stroke-linejoin: miter"/>
   </g>
   <g id="patch_4">
    <path d="M 74.732051 86.422799 
L 352.727311 86.422799 
L 352.727311 100.434656 
L 74.732051 100.434656 
z
" clip-path="url(#p0725fa3cb5)" style="fill: #08519c; opacity: 0.7; stroke: #ffffff; stroke-linejoin: miter"/>
   </g>
   <g id="patch_5">
    <path d="M 74.732051 127.634143 
L 351.672132 127.634143 
L 351.672132 141.646 
L 74.732051 141.646 
z
" clip-path="url(#p0725fa3cb5)" style="fill: #08519c; opacity: 0.7; stroke: #ffffff; stroke-linejoin: miter"/>
   </g>
   <g id="patch_6">
    <path d="M 74.732051 168.845487 
L 349.907295 168.845487 
L 349.907295 182.857344 
L 74.732051 182.857344 
z
" clip-path="url(#p0725fa3cb5)" style="fill: #08519c; opacity: 0.7; stroke: #ffffff; stroke-linejoin: miter"/>
   </g>
   <g id="patch_7">
    <path d="M 74.732051 210.056831 
L 350.175944 210.056831 
L 350.175944 224.068688 
L 74.732051 224.068688 
z
" clip-path="url(#p0725fa3cb5)" style="fill: #08519c; opacity: 0.7; stroke: #ffffff; stroke-linejoin: miter"/>
   </g>
   <g id="patch_8">
    <path d="M 74.732051 59.223312 
L 336.183013 59.223312 
L 336.183013 73.235169 
L 74.732051 73.235169 
z
" clip-path="url(#p0725fa3cb5)" style="fill: #1f77b4; opacity: 0.7; stroke: #ffffff; stroke-linejoin: miter"/>
   </g>
   <g id="patch_9">
    <path d="M 74.732051 100.434656 
L 349.063592 100.434656 
L 349.063592 114.446513 
L 74.732051 114.446513 
z
" clip-path="url(#p0725fa3cb5)" style="fill: #1f77b4; opacity: 0.7; stroke: #ffffff; stroke-linejoin: miter"/>
   </g>
   <g id="patch_10">
    <path d="M 74.732051 141.646 
L 346.676081 141.646 
L 346.676081 155.657857 
L 74.732051 155.657857 
z
" clip-path="url(#p0725fa3cb5)" style="fill: #1f77b4; opacity: 0.7; stroke: #ffffff; stroke-linejoin: miter"/>
   </g>
   <g id="patch_11">
    <path d="M 74.732051 182.857344 
L 347.908092 182.857344 
L 347.908092 196.869201 
L 74.732051 196.869201 
z
" clip-path="url(#p0725fa3cb5)" style="fill: #1f77b4; opacity: 0.7; stroke: #ffffff; stroke-linejoin: miter"/>
   </g>
   <g id="patch_12">
    <path d="M 74.732051 224.068688 
L 346.691752 224.068688 
L 346.691752 238.080545 
L 74.732051 238.080545 
z
" clip-path="url(#p0725fa3cb5)" style="fill: #1f77b4; opacity: 0.7; stroke: #ffffff; stroke-linejoin: miter"/>
   </g>
   <g id="LineCollection_1">
    <path d="M 350.232081 52.217383 
L 382.211831 52.217383 
" clip-path="url(#p0725fa3cb5)" style="fill: none; stroke: #1a1a1a; stroke-width: 1.4"/>
    <path d="M 328.30206 93.428727 
L 371.728725 93.428727 
" clip-path="url(#p0725fa3cb5)" style="fill: none; stroke: #1a1a1a; stroke-width: 1.4"/>
    <path d="M 326.921118 134.640071 
L 366.980369 134.640071 
" clip-path="url(#p0725fa3cb5)" style="fill: none; stroke: #1a1a1a; stroke-width: 1.4"/>
    <path d="M 325.257549 175.851416 
L 366.879998 175.851416 
" clip-path="url(#p0725fa3cb5)" style="fill: none; stroke: #1a1a1a; stroke-width: 1.4"/>
    <path d="M 327.046715 217.06276 
L 366.0068 217.06276 
" clip-path="url(#p0725fa3cb5)" style="fill: none; stroke: #1a1a1a; stroke-width: 1.4"/>
   </g>
   <g id="line2d_13">
    <defs>
     <path id="m1312a5312a" d="M 0 3 
L 0 -3 
" style="stroke: #1a1a1a"/>
    </defs>
    <g clip-path="url(#p0725fa3cb5)">
     <use xlink:href="#m1312a5312a" x="350.232081" y="52.217383" style="fill: #1a1a1a; stroke: #1a1a1a"/>
     <use xlink:href="#m1312a5312a" x="328.30206" y="93.428727" style="fill: #1a1a1a; stroke: #1a1a1a"/>
     <use xlink:href="#m1312a5312a" x="326.921118" y="134.640071" style="fill: #1a1a1a; stroke: #1a1a1a"/>
     <use xlink:href="#m1312a5312a" x="325.257549" y="175.851416" style="fill: #1a1a1a; stroke: #1a1a1a"/>
     <use xlink:href="#m1312a5312a" x="327.046715" y="217.06276" style="fill: #1a1a1a; stroke: #1a1a1a"/>
    </g>
   </g>
   <g id="line2d_14">
    <g clip-path="url(#p0725fa3cb5)">
     <use xlink:href="#m1312a5312a" x="382.211831" y="52.217383" style="fill: #1a1a1a; stroke: #1a1a1a"/>
     <use xlink:href="#m1312a5312a" x="371.728725" y="93.428727" style="fill: #1a1a1a; stroke: #1a1a1a"/>
     <use xlink:href="#m1312a5312a" x="366.980369" y="134.640071" style="fill: #1a1a1a; stroke: #1a1a1a"/>
     <use xlink:href="#m1312a5312a" x="366.879998" y="175.851416" style="fill: #1a1a1a; stroke: #1a1a1a"/>
     <use xlink:href="#m1312a5312a" x="366.0068" y="217.06276" style="fill: #1a1a1a; stroke: #1a1a1a"/>
    </g>
   </g>
   <g id="LineCollection_2">
    <path d="M 317.87338 66.22924 
L 345.101613 66.22924 
" clip-path="url(#p0725fa3cb5)" style="fill: none; stroke: #1a1a1a; stroke-width: 1.4"/>
    <path d="M 334.878639 107.440584 
L 357.131354 107.440584 
" clip-path="url(#p0725fa3cb5)" style="fill: none; stroke: #1a1a1a; stroke-width: 1.4"/>
    <path d="M 332.057872 148.651929 
L 357.131354 148.651929 
" clip-path="url(#p0725fa3cb5)" style="fill: none; stroke: #1a1a1a; stroke-width: 1.4"/>
    <path d="M 332.196145 189.863273 
L 358.836719 189.863273 
" clip-path="url(#p0725fa3cb5)" style="fill: none; stroke: #1a1a1a; stroke-width: 1.4"/>
    <path d="M 331.176383 231.074617 
L 358.053173 231.074617 
" clip-path="url(#p0725fa3cb5)" style="fill: none; stroke: #1a1a1a; stroke-width: 1.4"/>
   </g>
   <g id="line2d_15">
    <g clip-path="url(#p0725fa3cb5)">
     <use xlink:href="#m1312a5312a" x="317.87338" y="66.22924" style="fill: #1a1a1a; stroke: #1a1a1a"/>
     <use xlink:href="#m1312a5312a" x="334.878639" y="107.440584" style="fill: #1a1a1a; stroke: #1a1a1a"/>
     <use xlink:href="#m1312a5312a" x="332.057872" y="148.651929" style="fill: #1a1a1a; stroke: #1a1a1a"/>
     <use xlink:href="#m1312a5312a" x="332.196145" y="189.863273" style="fill: #1a1a1a; stroke: #1a1a1a"/>
     <use xlink:href="#m1312a5312a" x="331.176383" y="231.074617" style="fill: #1a1a1a; stroke: #1a1a1a"/>
    </g>
   </g>
   <g id="line2d_16">
    <g clip-path="url(#p0725fa3cb5)">
     <use xlink:href="#m1312a5312a" x="345.101613" y="66.22924" style="fill: #1a1a1a; stroke: #1a1a1a"/>
     <use xlink:href="#m1312a5312a" x="357.131354" y="107.440584" style="fill: #1a1a1a; stroke: #1a1a1a"/>
     <use xlink:href="#m1312a5312a" x="357.131354" y="148.651929" style="fill: #1a1a1a; stroke: #1a1a1a"/>
     <use xlink:href="#m1312a5312a" x="358.836719" y="189.863273" style="fill: #1a1a1a; stroke: #1a1a1a"/>
     <use xlink:href="#m1312a5312a" x="358.053173" y="231.074617" style="fill: #1a1a1a; stroke: #1a1a1a"/>
    </g>
   </g>
   <g id="patch_13">
    <path d="M 74.732051 247.724 
L 74.732051 35.568 
" style="fill: none; stroke: #ffffff; stroke-width: 1.25; stroke-linejoin: miter; stroke-linecap: square"/>
   </g>
   <g id="patch_14">
    <path d="M 413.22405 247.724 
L 413.22405 35.568 
" style="fill: none; stroke: #ffffff; stroke-width: 1.25; stroke-linejoin: miter; stroke-linecap: square"/>
   </g>
   <g id="patch_15">
    <path d="M 74.732051 247.724 
L 413.22405 247.724 
" style="fill: none; stroke: #ffffff; stroke-width: 1.25; stroke-linejoin: miter; stroke-linecap: square"/>
   </g>
   <g id="patch_16">
    <path d="M 74.732051 35.568 
L 413.22405 35.568 
" style="fill: none; stroke: #ffffff; stroke-width: 1.25; stroke-linejoin: miter; stroke-linecap: square"/>
   </g>
   <g id="text_14">
    <!-- Peak-based | 3800–2500 cm$^{-1}$ -->
    <g style="fill: #262626" transform="translate(119.868051 29.568) scale(0.18 -0.18)">
     <defs>
      <path id="ArialMT-50" d="M 494 0 
L 494 4581 
L 2222 4581 
Q 2678 4581 2919 4538 
Q 3256 4481 3484 4323 
Q 3713 4166 3852 3881 
Q 3991 3597 3991 3256 
Q 3991 2672 3619 2267 
Q 3247 1863 2275 1863 
L 1100 1863 
L 1100 0 
L 494 0 
z
M 1100 2403 
L 2284 2403 
Q 2872 2403 3119 2622 
Q 3366 2841 3366 3238 
Q 3366 3525 3220 3729 
Q 3075 3934 2838 4000 
Q 2684 4041 2272 4041 
L 1100 4041 
L 1100 2403 
z
" transform="scale(0.015625)"/>
      <path id="ArialMT-65" d="M 2694 1069 
L 3275 997 
Q 3138 488 2766 206 
Q 2394 -75 1816 -75 
Q 1088 -75 661 373 
Q 234 822 234 1631 
Q 234 2469 665 2931 
Q 1097 3394 1784 3394 
Q 2450 3394 2872 2941 
Q 3294 2488 3294 1666 
Q 3294 1616 3291 1516 
L 816 1516 
Q 847 969 1125 678 
Q 1403 388 1819 388 
Q 2128 388 2347 550 
Q 2566 713 2694 1069 
z
M 847 1978 
L 2700 1978 
Q 2663 2397 2488 2606 
Q 2219 2931 1791 2931 
Q 1403 2931 1139 2672 
Q 875 2413 847 1978 
z
" transform="scale(0.015625)"/>
      <path id="ArialMT-61" d="M 2588 409 
Q 2275 144 1986 34 
Q 1697 -75 1366 -75 
Q 819 -75 525 192 
Q 231 459 231 875 
Q 231 1119 342 1320 
Q 453 1522 633 1644 
Q 813 1766 1038 1828 
Q 1203 1872 1538 1913 
Q 2219 1994 2541 2106 
Q 2544 2222 2544 2253 
Q 2544 2597 2384 2738 
Q 2169 2928 1744 2928 
Q 1347 2928 1158 2789 
Q 969 2650 878 2297 
L 328 2372 
Q 403 2725 575 2942 
Q 747 3159 1072 3276 
Q 1397 3394 1825 3394 
Q 2250 3394 2515 3294 
Q 2781 3194 2906 3042 
Q 3031 2891 3081 2659 
Q 3109 2516 3109 2141 
L 3109 1391 
Q 3109 606 3145 398 
Q 3181 191 3288 0 
L 2700 0 
Q 2613 175 2588 409 
z
M 2541 1666 
Q 2234 1541 1622 1453 
Q 1275 1403 1131 1340 
Q 988 1278 909 1158 
Q 831 1038 831 891 
Q 831 666 1001 516 
Q 1172 366 1500 366 
Q 1825 366 2078 508 
Q 2331 650 2450 897 
Q 2541 1088 2541 1459 
L 2541 1666 
z
" transform="scale(0.015625)"/>
      <path id="ArialMT-6b" d="M 425 0 
L 425 4581 
L 988 4581 
L 988 1969 
L 2319 3319 
L 3047 3319 
L 1778 2088 
L 3175 0 
L 2481 0 
L 1384 1697 
L 988 1316 
L 988 0 
L 425 0 
z
" transform="scale(0.015625)"/>
      <path id="ArialMT-2d" d="M 203 1375 
L 203 1941 
L 1931 1941 
L 1931 1375 
L 203 1375 
z
" transform="scale(0.015625)"/>
      <path id="ArialMT-62" d="M 941 0 
L 419 0 
L 419 4581 
L 981 4581 
L 981 2947 
Q 1338 3394 1891 3394 
Q 2197 3394 2470 3270 
Q 2744 3147 2920 2923 
Q 3097 2700 3197 2384 
Q 3297 2069 3297 1709 
Q 3297 856 2875 390 
Q 2453 -75 1863 -75 
Q 1275 -75 941 416 
L 941 0 
z
M 934 1684 
Q 934 1088 1097 822 
Q 1363 388 1816 388 
Q 2184 388 2453 708 
Q 2722 1028 2722 1663 
Q 2722 2313 2464 2622 
Q 2206 2931 1841 2931 
Q 1472 2931 1203 2611 
Q 934 2291 934 1684 
z
" transform="scale(0.015625)"/>
      <path id="ArialMT-73" d="M 197 991 
L 753 1078 
Q 800 744 1014 566 
Q 1228 388 1613 388 
Q 2000 388 2187 545 
Q 2375 703 2375 916 
Q 2375 1106 2209 1216 
Q 2094 1291 1634 1406 
Q 1016 1563 777 1677 
Q 538 1791 414 1992 
Q 291 2194 291 2438 
Q 291 2659 392 2848 
Q 494 3038 669 3163 
Q 800 3259 1026 3326 
Q 1253 3394 1513 3394 
Q 1903 3394 2198 3281 
Q 2494 3169 2634 2976 
Q 2775 2784 2828 2463 
L 2278 2388 
Q 2241 2644 2061 2787 
Q 1881 2931 1553 2931 
Q 1166 2931 1000 2803 
Q 834 2675 834 2503 
Q 834 2394 903 2306 
Q 972 2216 1119 2156 
Q 1203 2125 1616 2013 
Q 2213 1853 2448 1751 
Q 2684 1650 2818 1456 
Q 2953 1263 2953 975 
Q 2953 694 2789 445 
Q 2625 197 2315 61 
Q 2006 -75 1616 -75 
Q 969 -75 630 194 
Q 291 463 197 991 
z
" transform="scale(0.015625)"/>
      <path id="ArialMT-64" d="M 2575 0 
L 2575 419 
Q 2259 -75 1647 -75 
Q 1250 -75 917 144 
Q 584 363 401 755 
Q 219 1147 219 1656 
Q 219 2153 384 2558 
Q 550 2963 881 3178 
Q 1213 3394 1622 3394 
Q 1922 3394 2156 3267 
Q 2391 3141 2538 2938 
L 2538 4581 
L 3097 4581 
L 3097 0 
L 2575 0 
z
M 797 1656 
Q 797 1019 1065 703 
Q 1334 388 1700 388 
Q 2069 388 2326 689 
Q 2584 991 2584 1609 
Q 2584 2291 2321 2609 
Q 2059 2928 1675 2928 
Q 1300 2928 1048 2622 
Q 797 2316 797 1656 
z
" transform="scale(0.015625)"/>
      <path id="ArialMT-20" transform="scale(0.015625)"/>
      <path id="ArialMT-7c" d="M 588 -1347 
L 588 4659 
L 1078 4659 
L 1078 -1347 
L 588 -1347 
z
" transform="scale(0.015625)"/>
      <path id="ArialMT-38" d="M 1131 2484 
Q 781 2613 612 2850 
Q 444 3088 444 3419 
Q 444 3919 803 4259 
Q 1163 4600 1759 4600 
Q 2359 4600 2725 4251 
Q 3091 3903 3091 3403 
Q 3091 3084 2923 2848 
Q 2756 2613 2416 2484 
Q 2838 2347 3058 2040 
Q 3278 1734 3278 1309 
Q 3278 722 2862 322 
Q 2447 -78 1769 -78 
Q 1091 -78 675 323 
Q 259 725 259 1325 
Q 259 1772 486 2073 
Q 713 2375 1131 2484 
z
M 1019 3438 
Q 1019 3113 1228 2906 
Q 1438 2700 1772 2700 
Q 2097 2700 2305 2904 
Q 2513 3109 2513 3406 
Q 2513 3716 2298 3927 
Q 2084 4138 1766 4138 
Q 1444 4138 1231 3931 
Q 1019 3725 1019 3438 
z
M 838 1322 
Q 838 1081 952 856 
Q 1066 631 1291 507 
Q 1516 384 1775 384 
Q 2178 384 2440 643 
Q 2703 903 2703 1303 
Q 2703 1709 2433 1975 
Q 2163 2241 1756 2241 
Q 1359 2241 1098 1978 
Q 838 1716 838 1322 
z
" transform="scale(0.015625)"/>
      <path id="DejaVuSansDisplay-2013" d="M 313 1978 
L 2888 1978 
L 2888 1528 
L 313 1528 
L 313 1978 
z
" transform="scale(0.015625)"/>
      <path id="ArialMT-32" d="M 3222 541 
L 3222 0 
L 194 0 
Q 188 203 259 391 
Q 375 700 629 1000 
Q 884 1300 1366 1694 
Q 2113 2306 2375 2664 
Q 2638 3022 2638 3341 
Q 2638 3675 2398 3904 
Q 2159 4134 1775 4134 
Q 1369 4134 1125 3890 
Q 881 3647 878 3216 
L 300 3275 
Q 359 3922 746 4261 
Q 1134 4600 1788 4600 
Q 2447 4600 2831 4234 
Q 3216 3869 3216 3328 
Q 3216 3053 3103 2787 
Q 2991 2522 2730 2228 
Q 2469 1934 1863 1422 
Q 1356 997 1212 845 
Q 1069 694 975 541 
L 3222 541 
z
" transform="scale(0.015625)"/>
      <path id="ArialMT-63" d="M 2588 1216 
L 3141 1144 
Q 3050 572 2676 248 
Q 2303 -75 1759 -75 
Q 1078 -75 664 370 
Q 250 816 250 1647 
Q 250 2184 428 2587 
Q 606 2991 970 3192 
Q 1334 3394 1763 3394 
Q 2303 3394 2647 3120 
Q 2991 2847 3088 2344 
L 2541 2259 
Q 2463 2594 2264 2762 
Q 2066 2931 1784 2931 
Q 1359 2931 1093 2626 
Q 828 2322 828 1663 
Q 828 994 1084 691 
Q 1341 388 1753 388 
Q 2084 388 2306 591 
Q 2528 794 2588 1216 
z
" transform="scale(0.015625)"/>
      <path id="ArialMT-6d" d="M 422 0 
L 422 3319 
L 925 3319 
L 925 2853 
Q 1081 3097 1340 3245 
Q 1600 3394 1931 3394 
Q 2300 3394 2536 3241 
Q 2772 3088 2869 2813 
Q 3263 3394 3894 3394 
Q 4388 3394 4653 3120 
Q 4919 2847 4919 2278 
L 4919 0 
L 4359 0 
L 4359 2091 
Q 4359 2428 4304 2576 
Q 4250 2725 4106 2815 
Q 3963 2906 3769 2906 
Q 3419 2906 3187 2673 
Q 2956 2441 2956 1928 
L 2956 0 
L 2394 0 
L 2394 2156 
Q 2394 2531 2256 2718 
Q 2119 2906 1806 2906 
Q 1569 2906 1367 2781 
Q 1166 2656 1075 2415 
Q 984 2175 984 1722 
L 984 0 
L 422 0 
z
" transform="scale(0.015625)"/>
     </defs>
     <use xlink:href="#ArialMT-50" transform="translate(0 0.684375)"/>
     <use xlink:href="#ArialMT-65" transform="translate(66.699219 0.684375)"/>
     <use xlink:href="#ArialMT-61" transform="translate(122.314453 0.684375)"/>
     <use xlink:href="#ArialMT-6b" transform="translate(177.929688 0.684375)"/>
     <use xlink:href="#ArialMT-2d" transform="translate(227.929688 0.684375)"/>
     <use xlink:href="#ArialMT-62" transform="translate(261.230469 0.684375)"/>
     <use xlink:href="#ArialMT-61" transform="translate(316.845703 0.684375)"/>
     <use xlink:href="#ArialMT-73" transform="translate(372.460938 0.684375)"/>
     <use xlink:href="#ArialMT-65" transform="translate(422.460938 0.684375)"/>
     <use xlink:href="#ArialMT-64" transform="translate(478.076172 0.684375)"/>
     <use xlink:href="#ArialMT-20" transform="translate(533.691406 0.684375)"/>
     <use xlink:href="#ArialMT-7c" transform="translate(561.474609 0.684375)"/>
     <use xlink:href="#ArialMT-20" transform="translate(587.451172 0.684375)"/>
     <use xlink:href="#ArialMT-33" transform="translate(615.234375 0.684375)"/>
     <use xlink:href="#ArialMT-38" transform="translate(670.849609 0.684375)"/>
     <use xlink:href="#ArialMT-30" transform="translate(726.464844 0.684375)"/>
     <use xlink:href="#ArialMT-30" transform="translate(782.080078 0.684375)"/>
     <use xlink:href="#DejaVuSansDisplay-2013" transform="translate(837.695312 0.684375)"/>
     <use xlink:href="#ArialMT-32" transform="translate(887.695312 0.684375)"/>
     <use xlink:href="#ArialMT-35" transform="translate(943.310547 0.684375)"/>
     <use xlink:href="#ArialMT-30" transform="translate(998.925781 0.684375)"/>
     <use xlink:href="#ArialMT-30" transform="translate(1054.541016 0.684375)"/>
     <use xlink:href="#ArialMT-20" transform="translate(1110.15625 0.684375)"/>
     <use xlink:href="#ArialMT-63" transform="translate(1137.939453 0.684375)"/>
     <use xlink:href="#ArialMT-6d" transform="translate(1187.939453 0.684375)"/>
     <use xlink:href="#DejaVuSans-2212" transform="translate(1272.197266 38.965625) scale(0.7)"/>
     <use xlink:href="#DejaVuSans-31" transform="translate(1330.849609 38.965625) scale(0.7)"/>
    </g>
   </g>
   <g id="legend_1">
    <g id="patch_17">
     <path d="M 83.132051 79.11675 
L 148.419551 79.11675 
Q 150.819551 79.11675 150.819551 76.71675 
L 150.819551 43.968 
Q 150.819551 41.568 148.419551 41.568 
L 83.132051 41.568 
Q 80.732051 41.568 80.732051 43.968 
L 80.732051 76.71675 
Q 80.732051 79.11675 83.132051 79.11675 
z
" style="fill: #eaeaf2; opacity: 0.8; stroke: #cccccc; stroke-linejoin: miter"/>
    </g>
    <g id="patch_18">
     <path d="M 85.532051 54.957375 
L 109.532051 54.957375 
L 109.532051 46.557375 
L 85.532051 46.557375 
z
" style="fill: #08519c; opacity: 0.7; stroke: #ffffff; stroke-linejoin: miter"/>
    </g>
    <g id="text_15">
     <!-- Train -->
     <g style="fill: #262626" transform="translate(119.132051 54.957375) scale(0.12 -0.12)">
      <defs>
       <path id="ArialMT-54" d="M 1659 0 
L 1659 4041 
L 150 4041 
L 150 4581 
L 3781 4581 
L 3781 4041 
L 2266 4041 
L 2266 0 
L 1659 0 
z
" transform="scale(0.015625)"/>
       <path id="ArialMT-72" d="M 416 0 
L 416 3319 
L 922 3319 
L 922 2816 
Q 1116 3169 1280 3281 
Q 1444 3394 1641 3394 
Q 1925 3394 2219 3213 
L 2025 2691 
Q 1819 2813 1613 2813 
Q 1428 2813 1281 2702 
Q 1134 2591 1072 2394 
Q 978 2094 978 1738 
L 978 0 
L 416 0 
z
" transform="scale(0.015625)"/>
       <path id="ArialMT-69" d="M 425 3934 
L 425 4581 
L 988 4581 
L 988 3934 
L 425 3934 
z
M 425 0 
L 425 3319 
L 988 3319 
L 988 0 
L 425 0 
z
" transform="scale(0.015625)"/>
       <path id="ArialMT-6e" d="M 422 0 
L 422 3319 
L 928 3319 
L 928 2847 
Q 1294 3394 1984 3394 
Q 2284 3394 2536 3286 
Q 2788 3178 2913 3003 
Q 3038 2828 3088 2588 
Q 3119 2431 3119 2041 
L 3119 0 
L 2556 0 
L 2556 2019 
Q 2556 2363 2490 2533 
Q 2425 2703 2258 2804 
Q 2091 2906 1866 2906 
Q 1506 2906 1245 2678 
Q 984 2450 984 1813 
L 984 0 
L 422 0 
z
" transform="scale(0.015625)"/>
      </defs>
      <use xlink:href="#ArialMT-54"/>
      <use xlink:href="#ArialMT-72" transform="translate(57.333984 0)"/>
      <use xlink:href="#ArialMT-61" transform="translate(90.634766 0)"/>
      <use xlink:href="#ArialMT-69" transform="translate(146.25 0)"/>
      <use xlink:href="#ArialMT-6e" transform="translate(168.466797 0)"/>
     </g>
    </g>
    <g id="patch_19">
     <path d="M 85.532051 71.93175 
L 109.532051 71.93175 
L 109.532051 63.53175 
L 85.532051 63.53175 
z
" style="fill: #1f77b4; opacity: 0.7; stroke: #ffffff; stroke-linejoin: miter"/>
    </g>
    <g id="text_16">
     <!-- Test -->
     <g style="fill: #262626" transform="translate(119.132051 71.93175) scale(0.12 -0.12)">
      <defs>
       <path id="ArialMT-74" d="M 1650 503 
L 1731 6 
Q 1494 -44 1306 -44 
Q 1000 -44 831 53 
Q 663 150 594 308 
Q 525 466 525 972 
L 525 2881 
L 113 2881 
L 113 3319 
L 525 3319 
L 525 4141 
L 1084 4478 
L 1084 3319 
L 1650 3319 
L 1650 2881 
L 1084 2881 
L 1084 941 
Q 1084 700 1114 631 
Q 1144 563 1211 522 
Q 1278 481 1403 481 
Q 1497 481 1650 503 
z
" transform="scale(0.015625)"/>
      </defs>
      <use xlink:href="#ArialMT-54"/>
      <use xlink:href="#ArialMT-65" transform="translate(49.958984 0)"/>
      <use xlink:href="#ArialMT-73" transform="translate(105.574219 0)"/>
      <use xlink:href="#ArialMT-74" transform="translate(155.574219 0)"/>
     </g>
    </g>
   </g>
  </g>
  <g id="axes_2">
   <g id="patch_20">
    <path d="M 512.548001 247.724 
L 851.04 247.724 
L 851.04 35.568 
L 512.548001 35.568 
z
" style="fill: #eaeaf2"/>
   </g>
   <g id="matplotlib.axis_3">
    <g id="xtick_8">
     <g id="line2d_17">
      <path d="M 512.548001 247.724 
L 512.548001 35.568 
" clip-path="url(#p33677aae9d)" style="fill: none; stroke: #ffffff; stroke-linecap: round"/>
     </g>
     <g id="text_17">
      <!-- 0.00 -->
      <g style="fill: #262626" transform="translate(501.844486 265.097594) scale(0.11 -0.11)">
       <use xlink:href="#ArialMT-30"/>
       <use xlink:href="#ArialMT-2e" transform="translate(55.615234 0)"/>
       <use xlink:href="#ArialMT-30" transform="translate(83.398438 0)"/>
       <use xlink:href="#ArialMT-30" transform="translate(139.013672 0)"/>
      </g>
     </g>
    </g>
    <g id="xtick_9">
     <g id="line2d_18">
      <path d="M 563.321801 247.724 
L 563.321801 35.568 
" clip-path="url(#p33677aae9d)" style="fill: none; stroke: #ffffff; stroke-linecap: round"/>
     </g>
     <g id="text_18">
      <!-- 0.15 -->
      <g style="fill: #262626" transform="translate(552.618286 265.097594) scale(0.11 -0.11)">
       <use xlink:href="#ArialMT-30"/>
       <use xlink:href="#ArialMT-2e" transform="translate(55.615234 0)"/>
       <use xlink:href="#ArialMT-31" transform="translate(83.398438 0)"/>
       <use xlink:href="#ArialMT-35" transform="translate(139.013672 0)"/>
      </g>
     </g>
    </g>
    <g id="xtick_10">
     <g id="line2d_19">
      <path d="M 614.095601 247.724 
L 614.095601 35.568 
" clip-path="url(#p33677aae9d)" style="fill: none; stroke: #ffffff; stroke-linecap: round"/>
     </g>
     <g id="text_19">
      <!-- 0.30 -->
      <g style="fill: #262626" transform="translate(603.392085 265.097594) scale(0.11 -0.11)">
       <use xlink:href="#ArialMT-30"/>
       <use xlink:href="#ArialMT-2e" transform="translate(55.615234 0)"/>
       <use xlink:href="#ArialMT-33" transform="translate(83.398438 0)"/>
       <use xlink:href="#ArialMT-30" transform="translate(139.013672 0)"/>
      </g>
     </g>
    </g>
    <g id="xtick_11">
     <g id="line2d_20">
      <path d="M 664.869401 247.724 
L 664.869401 35.568 
" clip-path="url(#p33677aae9d)" style="fill: none; stroke: #ffffff; stroke-linecap: round"/>
     </g>
     <g id="text_20">
      <!-- 0.45 -->
      <g style="fill: #262626" transform="translate(654.165885 265.097594) scale(0.11 -0.11)">
       <use xlink:href="#ArialMT-30"/>
       <use xlink:href="#ArialMT-2e" transform="translate(55.615234 0)"/>
       <use xlink:href="#ArialMT-34" transform="translate(83.398438 0)"/>
       <use xlink:href="#ArialMT-35" transform="translate(139.013672 0)"/>
      </g>
     </g>
    </g>
    <g id="xtick_12">
     <g id="line2d_21">
      <path d="M 715.643201 247.724 
L 715.643201 35.568 
" clip-path="url(#p33677aae9d)" style="fill: none; stroke: #ffffff; stroke-linecap: round"/>
     </g>
     <g id="text_21">
      <!-- 0.60 -->
      <g style="fill: #262626" transform="translate(704.939685 265.097594) scale(0.11 -0.11)">
       <use xlink:href="#ArialMT-30"/>
       <use xlink:href="#ArialMT-2e" transform="translate(55.615234 0)"/>
       <use xlink:href="#ArialMT-36" transform="translate(83.398438 0)"/>
       <use xlink:href="#ArialMT-30" transform="translate(139.013672 0)"/>
      </g>
     </g>
    </g>
    <g id="xtick_13">
     <g id="line2d_22">
      <path d="M 766.417 247.724 
L 766.417 35.568 
" clip-path="url(#p33677aae9d)" style="fill: none; stroke: #ffffff; stroke-linecap: round"/>
     </g>
     <g id="text_22">
      <!-- 0.75 -->
      <g style="fill: #262626" transform="translate(755.713485 265.097594) scale(0.11 -0.11)">
       <use xlink:href="#ArialMT-30"/>
       <use xlink:href="#ArialMT-2e" transform="translate(55.615234 0)"/>
       <use xlink:href="#ArialMT-37" transform="translate(83.398438 0)"/>
       <use xlink:href="#ArialMT-35" transform="translate(139.013672 0)"/>
      </g>
     </g>
    </g>
    <g id="xtick_14">
     <g id="line2d_23">
      <path d="M 817.1908 247.724 
L 817.1908 35.568 
" clip-path="url(#p33677aae9d)" style="fill: none; stroke: #ffffff; stroke-linecap: round"/>
     </g>
     <g id="text_23">
      <!-- 0.90 -->
      <g style="fill: #262626" transform="translate(806.487285 265.097594) scale(0.11 -0.11)">
       <use xlink:href="#ArialMT-30"/>
       <use xlink:href="#ArialMT-2e" transform="translate(55.615234 0)"/>
       <use xlink:href="#ArialMT-39" transform="translate(83.398438 0)"/>
       <use xlink:href="#ArialMT-30" transform="translate(139.013672 0)"/>
      </g>
     </g>
    </g>
    <g id="text_24">
     <!-- $ROC\!-\!AUC_{ovr}$ -->
     <g style="fill: #262626" transform="translate(637.274001 285.521344) scale(0.14 -0.14)">
      <use xlink:href="#DejaVuSans-Oblique-52" transform="translate(0 0.78125)"/>
      <use xlink:href="#DejaVuSans-Oblique-4f" transform="translate(69.482422 0.78125)"/>
      <use xlink:href="#DejaVuSans-Oblique-43" transform="translate(148.193359 0.78125)"/>
      <use xlink:href="#DejaVuSans-2212" transform="translate(221.264324 0.78125)"/>
      <use xlink:href="#DejaVuSans-Oblique-41" transform="translate(308.300132 0.78125)"/>
      <use xlink:href="#DejaVuSans-Oblique-55" transform="translate(376.708335 0.78125)"/>
      <use xlink:href="#DejaVuSans-Oblique-43" transform="translate(449.901694 0.78125)"/>
      <use xlink:href="#DejaVuSans-Oblique-6f" transform="translate(519.725913 -15.625) scale(0.7)"/>
      <use xlink:href="#DejaVuSans-Oblique-76" transform="translate(562.553062 -15.625) scale(0.7)"/>
      <use xlink:href="#DejaVuSans-Oblique-72" transform="translate(603.978843 -15.625) scale(0.7)"/>
     </g>
    </g>
   </g>
   <g id="matplotlib.axis_4">
    <g id="ytick_6">
     <g id="line2d_24">
      <path d="M 512.548001 59.223312 
L 851.04 59.223312 
" clip-path="url(#p33677aae9d)" style="fill: none; stroke: #ffffff; stroke-linecap: round"/>
     </g>
     <g id="text_25">
      <!-- $\frac{I_{2928}}{\Sigma I_{p,\ 3800\text{–}2500}}$ -->
      <g style="fill: #262626" transform="translate(443.408001 66.783312) scale(0.14 -0.14)">
       <defs>
        <path id="DejaVuSans-3a3" d="M 1353 531 
L 3634 531 
L 3634 0 
L 628 0 
L 628 531 
L 2125 2481 
L 628 4134 
L 628 4666 
L 3578 4666 
L 3578 4134 
L 1353 4134 
L 2850 2494 
L 1353 531 
z
" transform="scale(0.015625)"/>
        <path id="DejaVuSans-Oblique-70" d="M 3175 2156 
Q 3175 2616 2975 2859 
Q 2775 3103 2400 3103 
Q 2144 3103 1911 2972 
Q 1678 2841 1497 2591 
Q 1319 2344 1212 1994 
Q 1106 1644 1106 1300 
Q 1106 863 1306 627 
Q 1506 391 1875 391 
Q 2147 391 2380 519 
Q 2613 647 2778 891 
Q 2956 1147 3065 1494 
Q 3175 1841 3175 2156 
z
M 1394 2969 
Q 1625 3272 1939 3428 
Q 2253 3584 2638 3584 
Q 3175 3584 3472 3232 
Q 3769 2881 3769 2247 
Q 3769 1728 3584 1258 
Q 3400 788 3053 416 
Q 2822 169 2531 39 
Q 2241 -91 1919 -91 
Q 1547 -91 1294 64 
Q 1041 219 916 525 
L 556 -1331 
L -19 -1331 
L 922 3500 
L 1497 3500 
L 1394 2969 
z
" transform="scale(0.015625)"/>
        <path id="DejaVuSans-2c" d="M 750 794 
L 1409 794 
L 1409 256 
L 897 -744 
L 494 -744 
L 750 256 
L 750 794 
z
" transform="scale(0.015625)"/>
        <path id="DejaVuSans-30" d="M 2034 4250 
Q 1547 4250 1301 3770 
Q 1056 3291 1056 2328 
Q 1056 1369 1301 889 
Q 1547 409 2034 409 
Q 2525 409 2770 889 
Q 3016 1369 3016 2328 
Q 3016 3291 2770 3770 
Q 2525 4250 2034 4250 
z
M 2034 4750 
Q 2819 4750 3233 4129 
Q 3647 3509 3647 2328 
Q 3647 1150 3233 529 
Q 2819 -91 2034 -91 
Q 1250 -91 836 529 
Q 422 1150 422 2328 
Q 422 3509 836 4129 
Q 1250 4750 2034 4750 
z
" transform="scale(0.015625)"/>
       </defs>
       <use xlink:href="#DejaVuSans-Oblique-49" transform="translate(134 56.965625) scale(0.7)"/>
       <use xlink:href="#DejaVuSans-32" transform="translate(154.644531 45.48125) scale(0.49)"/>
       <use xlink:href="#DejaVuSans-39" transform="translate(184.962324 45.48125) scale(0.49)"/>
       <use xlink:href="#DejaVuSans-32" transform="translate(215.280117 45.48125) scale(0.49)"/>
       <use xlink:href="#DejaVuSans-38" transform="translate(246.45541 45.48125) scale(0.49)"/>
       <use xlink:href="#DejaVuSans-3a3" transform="translate(0 -37.499844) scale(0.7)"/>
       <use xlink:href="#DejaVuSans-Oblique-49" transform="translate(44.228516 -37.499844) scale(0.7)"/>
       <use xlink:href="#DejaVuSans-Oblique-70" transform="translate(64.873047 -48.984219) scale(0.49)"/>
       <use xlink:href="#DejaVuSans-2c" transform="translate(95.976562 -48.984219) scale(0.49)"/>
       <use xlink:href="#DejaVuSans-33" transform="translate(137.009118 -48.984219) scale(0.49)"/>
       <use xlink:href="#DejaVuSans-38" transform="translate(168.184411 -48.984219) scale(0.49)"/>
       <use xlink:href="#DejaVuSans-30" transform="translate(199.359704 -48.984219) scale(0.49)"/>
       <use xlink:href="#DejaVuSans-30" transform="translate(230.534997 -48.984219) scale(0.49)"/>
       <use xlink:href="#DejaVuSansDisplay-2013" transform="translate(261.71029 -48.984219) scale(0.49)"/>
       <use xlink:href="#DejaVuSans-32" transform="translate(286.21029 -48.984219) scale(0.49)"/>
       <use xlink:href="#DejaVuSans-35" transform="translate(317.385583 -48.984219) scale(0.49)"/>
       <use xlink:href="#DejaVuSans-30" transform="translate(348.560876 -48.984219) scale(0.49)"/>
       <use xlink:href="#DejaVuSans-30" transform="translate(379.736169 -48.984219) scale(0.49)"/>
       <path d="M 0 19.784531 
L 0 26.034531 
L 412.825524 26.034531 
L 412.825524 19.784531 
L 0 19.784531 
z
"/>
      </g>
     </g>
    </g>
    <g id="ytick_7">
     <g id="line2d_25">
      <path d="M 512.548001 100.434656 
L 851.04 100.434656 
" clip-path="url(#p33677aae9d)" style="fill: none; stroke: #ffffff; stroke-linecap: round"/>
     </g>
     <g id="text_26">
      <!-- $\overline{I}_{3351 \pm 32}$ -->
      <g style="fill: #262626" transform="translate(448.868001 107.163406) scale(0.14 -0.14)">
       <defs>
        <path id="DejaVuSans-b1" d="M 2944 4013 
L 2944 2803 
L 4684 2803 
L 4684 2272 
L 2944 2272 
L 2944 1063 
L 2419 1063 
L 2419 2272 
L 678 2272 
L 678 2803 
L 2419 2803 
L 2419 4013 
L 2944 4013 
z
M 678 531 
L 4684 531 
L 4684 0 
L 678 0 
L 678 531 
z
" transform="scale(0.015625)"/>
       </defs>
       <use xlink:href="#DejaVuSans-Oblique-49" transform="translate(0 0.84375)"/>
       <use xlink:href="#DejaVuSans-33" transform="translate(30.449219 -16.0625) scale(0.7)"/>
       <use xlink:href="#DejaVuSans-33" transform="translate(74.985352 -16.0625) scale(0.7)"/>
       <use xlink:href="#DejaVuSans-35" transform="translate(119.521484 -16.0625) scale(0.7)"/>
       <use xlink:href="#DejaVuSans-31" transform="translate(164.057617 -16.0625) scale(0.7)"/>
       <use xlink:href="#DejaVuSans-b1" transform="translate(222.231445 -16.0625) scale(0.7)"/>
       <use xlink:href="#DejaVuSans-33" transform="translate(294.521484 -16.0625) scale(0.7)"/>
       <use xlink:href="#DejaVuSans-32" transform="translate(339.057617 -16.0625) scale(0.7)"/>
       <path d="M 0 85.5 
L 0 91.75 
L 29.492188 91.75 
L 29.492188 85.5 
L 0 85.5 
z
"/>
      </g>
     </g>
    </g>
    <g id="ytick_8">
     <g id="line2d_26">
      <path d="M 512.548001 141.646 
L 851.04 141.646 
" clip-path="url(#p33677aae9d)" style="fill: none; stroke: #ffffff; stroke-linecap: round"/>
     </g>
     <g id="text_27">
      <!-- $\log \overline{I}_{3351 \pm 32}$ -->
      <g style="fill: #262626" transform="translate(425.208001 148.506) scale(0.14 -0.14)">
       <use xlink:href="#DejaVuSans-6c" transform="translate(0 0.34375)"/>
       <use xlink:href="#DejaVuSans-6f" transform="translate(27.783203 0.34375)"/>
       <use xlink:href="#DejaVuSans-67" transform="translate(88.964844 0.34375)"/>
       <use xlink:href="#DejaVuSans-Oblique-49" transform="translate(168.677083 0.84375)"/>
       <use xlink:href="#DejaVuSans-33" transform="translate(199.126301 -16.0625) scale(0.7)"/>
       <use xlink:href="#DejaVuSans-33" transform="translate(243.662434 -16.0625) scale(0.7)"/>
       <use xlink:href="#DejaVuSans-35" transform="translate(288.198567 -16.0625) scale(0.7)"/>
       <use xlink:href="#DejaVuSans-31" transform="translate(332.7347 -16.0625) scale(0.7)"/>
       <use xlink:href="#DejaVuSans-b1" transform="translate(390.908528 -16.0625) scale(0.7)"/>
       <use xlink:href="#DejaVuSans-33" transform="translate(463.198567 -16.0625) scale(0.7)"/>
       <use xlink:href="#DejaVuSans-32" transform="translate(507.7347 -16.0625) scale(0.7)"/>
       <path d="M 168.677083 85.5 
L 168.677083 91.75 
L 198.16927 91.75 
L 198.16927 85.5 
L 168.677083 85.5 
z
"/>
      </g>
     </g>
    </g>
    <g id="ytick_9">
     <g id="line2d_27">
      <path d="M 512.548001 182.857344 
L 851.04 182.857344 
" clip-path="url(#p33677aae9d)" style="fill: none; stroke: #ffffff; stroke-linecap: round"/>
     </g>
     <g id="text_28">
      <!-- $\frac{I_{3351}}{\overline{I}_{2928 \pm 32}}$ -->
      <g style="fill: #262626" transform="translate(463.568001 190.417344) scale(0.14 -0.14)">
       <use xlink:href="#DejaVuSans-Oblique-49" transform="translate(61 56.965625) scale(0.7)"/>
       <use xlink:href="#DejaVuSans-33" transform="translate(81.644531 45.48125) scale(0.49)"/>
       <use xlink:href="#DejaVuSans-33" transform="translate(112.819824 45.48125) scale(0.49)"/>
       <use xlink:href="#DejaVuSans-35" transform="translate(143.995117 45.48125) scale(0.49)"/>
       <use xlink:href="#DejaVuSans-31" transform="translate(175.17041 45.48125) scale(0.49)"/>
       <use xlink:href="#DejaVuSans-Oblique-49" transform="translate(0 -54.874844) scale(0.7)"/>
       <use xlink:href="#DejaVuSans-32" transform="translate(21.314453 -66.309219) scale(0.49)"/>
       <use xlink:href="#DejaVuSans-39" transform="translate(51.632246 -66.309219) scale(0.49)"/>
       <use xlink:href="#DejaVuSans-32" transform="translate(81.950039 -66.309219) scale(0.49)"/>
       <use xlink:href="#DejaVuSans-38" transform="translate(113.125332 -66.309219) scale(0.49)"/>
       <use xlink:href="#DejaVuSans-b1" transform="translate(153.847012 -66.309219) scale(0.49)"/>
       <use xlink:href="#DejaVuSans-33" transform="translate(204.450039 -66.309219) scale(0.49)"/>
       <use xlink:href="#DejaVuSans-32" transform="translate(235.625332 -66.309219) scale(0.49)"/>
       <path d="M 0 19.784531 
L 0 26.034531 
L 268.714687 26.034531 
L 268.714687 19.784531 
L 0 19.784531 
z
"/>
       <path d="M 0 4.784531 
L 0 9.159531 
L 20.644531 9.159531 
L 20.644531 4.784531 
L 0 4.784531 
z
"/>
      </g>
     </g>
    </g>
    <g id="ytick_10">
     <g id="line2d_28">
      <path d="M 512.548001 224.068688 
L 851.04 224.068688 
" clip-path="url(#p33677aae9d)" style="fill: none; stroke: #ffffff; stroke-linecap: round"/>
     </g>
     <g id="text_29">
      <!-- $\frac{\overline{I}_{3800\text{–}2500}}{\overline{I}_{2928 \pm 32}}$ -->
      <g style="fill: #262626" transform="translate(459.648001 232.818688) scale(0.14 -0.14)">
       <use xlink:href="#DejaVuSans-Oblique-49" transform="translate(0 56.590625) scale(0.7)"/>
       <use xlink:href="#DejaVuSans-33" transform="translate(21.314453 45.15625) scale(0.49)"/>
       <use xlink:href="#DejaVuSans-38" transform="translate(52.489746 45.15625) scale(0.49)"/>
       <use xlink:href="#DejaVuSans-30" transform="translate(83.665039 45.15625) scale(0.49)"/>
       <use xlink:href="#DejaVuSans-30" transform="translate(114.840332 45.15625) scale(0.49)"/>
       <use xlink:href="#DejaVuSansDisplay-2013" transform="translate(146.015625 45.15625) scale(0.49)"/>
       <use xlink:href="#DejaVuSans-32" transform="translate(170.515625 45.15625) scale(0.49)"/>
       <use xlink:href="#DejaVuSans-35" transform="translate(201.690918 45.15625) scale(0.49)"/>
       <use xlink:href="#DejaVuSans-30" transform="translate(232.866211 45.15625) scale(0.49)"/>
       <use xlink:href="#DejaVuSans-30" transform="translate(264.041504 45.15625) scale(0.49)"/>
       <use xlink:href="#DejaVuSans-Oblique-49" transform="translate(14 -55.199844) scale(0.7)"/>
       <use xlink:href="#DejaVuSans-32" transform="translate(35.314453 -66.634219) scale(0.49)"/>
       <use xlink:href="#DejaVuSans-39" transform="translate(65.632246 -66.634219) scale(0.49)"/>
       <use xlink:href="#DejaVuSans-32" transform="translate(95.950039 -66.634219) scale(0.49)"/>
       <use xlink:href="#DejaVuSans-38" transform="translate(127.125332 -66.634219) scale(0.49)"/>
       <use xlink:href="#DejaVuSans-b1" transform="translate(167.847012 -66.634219) scale(0.49)"/>
       <use xlink:href="#DejaVuSans-33" transform="translate(218.450039 -66.634219) scale(0.49)"/>
       <use xlink:href="#DejaVuSans-32" transform="translate(249.625332 -66.634219) scale(0.49)"/>
       <path d="M 0 116.25 
L 0 120.625 
L 20.644531 120.625 
L 20.644531 116.25 
L 0 116.25 
z
"/>
       <path d="M 0 19.459531 
L 0 25.709531 
L 297.130859 25.709531 
L 297.130859 19.459531 
L 0 19.459531 
z
"/>
       <path d="M 14 4.459531 
L 14 8.834531 
L 34.644531 8.834531 
L 34.644531 4.459531 
L 14 4.459531 
z
"/>
      </g>
     </g>
    </g>
   </g>
   <g id="patch_21">
    <path d="M 512.548001 45.211455 
L 810.701181 45.211455 
L 810.701181 59.223312 
L 512.548001 59.223312 
z
" clip-path="url(#p33677aae9d)" style="fill: #08519c; opacity: 0.7; stroke: #ffffff; stroke-linejoin: miter"/>
   </g>
   <g id="patch_22">
    <path d="M 512.548001 86.422799 
L 804.013728 86.422799 
L 804.013728 100.434656 
L 512.548001 100.434656 
z
" clip-path="url(#p33677aae9d)" style="fill: #08519c; opacity: 0.7; stroke: #ffffff; stroke-linejoin: miter"/>
   </g>
   <g id="patch_23">
    <path d="M 512.548001 127.634143 
L 804.355333 127.634143 
L 804.355333 141.646 
L 512.548001 141.646 
z
" clip-path="url(#p33677aae9d)" style="fill: #08519c; opacity: 0.7; stroke: #ffffff; stroke-linejoin: miter"/>
   </g>
   <g id="patch_24">
    <path d="M 512.548001 168.845487 
L 809.339783 168.845487 
L 809.339783 182.857344 
L 512.548001 182.857344 
z
" clip-path="url(#p33677aae9d)" style="fill: #08519c; opacity: 0.7; stroke: #ffffff; stroke-linejoin: miter"/>
   </g>
   <g id="patch_25">
    <path d="M 512.548001 210.056831 
L 816.567107 210.056831 
L 816.567107 224.068688 
L 512.548001 224.068688 
z
" clip-path="url(#p33677aae9d)" style="fill: #08519c; opacity: 0.7; stroke: #ffffff; stroke-linejoin: miter"/>
   </g>
   <g id="patch_26">
    <path d="M 512.548001 59.223312 
L 784.763967 59.223312 
L 784.763967 73.235169 
L 512.548001 73.235169 
z
" clip-path="url(#p33677aae9d)" style="fill: #1f77b4; opacity: 0.7; stroke: #ffffff; stroke-linejoin: miter"/>
   </g>
   <g id="patch_27">
    <path d="M 512.548001 100.434656 
L 786.092309 100.434656 
L 786.092309 114.446513 
L 512.548001 114.446513 
z
" clip-path="url(#p33677aae9d)" style="fill: #1f77b4; opacity: 0.7; stroke: #ffffff; stroke-linejoin: miter"/>
   </g>
   <g id="patch_28">
    <path d="M 512.548001 141.646 
L 785.229486 141.646 
L 785.229486 155.657857 
L 512.548001 155.657857 
z
" clip-path="url(#p33677aae9d)" style="fill: #1f77b4; opacity: 0.7; stroke: #ffffff; stroke-linejoin: miter"/>
   </g>
   <g id="patch_29">
    <path d="M 512.548001 182.857344 
L 778.325982 182.857344 
L 778.325982 196.869201 
L 512.548001 196.869201 
z
" clip-path="url(#p33677aae9d)" style="fill: #1f77b4; opacity: 0.7; stroke: #ffffff; stroke-linejoin: miter"/>
   </g>
   <g id="patch_30">
    <path d="M 512.548001 224.068688 
L 768.397068 224.068688 
L 768.397068 238.080545 
L 512.548001 238.080545 
z
" clip-path="url(#p33677aae9d)" style="fill: #1f77b4; opacity: 0.7; stroke: #ffffff; stroke-linejoin: miter"/>
   </g>
   <g id="LineCollection_3">
    <path d="M 792.744109 52.217383 
L 829.841988 52.217383 
" clip-path="url(#p33677aae9d)" style="fill: none; stroke: #1a1a1a; stroke-width: 1.4"/>
    <path d="M 789.111719 93.428727 
L 823.693516 93.428727 
" clip-path="url(#p33677aae9d)" style="fill: none; stroke: #1a1a1a; stroke-width: 1.4"/>
    <path d="M 787.651754 134.640071 
L 822.748781 134.640071 
" clip-path="url(#p33677aae9d)" style="fill: none; stroke: #1a1a1a; stroke-width: 1.4"/>
    <path d="M 787.949505 175.851416 
L 830.767325 175.851416 
" clip-path="url(#p33677aae9d)" style="fill: none; stroke: #1a1a1a; stroke-width: 1.4"/>
    <path d="M 792.987877 217.06276 
L 831.789448 217.06276 
" clip-path="url(#p33677aae9d)" style="fill: none; stroke: #1a1a1a; stroke-width: 1.4"/>
   </g>
   <g id="line2d_29">
    <g clip-path="url(#p33677aae9d)">
     <use xlink:href="#m1312a5312a" x="792.744109" y="52.217383" style="fill: #1a1a1a; stroke: #1a1a1a"/>
     <use xlink:href="#m1312a5312a" x="789.111719" y="93.428727" style="fill: #1a1a1a; stroke: #1a1a1a"/>
     <use xlink:href="#m1312a5312a" x="787.651754" y="134.640071" style="fill: #1a1a1a; stroke: #1a1a1a"/>
     <use xlink:href="#m1312a5312a" x="787.949505" y="175.851416" style="fill: #1a1a1a; stroke: #1a1a1a"/>
     <use xlink:href="#m1312a5312a" x="792.987877" y="217.06276" style="fill: #1a1a1a; stroke: #1a1a1a"/>
    </g>
   </g>
   <g id="line2d_30">
    <g clip-path="url(#p33677aae9d)">
     <use xlink:href="#m1312a5312a" x="829.841988" y="52.217383" style="fill: #1a1a1a; stroke: #1a1a1a"/>
     <use xlink:href="#m1312a5312a" x="823.693516" y="93.428727" style="fill: #1a1a1a; stroke: #1a1a1a"/>
     <use xlink:href="#m1312a5312a" x="822.748781" y="134.640071" style="fill: #1a1a1a; stroke: #1a1a1a"/>
     <use xlink:href="#m1312a5312a" x="830.767325" y="175.851416" style="fill: #1a1a1a; stroke: #1a1a1a"/>
     <use xlink:href="#m1312a5312a" x="831.789448" y="217.06276" style="fill: #1a1a1a; stroke: #1a1a1a"/>
    </g>
   </g>
   <g id="LineCollection_4">
    <path d="M 776.787466 66.22924 
L 788.54066 66.22924 
" clip-path="url(#p33677aae9d)" style="fill: none; stroke: #1a1a1a; stroke-width: 1.4"/>
    <path d="M 770.54675 107.440584 
L 793.426302 107.440584 
" clip-path="url(#p33677aae9d)" style="fill: none; stroke: #1a1a1a; stroke-width: 1.4"/>
    <path d="M 769.136367 148.651929 
L 794.640799 148.651929 
" clip-path="url(#p33677aae9d)" style="fill: none; stroke: #1a1a1a; stroke-width: 1.4"/>
    <path d="M 762.897956 189.863273 
L 784.484656 189.863273 
" clip-path="url(#p33677aae9d)" style="fill: none; stroke: #1a1a1a; stroke-width: 1.4"/>
    <path d="M 757.01214 231.074617 
L 773.192371 231.074617 
" clip-path="url(#p33677aae9d)" style="fill: none; stroke: #1a1a1a; stroke-width: 1.4"/>
   </g>
   <g id="line2d_31">
    <g clip-path="url(#p33677aae9d)">
     <use xlink:href="#m1312a5312a" x="776.787466" y="66.22924" style="fill: #1a1a1a; stroke: #1a1a1a"/>
     <use xlink:href="#m1312a5312a" x="770.54675" y="107.440584" style="fill: #1a1a1a; stroke: #1a1a1a"/>
     <use xlink:href="#m1312a5312a" x="769.136367" y="148.651929" style="fill: #1a1a1a; stroke: #1a1a1a"/>
     <use xlink:href="#m1312a5312a" x="762.897956" y="189.863273" style="fill: #1a1a1a; stroke: #1a1a1a"/>
     <use xlink:href="#m1312a5312a" x="757.01214" y="231.074617" style="fill: #1a1a1a; stroke: #1a1a1a"/>
    </g>
   </g>
   <g id="line2d_32">
    <g clip-path="url(#p33677aae9d)">
     <use xlink:href="#m1312a5312a" x="788.54066" y="66.22924" style="fill: #1a1a1a; stroke: #1a1a1a"/>
     <use xlink:href="#m1312a5312a" x="793.426302" y="107.440584" style="fill: #1a1a1a; stroke: #1a1a1a"/>
     <use xlink:href="#m1312a5312a" x="794.640799" y="148.651929" style="fill: #1a1a1a; stroke: #1a1a1a"/>
     <use xlink:href="#m1312a5312a" x="784.484656" y="189.863273" style="fill: #1a1a1a; stroke: #1a1a1a"/>
     <use xlink:href="#m1312a5312a" x="773.192371" y="231.074617" style="fill: #1a1a1a; stroke: #1a1a1a"/>
    </g>
   </g>
   <g id="patch_31">
    <path d="M 512.548001 247.724 
L 512.548001 35.568 
" style="fill: none; stroke: #ffffff; stroke-width: 1.25; stroke-linejoin: miter; stroke-linecap: square"/>
   </g>
   <g id="patch_32">
    <path d="M 851.04 247.724 
L 851.04 35.568 
" style="fill: none; stroke: #ffffff; stroke-width: 1.25; stroke-linejoin: miter; stroke-linecap: square"/>
   </g>
   <g id="patch_33">
    <path d="M 512.548001 247.724 
L 851.04 247.724 
" style="fill: none; stroke: #ffffff; stroke-width: 1.25; stroke-linejoin: miter; stroke-linecap: square"/>
   </g>
   <g id="patch_34">
    <path d="M 512.548001 35.568 
L 851.04 35.568 
" style="fill: none; stroke: #ffffff; stroke-width: 1.25; stroke-linejoin: miter; stroke-linecap: square"/>
   </g>
   <g id="text_30">
    <!-- Region-based | 3800–2500 cm$^{-1}$ -->
    <g style="fill: #262626" transform="translate(549.674001 29.568) scale(0.18 -0.18)">
     <defs>
      <path id="ArialMT-52" d="M 503 0 
L 503 4581 
L 2534 4581 
Q 3147 4581 3465 4457 
Q 3784 4334 3975 4021 
Q 4166 3709 4166 3331 
Q 4166 2844 3850 2509 
Q 3534 2175 2875 2084 
Q 3116 1969 3241 1856 
Q 3506 1613 3744 1247 
L 4541 0 
L 3778 0 
L 3172 953 
Q 2906 1366 2734 1584 
Q 2563 1803 2427 1890 
Q 2291 1978 2150 2013 
Q 2047 2034 1813 2034 
L 1109 2034 
L 1109 0 
L 503 0 
z
M 1109 2559 
L 2413 2559 
Q 2828 2559 3062 2645 
Q 3297 2731 3419 2920 
Q 3541 3109 3541 3331 
Q 3541 3656 3305 3865 
Q 3069 4075 2559 4075 
L 1109 4075 
L 1109 2559 
z
" transform="scale(0.015625)"/>
      <path id="ArialMT-67" d="M 319 -275 
L 866 -356 
Q 900 -609 1056 -725 
Q 1266 -881 1628 -881 
Q 2019 -881 2231 -725 
Q 2444 -569 2519 -288 
Q 2563 -116 2559 434 
Q 2191 0 1641 0 
Q 956 0 581 494 
Q 206 988 206 1678 
Q 206 2153 378 2554 
Q 550 2956 876 3175 
Q 1203 3394 1644 3394 
Q 2231 3394 2613 2919 
L 2613 3319 
L 3131 3319 
L 3131 450 
Q 3131 -325 2973 -648 
Q 2816 -972 2473 -1159 
Q 2131 -1347 1631 -1347 
Q 1038 -1347 672 -1080 
Q 306 -813 319 -275 
z
M 784 1719 
Q 784 1066 1043 766 
Q 1303 466 1694 466 
Q 2081 466 2343 764 
Q 2606 1063 2606 1700 
Q 2606 2309 2336 2618 
Q 2066 2928 1684 2928 
Q 1309 2928 1046 2623 
Q 784 2319 784 1719 
z
" transform="scale(0.015625)"/>
      <path id="ArialMT-6f" d="M 213 1659 
Q 213 2581 725 3025 
Q 1153 3394 1769 3394 
Q 2453 3394 2887 2945 
Q 3322 2497 3322 1706 
Q 3322 1066 3130 698 
Q 2938 331 2570 128 
Q 2203 -75 1769 -75 
Q 1072 -75 642 372 
Q 213 819 213 1659 
z
M 791 1659 
Q 791 1022 1069 705 
Q 1347 388 1769 388 
Q 2188 388 2466 706 
Q 2744 1025 2744 1678 
Q 2744 2294 2464 2611 
Q 2184 2928 1769 2928 
Q 1347 2928 1069 2612 
Q 791 2297 791 1659 
z
" transform="scale(0.015625)"/>
     </defs>
     <use xlink:href="#ArialMT-52" transform="translate(0 0.684375)"/>
     <use xlink:href="#ArialMT-65" transform="translate(72.216797 0.684375)"/>
     <use xlink:href="#ArialMT-67" transform="translate(127.832031 0.684375)"/>
     <use xlink:href="#ArialMT-69" transform="translate(183.447266 0.684375)"/>
     <use xlink:href="#ArialMT-6f" transform="translate(205.664062 0.684375)"/>
     <use xlink:href="#ArialMT-6e" transform="translate(261.279297 0.684375)"/>
     <use xlink:href="#ArialMT-2d" transform="translate(316.894531 0.684375)"/>
     <use xlink:href="#ArialMT-62" transform="translate(350.195312 0.684375)"/>
     <use xlink:href="#ArialMT-61" transform="translate(405.810547 0.684375)"/>
     <use xlink:href="#ArialMT-73" transform="translate(461.425781 0.684375)"/>
     <use xlink:href="#ArialMT-65" transform="translate(511.425781 0.684375)"/>
     <use xlink:href="#ArialMT-64" transform="translate(567.041016 0.684375)"/>
     <use xlink:href="#ArialMT-20" transform="translate(622.65625 0.684375)"/>
     <use xlink:href="#ArialMT-7c" transform="translate(650.439453 0.684375)"/>
     <use xlink:href="#ArialMT-20" transform="translate(676.416016 0.684375)"/>
     <use xlink:href="#ArialMT-33" transform="translate(704.199219 0.684375)"/>
     <use xlink:href="#ArialMT-38" transform="translate(759.814453 0.684375)"/>
     <use xlink:href="#ArialMT-30" transform="translate(815.429688 0.684375)"/>
     <use xlink:href="#ArialMT-30" transform="translate(871.044922 0.684375)"/>
     <use xlink:href="#DejaVuSansDisplay-2013" transform="translate(926.660156 0.684375)"/>
     <use xlink:href="#ArialMT-32" transform="translate(976.660156 0.684375)"/>
     <use xlink:href="#ArialMT-35" transform="translate(1032.275391 0.684375)"/>
     <use xlink:href="#ArialMT-30" transform="translate(1087.890625 0.684375)"/>
     <use xlink:href="#ArialMT-30" transform="translate(1143.505859 0.684375)"/>
     <use xlink:href="#ArialMT-20" transform="translate(1199.121094 0.684375)"/>
     <use xlink:href="#ArialMT-63" transform="translate(1226.904297 0.684375)"/>
     <use xlink:href="#ArialMT-6d" transform="translate(1276.904297 0.684375)"/>
     <use xlink:href="#DejaVuSans-2212" transform="translate(1361.162109 38.965625) scale(0.7)"/>
     <use xlink:href="#DejaVuSans-31" transform="translate(1419.814453 38.965625) scale(0.7)"/>
    </g>
   </g>
   <g id="legend_2">
    <g id="patch_35">
     <path d="M 520.948001 79.11675 
L 586.235501 79.11675 
Q 588.635501 79.11675 588.635501 76.71675 
L 588.635501 43.968 
Q 588.635501 41.568 586.235501 41.568 
L 520.948001 41.568 
Q 518.548001 41.568 518.548001 43.968 
L 518.548001 76.71675 
Q 518.548001 79.11675 520.948001 79.11675 
z
" style="fill: #eaeaf2; opacity: 0.8; stroke: #cccccc; stroke-linejoin: miter"/>
    </g>
    <g id="patch_36">
     <path d="M 523.348001 54.957375 
L 547.348001 54.957375 
L 547.348001 46.557375 
L 523.348001 46.557375 
z
" style="fill: #08519c; opacity: 0.7; stroke: #ffffff; stroke-linejoin: miter"/>
    </g>
    <g id="text_31">
     <!-- Train -->
     <g style="fill: #262626" transform="translate(556.948001 54.957375) scale(0.12 -0.12)">
      <use xlink:href="#ArialMT-54"/>
      <use xlink:href="#ArialMT-72" transform="translate(57.333984 0)"/>
      <use xlink:href="#ArialMT-61" transform="translate(90.634766 0)"/>
      <use xlink:href="#ArialMT-69" transform="translate(146.25 0)"/>
      <use xlink:href="#ArialMT-6e" transform="translate(168.466797 0)"/>
     </g>
    </g>
    <g id="patch_37">
     <path d="M 523.348001 71.93175 
L 547.348001 71.93175 
L 547.348001 63.53175 
L 523.348001 63.53175 
z
" style="fill: #1f77b4; opacity: 0.7; stroke: #ffffff; stroke-linejoin: miter"/>
    </g>
    <g id="text_32">
     <!-- Test -->
     <g style="fill: #262626" transform="translate(556.948001 71.93175) scale(0.12 -0.12)">
      <use xlink:href="#ArialMT-54"/>
      <use xlink:href="#ArialMT-65" transform="translate(49.958984 0)"/>
      <use xlink:href="#ArialMT-73" transform="translate(105.574219 0)"/>
      <use xlink:href="#ArialMT-74" transform="translate(155.574219 0)"/>
     </g>
    </g>
   </g>
  </g>
 </g>
 <defs>
  <clipPath id="p0725fa3cb5">
   <rect x="74.732051" y="35.568" width="338.491999" height="212.156"/>
  </clipPath>
  <clipPath id="p33677aae9d">
   <rect x="512.548001" y="35.568" width="338.491999" height="212.156"/>
  </clipPath>
 </defs>
</svg>
