<?xml version="1.0" encoding="utf-8" standalone="no"?>
<!DOCTYPE svg PUBLIC "-//W3C//DTD SVG 1.1//EN"
  "http://www.w3.org/Graphics/SVG/1.1/DTD/svg11.dtd">
<svg xmlns:xlink="http://www.w3.org/1999/xlink" width="709.260216pt" height="587.683437pt" viewBox="0 0 709.260216 587.683437" xmlns="http://www.w3.org/2000/svg" version="1.1">
 <metadata>
  <rdf:RDF xmlns:dc="http://purl.org/dc/elements/1.1/" xmlns:cc="http://creativecommons.org/ns#" xmlns:rdf="http://www.w3.org/1999/02/22-rdf-syntax-ns#">
   <cc:Work>
    <dc:type rdf:resource="http://purl.org/dc/dcmitype/StillImage"/>
    <dc:date>2025-08-16T19:21:17.914684</dc:date>
    <dc:format>image/svg+xml</dc:format>
    <dc:creator>
     <cc:Agent>
      <dc:title>Matplotlib v3.10.3, https://matplotlib.org/</dc:title>
     </cc:Agent>
    </dc:creator>
   </cc:Work>
  </rdf:RDF>
 </metadata>
 <defs>
  <style type="text/css">*{stroke-linejoin: round; stroke-linecap: butt}</style>
 </defs>
 <g id="figure_1">
  <g id="patch_1">
   <path d="M 0 587.683437 
L 709.260216 587.683437 
L 709.260216 0 
L 0 0 
z
" style="fill: #ffffff"/>
  </g>
  <g id="axes_1">
   <g id="patch_2">
    <path d="M 50.46 251.46 
L 317.935444 251.46 
L 317.935444 58.288 
L 50.46 58.288 
z
" style="fill: #eaeaf2"/>
   </g>
   <g id="matplotlib.axis_1">
    <g id="xtick_1">
     <g id="line2d_1">
      <path d="M 50.46 251.46 
L 50.46 58.288 
" clip-path="url(#p338afc2e99)" style="fill: none; stroke: #ffffff; stroke-linecap: round"/>
     </g>
     <g id="text_1">
      <!-- 0.00 -->
      <g style="fill: #262626" transform="translate(36.837344 270.980938) scale(0.14 -0.14)">
       <defs>
        <path id="ArialMT-30" d="M 266 2259 
Q 266 3072 433 3567 
Q 600 4063 929 4331 
Q 1259 4600 1759 4600 
Q 2128 4600 2406 4451 
Q 2684 4303 2865 4023 
Q 3047 3744 3150 3342 
Q 3253 2941 3253 2259 
Q 3253 1453 3087 958 
Q 2922 463 2592 192 
Q 2263 -78 1759 -78 
Q 1097 -78 719 397 
Q 266 969 266 2259 
z
M 844 2259 
Q 844 1131 1108 757 
Q 1372 384 1759 384 
Q 2147 384 2411 759 
Q 2675 1134 2675 2259 
Q 2675 3391 2411 3762 
Q 2147 4134 1753 4134 
Q 1366 4134 1134 3806 
Q 844 3388 844 2259 
z
" transform="scale(0.015625)"/>
        <path id="ArialMT-2e" d="M 581 0 
L 581 641 
L 1222 641 
L 1222 0 
L 581 0 
z
" transform="scale(0.015625)"/>
       </defs>
       <use xlink:href="#ArialMT-30"/>
       <use xlink:href="#ArialMT-2e" transform="translate(55.615234 0)"/>
       <use xlink:href="#ArialMT-30" transform="translate(83.398438 0)"/>
       <use xlink:href="#ArialMT-30" transform="translate(139.013672 0)"/>
      </g>
     </g>
    </g>
    <g id="xtick_2">
     <g id="line2d_2">
      <path d="M 101.204101 251.46 
L 101.204101 58.288 
" clip-path="url(#p338afc2e99)" style="fill: none; stroke: #ffffff; stroke-linecap: round"/>
     </g>
     <g id="text_2">
      <!-- 0.04 -->
      <g style="fill: #262626" transform="translate(87.581445 270.980938) scale(0.14 -0.14)">
       <defs>
        <path id="ArialMT-34" d="M 2069 0 
L 2069 1097 
L 81 1097 
L 81 1613 
L 2172 4581 
L 2631 4581 
L 2631 1613 
L 3250 1613 
L 3250 1097 
L 2631 1097 
L 2631 0 
L 2069 0 
z
M 2069 1613 
L 2069 3678 
L 634 1613 
L 2069 1613 
z
" transform="scale(0.015625)"/>
       </defs>
       <use xlink:href="#ArialMT-30"/>
       <use xlink:href="#ArialMT-2e" transform="translate(55.615234 0)"/>
       <use xlink:href="#ArialMT-30" transform="translate(83.398438 0)"/>
       <use xlink:href="#ArialMT-34" transform="translate(139.013672 0)"/>
      </g>
     </g>
    </g>
    <g id="xtick_3">
     <g id="line2d_3">
      <path d="M 151.948203 251.46 
L 151.948203 58.288 
" clip-path="url(#p338afc2e99)" style="fill: none; stroke: #ffffff; stroke-linecap: round"/>
     </g>
     <g id="text_3">
      <!-- 0.08 -->
      <g style="fill: #262626" transform="translate(138.325546 270.980938) scale(0.14 -0.14)">
       <defs>
        <path id="ArialMT-38" d="M 1131 2484 
Q 781 2613 612 2850 
Q 444 3088 444 3419 
Q 444 3919 803 4259 
Q 1163 4600 1759 4600 
Q 2359 4600 2725 4251 
Q 3091 3903 3091 3403 
Q 3091 3084 2923 2848 
Q 2756 2613 2416 2484 
Q 2838 2347 3058 2040 
Q 3278 1734 3278 1309 
Q 3278 722 2862 322 
Q 2447 -78 1769 -78 
Q 1091 -78 675 323 
Q 259 725 259 1325 
Q 259 1772 486 2073 
Q 713 2375 1131 2484 
z
M 1019 3438 
Q 1019 3113 1228 2906 
Q 1438 2700 1772 2700 
Q 2097 2700 2305 2904 
Q 2513 3109 2513 3406 
Q 2513 3716 2298 3927 
Q 2084 4138 1766 4138 
Q 1444 4138 1231 3931 
Q 1019 3725 1019 3438 
z
M 838 1322 
Q 838 1081 952 856 
Q 1066 631 1291 507 
Q 1516 384 1775 384 
Q 2178 384 2440 643 
Q 2703 903 2703 1303 
Q 2703 1709 2433 1975 
Q 2163 2241 1756 2241 
Q 1359 2241 1098 1978 
Q 838 1716 838 1322 
z
" transform="scale(0.015625)"/>
       </defs>
       <use xlink:href="#ArialMT-30"/>
       <use xlink:href="#ArialMT-2e" transform="translate(55.615234 0)"/>
       <use xlink:href="#ArialMT-30" transform="translate(83.398438 0)"/>
       <use xlink:href="#ArialMT-38" transform="translate(139.013672 0)"/>
      </g>
     </g>
    </g>
    <g id="xtick_4">
     <g id="line2d_4">
      <path d="M 202.692304 251.46 
L 202.692304 58.288 
" clip-path="url(#p338afc2e99)" style="fill: none; stroke: #ffffff; stroke-linecap: round"/>
     </g>
     <g id="text_4">
      <!-- 0.12 -->
      <g style="fill: #262626" transform="translate(189.069648 270.980938) scale(0.14 -0.14)">
       <defs>
        <path id="ArialMT-31" d="M 2384 0 
L 1822 0 
L 1822 3584 
Q 1619 3391 1289 3197 
Q 959 3003 697 2906 
L 697 3450 
Q 1169 3672 1522 3987 
Q 1875 4303 2022 4600 
L 2384 4600 
L 2384 0 
z
" transform="scale(0.015625)"/>
        <path id="ArialMT-32" d="M 3222 541 
L 3222 0 
L 194 0 
Q 188 203 259 391 
Q 375 700 629 1000 
Q 884 1300 1366 1694 
Q 2113 2306 2375 2664 
Q 2638 3022 2638 3341 
Q 2638 3675 2398 3904 
Q 2159 4134 1775 4134 
Q 1369 4134 1125 3890 
Q 881 3647 878 3216 
L 300 3275 
Q 359 3922 746 4261 
Q 1134 4600 1788 4600 
Q 2447 4600 2831 4234 
Q 3216 3869 3216 3328 
Q 3216 3053 3103 2787 
Q 2991 2522 2730 2228 
Q 2469 1934 1863 1422 
Q 1356 997 1212 845 
Q 1069 694 975 541 
L 3222 541 
z
" transform="scale(0.015625)"/>
       </defs>
       <use xlink:href="#ArialMT-30"/>
       <use xlink:href="#ArialMT-2e" transform="translate(55.615234 0)"/>
       <use xlink:href="#ArialMT-31" transform="translate(83.398438 0)"/>
       <use xlink:href="#ArialMT-32" transform="translate(139.013672 0)"/>
      </g>
     </g>
    </g>
    <g id="xtick_5">
     <g id="line2d_5">
      <path d="M 253.436405 251.46 
L 253.436405 58.288 
" clip-path="url(#p338afc2e99)" style="fill: none; stroke: #ffffff; stroke-linecap: round"/>
     </g>
     <g id="text_5">
      <!-- 0.16 -->
      <g style="fill: #262626" transform="translate(239.813749 270.980938) scale(0.14 -0.14)">
       <defs>
        <path id="ArialMT-36" d="M 3184 3459 
L 2625 3416 
Q 2550 3747 2413 3897 
Q 2184 4138 1850 4138 
Q 1581 4138 1378 3988 
Q 1113 3794 959 3422 
Q 806 3050 800 2363 
Q 1003 2672 1297 2822 
Q 1591 2972 1913 2972 
Q 2475 2972 2870 2558 
Q 3266 2144 3266 1488 
Q 3266 1056 3080 686 
Q 2894 316 2569 119 
Q 2244 -78 1831 -78 
Q 1128 -78 684 439 
Q 241 956 241 2144 
Q 241 3472 731 4075 
Q 1159 4600 1884 4600 
Q 2425 4600 2770 4297 
Q 3116 3994 3184 3459 
z
M 888 1484 
Q 888 1194 1011 928 
Q 1134 663 1356 523 
Q 1578 384 1822 384 
Q 2178 384 2434 671 
Q 2691 959 2691 1453 
Q 2691 1928 2437 2201 
Q 2184 2475 1800 2475 
Q 1419 2475 1153 2201 
Q 888 1928 888 1484 
z
" transform="scale(0.015625)"/>
       </defs>
       <use xlink:href="#ArialMT-30"/>
       <use xlink:href="#ArialMT-2e" transform="translate(55.615234 0)"/>
       <use xlink:href="#ArialMT-31" transform="translate(83.398438 0)"/>
       <use xlink:href="#ArialMT-36" transform="translate(139.013672 0)"/>
      </g>
     </g>
    </g>
    <g id="xtick_6">
     <g id="line2d_6">
      <path d="M 304.180506 251.46 
L 304.180506 58.288 
" clip-path="url(#p338afc2e99)" style="fill: none; stroke: #ffffff; stroke-linecap: round"/>
     </g>
     <g id="text_6">
      <!-- 0.20 -->
      <g style="fill: #262626" transform="translate(290.55785 270.980938) scale(0.14 -0.14)">
       <use xlink:href="#ArialMT-30"/>
       <use xlink:href="#ArialMT-2e" transform="translate(55.615234 0)"/>
       <use xlink:href="#ArialMT-32" transform="translate(83.398438 0)"/>
       <use xlink:href="#ArialMT-30" transform="translate(139.013672 0)"/>
      </g>
     </g>
    </g>
    <g id="text_7">
     <!-- Mutual information ($MI$) -->
     <g style="fill: #262626" transform="translate(101.557722 295.443438) scale(0.16 -0.16)">
      <defs>
       <path id="ArialMT-4d" d="M 475 0 
L 475 4581 
L 1388 4581 
L 2472 1338 
Q 2622 884 2691 659 
Q 2769 909 2934 1394 
L 4031 4581 
L 4847 4581 
L 4847 0 
L 4263 0 
L 4263 3834 
L 2931 0 
L 2384 0 
L 1059 3900 
L 1059 0 
L 475 0 
z
" transform="scale(0.015625)"/>
       <path id="ArialMT-75" d="M 2597 0 
L 2597 488 
Q 2209 -75 1544 -75 
Q 1250 -75 995 37 
Q 741 150 617 320 
Q 494 491 444 738 
Q 409 903 409 1263 
L 409 3319 
L 972 3319 
L 972 1478 
Q 972 1038 1006 884 
Q 1059 663 1231 536 
Q 1403 409 1656 409 
Q 1909 409 2131 539 
Q 2353 669 2445 892 
Q 2538 1116 2538 1541 
L 2538 3319 
L 3100 3319 
L 3100 0 
L 2597 0 
z
" transform="scale(0.015625)"/>
       <path id="ArialMT-74" d="M 1650 503 
L 1731 6 
Q 1494 -44 1306 -44 
Q 1000 -44 831 53 
Q 663 150 594 308 
Q 525 466 525 972 
L 525 2881 
L 113 2881 
L 113 3319 
L 525 3319 
L 525 4141 
L 1084 4478 
L 1084 3319 
L 1650 3319 
L 1650 2881 
L 1084 2881 
L 1084 941 
Q 1084 700 1114 631 
Q 1144 563 1211 522 
Q 1278 481 1403 481 
Q 1497 481 1650 503 
z
" transform="scale(0.015625)"/>
       <path id="ArialMT-61" d="M 2588 409 
Q 2275 144 1986 34 
Q 1697 -75 1366 -75 
Q 819 -75 525 192 
Q 231 459 231 875 
Q 231 1119 342 1320 
Q 453 1522 633 1644 
Q 813 1766 1038 1828 
Q 1203 1872 1538 1913 
Q 2219 1994 2541 2106 
Q 2544 2222 2544 2253 
Q 2544 2597 2384 2738 
Q 2169 2928 1744 2928 
Q 1347 2928 1158 2789 
Q 969 2650 878 2297 
L 328 2372 
Q 403 2725 575 2942 
Q 747 3159 1072 3276 
Q 1397 3394 1825 3394 
Q 2250 3394 2515 3294 
Q 2781 3194 2906 3042 
Q 3031 2891 3081 2659 
Q 3109 2516 3109 2141 
L 3109 1391 
Q 3109 606 3145 398 
Q 3181 191 3288 0 
L 2700 0 
Q 2613 175 2588 409 
z
M 2541 1666 
Q 2234 1541 1622 1453 
Q 1275 1403 1131 1340 
Q 988 1278 909 1158 
Q 831 1038 831 891 
Q 831 666 1001 516 
Q 1172 366 1500 366 
Q 1825 366 2078 508 
Q 2331 650 2450 897 
Q 2541 1088 2541 1459 
L 2541 1666 
z
" transform="scale(0.015625)"/>
       <path id="ArialMT-6c" d="M 409 0 
L 409 4581 
L 972 4581 
L 972 0 
L 409 0 
z
" transform="scale(0.015625)"/>
       <path id="ArialMT-20" transform="scale(0.015625)"/>
       <path id="ArialMT-69" d="M 425 3934 
L 425 4581 
L 988 4581 
L 988 3934 
L 425 3934 
z
M 425 0 
L 425 3319 
L 988 3319 
L 988 0 
L 425 0 
z
" transform="scale(0.015625)"/>
       <path id="ArialMT-6e" d="M 422 0 
L 422 3319 
L 928 3319 
L 928 2847 
Q 1294 3394 1984 3394 
Q 2284 3394 2536 3286 
Q 2788 3178 2913 3003 
Q 3038 2828 3088 2588 
Q 3119 2431 3119 2041 
L 3119 0 
L 2556 0 
L 2556 2019 
Q 2556 2363 2490 2533 
Q 2425 2703 2258 2804 
Q 2091 2906 1866 2906 
Q 1506 2906 1245 2678 
Q 984 2450 984 1813 
L 984 0 
L 422 0 
z
" transform="scale(0.015625)"/>
       <path id="ArialMT-66" d="M 556 0 
L 556 2881 
L 59 2881 
L 59 3319 
L 556 3319 
L 556 3672 
Q 556 4006 616 4169 
Q 697 4388 901 4523 
Q 1106 4659 1475 4659 
Q 1713 4659 2000 4603 
L 1916 4113 
Q 1741 4144 1584 4144 
Q 1328 4144 1222 4034 
Q 1116 3925 1116 3625 
L 1116 3319 
L 1763 3319 
L 1763 2881 
L 1116 2881 
L 1116 0 
L 556 0 
z
" transform="scale(0.015625)"/>
       <path id="ArialMT-6f" d="M 213 1659 
Q 213 2581 725 3025 
Q 1153 3394 1769 3394 
Q 2453 3394 2887 2945 
Q 3322 2497 3322 1706 
Q 3322 1066 3130 698 
Q 2938 331 2570 128 
Q 2203 -75 1769 -75 
Q 1072 -75 642 372 
Q 213 819 213 1659 
z
M 791 1659 
Q 791 1022 1069 705 
Q 1347 388 1769 388 
Q 2188 388 2466 706 
Q 2744 1025 2744 1678 
Q 2744 2294 2464 2611 
Q 2184 2928 1769 2928 
Q 1347 2928 1069 2612 
Q 791 2297 791 1659 
z
" transform="scale(0.015625)"/>
       <path id="ArialMT-72" d="M 416 0 
L 416 3319 
L 922 3319 
L 922 2816 
Q 1116 3169 1280 3281 
Q 1444 3394 1641 3394 
Q 1925 3394 2219 3213 
L 2025 2691 
Q 1819 2813 1613 2813 
Q 1428 2813 1281 2702 
Q 1134 2591 1072 2394 
Q 978 2094 978 1738 
L 978 0 
L 416 0 
z
" transform="scale(0.015625)"/>
       <path id="ArialMT-6d" d="M 422 0 
L 422 3319 
L 925 3319 
L 925 2853 
Q 1081 3097 1340 3245 
Q 1600 3394 1931 3394 
Q 2300 3394 2536 3241 
Q 2772 3088 2869 2813 
Q 3263 3394 3894 3394 
Q 4388 3394 4653 3120 
Q 4919 2847 4919 2278 
L 4919 0 
L 4359 0 
L 4359 2091 
Q 4359 2428 4304 2576 
Q 4250 2725 4106 2815 
Q 3963 2906 3769 2906 
Q 3419 2906 3187 2673 
Q 2956 2441 2956 1928 
L 2956 0 
L 2394 0 
L 2394 2156 
Q 2394 2531 2256 2718 
Q 2119 2906 1806 2906 
Q 1569 2906 1367 2781 
Q 1166 2656 1075 2415 
Q 984 2175 984 1722 
L 984 0 
L 422 0 
z
" transform="scale(0.015625)"/>
       <path id="ArialMT-28" d="M 1497 -1347 
Q 1031 -759 709 28 
Q 388 816 388 1659 
Q 388 2403 628 3084 
Q 909 3875 1497 4659 
L 1900 4659 
Q 1522 4009 1400 3731 
Q 1209 3300 1100 2831 
Q 966 2247 966 1656 
Q 966 153 1900 -1347 
L 1497 -1347 
z
" transform="scale(0.015625)"/>
       <path id="DejaVuSans-Oblique-4d" d="M 1081 4666 
L 2028 4666 
L 2572 1522 
L 4378 4666 
L 5350 4666 
L 4441 0 
L 3828 0 
L 4622 4091 
L 2791 897 
L 2175 897 
L 1581 4103 
L 788 0 
L 172 0 
L 1081 4666 
z
" transform="scale(0.015625)"/>
       <path id="DejaVuSans-Oblique-49" d="M 1081 4666 
L 1716 4666 
L 806 0 
L 172 0 
L 1081 4666 
z
" transform="scale(0.015625)"/>
       <path id="ArialMT-29" d="M 791 -1347 
L 388 -1347 
Q 1322 153 1322 1656 
Q 1322 2244 1188 2822 
Q 1081 3291 891 3722 
Q 769 4003 388 4659 
L 791 4659 
Q 1378 3875 1659 3084 
Q 1900 2403 1900 1659 
Q 1900 816 1576 28 
Q 1253 -759 791 -1347 
z
" transform="scale(0.015625)"/>
      </defs>
      <use xlink:href="#ArialMT-4d" transform="translate(0 0.09375)"/>
      <use xlink:href="#ArialMT-75" transform="translate(83.300781 0.09375)"/>
      <use xlink:href="#ArialMT-74" transform="translate(138.916016 0.09375)"/>
      <use xlink:href="#ArialMT-75" transform="translate(166.699219 0.09375)"/>
      <use xlink:href="#ArialMT-61" transform="translate(222.314453 0.09375)"/>
      <use xlink:href="#ArialMT-6c" transform="translate(277.929688 0.09375)"/>
      <use xlink:href="#ArialMT-20" transform="translate(300.146484 0.09375)"/>
      <use xlink:href="#ArialMT-69" transform="translate(327.929688 0.09375)"/>
      <use xlink:href="#ArialMT-6e" transform="translate(350.146484 0.09375)"/>
      <use xlink:href="#ArialMT-66" transform="translate(405.761719 0.09375)"/>
      <use xlink:href="#ArialMT-6f" transform="translate(433.544922 0.09375)"/>
      <use xlink:href="#ArialMT-72" transform="translate(489.160156 0.09375)"/>
      <use xlink:href="#ArialMT-6d" transform="translate(522.460938 0.09375)"/>
      <use xlink:href="#ArialMT-61" transform="translate(605.761719 0.09375)"/>
      <use xlink:href="#ArialMT-74" transform="translate(661.376953 0.09375)"/>
      <use xlink:href="#ArialMT-69" transform="translate(689.160156 0.09375)"/>
      <use xlink:href="#ArialMT-6f" transform="translate(711.376953 0.09375)"/>
      <use xlink:href="#ArialMT-6e" transform="translate(766.992188 0.09375)"/>
      <use xlink:href="#ArialMT-20" transform="translate(822.607422 0.09375)"/>
      <use xlink:href="#ArialMT-28" transform="translate(850.390625 0.09375)"/>
      <use xlink:href="#DejaVuSans-Oblique-4d" transform="translate(883.691406 0.09375)"/>
      <use xlink:href="#DejaVuSans-Oblique-49" transform="translate(969.970703 0.09375)"/>
      <use xlink:href="#ArialMT-29" transform="translate(999.462891 0.09375)"/>
     </g>
    </g>
   </g>
   <g id="matplotlib.axis_2">
    <g id="ytick_1">
     <g id="text_8">
      <!-- $I_{873}$ -->
      <g style="fill: #262626" transform="translate(14.4 83.33145) scale(0.16 -0.16)">
       <defs>
        <path id="DejaVuSans-38" d="M 2034 2216 
Q 1584 2216 1326 1975 
Q 1069 1734 1069 1313 
Q 1069 891 1326 650 
Q 1584 409 2034 409 
Q 2484 409 2743 651 
Q 3003 894 3003 1313 
Q 3003 1734 2745 1975 
Q 2488 2216 2034 2216 
z
M 1403 2484 
Q 997 2584 770 2862 
Q 544 3141 544 3541 
Q 544 4100 942 4425 
Q 1341 4750 2034 4750 
Q 2731 4750 3128 4425 
Q 3525 4100 3525 3541 
Q 3525 3141 3298 2862 
Q 3072 2584 2669 2484 
Q 3125 2378 3379 2068 
Q 3634 1759 3634 1313 
Q 3634 634 3220 271 
Q 2806 -91 2034 -91 
Q 1263 -91 848 271 
Q 434 634 434 1313 
Q 434 1759 690 2068 
Q 947 2378 1403 2484 
z
M 1172 3481 
Q 1172 3119 1398 2916 
Q 1625 2713 2034 2713 
Q 2441 2713 2670 2916 
Q 2900 3119 2900 3481 
Q 2900 3844 2670 4047 
Q 2441 4250 2034 4250 
Q 1625 4250 1398 4047 
Q 1172 3844 1172 3481 
z
" transform="scale(0.015625)"/>
        <path id="DejaVuSans-37" d="M 525 4666 
L 3525 4666 
L 3525 4397 
L 1831 0 
L 1172 0 
L 2766 4134 
L 525 4134 
L 525 4666 
z
" transform="scale(0.015625)"/>
        <path id="DejaVuSans-33" d="M 2597 2516 
Q 3050 2419 3304 2112 
Q 3559 1806 3559 1356 
Q 3559 666 3084 287 
Q 2609 -91 1734 -91 
Q 1441 -91 1130 -33 
Q 819 25 488 141 
L 488 750 
Q 750 597 1062 519 
Q 1375 441 1716 441 
Q 2309 441 2620 675 
Q 2931 909 2931 1356 
Q 2931 1769 2642 2001 
Q 2353 2234 1838 2234 
L 1294 2234 
L 1294 2753 
L 1863 2753 
Q 2328 2753 2575 2939 
Q 2822 3125 2822 3475 
Q 2822 3834 2567 4026 
Q 2313 4219 1838 4219 
Q 1578 4219 1281 4162 
Q 984 4106 628 3988 
L 628 4550 
Q 988 4650 1302 4700 
Q 1616 4750 1894 4750 
Q 2613 4750 3031 4423 
Q 3450 4097 3450 3541 
Q 3450 3153 3228 2886 
Q 3006 2619 2597 2516 
z
" transform="scale(0.015625)"/>
       </defs>
       <use xlink:href="#DejaVuSans-Oblique-49" transform="translate(0 0.09375)"/>
       <use xlink:href="#DejaVuSans-38" transform="translate(29.492188 -16.3125) scale(0.7)"/>
       <use xlink:href="#DejaVuSans-37" transform="translate(74.02832 -16.3125) scale(0.7)"/>
       <use xlink:href="#DejaVuSans-33" transform="translate(118.564453 -16.3125) scale(0.7)"/>
      </g>
     </g>
    </g>
    <g id="ytick_2">
     <g id="text_9">
      <!-- $I_{1726}$ -->
      <g style="fill: #262626" transform="translate(7.2 121.96585) scale(0.16 -0.16)">
       <defs>
        <path id="DejaVuSans-31" d="M 794 531 
L 1825 531 
L 1825 4091 
L 703 3866 
L 703 4441 
L 1819 4666 
L 2450 4666 
L 2450 531 
L 3481 531 
L 3481 0 
L 794 0 
L 794 531 
z
" transform="scale(0.015625)"/>
        <path id="DejaVuSans-32" d="M 1228 531 
L 3431 531 
L 3431 0 
L 469 0 
L 469 531 
Q 828 903 1448 1529 
Q 2069 2156 2228 2338 
Q 2531 2678 2651 2914 
Q 2772 3150 2772 3378 
Q 2772 3750 2511 3984 
Q 2250 4219 1831 4219 
Q 1534 4219 1204 4116 
Q 875 4013 500 3803 
L 500 4441 
Q 881 4594 1212 4672 
Q 1544 4750 1819 4750 
Q 2544 4750 2975 4387 
Q 3406 4025 3406 3419 
Q 3406 3131 3298 2873 
Q 3191 2616 2906 2266 
Q 2828 2175 2409 1742 
Q 1991 1309 1228 531 
z
" transform="scale(0.015625)"/>
        <path id="DejaVuSans-36" d="M 2113 2584 
Q 1688 2584 1439 2293 
Q 1191 2003 1191 1497 
Q 1191 994 1439 701 
Q 1688 409 2113 409 
Q 2538 409 2786 701 
Q 3034 994 3034 1497 
Q 3034 2003 2786 2293 
Q 2538 2584 2113 2584 
z
M 3366 4563 
L 3366 3988 
Q 3128 4100 2886 4159 
Q 2644 4219 2406 4219 
Q 1781 4219 1451 3797 
Q 1122 3375 1075 2522 
Q 1259 2794 1537 2939 
Q 1816 3084 2150 3084 
Q 2853 3084 3261 2657 
Q 3669 2231 3669 1497 
Q 3669 778 3244 343 
Q 2819 -91 2113 -91 
Q 1303 -91 875 529 
Q 447 1150 447 2328 
Q 447 3434 972 4092 
Q 1497 4750 2381 4750 
Q 2619 4750 2861 4703 
Q 3103 4656 3366 4563 
z
" transform="scale(0.015625)"/>
       </defs>
       <use xlink:href="#DejaVuSans-Oblique-49" transform="translate(0 0.09375)"/>
       <use xlink:href="#DejaVuSans-31" transform="translate(29.492188 -16.3125) scale(0.7)"/>
       <use xlink:href="#DejaVuSans-37" transform="translate(74.02832 -16.3125) scale(0.7)"/>
       <use xlink:href="#DejaVuSans-32" transform="translate(118.564453 -16.3125) scale(0.7)"/>
       <use xlink:href="#DejaVuSans-36" transform="translate(163.100586 -16.3125) scale(0.7)"/>
      </g>
     </g>
    </g>
    <g id="ytick_3">
     <g id="text_10">
      <!-- $I_{1241}$ -->
      <g style="fill: #262626" transform="translate(7.2 160.60025) scale(0.16 -0.16)">
       <defs>
        <path id="DejaVuSans-34" d="M 2419 4116 
L 825 1625 
L 2419 1625 
L 2419 4116 
z
M 2253 4666 
L 3047 4666 
L 3047 1625 
L 3713 1625 
L 3713 1100 
L 3047 1100 
L 3047 0 
L 2419 0 
L 2419 1100 
L 313 1100 
L 313 1709 
L 2253 4666 
z
" transform="scale(0.015625)"/>
       </defs>
       <use xlink:href="#DejaVuSans-Oblique-49" transform="translate(0 0.09375)"/>
       <use xlink:href="#DejaVuSans-31" transform="translate(29.492188 -16.3125) scale(0.7)"/>
       <use xlink:href="#DejaVuSans-32" transform="translate(74.02832 -16.3125) scale(0.7)"/>
       <use xlink:href="#DejaVuSans-34" transform="translate(118.564453 -16.3125) scale(0.7)"/>
       <use xlink:href="#DejaVuSans-31" transform="translate(163.100586 -16.3125) scale(0.7)"/>
      </g>
     </g>
    </g>
    <g id="ytick_4">
     <g id="text_11">
      <!-- $I_{1598}$ -->
      <g style="fill: #262626" transform="translate(7.84 199.23465) scale(0.16 -0.16)">
       <defs>
        <path id="DejaVuSans-35" d="M 691 4666 
L 3169 4666 
L 3169 4134 
L 1269 4134 
L 1269 2991 
Q 1406 3038 1543 3061 
Q 1681 3084 1819 3084 
Q 2600 3084 3056 2656 
Q 3513 2228 3513 1497 
Q 3513 744 3044 326 
Q 2575 -91 1722 -91 
Q 1428 -91 1123 -41 
Q 819 9 494 109 
L 494 744 
Q 775 591 1075 516 
Q 1375 441 1709 441 
Q 2250 441 2565 725 
Q 2881 1009 2881 1497 
Q 2881 1984 2565 2268 
Q 2250 2553 1709 2553 
Q 1456 2553 1204 2497 
Q 953 2441 691 2322 
L 691 4666 
z
" transform="scale(0.015625)"/>
        <path id="DejaVuSans-39" d="M 703 97 
L 703 672 
Q 941 559 1184 500 
Q 1428 441 1663 441 
Q 2288 441 2617 861 
Q 2947 1281 2994 2138 
Q 2813 1869 2534 1725 
Q 2256 1581 1919 1581 
Q 1219 1581 811 2004 
Q 403 2428 403 3163 
Q 403 3881 828 4315 
Q 1253 4750 1959 4750 
Q 2769 4750 3195 4129 
Q 3622 3509 3622 2328 
Q 3622 1225 3098 567 
Q 2575 -91 1691 -91 
Q 1453 -91 1209 -44 
Q 966 3 703 97 
z
M 1959 2075 
Q 2384 2075 2632 2365 
Q 2881 2656 2881 3163 
Q 2881 3666 2632 3958 
Q 2384 4250 1959 4250 
Q 1534 4250 1286 3958 
Q 1038 3666 1038 3163 
Q 1038 2656 1286 2365 
Q 1534 2075 1959 2075 
z
" transform="scale(0.015625)"/>
       </defs>
       <use xlink:href="#DejaVuSans-Oblique-49" transform="translate(0 0.09375)"/>
       <use xlink:href="#DejaVuSans-31" transform="translate(29.492188 -16.3125) scale(0.7)"/>
       <use xlink:href="#DejaVuSans-35" transform="translate(74.02832 -16.3125) scale(0.7)"/>
       <use xlink:href="#DejaVuSans-39" transform="translate(114.714453 -16.3125) scale(0.7)"/>
       <use xlink:href="#DejaVuSans-38" transform="translate(159.250586 -16.3125) scale(0.7)"/>
      </g>
     </g>
    </g>
    <g id="ytick_5">
     <g id="text_12">
      <!-- $I_{1638}$ -->
      <g style="fill: #262626" transform="translate(7.2 237.86905) scale(0.16 -0.16)">
       <use xlink:href="#DejaVuSans-Oblique-49" transform="translate(0 0.09375)"/>
       <use xlink:href="#DejaVuSans-31" transform="translate(29.492188 -16.3125) scale(0.7)"/>
       <use xlink:href="#DejaVuSans-36" transform="translate(74.02832 -16.3125) scale(0.7)"/>
       <use xlink:href="#DejaVuSans-33" transform="translate(118.564453 -16.3125) scale(0.7)"/>
       <use xlink:href="#DejaVuSans-38" transform="translate(163.100586 -16.3125) scale(0.7)"/>
      </g>
     </g>
    </g>
   </g>
   <g id="patch_3">
    <path d="M 50.46 64.08316 
L 305.198518 64.08316 
L 305.198518 91.12724 
L 50.46 91.12724 
z
" clip-path="url(#p338afc2e99)" style="fill: #5573cd; opacity: 0.8; stroke: #ffffff; stroke-linejoin: miter"/>
   </g>
   <g id="patch_4">
    <path d="M 50.46 102.71756 
L 291.180953 102.71756 
L 291.180953 129.76164 
L 50.46 129.76164 
z
" clip-path="url(#p338afc2e99)" style="fill: #5573cd; opacity: 0.8; stroke: #ffffff; stroke-linejoin: miter"/>
   </g>
   <g id="patch_5">
    <path d="M 50.46 141.35196 
L 280.629339 141.35196 
L 280.629339 168.39604 
L 50.46 168.39604 
z
" clip-path="url(#p338afc2e99)" style="fill: #5573cd; opacity: 0.8; stroke: #ffffff; stroke-linejoin: miter"/>
   </g>
   <g id="patch_6">
    <path d="M 50.46 179.98636 
L 202.177973 179.98636 
L 202.177973 207.03044 
L 50.46 207.03044 
z
" clip-path="url(#p338afc2e99)" style="fill: #5573cd; opacity: 0.8; stroke: #ffffff; stroke-linejoin: miter"/>
   </g>
   <g id="patch_7">
    <path d="M 50.46 218.62076 
L 173.842879 218.62076 
L 173.842879 245.66484 
L 50.46 245.66484 
z
" clip-path="url(#p338afc2e99)" style="fill: #5573cd; opacity: 0.8; stroke: #ffffff; stroke-linejoin: miter"/>
   </g>
   <g id="line2d_7">
    <path clip-path="url(#p338afc2e99)" style="fill: none; stroke: #424242; stroke-width: 2.25; stroke-linecap: round"/>
   </g>
   <g id="line2d_8">
    <path clip-path="url(#p338afc2e99)" style="fill: none; stroke: #424242; stroke-width: 2.25; stroke-linecap: round"/>
   </g>
   <g id="line2d_9">
    <path clip-path="url(#p338afc2e99)" style="fill: none; stroke: #424242; stroke-width: 2.25; stroke-linecap: round"/>
   </g>
   <g id="line2d_10">
    <path clip-path="url(#p338afc2e99)" style="fill: none; stroke: #424242; stroke-width: 2.25; stroke-linecap: round"/>
   </g>
   <g id="line2d_11">
    <path clip-path="url(#p338afc2e99)" style="fill: none; stroke: #424242; stroke-width: 2.25; stroke-linecap: round"/>
   </g>
   <g id="patch_8">
    <path d="M 50.46 251.46 
L 50.46 58.288 
" style="fill: none; stroke: #ffffff; stroke-width: 1.25; stroke-linejoin: miter; stroke-linecap: square"/>
   </g>
   <g id="patch_9">
    <path d="M 317.935444 251.46 
L 317.935444 58.288 
" style="fill: none; stroke: #ffffff; stroke-width: 1.25; stroke-linejoin: miter; stroke-linecap: square"/>
   </g>
   <g id="patch_10">
    <path d="M 50.46 251.46 
L 317.935444 251.46 
" style="fill: none; stroke: #ffffff; stroke-width: 1.25; stroke-linejoin: miter; stroke-linecap: square"/>
   </g>
   <g id="patch_11">
    <path d="M 50.46 58.288 
L 317.935444 58.288 
" style="fill: none; stroke: #ffffff; stroke-width: 1.25; stroke-linejoin: miter; stroke-linecap: square"/>
   </g>
   <g id="text_13">
    <!-- Peak-based | 1900–800 cm$^{-1}$ -->
    <g style="fill: #262626" transform="translate(65.127722 48.288) scale(0.18 -0.18)">
     <defs>
      <path id="ArialMT-50" d="M 494 0 
L 494 4581 
L 2222 4581 
Q 2678 4581 2919 4538 
Q 3256 4481 3484 4323 
Q 3713 4166 3852 3881 
Q 3991 3597 3991 3256 
Q 3991 2672 3619 2267 
Q 3247 1863 2275 1863 
L 1100 1863 
L 1100 0 
L 494 0 
z
M 1100 2403 
L 2284 2403 
Q 2872 2403 3119 2622 
Q 3366 2841 3366 3238 
Q 3366 3525 3220 3729 
Q 3075 3934 2838 4000 
Q 2684 4041 2272 4041 
L 1100 4041 
L 1100 2403 
z
" transform="scale(0.015625)"/>
      <path id="ArialMT-65" d="M 2694 1069 
L 3275 997 
Q 3138 488 2766 206 
Q 2394 -75 1816 -75 
Q 1088 -75 661 373 
Q 234 822 234 1631 
Q 234 2469 665 2931 
Q 1097 3394 1784 3394 
Q 2450 3394 2872 2941 
Q 3294 2488 3294 1666 
Q 3294 1616 3291 1516 
L 816 1516 
Q 847 969 1125 678 
Q 1403 388 1819 388 
Q 2128 388 2347 550 
Q 2566 713 2694 1069 
z
M 847 1978 
L 2700 1978 
Q 2663 2397 2488 2606 
Q 2219 2931 1791 2931 
Q 1403 2931 1139 2672 
Q 875 2413 847 1978 
z
" transform="scale(0.015625)"/>
      <path id="ArialMT-6b" d="M 425 0 
L 425 4581 
L 988 4581 
L 988 1969 
L 2319 3319 
L 3047 3319 
L 1778 2088 
L 3175 0 
L 2481 0 
L 1384 1697 
L 988 1316 
L 988 0 
L 425 0 
z
" transform="scale(0.015625)"/>
      <path id="ArialMT-2d" d="M 203 1375 
L 203 1941 
L 1931 1941 
L 1931 1375 
L 203 1375 
z
" transform="scale(0.015625)"/>
      <path id="ArialMT-62" d="M 941 0 
L 419 0 
L 419 4581 
L 981 4581 
L 981 2947 
Q 1338 3394 1891 3394 
Q 2197 3394 2470 3270 
Q 2744 3147 2920 2923 
Q 3097 2700 3197 2384 
Q 3297 2069 3297 1709 
Q 3297 856 2875 390 
Q 2453 -75 1863 -75 
Q 1275 -75 941 416 
L 941 0 
z
M 934 1684 
Q 934 1088 1097 822 
Q 1363 388 1816 388 
Q 2184 388 2453 708 
Q 2722 1028 2722 1663 
Q 2722 2313 2464 2622 
Q 2206 2931 1841 2931 
Q 1472 2931 1203 2611 
Q 934 2291 934 1684 
z
" transform="scale(0.015625)"/>
      <path id="ArialMT-73" d="M 197 991 
L 753 1078 
Q 800 744 1014 566 
Q 1228 388 1613 388 
Q 2000 388 2187 545 
Q 2375 703 2375 916 
Q 2375 1106 2209 1216 
Q 2094 1291 1634 1406 
Q 1016 1563 777 1677 
Q 538 1791 414 1992 
Q 291 2194 291 2438 
Q 291 2659 392 2848 
Q 494 3038 669 3163 
Q 800 3259 1026 3326 
Q 1253 3394 1513 3394 
Q 1903 3394 2198 3281 
Q 2494 3169 2634 2976 
Q 2775 2784 2828 2463 
L 2278 2388 
Q 2241 2644 2061 2787 
Q 1881 2931 1553 2931 
Q 1166 2931 1000 2803 
Q 834 2675 834 2503 
Q 834 2394 903 2306 
Q 972 2216 1119 2156 
Q 1203 2125 1616 2013 
Q 2213 1853 2448 1751 
Q 2684 1650 2818 1456 
Q 2953 1263 2953 975 
Q 2953 694 2789 445 
Q 2625 197 2315 61 
Q 2006 -75 1616 -75 
Q 969 -75 630 194 
Q 291 463 197 991 
z
" transform="scale(0.015625)"/>
      <path id="ArialMT-64" d="M 2575 0 
L 2575 419 
Q 2259 -75 1647 -75 
Q 1250 -75 917 144 
Q 584 363 401 755 
Q 219 1147 219 1656 
Q 219 2153 384 2558 
Q 550 2963 881 3178 
Q 1213 3394 1622 3394 
Q 1922 3394 2156 3267 
Q 2391 3141 2538 2938 
L 2538 4581 
L 3097 4581 
L 3097 0 
L 2575 0 
z
M 797 1656 
Q 797 1019 1065 703 
Q 1334 388 1700 388 
Q 2069 388 2326 689 
Q 2584 991 2584 1609 
Q 2584 2291 2321 2609 
Q 2059 2928 1675 2928 
Q 1300 2928 1048 2622 
Q 797 2316 797 1656 
z
" transform="scale(0.015625)"/>
      <path id="ArialMT-7c" d="M 588 -1347 
L 588 4659 
L 1078 4659 
L 1078 -1347 
L 588 -1347 
z
" transform="scale(0.015625)"/>
      <path id="ArialMT-39" d="M 350 1059 
L 891 1109 
Q 959 728 1153 556 
Q 1347 384 1650 384 
Q 1909 384 2104 503 
Q 2300 622 2425 820 
Q 2550 1019 2634 1356 
Q 2719 1694 2719 2044 
Q 2719 2081 2716 2156 
Q 2547 1888 2255 1720 
Q 1963 1553 1622 1553 
Q 1053 1553 659 1965 
Q 266 2378 266 3053 
Q 266 3750 677 4175 
Q 1088 4600 1706 4600 
Q 2153 4600 2523 4359 
Q 2894 4119 3086 3673 
Q 3278 3228 3278 2384 
Q 3278 1506 3087 986 
Q 2897 466 2520 194 
Q 2144 -78 1638 -78 
Q 1100 -78 759 220 
Q 419 519 350 1059 
z
M 2653 3081 
Q 2653 3566 2395 3850 
Q 2138 4134 1775 4134 
Q 1400 4134 1122 3828 
Q 844 3522 844 3034 
Q 844 2597 1108 2323 
Q 1372 2050 1759 2050 
Q 2150 2050 2401 2323 
Q 2653 2597 2653 3081 
z
" transform="scale(0.015625)"/>
      <path id="DejaVuSansDisplay-2013" d="M 313 1978 
L 2888 1978 
L 2888 1528 
L 313 1528 
L 313 1978 
z
" transform="scale(0.015625)"/>
      <path id="ArialMT-63" d="M 2588 1216 
L 3141 1144 
Q 3050 572 2676 248 
Q 2303 -75 1759 -75 
Q 1078 -75 664 370 
Q 250 816 250 1647 
Q 250 2184 428 2587 
Q 606 2991 970 3192 
Q 1334 3394 1763 3394 
Q 2303 3394 2647 3120 
Q 2991 2847 3088 2344 
L 2541 2259 
Q 2463 2594 2264 2762 
Q 2066 2931 1784 2931 
Q 1359 2931 1093 2626 
Q 828 2322 828 1663 
Q 828 994 1084 691 
Q 1341 388 1753 388 
Q 2084 388 2306 591 
Q 2528 794 2588 1216 
z
" transform="scale(0.015625)"/>
      <path id="DejaVuSans-2212" d="M 678 2272 
L 4684 2272 
L 4684 1741 
L 678 1741 
L 678 2272 
z
" transform="scale(0.015625)"/>
     </defs>
     <use xlink:href="#ArialMT-50" transform="translate(0 0.684375)"/>
     <use xlink:href="#ArialMT-65" transform="translate(66.699219 0.684375)"/>
     <use xlink:href="#ArialMT-61" transform="translate(122.314453 0.684375)"/>
     <use xlink:href="#ArialMT-6b" transform="translate(177.929688 0.684375)"/>
     <use xlink:href="#ArialMT-2d" transform="translate(227.929688 0.684375)"/>
     <use xlink:href="#ArialMT-62" transform="translate(261.230469 0.684375)"/>
     <use xlink:href="#ArialMT-61" transform="translate(316.845703 0.684375)"/>
     <use xlink:href="#ArialMT-73" transform="translate(372.460938 0.684375)"/>
     <use xlink:href="#ArialMT-65" transform="translate(422.460938 0.684375)"/>
     <use xlink:href="#ArialMT-64" transform="translate(478.076172 0.684375)"/>
     <use xlink:href="#ArialMT-20" transform="translate(533.691406 0.684375)"/>
     <use xlink:href="#ArialMT-7c" transform="translate(561.474609 0.684375)"/>
     <use xlink:href="#ArialMT-20" transform="translate(587.451172 0.684375)"/>
     <use xlink:href="#ArialMT-31" transform="translate(615.234375 0.684375)"/>
     <use xlink:href="#ArialMT-39" transform="translate(670.849609 0.684375)"/>
     <use xlink:href="#ArialMT-30" transform="translate(726.464844 0.684375)"/>
     <use xlink:href="#ArialMT-30" transform="translate(782.080078 0.684375)"/>
     <use xlink:href="#DejaVuSansDisplay-2013" transform="translate(837.695312 0.684375)"/>
     <use xlink:href="#ArialMT-38" transform="translate(887.695312 0.684375)"/>
     <use xlink:href="#ArialMT-30" transform="translate(943.310547 0.684375)"/>
     <use xlink:href="#ArialMT-30" transform="translate(998.925781 0.684375)"/>
     <use xlink:href="#ArialMT-20" transform="translate(1054.541016 0.684375)"/>
     <use xlink:href="#ArialMT-63" transform="translate(1082.324219 0.684375)"/>
     <use xlink:href="#ArialMT-6d" transform="translate(1132.324219 0.684375)"/>
     <use xlink:href="#DejaVuSans-2212" transform="translate(1216.582031 38.965625) scale(0.7)"/>
     <use xlink:href="#DejaVuSans-31" transform="translate(1275.234375 38.965625) scale(0.7)"/>
    </g>
   </g>
  </g>
  <g id="axes_2">
   <g id="patch_12">
    <path d="M 434.584772 251.46 
L 702.060216 251.46 
L 702.060216 58.288 
L 434.584772 58.288 
z
" style="fill: #eaeaf2"/>
   </g>
   <g id="matplotlib.axis_3">
    <g id="xtick_7">
     <g id="line2d_12">
      <path d="M 434.584772 251.46 
L 434.584772 58.288 
" clip-path="url(#pc5f5edfc71)" style="fill: none; stroke: #ffffff; stroke-linecap: round"/>
     </g>
     <g id="text_14">
      <!-- 0.00 -->
      <g style="fill: #262626" transform="translate(420.962116 270.980938) scale(0.14 -0.14)">
       <use xlink:href="#ArialMT-30"/>
       <use xlink:href="#ArialMT-2e" transform="translate(55.615234 0)"/>
       <use xlink:href="#ArialMT-30" transform="translate(83.398438 0)"/>
       <use xlink:href="#ArialMT-30" transform="translate(139.013672 0)"/>
      </g>
     </g>
    </g>
    <g id="xtick_8">
     <g id="line2d_13">
      <path d="M 481.396432 251.46 
L 481.396432 58.288 
" clip-path="url(#pc5f5edfc71)" style="fill: none; stroke: #ffffff; stroke-linecap: round"/>
     </g>
     <g id="text_15">
      <!-- 0.05 -->
      <g style="fill: #262626" transform="translate(467.773776 270.980938) scale(0.14 -0.14)">
       <defs>
        <path id="ArialMT-35" d="M 266 1200 
L 856 1250 
Q 922 819 1161 601 
Q 1400 384 1738 384 
Q 2144 384 2425 690 
Q 2706 997 2706 1503 
Q 2706 1984 2436 2262 
Q 2166 2541 1728 2541 
Q 1456 2541 1237 2417 
Q 1019 2294 894 2097 
L 366 2166 
L 809 4519 
L 3088 4519 
L 3088 3981 
L 1259 3981 
L 1013 2750 
Q 1425 3038 1878 3038 
Q 2478 3038 2890 2622 
Q 3303 2206 3303 1553 
Q 3303 931 2941 478 
Q 2500 -78 1738 -78 
Q 1113 -78 717 272 
Q 322 622 266 1200 
z
" transform="scale(0.015625)"/>
       </defs>
       <use xlink:href="#ArialMT-30"/>
       <use xlink:href="#ArialMT-2e" transform="translate(55.615234 0)"/>
       <use xlink:href="#ArialMT-30" transform="translate(83.398438 0)"/>
       <use xlink:href="#ArialMT-35" transform="translate(139.013672 0)"/>
      </g>
     </g>
    </g>
    <g id="xtick_9">
     <g id="line2d_14">
      <path d="M 528.208091 251.46 
L 528.208091 58.288 
" clip-path="url(#pc5f5edfc71)" style="fill: none; stroke: #ffffff; stroke-linecap: round"/>
     </g>
     <g id="text_16">
      <!-- 0.10 -->
      <g style="fill: #262626" transform="translate(514.585435 270.980938) scale(0.14 -0.14)">
       <use xlink:href="#ArialMT-30"/>
       <use xlink:href="#ArialMT-2e" transform="translate(55.615234 0)"/>
       <use xlink:href="#ArialMT-31" transform="translate(83.398438 0)"/>
       <use xlink:href="#ArialMT-30" transform="translate(139.013672 0)"/>
      </g>
     </g>
    </g>
    <g id="xtick_10">
     <g id="line2d_15">
      <path d="M 575.019751 251.46 
L 575.019751 58.288 
" clip-path="url(#pc5f5edfc71)" style="fill: none; stroke: #ffffff; stroke-linecap: round"/>
     </g>
     <g id="text_17">
      <!-- 0.15 -->
      <g style="fill: #262626" transform="translate(561.397094 270.980938) scale(0.14 -0.14)">
       <use xlink:href="#ArialMT-30"/>
       <use xlink:href="#ArialMT-2e" transform="translate(55.615234 0)"/>
       <use xlink:href="#ArialMT-31" transform="translate(83.398438 0)"/>
       <use xlink:href="#ArialMT-35" transform="translate(139.013672 0)"/>
      </g>
     </g>
    </g>
    <g id="xtick_11">
     <g id="line2d_16">
      <path d="M 621.83141 251.46 
L 621.83141 58.288 
" clip-path="url(#pc5f5edfc71)" style="fill: none; stroke: #ffffff; stroke-linecap: round"/>
     </g>
     <g id="text_18">
      <!-- 0.20 -->
      <g style="fill: #262626" transform="translate(608.208754 270.980938) scale(0.14 -0.14)">
       <use xlink:href="#ArialMT-30"/>
       <use xlink:href="#ArialMT-2e" transform="translate(55.615234 0)"/>
       <use xlink:href="#ArialMT-32" transform="translate(83.398438 0)"/>
       <use xlink:href="#ArialMT-30" transform="translate(139.013672 0)"/>
      </g>
     </g>
    </g>
    <g id="xtick_12">
     <g id="line2d_17">
      <path d="M 668.643069 251.46 
L 668.643069 58.288 
" clip-path="url(#pc5f5edfc71)" style="fill: none; stroke: #ffffff; stroke-linecap: round"/>
     </g>
     <g id="text_19">
      <!-- 0.25 -->
      <g style="fill: #262626" transform="translate(655.020413 270.980938) scale(0.14 -0.14)">
       <use xlink:href="#ArialMT-30"/>
       <use xlink:href="#ArialMT-2e" transform="translate(55.615234 0)"/>
       <use xlink:href="#ArialMT-32" transform="translate(83.398438 0)"/>
       <use xlink:href="#ArialMT-35" transform="translate(139.013672 0)"/>
      </g>
     </g>
    </g>
    <g id="text_20">
     <!-- Mutual information ($MI$) -->
     <g style="fill: #262626" transform="translate(485.682494 295.443438) scale(0.16 -0.16)">
      <use xlink:href="#ArialMT-4d" transform="translate(0 0.09375)"/>
      <use xlink:href="#ArialMT-75" transform="translate(83.300781 0.09375)"/>
      <use xlink:href="#ArialMT-74" transform="translate(138.916016 0.09375)"/>
      <use xlink:href="#ArialMT-75" transform="translate(166.699219 0.09375)"/>
      <use xlink:href="#ArialMT-61" transform="translate(222.314453 0.09375)"/>
      <use xlink:href="#ArialMT-6c" transform="translate(277.929688 0.09375)"/>
      <use xlink:href="#ArialMT-20" transform="translate(300.146484 0.09375)"/>
      <use xlink:href="#ArialMT-69" transform="translate(327.929688 0.09375)"/>
      <use xlink:href="#ArialMT-6e" transform="translate(350.146484 0.09375)"/>
      <use xlink:href="#ArialMT-66" transform="translate(405.761719 0.09375)"/>
      <use xlink:href="#ArialMT-6f" transform="translate(433.544922 0.09375)"/>
      <use xlink:href="#ArialMT-72" transform="translate(489.160156 0.09375)"/>
      <use xlink:href="#ArialMT-6d" transform="translate(522.460938 0.09375)"/>
      <use xlink:href="#ArialMT-61" transform="translate(605.761719 0.09375)"/>
      <use xlink:href="#ArialMT-74" transform="translate(661.376953 0.09375)"/>
      <use xlink:href="#ArialMT-69" transform="translate(689.160156 0.09375)"/>
      <use xlink:href="#ArialMT-6f" transform="translate(711.376953 0.09375)"/>
      <use xlink:href="#ArialMT-6e" transform="translate(766.992188 0.09375)"/>
      <use xlink:href="#ArialMT-20" transform="translate(822.607422 0.09375)"/>
      <use xlink:href="#ArialMT-28" transform="translate(850.390625 0.09375)"/>
      <use xlink:href="#DejaVuSans-Oblique-4d" transform="translate(883.691406 0.09375)"/>
      <use xlink:href="#DejaVuSans-Oblique-49" transform="translate(969.970703 0.09375)"/>
      <use xlink:href="#ArialMT-29" transform="translate(999.462891 0.09375)"/>
     </g>
    </g>
   </g>
   <g id="matplotlib.axis_4">
    <g id="ytick_6">
     <g id="text_21">
      <!-- $\Sigma I_{p,\ 1900\text{–}1500}$ -->
      <g style="fill: #262626" transform="translate(330.684772 83.4452) scale(0.16 -0.16)">
       <defs>
        <path id="DejaVuSans-3a3" d="M 1353 531 
L 3634 531 
L 3634 0 
L 628 0 
L 628 531 
L 2125 2481 
L 628 4134 
L 628 4666 
L 3578 4666 
L 3578 4134 
L 1353 4134 
L 2850 2494 
L 1353 531 
z
" transform="scale(0.015625)"/>
        <path id="DejaVuSans-Oblique-70" d="M 3175 2156 
Q 3175 2616 2975 2859 
Q 2775 3103 2400 3103 
Q 2144 3103 1911 2972 
Q 1678 2841 1497 2591 
Q 1319 2344 1212 1994 
Q 1106 1644 1106 1300 
Q 1106 863 1306 627 
Q 1506 391 1875 391 
Q 2147 391 2380 519 
Q 2613 647 2778 891 
Q 2956 1147 3065 1494 
Q 3175 1841 3175 2156 
z
M 1394 2969 
Q 1625 3272 1939 3428 
Q 2253 3584 2638 3584 
Q 3175 3584 3472 3232 
Q 3769 2881 3769 2247 
Q 3769 1728 3584 1258 
Q 3400 788 3053 416 
Q 2822 169 2531 39 
Q 2241 -91 1919 -91 
Q 1547 -91 1294 64 
Q 1041 219 916 525 
L 556 -1331 
L -19 -1331 
L 922 3500 
L 1497 3500 
L 1394 2969 
z
" transform="scale(0.015625)"/>
        <path id="DejaVuSans-2c" d="M 750 794 
L 1409 794 
L 1409 256 
L 897 -744 
L 494 -744 
L 750 256 
L 750 794 
z
" transform="scale(0.015625)"/>
        <path id="DejaVuSans-30" d="M 2034 4250 
Q 1547 4250 1301 3770 
Q 1056 3291 1056 2328 
Q 1056 1369 1301 889 
Q 1547 409 2034 409 
Q 2525 409 2770 889 
Q 3016 1369 3016 2328 
Q 3016 3291 2770 3770 
Q 2525 4250 2034 4250 
z
M 2034 4750 
Q 2819 4750 3233 4129 
Q 3647 3509 3647 2328 
Q 3647 1150 3233 529 
Q 2819 -91 2034 -91 
Q 1250 -91 836 529 
Q 422 1150 422 2328 
Q 422 3509 836 4129 
Q 1250 4750 2034 4750 
z
" transform="scale(0.015625)"/>
       </defs>
       <use xlink:href="#DejaVuSans-3a3" transform="translate(0 0.09375)"/>
       <use xlink:href="#DejaVuSans-Oblique-49" transform="translate(63.183594 0.09375)"/>
       <use xlink:href="#DejaVuSans-Oblique-70" transform="translate(92.675781 -16.3125) scale(0.7)"/>
       <use xlink:href="#DejaVuSans-2c" transform="translate(137.109375 -16.3125) scale(0.7)"/>
       <use xlink:href="#DejaVuSans-31" transform="translate(195.727312 -16.3125) scale(0.7)"/>
       <use xlink:href="#DejaVuSans-39" transform="translate(240.263445 -16.3125) scale(0.7)"/>
       <use xlink:href="#DejaVuSans-30" transform="translate(284.799577 -16.3125) scale(0.7)"/>
       <use xlink:href="#DejaVuSans-30" transform="translate(329.33571 -16.3125) scale(0.7)"/>
       <use xlink:href="#DejaVuSansDisplay-2013" transform="translate(373.871843 -16.3125) scale(0.7)"/>
       <use xlink:href="#DejaVuSans-31" transform="translate(408.871843 -16.3125) scale(0.7)"/>
       <use xlink:href="#DejaVuSans-35" transform="translate(453.407976 -16.3125) scale(0.7)"/>
       <use xlink:href="#DejaVuSans-30" transform="translate(497.944109 -16.3125) scale(0.7)"/>
       <use xlink:href="#DejaVuSans-30" transform="translate(542.480241 -16.3125) scale(0.7)"/>
      </g>
     </g>
    </g>
    <g id="ytick_7">
     <g id="text_22">
      <!-- $\Sigma I_{p,\ 1600\text{–}1300}$ -->
      <g style="fill: #262626" transform="translate(330.684772 122.0796) scale(0.16 -0.16)">
       <use xlink:href="#DejaVuSans-3a3" transform="translate(0 0.09375)"/>
       <use xlink:href="#DejaVuSans-Oblique-49" transform="translate(63.183594 0.09375)"/>
       <use xlink:href="#DejaVuSans-Oblique-70" transform="translate(92.675781 -16.3125) scale(0.7)"/>
       <use xlink:href="#DejaVuSans-2c" transform="translate(137.109375 -16.3125) scale(0.7)"/>
       <use xlink:href="#DejaVuSans-31" transform="translate(195.727312 -16.3125) scale(0.7)"/>
       <use xlink:href="#DejaVuSans-36" transform="translate(240.263445 -16.3125) scale(0.7)"/>
       <use xlink:href="#DejaVuSans-30" transform="translate(284.799577 -16.3125) scale(0.7)"/>
       <use xlink:href="#DejaVuSans-30" transform="translate(329.33571 -16.3125) scale(0.7)"/>
       <use xlink:href="#DejaVuSansDisplay-2013" transform="translate(373.871843 -16.3125) scale(0.7)"/>
       <use xlink:href="#DejaVuSans-31" transform="translate(408.871843 -16.3125) scale(0.7)"/>
       <use xlink:href="#DejaVuSans-33" transform="translate(453.407976 -16.3125) scale(0.7)"/>
       <use xlink:href="#DejaVuSans-30" transform="translate(497.944109 -16.3125) scale(0.7)"/>
       <use xlink:href="#DejaVuSans-30" transform="translate(542.480241 -16.3125) scale(0.7)"/>
      </g>
     </g>
    </g>
    <g id="ytick_8">
     <g id="text_23">
      <!-- $\overline{I}_{1600\text{–}1300}$ -->
      <g style="fill: #262626" transform="translate(357.084772 162.564) scale(0.16 -0.16)">
       <use xlink:href="#DejaVuSans-Oblique-49" transform="translate(0 0.84375)"/>
       <use xlink:href="#DejaVuSans-31" transform="translate(30.449219 -16.0625) scale(0.7)"/>
       <use xlink:href="#DejaVuSans-36" transform="translate(74.985352 -16.0625) scale(0.7)"/>
       <use xlink:href="#DejaVuSans-30" transform="translate(119.521484 -16.0625) scale(0.7)"/>
       <use xlink:href="#DejaVuSans-30" transform="translate(164.057617 -16.0625) scale(0.7)"/>
       <use xlink:href="#DejaVuSansDisplay-2013" transform="translate(208.59375 -16.0625) scale(0.7)"/>
       <use xlink:href="#DejaVuSans-31" transform="translate(243.59375 -16.0625) scale(0.7)"/>
       <use xlink:href="#DejaVuSans-33" transform="translate(288.129883 -16.0625) scale(0.7)"/>
       <use xlink:href="#DejaVuSans-30" transform="translate(332.666016 -16.0625) scale(0.7)"/>
       <use xlink:href="#DejaVuSans-30" transform="translate(377.202148 -16.0625) scale(0.7)"/>
       <path d="M 0 85.5 
L 0 91.75 
L 29.492188 91.75 
L 29.492188 85.5 
L 0 85.5 
z
"/>
      </g>
     </g>
    </g>
    <g id="ytick_9">
     <g id="text_24">
      <!-- $\overline{I}_{1900\text{–}1500}$ -->
      <g style="fill: #262626" transform="translate(357.084772 201.1984) scale(0.16 -0.16)">
       <use xlink:href="#DejaVuSans-Oblique-49" transform="translate(0 0.84375)"/>
       <use xlink:href="#DejaVuSans-31" transform="translate(30.449219 -16.0625) scale(0.7)"/>
       <use xlink:href="#DejaVuSans-39" transform="translate(74.985352 -16.0625) scale(0.7)"/>
       <use xlink:href="#DejaVuSans-30" transform="translate(119.521484 -16.0625) scale(0.7)"/>
       <use xlink:href="#DejaVuSans-30" transform="translate(164.057617 -16.0625) scale(0.7)"/>
       <use xlink:href="#DejaVuSansDisplay-2013" transform="translate(208.59375 -16.0625) scale(0.7)"/>
       <use xlink:href="#DejaVuSans-31" transform="translate(243.59375 -16.0625) scale(0.7)"/>
       <use xlink:href="#DejaVuSans-35" transform="translate(288.129883 -16.0625) scale(0.7)"/>
       <use xlink:href="#DejaVuSans-30" transform="translate(332.666016 -16.0625) scale(0.7)"/>
       <use xlink:href="#DejaVuSans-30" transform="translate(377.202148 -16.0625) scale(0.7)"/>
       <path d="M 0 85.5 
L 0 91.75 
L 29.492188 91.75 
L 29.492188 85.5 
L 0 85.5 
z
"/>
      </g>
     </g>
    </g>
    <g id="ytick_10">
     <g id="text_25">
      <!-- $\overline{I}_{1900\text{–}800}$ -->
      <g style="fill: #262626" transform="translate(364.284772 239.8328) scale(0.16 -0.16)">
       <use xlink:href="#DejaVuSans-Oblique-49" transform="translate(0 0.84375)"/>
       <use xlink:href="#DejaVuSans-31" transform="translate(30.449219 -16.0625) scale(0.7)"/>
       <use xlink:href="#DejaVuSans-39" transform="translate(74.985352 -16.0625) scale(0.7)"/>
       <use xlink:href="#DejaVuSans-30" transform="translate(119.521484 -16.0625) scale(0.7)"/>
       <use xlink:href="#DejaVuSans-30" transform="translate(164.057617 -16.0625) scale(0.7)"/>
       <use xlink:href="#DejaVuSansDisplay-2013" transform="translate(208.59375 -16.0625) scale(0.7)"/>
       <use xlink:href="#DejaVuSans-38" transform="translate(243.59375 -16.0625) scale(0.7)"/>
       <use xlink:href="#DejaVuSans-30" transform="translate(288.129883 -16.0625) scale(0.7)"/>
       <use xlink:href="#DejaVuSans-30" transform="translate(332.666016 -16.0625) scale(0.7)"/>
       <path d="M 0 85.5 
L 0 91.75 
L 29.492188 91.75 
L 29.492188 85.5 
L 0 85.5 
z
"/>
      </g>
     </g>
    </g>
   </g>
   <g id="patch_13">
    <path d="M 434.584772 64.08316 
L 689.32329 64.08316 
L 689.32329 91.12724 
L 434.584772 91.12724 
z
" clip-path="url(#pc5f5edfc71)" style="fill: #5573cd; opacity: 0.8; stroke: #ffffff; stroke-linejoin: miter"/>
   </g>
   <g id="patch_14">
    <path d="M 434.584772 102.71756 
L 627.581908 102.71756 
L 627.581908 129.76164 
L 434.584772 129.76164 
z
" clip-path="url(#pc5f5edfc71)" style="fill: #5573cd; opacity: 0.8; stroke: #ffffff; stroke-linejoin: miter"/>
   </g>
   <g id="patch_15">
    <path d="M 434.584772 141.35196 
L 613.381128 141.35196 
L 613.381128 168.39604 
L 434.584772 168.39604 
z
" clip-path="url(#pc5f5edfc71)" style="fill: #5573cd; opacity: 0.8; stroke: #ffffff; stroke-linejoin: miter"/>
   </g>
   <g id="patch_16">
    <path d="M 434.584772 179.98636 
L 547.694849 179.98636 
L 547.694849 207.03044 
L 434.584772 207.03044 
z
" clip-path="url(#pc5f5edfc71)" style="fill: #5573cd; opacity: 0.8; stroke: #ffffff; stroke-linejoin: miter"/>
   </g>
   <g id="patch_17">
    <path d="M 434.584772 218.62076 
L 521.575742 218.62076 
L 521.575742 245.66484 
L 434.584772 245.66484 
z
" clip-path="url(#pc5f5edfc71)" style="fill: #5573cd; opacity: 0.8; stroke: #ffffff; stroke-linejoin: miter"/>
   </g>
   <g id="line2d_18">
    <path clip-path="url(#pc5f5edfc71)" style="fill: none; stroke: #424242; stroke-width: 2.25; stroke-linecap: round"/>
   </g>
   <g id="line2d_19">
    <path clip-path="url(#pc5f5edfc71)" style="fill: none; stroke: #424242; stroke-width: 2.25; stroke-linecap: round"/>
   </g>
   <g id="line2d_20">
    <path clip-path="url(#pc5f5edfc71)" style="fill: none; stroke: #424242; stroke-width: 2.25; stroke-linecap: round"/>
   </g>
   <g id="line2d_21">
    <path clip-path="url(#pc5f5edfc71)" style="fill: none; stroke: #424242; stroke-width: 2.25; stroke-linecap: round"/>
   </g>
   <g id="line2d_22">
    <path clip-path="url(#pc5f5edfc71)" style="fill: none; stroke: #424242; stroke-width: 2.25; stroke-linecap: round"/>
   </g>
   <g id="patch_18">
    <path d="M 434.584772 251.46 
L 434.584772 58.288 
" style="fill: none; stroke: #ffffff; stroke-width: 1.25; stroke-linejoin: miter; stroke-linecap: square"/>
   </g>
   <g id="patch_19">
    <path d="M 702.060216 251.46 
L 702.060216 58.288 
" style="fill: none; stroke: #ffffff; stroke-width: 1.25; stroke-linejoin: miter; stroke-linecap: square"/>
   </g>
   <g id="patch_20">
    <path d="M 434.584772 251.46 
L 702.060216 251.46 
" style="fill: none; stroke: #ffffff; stroke-width: 1.25; stroke-linejoin: miter; stroke-linecap: square"/>
   </g>
   <g id="patch_21">
    <path d="M 434.584772 58.288 
L 702.060216 58.288 
" style="fill: none; stroke: #ffffff; stroke-width: 1.25; stroke-linejoin: miter; stroke-linecap: square"/>
   </g>
   <g id="text_26">
    <!-- Region-based | 1900–800 cm$^{-1}$ -->
    <g style="fill: #262626" transform="translate(441.242494 48.288) scale(0.18 -0.18)">
     <defs>
      <path id="ArialMT-52" d="M 503 0 
L 503 4581 
L 2534 4581 
Q 3147 4581 3465 4457 
Q 3784 4334 3975 4021 
Q 4166 3709 4166 3331 
Q 4166 2844 3850 2509 
Q 3534 2175 2875 2084 
Q 3116 1969 3241 1856 
Q 3506 1613 3744 1247 
L 4541 0 
L 3778 0 
L 3172 953 
Q 2906 1366 2734 1584 
Q 2563 1803 2427 1890 
Q 2291 1978 2150 2013 
Q 2047 2034 1813 2034 
L 1109 2034 
L 1109 0 
L 503 0 
z
M 1109 2559 
L 2413 2559 
Q 2828 2559 3062 2645 
Q 3297 2731 3419 2920 
Q 3541 3109 3541 3331 
Q 3541 3656 3305 3865 
Q 3069 4075 2559 4075 
L 1109 4075 
L 1109 2559 
z
" transform="scale(0.015625)"/>
      <path id="ArialMT-67" d="M 319 -275 
L 866 -356 
Q 900 -609 1056 -725 
Q 1266 -881 1628 -881 
Q 2019 -881 2231 -725 
Q 2444 -569 2519 -288 
Q 2563 -116 2559 434 
Q 2191 0 1641 0 
Q 956 0 581 494 
Q 206 988 206 1678 
Q 206 2153 378 2554 
Q 550 2956 876 3175 
Q 1203 3394 1644 3394 
Q 2231 3394 2613 2919 
L 2613 3319 
L 3131 3319 
L 3131 450 
Q 3131 -325 2973 -648 
Q 2816 -972 2473 -1159 
Q 2131 -1347 1631 -1347 
Q 1038 -1347 672 -1080 
Q 306 -813 319 -275 
z
M 784 1719 
Q 784 1066 1043 766 
Q 1303 466 1694 466 
Q 2081 466 2343 764 
Q 2606 1063 2606 1700 
Q 2606 2309 2336 2618 
Q 2066 2928 1684 2928 
Q 1309 2928 1046 2623 
Q 784 2319 784 1719 
z
" transform="scale(0.015625)"/>
     </defs>
     <use xlink:href="#ArialMT-52" transform="translate(0 0.684375)"/>
     <use xlink:href="#ArialMT-65" transform="translate(72.216797 0.684375)"/>
     <use xlink:href="#ArialMT-67" transform="translate(127.832031 0.684375)"/>
     <use xlink:href="#ArialMT-69" transform="translate(183.447266 0.684375)"/>
     <use xlink:href="#ArialMT-6f" transform="translate(205.664062 0.684375)"/>
     <use xlink:href="#ArialMT-6e" transform="translate(261.279297 0.684375)"/>
     <use xlink:href="#ArialMT-2d" transform="translate(316.894531 0.684375)"/>
     <use xlink:href="#ArialMT-62" transform="translate(350.195312 0.684375)"/>
     <use xlink:href="#ArialMT-61" transform="translate(405.810547 0.684375)"/>
     <use xlink:href="#ArialMT-73" transform="translate(461.425781 0.684375)"/>
     <use xlink:href="#ArialMT-65" transform="translate(511.425781 0.684375)"/>
     <use xlink:href="#ArialMT-64" transform="translate(567.041016 0.684375)"/>
     <use xlink:href="#ArialMT-20" transform="translate(622.65625 0.684375)"/>
     <use xlink:href="#ArialMT-7c" transform="translate(650.439453 0.684375)"/>
     <use xlink:href="#ArialMT-20" transform="translate(676.416016 0.684375)"/>
     <use xlink:href="#ArialMT-31" transform="translate(704.199219 0.684375)"/>
     <use xlink:href="#ArialMT-39" transform="translate(759.814453 0.684375)"/>
     <use xlink:href="#ArialMT-30" transform="translate(815.429688 0.684375)"/>
     <use xlink:href="#ArialMT-30" transform="translate(871.044922 0.684375)"/>
     <use xlink:href="#DejaVuSansDisplay-2013" transform="translate(926.660156 0.684375)"/>
     <use xlink:href="#ArialMT-38" transform="translate(976.660156 0.684375)"/>
     <use xlink:href="#ArialMT-30" transform="translate(1032.275391 0.684375)"/>
     <use xlink:href="#ArialMT-30" transform="translate(1087.890625 0.684375)"/>
     <use xlink:href="#ArialMT-20" transform="translate(1143.505859 0.684375)"/>
     <use xlink:href="#ArialMT-63" transform="translate(1171.289062 0.684375)"/>
     <use xlink:href="#ArialMT-6d" transform="translate(1221.289062 0.684375)"/>
     <use xlink:href="#DejaVuSans-2212" transform="translate(1305.546875 38.965625) scale(0.7)"/>
     <use xlink:href="#DejaVuSans-31" transform="translate(1364.199219 38.965625) scale(0.7)"/>
    </g>
   </g>
  </g>
  <g id="axes_3">
   <g id="patch_22">
    <path d="M 50.46 532.98 
L 317.935444 532.98 
L 317.935444 339.808 
L 50.46 339.808 
z
" style="fill: #eaeaf2"/>
   </g>
   <g id="matplotlib.axis_5">
    <g id="xtick_13">
     <g id="line2d_23">
      <path d="M 50.46 532.98 
L 50.46 339.808 
" clip-path="url(#p912dba2048)" style="fill: none; stroke: #ffffff; stroke-linecap: round"/>
     </g>
     <g id="text_27">
      <!-- 0.00 -->
      <g style="fill: #262626" transform="translate(36.837344 552.500937) scale(0.14 -0.14)">
       <use xlink:href="#ArialMT-30"/>
       <use xlink:href="#ArialMT-2e" transform="translate(55.615234 0)"/>
       <use xlink:href="#ArialMT-30" transform="translate(83.398438 0)"/>
       <use xlink:href="#ArialMT-30" transform="translate(139.013672 0)"/>
      </g>
     </g>
    </g>
    <g id="xtick_14">
     <g id="line2d_24">
      <path d="M 92.206958 532.98 
L 92.206958 339.808 
" clip-path="url(#p912dba2048)" style="fill: none; stroke: #ffffff; stroke-linecap: round"/>
     </g>
     <g id="text_28">
      <!-- 0.06 -->
      <g style="fill: #262626" transform="translate(78.584302 552.500937) scale(0.14 -0.14)">
       <use xlink:href="#ArialMT-30"/>
       <use xlink:href="#ArialMT-2e" transform="translate(55.615234 0)"/>
       <use xlink:href="#ArialMT-30" transform="translate(83.398438 0)"/>
       <use xlink:href="#ArialMT-36" transform="translate(139.013672 0)"/>
      </g>
     </g>
    </g>
    <g id="xtick_15">
     <g id="line2d_25">
      <path d="M 133.953916 532.98 
L 133.953916 339.808 
" clip-path="url(#p912dba2048)" style="fill: none; stroke: #ffffff; stroke-linecap: round"/>
     </g>
     <g id="text_29">
      <!-- 0.12 -->
      <g style="fill: #262626" transform="translate(120.33126 552.500937) scale(0.14 -0.14)">
       <use xlink:href="#ArialMT-30"/>
       <use xlink:href="#ArialMT-2e" transform="translate(55.615234 0)"/>
       <use xlink:href="#ArialMT-31" transform="translate(83.398438 0)"/>
       <use xlink:href="#ArialMT-32" transform="translate(139.013672 0)"/>
      </g>
     </g>
    </g>
    <g id="xtick_16">
     <g id="line2d_26">
      <path d="M 175.700874 532.98 
L 175.700874 339.808 
" clip-path="url(#p912dba2048)" style="fill: none; stroke: #ffffff; stroke-linecap: round"/>
     </g>
     <g id="text_30">
      <!-- 0.18 -->
      <g style="fill: #262626" transform="translate(162.078218 552.500937) scale(0.14 -0.14)">
       <use xlink:href="#ArialMT-30"/>
       <use xlink:href="#ArialMT-2e" transform="translate(55.615234 0)"/>
       <use xlink:href="#ArialMT-31" transform="translate(83.398438 0)"/>
       <use xlink:href="#ArialMT-38" transform="translate(139.013672 0)"/>
      </g>
     </g>
    </g>
    <g id="xtick_17">
     <g id="line2d_27">
      <path d="M 217.447833 532.98 
L 217.447833 339.808 
" clip-path="url(#p912dba2048)" style="fill: none; stroke: #ffffff; stroke-linecap: round"/>
     </g>
     <g id="text_31">
      <!-- 0.24 -->
      <g style="fill: #262626" transform="translate(203.825176 552.500937) scale(0.14 -0.14)">
       <use xlink:href="#ArialMT-30"/>
       <use xlink:href="#ArialMT-2e" transform="translate(55.615234 0)"/>
       <use xlink:href="#ArialMT-32" transform="translate(83.398438 0)"/>
       <use xlink:href="#ArialMT-34" transform="translate(139.013672 0)"/>
      </g>
     </g>
    </g>
    <g id="xtick_18">
     <g id="line2d_28">
      <path d="M 259.194791 532.98 
L 259.194791 339.808 
" clip-path="url(#p912dba2048)" style="fill: none; stroke: #ffffff; stroke-linecap: round"/>
     </g>
     <g id="text_32">
      <!-- 0.30 -->
      <g style="fill: #262626" transform="translate(245.572134 552.500937) scale(0.14 -0.14)">
       <defs>
        <path id="ArialMT-33" d="M 269 1209 
L 831 1284 
Q 928 806 1161 595 
Q 1394 384 1728 384 
Q 2125 384 2398 659 
Q 2672 934 2672 1341 
Q 2672 1728 2419 1979 
Q 2166 2231 1775 2231 
Q 1616 2231 1378 2169 
L 1441 2663 
Q 1497 2656 1531 2656 
Q 1891 2656 2178 2843 
Q 2466 3031 2466 3422 
Q 2466 3731 2256 3934 
Q 2047 4138 1716 4138 
Q 1388 4138 1169 3931 
Q 950 3725 888 3313 
L 325 3413 
Q 428 3978 793 4289 
Q 1159 4600 1703 4600 
Q 2078 4600 2393 4439 
Q 2709 4278 2876 4000 
Q 3044 3722 3044 3409 
Q 3044 3113 2884 2869 
Q 2725 2625 2413 2481 
Q 2819 2388 3044 2092 
Q 3269 1797 3269 1353 
Q 3269 753 2831 336 
Q 2394 -81 1725 -81 
Q 1122 -81 723 278 
Q 325 638 269 1209 
z
" transform="scale(0.015625)"/>
       </defs>
       <use xlink:href="#ArialMT-30"/>
       <use xlink:href="#ArialMT-2e" transform="translate(55.615234 0)"/>
       <use xlink:href="#ArialMT-33" transform="translate(83.398438 0)"/>
       <use xlink:href="#ArialMT-30" transform="translate(139.013672 0)"/>
      </g>
     </g>
    </g>
    <g id="xtick_19">
     <g id="line2d_29">
      <path d="M 300.941749 532.98 
L 300.941749 339.808 
" clip-path="url(#p912dba2048)" style="fill: none; stroke: #ffffff; stroke-linecap: round"/>
     </g>
     <g id="text_33">
      <!-- 0.36 -->
      <g style="fill: #262626" transform="translate(287.319093 552.500937) scale(0.14 -0.14)">
       <use xlink:href="#ArialMT-30"/>
       <use xlink:href="#ArialMT-2e" transform="translate(55.615234 0)"/>
       <use xlink:href="#ArialMT-33" transform="translate(83.398438 0)"/>
       <use xlink:href="#ArialMT-36" transform="translate(139.013672 0)"/>
      </g>
     </g>
    </g>
    <g id="text_34">
     <!-- Mutual information ($MI$) -->
     <g style="fill: #262626" transform="translate(101.557722 576.963437) scale(0.16 -0.16)">
      <use xlink:href="#ArialMT-4d" transform="translate(0 0.09375)"/>
      <use xlink:href="#ArialMT-75" transform="translate(83.300781 0.09375)"/>
      <use xlink:href="#ArialMT-74" transform="translate(138.916016 0.09375)"/>
      <use xlink:href="#ArialMT-75" transform="translate(166.699219 0.09375)"/>
      <use xlink:href="#ArialMT-61" transform="translate(222.314453 0.09375)"/>
      <use xlink:href="#ArialMT-6c" transform="translate(277.929688 0.09375)"/>
      <use xlink:href="#ArialMT-20" transform="translate(300.146484 0.09375)"/>
      <use xlink:href="#ArialMT-69" transform="translate(327.929688 0.09375)"/>
      <use xlink:href="#ArialMT-6e" transform="translate(350.146484 0.09375)"/>
      <use xlink:href="#ArialMT-66" transform="translate(405.761719 0.09375)"/>
      <use xlink:href="#ArialMT-6f" transform="translate(433.544922 0.09375)"/>
      <use xlink:href="#ArialMT-72" transform="translate(489.160156 0.09375)"/>
      <use xlink:href="#ArialMT-6d" transform="translate(522.460938 0.09375)"/>
      <use xlink:href="#ArialMT-61" transform="translate(605.761719 0.09375)"/>
      <use xlink:href="#ArialMT-74" transform="translate(661.376953 0.09375)"/>
      <use xlink:href="#ArialMT-69" transform="translate(689.160156 0.09375)"/>
      <use xlink:href="#ArialMT-6f" transform="translate(711.376953 0.09375)"/>
      <use xlink:href="#ArialMT-6e" transform="translate(766.992188 0.09375)"/>
      <use xlink:href="#ArialMT-20" transform="translate(822.607422 0.09375)"/>
      <use xlink:href="#ArialMT-28" transform="translate(850.390625 0.09375)"/>
      <use xlink:href="#DejaVuSans-Oblique-4d" transform="translate(883.691406 0.09375)"/>
      <use xlink:href="#DejaVuSans-Oblique-49" transform="translate(969.970703 0.09375)"/>
      <use xlink:href="#ArialMT-29" transform="translate(999.462891 0.09375)"/>
     </g>
    </g>
   </g>
   <g id="matplotlib.axis_6">
    <g id="ytick_11">
     <g id="text_35">
      <!-- $\frac{I_{873}}{I_{1068}}$ -->
      <g style="fill: #262626" transform="translate(15.36 367.7652) scale(0.16 -0.16)">
       <use xlink:href="#DejaVuSans-Oblique-49" transform="translate(16 56.965625) scale(0.7)"/>
       <use xlink:href="#DejaVuSans-38" transform="translate(36.644531 45.48125) scale(0.49)"/>
       <use xlink:href="#DejaVuSans-37" transform="translate(67.819824 45.48125) scale(0.49)"/>
       <use xlink:href="#DejaVuSans-33" transform="translate(98.995117 45.48125) scale(0.49)"/>
       <use xlink:href="#DejaVuSans-Oblique-49" transform="translate(0 -37.499844) scale(0.7)"/>
       <use xlink:href="#DejaVuSans-31" transform="translate(20.644531 -48.984219) scale(0.49)"/>
       <use xlink:href="#DejaVuSans-30" transform="translate(51.819824 -48.984219) scale(0.49)"/>
       <use xlink:href="#DejaVuSans-36" transform="translate(82.995117 -48.984219) scale(0.49)"/>
       <use xlink:href="#DejaVuSans-38" transform="translate(114.17041 -48.984219) scale(0.49)"/>
       <path d="M 0 19.784531 
L 0 26.034531 
L 147.259766 26.034531 
L 147.259766 19.784531 
L 0 19.784531 
z
"/>
      </g>
     </g>
    </g>
    <g id="ytick_12">
     <g id="text_36">
      <!-- $\frac{I_{873}}{I_{1388}}$ -->
      <g style="fill: #262626" transform="translate(15.36 406.3996) scale(0.16 -0.16)">
       <use xlink:href="#DejaVuSans-Oblique-49" transform="translate(16 56.965625) scale(0.7)"/>
       <use xlink:href="#DejaVuSans-38" transform="translate(36.644531 45.48125) scale(0.49)"/>
       <use xlink:href="#DejaVuSans-37" transform="translate(67.819824 45.48125) scale(0.49)"/>
       <use xlink:href="#DejaVuSans-33" transform="translate(98.995117 45.48125) scale(0.49)"/>
       <use xlink:href="#DejaVuSans-Oblique-49" transform="translate(0 -37.499844) scale(0.7)"/>
       <use xlink:href="#DejaVuSans-31" transform="translate(20.644531 -48.984219) scale(0.49)"/>
       <use xlink:href="#DejaVuSans-33" transform="translate(51.819824 -48.984219) scale(0.49)"/>
       <use xlink:href="#DejaVuSans-38" transform="translate(82.995117 -48.984219) scale(0.49)"/>
       <use xlink:href="#DejaVuSans-38" transform="translate(114.17041 -48.984219) scale(0.49)"/>
       <path d="M 0 19.784531 
L 0 26.034531 
L 147.259766 26.034531 
L 147.259766 19.784531 
L 0 19.784531 
z
"/>
      </g>
     </g>
    </g>
    <g id="ytick_13">
     <g id="text_37">
      <!-- $\frac{I_{873}}{I_{1241}}$ -->
      <g style="fill: #262626" transform="translate(15.36 445.034) scale(0.16 -0.16)">
       <use xlink:href="#DejaVuSans-Oblique-49" transform="translate(16 56.965625) scale(0.7)"/>
       <use xlink:href="#DejaVuSans-38" transform="translate(36.644531 45.48125) scale(0.49)"/>
       <use xlink:href="#DejaVuSans-37" transform="translate(67.819824 45.48125) scale(0.49)"/>
       <use xlink:href="#DejaVuSans-33" transform="translate(98.995117 45.48125) scale(0.49)"/>
       <use xlink:href="#DejaVuSans-Oblique-49" transform="translate(0 -37.499844) scale(0.7)"/>
       <use xlink:href="#DejaVuSans-31" transform="translate(20.644531 -48.984219) scale(0.49)"/>
       <use xlink:href="#DejaVuSans-32" transform="translate(51.819824 -48.984219) scale(0.49)"/>
       <use xlink:href="#DejaVuSans-34" transform="translate(82.995117 -48.984219) scale(0.49)"/>
       <use xlink:href="#DejaVuSans-31" transform="translate(114.17041 -48.984219) scale(0.49)"/>
       <path d="M 0 19.784531 
L 0 26.034531 
L 147.259766 26.034531 
L 147.259766 19.784531 
L 0 19.784531 
z
"/>
      </g>
     </g>
    </g>
    <g id="ytick_14">
     <g id="text_38">
      <!-- $\frac{I_{1598}}{I_{1726}}$ -->
      <g style="fill: #262626" transform="translate(15.36 483.6684) scale(0.16 -0.16)">
       <use xlink:href="#DejaVuSans-Oblique-49" transform="translate(1 56.965625) scale(0.7)"/>
       <use xlink:href="#DejaVuSans-31" transform="translate(21.644531 45.48125) scale(0.49)"/>
       <use xlink:href="#DejaVuSans-35" transform="translate(52.819824 45.48125) scale(0.49)"/>
       <use xlink:href="#DejaVuSans-39" transform="translate(81.300117 45.48125) scale(0.49)"/>
       <use xlink:href="#DejaVuSans-38" transform="translate(112.47541 45.48125) scale(0.49)"/>
       <use xlink:href="#DejaVuSans-Oblique-49" transform="translate(0 -37.499844) scale(0.7)"/>
       <use xlink:href="#DejaVuSans-31" transform="translate(20.644531 -48.984219) scale(0.49)"/>
       <use xlink:href="#DejaVuSans-37" transform="translate(51.819824 -48.984219) scale(0.49)"/>
       <use xlink:href="#DejaVuSans-32" transform="translate(82.995117 -48.984219) scale(0.49)"/>
       <use xlink:href="#DejaVuSans-36" transform="translate(114.17041 -48.984219) scale(0.49)"/>
       <path d="M 0 19.784531 
L 0 26.034531 
L 147.259766 26.034531 
L 147.259766 19.784531 
L 0 19.784531 
z
"/>
      </g>
     </g>
    </g>
    <g id="ytick_15">
     <g id="text_39">
      <!-- $\frac{I_{873}}{I_{1726}}$ -->
      <g style="fill: #262626" transform="translate(15.36 522.3028) scale(0.16 -0.16)">
       <use xlink:href="#DejaVuSans-Oblique-49" transform="translate(16 56.965625) scale(0.7)"/>
       <use xlink:href="#DejaVuSans-38" transform="translate(36.644531 45.48125) scale(0.49)"/>
       <use xlink:href="#DejaVuSans-37" transform="translate(67.819824 45.48125) scale(0.49)"/>
       <use xlink:href="#DejaVuSans-33" transform="translate(98.995117 45.48125) scale(0.49)"/>
       <use xlink:href="#DejaVuSans-Oblique-49" transform="translate(0 -37.499844) scale(0.7)"/>
       <use xlink:href="#DejaVuSans-31" transform="translate(20.644531 -48.984219) scale(0.49)"/>
       <use xlink:href="#DejaVuSans-37" transform="translate(51.819824 -48.984219) scale(0.49)"/>
       <use xlink:href="#DejaVuSans-32" transform="translate(82.995117 -48.984219) scale(0.49)"/>
       <use xlink:href="#DejaVuSans-36" transform="translate(114.17041 -48.984219) scale(0.49)"/>
       <path d="M 0 19.784531 
L 0 26.034531 
L 147.259766 26.034531 
L 147.259766 19.784531 
L 0 19.784531 
z
"/>
      </g>
     </g>
    </g>
   </g>
   <g id="patch_23">
    <path d="M 50.46 345.60316 
L 305.198518 345.60316 
L 305.198518 372.64724 
L 50.46 372.64724 
z
" clip-path="url(#p912dba2048)" style="fill: #3a7f58; opacity: 0.8; stroke: #ffffff; stroke-linejoin: miter"/>
   </g>
   <g id="patch_24">
    <path d="M 50.46 384.23756 
L 281.247339 384.23756 
L 281.247339 411.28164 
L 50.46 411.28164 
z
" clip-path="url(#p912dba2048)" style="fill: #3a7f58; opacity: 0.8; stroke: #ffffff; stroke-linejoin: miter"/>
   </g>
   <g id="patch_25">
    <path d="M 50.46 422.87196 
L 257.697135 422.87196 
L 257.697135 449.91604 
L 50.46 449.91604 
z
" clip-path="url(#p912dba2048)" style="fill: #3a7f58; opacity: 0.8; stroke: #ffffff; stroke-linejoin: miter"/>
   </g>
   <g id="patch_26">
    <path d="M 50.46 461.50636 
L 251.769219 461.50636 
L 251.769219 488.55044 
L 50.46 488.55044 
z
" clip-path="url(#p912dba2048)" style="fill: #3a7f58; opacity: 0.8; stroke: #ffffff; stroke-linejoin: miter"/>
   </g>
   <g id="patch_27">
    <path d="M 50.46 500.14076 
L 251.406927 500.14076 
L 251.406927 527.18484 
L 50.46 527.18484 
z
" clip-path="url(#p912dba2048)" style="fill: #3a7f58; opacity: 0.8; stroke: #ffffff; stroke-linejoin: miter"/>
   </g>
   <g id="line2d_30">
    <path clip-path="url(#p912dba2048)" style="fill: none; stroke: #424242; stroke-width: 2.25; stroke-linecap: round"/>
   </g>
   <g id="line2d_31">
    <path clip-path="url(#p912dba2048)" style="fill: none; stroke: #424242; stroke-width: 2.25; stroke-linecap: round"/>
   </g>
   <g id="line2d_32">
    <path clip-path="url(#p912dba2048)" style="fill: none; stroke: #424242; stroke-width: 2.25; stroke-linecap: round"/>
   </g>
   <g id="line2d_33">
    <path clip-path="url(#p912dba2048)" style="fill: none; stroke: #424242; stroke-width: 2.25; stroke-linecap: round"/>
   </g>
   <g id="line2d_34">
    <path clip-path="url(#p912dba2048)" style="fill: none; stroke: #424242; stroke-width: 2.25; stroke-linecap: round"/>
   </g>
   <g id="patch_28">
    <path d="M 50.46 532.98 
L 50.46 339.808 
" style="fill: none; stroke: #ffffff; stroke-width: 1.25; stroke-linejoin: miter; stroke-linecap: square"/>
   </g>
   <g id="patch_29">
    <path d="M 317.935444 532.98 
L 317.935444 339.808 
" style="fill: none; stroke: #ffffff; stroke-width: 1.25; stroke-linejoin: miter; stroke-linecap: square"/>
   </g>
   <g id="patch_30">
    <path d="M 50.46 532.98 
L 317.935444 532.98 
" style="fill: none; stroke: #ffffff; stroke-width: 1.25; stroke-linejoin: miter; stroke-linecap: square"/>
   </g>
   <g id="patch_31">
    <path d="M 50.46 339.808 
L 317.935444 339.808 
" style="fill: none; stroke: #ffffff; stroke-width: 1.25; stroke-linejoin: miter; stroke-linecap: square"/>
   </g>
   <g id="text_40">
    <!-- Peak-based | 1900–800 cm$^{-1}$ -->
    <g style="fill: #262626" transform="translate(65.127722 329.808) scale(0.18 -0.18)">
     <use xlink:href="#ArialMT-50" transform="translate(0 0.684375)"/>
     <use xlink:href="#ArialMT-65" transform="translate(66.699219 0.684375)"/>
     <use xlink:href="#ArialMT-61" transform="translate(122.314453 0.684375)"/>
     <use xlink:href="#ArialMT-6b" transform="translate(177.929688 0.684375)"/>
     <use xlink:href="#ArialMT-2d" transform="translate(227.929688 0.684375)"/>
     <use xlink:href="#ArialMT-62" transform="translate(261.230469 0.684375)"/>
     <use xlink:href="#ArialMT-61" transform="translate(316.845703 0.684375)"/>
     <use xlink:href="#ArialMT-73" transform="translate(372.460938 0.684375)"/>
     <use xlink:href="#ArialMT-65" transform="translate(422.460938 0.684375)"/>
     <use xlink:href="#ArialMT-64" transform="translate(478.076172 0.684375)"/>
     <use xlink:href="#ArialMT-20" transform="translate(533.691406 0.684375)"/>
     <use xlink:href="#ArialMT-7c" transform="translate(561.474609 0.684375)"/>
     <use xlink:href="#ArialMT-20" transform="translate(587.451172 0.684375)"/>
     <use xlink:href="#ArialMT-31" transform="translate(615.234375 0.684375)"/>
     <use xlink:href="#ArialMT-39" transform="translate(670.849609 0.684375)"/>
     <use xlink:href="#ArialMT-30" transform="translate(726.464844 0.684375)"/>
     <use xlink:href="#ArialMT-30" transform="translate(782.080078 0.684375)"/>
     <use xlink:href="#DejaVuSansDisplay-2013" transform="translate(837.695312 0.684375)"/>
     <use xlink:href="#ArialMT-38" transform="translate(887.695312 0.684375)"/>
     <use xlink:href="#ArialMT-30" transform="translate(943.310547 0.684375)"/>
     <use xlink:href="#ArialMT-30" transform="translate(998.925781 0.684375)"/>
     <use xlink:href="#ArialMT-20" transform="translate(1054.541016 0.684375)"/>
     <use xlink:href="#ArialMT-63" transform="translate(1082.324219 0.684375)"/>
     <use xlink:href="#ArialMT-6d" transform="translate(1132.324219 0.684375)"/>
     <use xlink:href="#DejaVuSans-2212" transform="translate(1216.582031 38.965625) scale(0.7)"/>
     <use xlink:href="#DejaVuSans-31" transform="translate(1275.234375 38.965625) scale(0.7)"/>
    </g>
   </g>
  </g>
  <g id="axes_4">
   <g id="patch_32">
    <path d="M 434.584772 532.98 
L 702.060216 532.98 
L 702.060216 339.808 
L 434.584772 339.808 
z
" style="fill: #eaeaf2"/>
   </g>
   <g id="matplotlib.axis_7">
    <g id="xtick_20">
     <g id="line2d_35">
      <path d="M 434.584772 532.98 
L 434.584772 339.808 
" clip-path="url(#pd1f0f1aa10)" style="fill: none; stroke: #ffffff; stroke-linecap: round"/>
     </g>
     <g id="text_41">
      <!-- 0.00 -->
      <g style="fill: #262626" transform="translate(420.962116 552.500937) scale(0.14 -0.14)">
       <use xlink:href="#ArialMT-30"/>
       <use xlink:href="#ArialMT-2e" transform="translate(55.615234 0)"/>
       <use xlink:href="#ArialMT-30" transform="translate(83.398438 0)"/>
       <use xlink:href="#ArialMT-30" transform="translate(139.013672 0)"/>
      </g>
     </g>
    </g>
    <g id="xtick_21">
     <g id="line2d_36">
      <path d="M 481.097814 532.98 
L 481.097814 339.808 
" clip-path="url(#pd1f0f1aa10)" style="fill: none; stroke: #ffffff; stroke-linecap: round"/>
     </g>
     <g id="text_42">
      <!-- 0.05 -->
      <g style="fill: #262626" transform="translate(467.475158 552.500937) scale(0.14 -0.14)">
       <use xlink:href="#ArialMT-30"/>
       <use xlink:href="#ArialMT-2e" transform="translate(55.615234 0)"/>
       <use xlink:href="#ArialMT-30" transform="translate(83.398438 0)"/>
       <use xlink:href="#ArialMT-35" transform="translate(139.013672 0)"/>
      </g>
     </g>
    </g>
    <g id="xtick_22">
     <g id="line2d_37">
      <path d="M 527.610855 532.98 
L 527.610855 339.808 
" clip-path="url(#pd1f0f1aa10)" style="fill: none; stroke: #ffffff; stroke-linecap: round"/>
     </g>
     <g id="text_43">
      <!-- 0.10 -->
      <g style="fill: #262626" transform="translate(513.988199 552.500937) scale(0.14 -0.14)">
       <use xlink:href="#ArialMT-30"/>
       <use xlink:href="#ArialMT-2e" transform="translate(55.615234 0)"/>
       <use xlink:href="#ArialMT-31" transform="translate(83.398438 0)"/>
       <use xlink:href="#ArialMT-30" transform="translate(139.013672 0)"/>
      </g>
     </g>
    </g>
    <g id="xtick_23">
     <g id="line2d_38">
      <path d="M 574.123897 532.98 
L 574.123897 339.808 
" clip-path="url(#pd1f0f1aa10)" style="fill: none; stroke: #ffffff; stroke-linecap: round"/>
     </g>
     <g id="text_44">
      <!-- 0.15 -->
      <g style="fill: #262626" transform="translate(560.501241 552.500937) scale(0.14 -0.14)">
       <use xlink:href="#ArialMT-30"/>
       <use xlink:href="#ArialMT-2e" transform="translate(55.615234 0)"/>
       <use xlink:href="#ArialMT-31" transform="translate(83.398438 0)"/>
       <use xlink:href="#ArialMT-35" transform="translate(139.013672 0)"/>
      </g>
     </g>
    </g>
    <g id="xtick_24">
     <g id="line2d_39">
      <path d="M 620.636938 532.98 
L 620.636938 339.808 
" clip-path="url(#pd1f0f1aa10)" style="fill: none; stroke: #ffffff; stroke-linecap: round"/>
     </g>
     <g id="text_45">
      <!-- 0.20 -->
      <g style="fill: #262626" transform="translate(607.014282 552.500937) scale(0.14 -0.14)">
       <use xlink:href="#ArialMT-30"/>
       <use xlink:href="#ArialMT-2e" transform="translate(55.615234 0)"/>
       <use xlink:href="#ArialMT-32" transform="translate(83.398438 0)"/>
       <use xlink:href="#ArialMT-30" transform="translate(139.013672 0)"/>
      </g>
     </g>
    </g>
    <g id="xtick_25">
     <g id="line2d_40">
      <path d="M 667.14998 532.98 
L 667.14998 339.808 
" clip-path="url(#pd1f0f1aa10)" style="fill: none; stroke: #ffffff; stroke-linecap: round"/>
     </g>
     <g id="text_46">
      <!-- 0.25 -->
      <g style="fill: #262626" transform="translate(653.527323 552.500937) scale(0.14 -0.14)">
       <use xlink:href="#ArialMT-30"/>
       <use xlink:href="#ArialMT-2e" transform="translate(55.615234 0)"/>
       <use xlink:href="#ArialMT-32" transform="translate(83.398438 0)"/>
       <use xlink:href="#ArialMT-35" transform="translate(139.013672 0)"/>
      </g>
     </g>
    </g>
    <g id="text_47">
     <!-- Mutual information ($MI$) -->
     <g style="fill: #262626" transform="translate(485.682494 576.963437) scale(0.16 -0.16)">
      <use xlink:href="#ArialMT-4d" transform="translate(0 0.09375)"/>
      <use xlink:href="#ArialMT-75" transform="translate(83.300781 0.09375)"/>
      <use xlink:href="#ArialMT-74" transform="translate(138.916016 0.09375)"/>
      <use xlink:href="#ArialMT-75" transform="translate(166.699219 0.09375)"/>
      <use xlink:href="#ArialMT-61" transform="translate(222.314453 0.09375)"/>
      <use xlink:href="#ArialMT-6c" transform="translate(277.929688 0.09375)"/>
      <use xlink:href="#ArialMT-20" transform="translate(300.146484 0.09375)"/>
      <use xlink:href="#ArialMT-69" transform="translate(327.929688 0.09375)"/>
      <use xlink:href="#ArialMT-6e" transform="translate(350.146484 0.09375)"/>
      <use xlink:href="#ArialMT-66" transform="translate(405.761719 0.09375)"/>
      <use xlink:href="#ArialMT-6f" transform="translate(433.544922 0.09375)"/>
      <use xlink:href="#ArialMT-72" transform="translate(489.160156 0.09375)"/>
      <use xlink:href="#ArialMT-6d" transform="translate(522.460938 0.09375)"/>
      <use xlink:href="#ArialMT-61" transform="translate(605.761719 0.09375)"/>
      <use xlink:href="#ArialMT-74" transform="translate(661.376953 0.09375)"/>
      <use xlink:href="#ArialMT-69" transform="translate(689.160156 0.09375)"/>
      <use xlink:href="#ArialMT-6f" transform="translate(711.376953 0.09375)"/>
      <use xlink:href="#ArialMT-6e" transform="translate(766.992188 0.09375)"/>
      <use xlink:href="#ArialMT-20" transform="translate(822.607422 0.09375)"/>
      <use xlink:href="#ArialMT-28" transform="translate(850.390625 0.09375)"/>
      <use xlink:href="#DejaVuSans-Oblique-4d" transform="translate(883.691406 0.09375)"/>
      <use xlink:href="#DejaVuSans-Oblique-49" transform="translate(969.970703 0.09375)"/>
      <use xlink:href="#ArialMT-29" transform="translate(999.462891 0.09375)"/>
     </g>
    </g>
   </g>
   <g id="matplotlib.axis_8">
    <g id="ytick_16">
     <g id="text_48">
      <!-- $\frac{I_{1241}}{\overline{I}_{1600\text{–}1300}}$ -->
      <g style="fill: #262626" transform="translate(375.484772 367.6852) scale(0.16 -0.16)">
       <use xlink:href="#DejaVuSans-Oblique-49" transform="translate(75 55.965625) scale(0.7)"/>
       <use xlink:href="#DejaVuSans-31" transform="translate(95.644531 44.48125) scale(0.49)"/>
       <use xlink:href="#DejaVuSans-32" transform="translate(126.819824 44.48125) scale(0.49)"/>
       <use xlink:href="#DejaVuSans-34" transform="translate(157.995117 44.48125) scale(0.49)"/>
       <use xlink:href="#DejaVuSans-31" transform="translate(189.17041 44.48125) scale(0.49)"/>
       <use xlink:href="#DejaVuSans-Oblique-49" transform="translate(0 -55.178125) scale(0.7)"/>
       <use xlink:href="#DejaVuSans-31" transform="translate(21.314453 -66.6125) scale(0.49)"/>
       <use xlink:href="#DejaVuSans-36" transform="translate(52.489746 -66.6125) scale(0.49)"/>
       <use xlink:href="#DejaVuSans-30" transform="translate(83.665039 -66.6125) scale(0.49)"/>
       <use xlink:href="#DejaVuSans-30" transform="translate(114.840332 -66.6125) scale(0.49)"/>
       <use xlink:href="#DejaVuSansDisplay-2013" transform="translate(146.015625 -66.6125) scale(0.49)"/>
       <use xlink:href="#DejaVuSans-31" transform="translate(170.515625 -66.6125) scale(0.49)"/>
       <use xlink:href="#DejaVuSans-33" transform="translate(201.690918 -66.6125) scale(0.49)"/>
       <use xlink:href="#DejaVuSans-30" transform="translate(232.866211 -66.6125) scale(0.49)"/>
       <use xlink:href="#DejaVuSans-30" transform="translate(264.041504 -66.6125) scale(0.49)"/>
       <path d="M 0 19.48125 
L 0 25.73125 
L 297.130859 25.73125 
L 297.130859 19.48125 
L 0 19.48125 
z
"/>
       <path d="M 0 4.48125 
L 0 8.85625 
L 20.644531 8.85625 
L 20.644531 4.48125 
L 0 4.48125 
z
"/>
      </g>
     </g>
    </g>
    <g id="ytick_17">
     <g id="text_49">
      <!-- $\frac{I_{873}}{\Sigma I_{p,\ 1300\text{–}800}}$ -->
      <g style="fill: #262626" transform="translate(361.884772 406.3996) scale(0.16 -0.16)">
       <use xlink:href="#DejaVuSans-Oblique-49" transform="translate(133 56.965625) scale(0.7)"/>
       <use xlink:href="#DejaVuSans-38" transform="translate(153.644531 45.48125) scale(0.49)"/>
       <use xlink:href="#DejaVuSans-37" transform="translate(184.819824 45.48125) scale(0.49)"/>
       <use xlink:href="#DejaVuSans-33" transform="translate(215.995117 45.48125) scale(0.49)"/>
       <use xlink:href="#DejaVuSans-3a3" transform="translate(0 -37.499844) scale(0.7)"/>
       <use xlink:href="#DejaVuSans-Oblique-49" transform="translate(44.228516 -37.499844) scale(0.7)"/>
       <use xlink:href="#DejaVuSans-Oblique-70" transform="translate(64.873047 -48.984219) scale(0.49)"/>
       <use xlink:href="#DejaVuSans-2c" transform="translate(95.976562 -48.984219) scale(0.49)"/>
       <use xlink:href="#DejaVuSans-31" transform="translate(137.009118 -48.984219) scale(0.49)"/>
       <use xlink:href="#DejaVuSans-33" transform="translate(168.184411 -48.984219) scale(0.49)"/>
       <use xlink:href="#DejaVuSans-30" transform="translate(199.359704 -48.984219) scale(0.49)"/>
       <use xlink:href="#DejaVuSans-30" transform="translate(230.534997 -48.984219) scale(0.49)"/>
       <use xlink:href="#DejaVuSansDisplay-2013" transform="translate(261.71029 -48.984219) scale(0.49)"/>
       <use xlink:href="#DejaVuSans-38" transform="translate(286.21029 -48.984219) scale(0.49)"/>
       <use xlink:href="#DejaVuSans-30" transform="translate(317.385583 -48.984219) scale(0.49)"/>
       <use xlink:href="#DejaVuSans-30" transform="translate(348.560876 -48.984219) scale(0.49)"/>
       <path d="M 0 19.784531 
L 0 26.034531 
L 381.650232 26.034531 
L 381.650232 19.784531 
L 0 19.784531 
z
"/>
      </g>
     </g>
    </g>
    <g id="ytick_18">
     <g id="text_50">
      <!-- $\frac{I_{873}}{\Sigma I_{p,\ 1600\text{–}1300}}$ -->
      <g style="fill: #262626" transform="translate(356.924772 445.034) scale(0.16 -0.16)">
       <use xlink:href="#DejaVuSans-Oblique-49" transform="translate(148 56.965625) scale(0.7)"/>
       <use xlink:href="#DejaVuSans-38" transform="translate(168.644531 45.48125) scale(0.49)"/>
       <use xlink:href="#DejaVuSans-37" transform="translate(199.819824 45.48125) scale(0.49)"/>
       <use xlink:href="#DejaVuSans-33" transform="translate(230.995117 45.48125) scale(0.49)"/>
       <use xlink:href="#DejaVuSans-3a3" transform="translate(0 -37.499844) scale(0.7)"/>
       <use xlink:href="#DejaVuSans-Oblique-49" transform="translate(44.228516 -37.499844) scale(0.7)"/>
       <use xlink:href="#DejaVuSans-Oblique-70" transform="translate(64.873047 -48.984219) scale(0.49)"/>
       <use xlink:href="#DejaVuSans-2c" transform="translate(95.976562 -48.984219) scale(0.49)"/>
       <use xlink:href="#DejaVuSans-31" transform="translate(137.009118 -48.984219) scale(0.49)"/>
       <use xlink:href="#DejaVuSans-36" transform="translate(168.184411 -48.984219) scale(0.49)"/>
       <use xlink:href="#DejaVuSans-30" transform="translate(199.359704 -48.984219) scale(0.49)"/>
       <use xlink:href="#DejaVuSans-30" transform="translate(230.534997 -48.984219) scale(0.49)"/>
       <use xlink:href="#DejaVuSansDisplay-2013" transform="translate(261.71029 -48.984219) scale(0.49)"/>
       <use xlink:href="#DejaVuSans-31" transform="translate(286.21029 -48.984219) scale(0.49)"/>
       <use xlink:href="#DejaVuSans-33" transform="translate(317.385583 -48.984219) scale(0.49)"/>
       <use xlink:href="#DejaVuSans-30" transform="translate(348.560876 -48.984219) scale(0.49)"/>
       <use xlink:href="#DejaVuSans-30" transform="translate(379.736169 -48.984219) scale(0.49)"/>
       <path d="M 0 19.784531 
L 0 26.034531 
L 412.825524 26.034531 
L 412.825524 19.784531 
L 0 19.784531 
z
"/>
      </g>
     </g>
    </g>
    <g id="ytick_19">
     <g id="text_51">
      <!-- $\frac{I_{873}}{\overline{I}_{1300\text{–}800}}$ -->
      <g style="fill: #262626" transform="translate(380.444772 483.6684) scale(0.16 -0.16)">
       <use xlink:href="#DejaVuSans-Oblique-49" transform="translate(75 56.965625) scale(0.7)"/>
       <use xlink:href="#DejaVuSans-38" transform="translate(95.644531 45.48125) scale(0.49)"/>
       <use xlink:href="#DejaVuSans-37" transform="translate(126.819824 45.48125) scale(0.49)"/>
       <use xlink:href="#DejaVuSans-33" transform="translate(157.995117 45.48125) scale(0.49)"/>
       <use xlink:href="#DejaVuSans-Oblique-49" transform="translate(0 -54.874844) scale(0.7)"/>
       <use xlink:href="#DejaVuSans-31" transform="translate(21.314453 -66.309219) scale(0.49)"/>
       <use xlink:href="#DejaVuSans-33" transform="translate(52.489746 -66.309219) scale(0.49)"/>
       <use xlink:href="#DejaVuSans-30" transform="translate(83.665039 -66.309219) scale(0.49)"/>
       <use xlink:href="#DejaVuSans-30" transform="translate(114.840332 -66.309219) scale(0.49)"/>
       <use xlink:href="#DejaVuSansDisplay-2013" transform="translate(146.015625 -66.309219) scale(0.49)"/>
       <use xlink:href="#DejaVuSans-38" transform="translate(170.515625 -66.309219) scale(0.49)"/>
       <use xlink:href="#DejaVuSans-30" transform="translate(201.690918 -66.309219) scale(0.49)"/>
       <use xlink:href="#DejaVuSans-30" transform="translate(232.866211 -66.309219) scale(0.49)"/>
       <path d="M 0 19.784531 
L 0 26.034531 
L 265.955566 26.034531 
L 265.955566 19.784531 
L 0 19.784531 
z
"/>
       <path d="M 0 4.784531 
L 0 9.159531 
L 20.644531 9.159531 
L 20.644531 4.784531 
L 0 4.784531 
z
"/>
      </g>
     </g>
    </g>
    <g id="ytick_20">
     <g id="text_52">
      <!-- $\frac{I_{1388}}{\overline{I}_{1900\text{–}1500}}$ -->
      <g style="fill: #262626" transform="translate(375.484772 522.3028) scale(0.16 -0.16)">
       <use xlink:href="#DejaVuSans-Oblique-49" transform="translate(75 56.965625) scale(0.7)"/>
       <use xlink:href="#DejaVuSans-31" transform="translate(95.644531 45.48125) scale(0.49)"/>
       <use xlink:href="#DejaVuSans-33" transform="translate(126.819824 45.48125) scale(0.49)"/>
       <use xlink:href="#DejaVuSans-38" transform="translate(157.995117 45.48125) scale(0.49)"/>
       <use xlink:href="#DejaVuSans-38" transform="translate(189.17041 45.48125) scale(0.49)"/>
       <use xlink:href="#DejaVuSans-Oblique-49" transform="translate(0 -54.874844) scale(0.7)"/>
       <use xlink:href="#DejaVuSans-31" transform="translate(21.314453 -66.309219) scale(0.49)"/>
       <use xlink:href="#DejaVuSans-39" transform="translate(52.489746 -66.309219) scale(0.49)"/>
       <use xlink:href="#DejaVuSans-30" transform="translate(83.665039 -66.309219) scale(0.49)"/>
       <use xlink:href="#DejaVuSans-30" transform="translate(114.840332 -66.309219) scale(0.49)"/>
       <use xlink:href="#DejaVuSansDisplay-2013" transform="translate(146.015625 -66.309219) scale(0.49)"/>
       <use xlink:href="#DejaVuSans-31" transform="translate(170.515625 -66.309219) scale(0.49)"/>
       <use xlink:href="#DejaVuSans-35" transform="translate(201.690918 -66.309219) scale(0.49)"/>
       <use xlink:href="#DejaVuSans-30" transform="translate(232.866211 -66.309219) scale(0.49)"/>
       <use xlink:href="#DejaVuSans-30" transform="translate(264.041504 -66.309219) scale(0.49)"/>
       <path d="M 0 19.784531 
L 0 26.034531 
L 297.130859 26.034531 
L 297.130859 19.784531 
L 0 19.784531 
z
"/>
       <path d="M 0 4.784531 
L 0 9.159531 
L 20.644531 9.159531 
L 20.644531 4.784531 
L 0 4.784531 
z
"/>
      </g>
     </g>
    </g>
   </g>
   <g id="patch_33">
    <path d="M 434.584772 345.60316 
L 689.32329 345.60316 
L 689.32329 372.64724 
L 434.584772 372.64724 
z
" clip-path="url(#pd1f0f1aa10)" style="fill: #3a7f58; opacity: 0.8; stroke: #ffffff; stroke-linejoin: miter"/>
   </g>
   <g id="patch_34">
    <path d="M 434.584772 384.23756 
L 685.129564 384.23756 
L 685.129564 411.28164 
L 434.584772 411.28164 
z
" clip-path="url(#pd1f0f1aa10)" style="fill: #3a7f58; opacity: 0.8; stroke: #ffffff; stroke-linejoin: miter"/>
   </g>
   <g id="patch_35">
    <path d="M 434.584772 422.87196 
L 682.826838 422.87196 
L 682.826838 449.91604 
L 434.584772 449.91604 
z
" clip-path="url(#pd1f0f1aa10)" style="fill: #3a7f58; opacity: 0.8; stroke: #ffffff; stroke-linejoin: miter"/>
   </g>
   <g id="patch_36">
    <path d="M 434.584772 461.50636 
L 675.424725 461.50636 
L 675.424725 488.55044 
L 434.584772 488.55044 
z
" clip-path="url(#pd1f0f1aa10)" style="fill: #3a7f58; opacity: 0.8; stroke: #ffffff; stroke-linejoin: miter"/>
   </g>
   <g id="patch_37">
    <path d="M 434.584772 500.14076 
L 674.424942 500.14076 
L 674.424942 527.18484 
L 434.584772 527.18484 
z
" clip-path="url(#pd1f0f1aa10)" style="fill: #3a7f58; opacity: 0.8; stroke: #ffffff; stroke-linejoin: miter"/>
   </g>
   <g id="line2d_41">
    <path clip-path="url(#pd1f0f1aa10)" style="fill: none; stroke: #424242; stroke-width: 2.25; stroke-linecap: round"/>
   </g>
   <g id="line2d_42">
    <path clip-path="url(#pd1f0f1aa10)" style="fill: none; stroke: #424242; stroke-width: 2.25; stroke-linecap: round"/>
   </g>
   <g id="line2d_43">
    <path clip-path="url(#pd1f0f1aa10)" style="fill: none; stroke: #424242; stroke-width: 2.25; stroke-linecap: round"/>
   </g>
   <g id="line2d_44">
    <path clip-path="url(#pd1f0f1aa10)" style="fill: none; stroke: #424242; stroke-width: 2.25; stroke-linecap: round"/>
   </g>
   <g id="line2d_45">
    <path clip-path="url(#pd1f0f1aa10)" style="fill: none; stroke: #424242; stroke-width: 2.25; stroke-linecap: round"/>
   </g>
   <g id="patch_38">
    <path d="M 434.584772 532.98 
L 434.584772 339.808 
" style="fill: none; stroke: #ffffff; stroke-width: 1.25; stroke-linejoin: miter; stroke-linecap: square"/>
   </g>
   <g id="patch_39">
    <path d="M 702.060216 532.98 
L 702.060216 339.808 
" style="fill: none; stroke: #ffffff; stroke-width: 1.25; stroke-linejoin: miter; stroke-linecap: square"/>
   </g>
   <g id="patch_40">
    <path d="M 434.584772 532.98 
L 702.060216 532.98 
" style="fill: none; stroke: #ffffff; stroke-width: 1.25; stroke-linejoin: miter; stroke-linecap: square"/>
   </g>
   <g id="patch_41">
    <path d="M 434.584772 339.808 
L 702.060216 339.808 
" style="fill: none; stroke: #ffffff; stroke-width: 1.25; stroke-linejoin: miter; stroke-linecap: square"/>
   </g>
   <g id="text_53">
    <!-- Region-based | 1900–800 cm$^{-1}$ -->
    <g style="fill: #262626" transform="translate(441.242494 329.808) scale(0.18 -0.18)">
     <use xlink:href="#ArialMT-52" transform="translate(0 0.684375)"/>
     <use xlink:href="#ArialMT-65" transform="translate(72.216797 0.684375)"/>
     <use xlink:href="#ArialMT-67" transform="translate(127.832031 0.684375)"/>
     <use xlink:href="#ArialMT-69" transform="translate(183.447266 0.684375)"/>
     <use xlink:href="#ArialMT-6f" transform="translate(205.664062 0.684375)"/>
     <use xlink:href="#ArialMT-6e" transform="translate(261.279297 0.684375)"/>
     <use xlink:href="#ArialMT-2d" transform="translate(316.894531 0.684375)"/>
     <use xlink:href="#ArialMT-62" transform="translate(350.195312 0.684375)"/>
     <use xlink:href="#ArialMT-61" transform="translate(405.810547 0.684375)"/>
     <use xlink:href="#ArialMT-73" transform="translate(461.425781 0.684375)"/>
     <use xlink:href="#ArialMT-65" transform="translate(511.425781 0.684375)"/>
     <use xlink:href="#ArialMT-64" transform="translate(567.041016 0.684375)"/>
     <use xlink:href="#ArialMT-20" transform="translate(622.65625 0.684375)"/>
     <use xlink:href="#ArialMT-7c" transform="translate(650.439453 0.684375)"/>
     <use xlink:href="#ArialMT-20" transform="translate(676.416016 0.684375)"/>
     <use xlink:href="#ArialMT-31" transform="translate(704.199219 0.684375)"/>
     <use xlink:href="#ArialMT-39" transform="translate(759.814453 0.684375)"/>
     <use xlink:href="#ArialMT-30" transform="translate(815.429688 0.684375)"/>
     <use xlink:href="#ArialMT-30" transform="translate(871.044922 0.684375)"/>
     <use xlink:href="#DejaVuSansDisplay-2013" transform="translate(926.660156 0.684375)"/>
     <use xlink:href="#ArialMT-38" transform="translate(976.660156 0.684375)"/>
     <use xlink:href="#ArialMT-30" transform="translate(1032.275391 0.684375)"/>
     <use xlink:href="#ArialMT-30" transform="translate(1087.890625 0.684375)"/>
     <use xlink:href="#ArialMT-20" transform="translate(1143.505859 0.684375)"/>
     <use xlink:href="#ArialMT-63" transform="translate(1171.289062 0.684375)"/>
     <use xlink:href="#ArialMT-6d" transform="translate(1221.289062 0.684375)"/>
     <use xlink:href="#DejaVuSans-2212" transform="translate(1305.546875 38.965625) scale(0.7)"/>
     <use xlink:href="#DejaVuSans-31" transform="translate(1364.199219 38.965625) scale(0.7)"/>
    </g>
   </g>
  </g>
  <g id="text_54">
   <!-- 1900–800 cm⁻¹ features -->
   <g style="fill: #262626" transform="translate(266.753966 18.6525) scale(0.16 -0.16)">
    <defs>
     <path id="ArialMT-2013" d="M -13 1431 
L -13 1884 
L 3547 1884 
L 3547 1431 
L -13 1431 
z
" transform="scale(0.015625)"/>
     <path id="ArialMT-207b" d="M 800 0 
L 800 4000 
L 4000 4000 
L 4000 0 
L 800 0 
z
M 900 100 
L 3900 100 
L 3900 3900 
L 900 3900 
L 900 100 
z
" transform="scale(0.015625)"/>
     <path id="ArialMT-b9" d="M 1034 2291 
L 1034 4022 
Q 716 3769 334 3669 
L 334 4053 
Q 528 4116 765 4281 
Q 1003 4447 1150 4638 
L 1488 4638 
L 1488 2291 
L 1034 2291 
z
" transform="scale(0.015625)"/>
    </defs>
    <use xlink:href="#ArialMT-31"/>
    <use xlink:href="#ArialMT-39" transform="translate(55.615234 0)"/>
    <use xlink:href="#ArialMT-30" transform="translate(111.230469 0)"/>
    <use xlink:href="#ArialMT-30" transform="translate(166.845703 0)"/>
    <use xlink:href="#ArialMT-2013" transform="translate(222.460938 0)"/>
    <use xlink:href="#ArialMT-38" transform="translate(278.076172 0)"/>
    <use xlink:href="#ArialMT-30" transform="translate(333.691406 0)"/>
    <use xlink:href="#ArialMT-30" transform="translate(389.306641 0)"/>
    <use xlink:href="#ArialMT-20" transform="translate(444.921875 0)"/>
    <use xlink:href="#ArialMT-63" transform="translate(472.705078 0)"/>
    <use xlink:href="#ArialMT-6d" transform="translate(522.705078 0)"/>
    <use xlink:href="#ArialMT-207b" transform="translate(606.005859 0)"/>
    <use xlink:href="#ArialMT-b9" transform="translate(681.005859 0)"/>
    <use xlink:href="#ArialMT-20" transform="translate(714.306641 0)"/>
    <use xlink:href="#ArialMT-66" transform="translate(742.089844 0)"/>
    <use xlink:href="#ArialMT-65" transform="translate(769.873047 0)"/>
    <use xlink:href="#ArialMT-61" transform="translate(825.488281 0)"/>
    <use xlink:href="#ArialMT-74" transform="translate(881.103516 0)"/>
    <use xlink:href="#ArialMT-75" transform="translate(908.886719 0)"/>
    <use xlink:href="#ArialMT-72" transform="translate(964.501953 0)"/>
    <use xlink:href="#ArialMT-65" transform="translate(997.802734 0)"/>
    <use xlink:href="#ArialMT-73" transform="translate(1053.417969 0)"/>
   </g>
  </g>
 </g>
 <defs>
  <clipPath id="p338afc2e99">
   <rect x="50.46" y="58.288" width="267.475444" height="193.172"/>
  </clipPath>
  <clipPath id="pc5f5edfc71">
   <rect x="434.584772" y="58.288" width="267.475444" height="193.172"/>
  </clipPath>
  <clipPath id="p912dba2048">
   <rect x="50.46" y="339.808" width="267.475444" height="193.172"/>
  </clipPath>
  <clipPath id="pd1f0f1aa10">
   <rect x="434.584772" y="339.808" width="267.475444" height="193.172"/>
  </clipPath>
 </defs>
</svg>
