<?xml version="1.0" encoding="utf-8" standalone="no"?>
<!DOCTYPE svg PUBLIC "-//W3C//DTD SVG 1.1//EN"
  "http://www.w3.org/Graphics/SVG/1.1/DTD/svg11.dtd">
<svg xmlns:xlink="http://www.w3.org/1999/xlink" width="576pt" height="288pt" viewBox="0 0 576 288" xmlns="http://www.w3.org/2000/svg" version="1.1">
 <metadata>
  <rdf:RDF xmlns:dc="http://purl.org/dc/elements/1.1/" xmlns:cc="http://creativecommons.org/ns#" xmlns:rdf="http://www.w3.org/1999/02/22-rdf-syntax-ns#">
   <cc:Work>
    <dc:type rdf:resource="http://purl.org/dc/dcmitype/StillImage"/>
    <dc:date>2025-08-19T00:24:00.505205</dc:date>
    <dc:format>image/svg+xml</dc:format>
    <dc:creator>
     <cc:Agent>
      <dc:title>Matplotlib v3.10.3, https://matplotlib.org/</dc:title>
     </cc:Agent>
    </dc:creator>
   </cc:Work>
  </rdf:RDF>
 </metadata>
 <defs>
  <style type="text/css">*{stroke-linejoin: round; stroke-linecap: butt}</style>
 </defs>
 <g id="figure_1">
  <g id="patch_1">
   <path d="M 0 288 
L 576 288 
L 576 0 
L 0 0 
z
" style="fill: #ffffff"/>
  </g>
  <g id="axes_1">
   <g id="patch_2">
    <path d="M 63.786 233.5064 
L 563.04 233.5064 
L 563.04 12.96 
L 63.786 12.96 
z
" style="fill: #eaeaf2"/>
   </g>
   <g id="matplotlib.axis_1">
    <g id="xtick_1">
     <g id="line2d_1">
      <path d="M 86.479364 233.5064 
L 86.479364 12.96 
" clip-path="url(#pd3b60ed248)" style="fill: none; stroke: #ffffff; stroke-linecap: round"/>
     </g>
     <g id="text_1">
      <!-- $\frac{\overline{I}_{3800\text{–}2500}}{\overline{I}_{2928 \pm 32}}$ -->
      <g style="fill: #262626" transform="translate(61.679364 263.0064) scale(0.16 -0.16)">
       <defs>
        <path id="DejaVuSans-Oblique-49" d="M 1081 4666 
L 1716 4666 
L 806 0 
L 172 0 
L 1081 4666 
z
" transform="scale(0.015625)"/>
        <path id="DejaVuSans-33" d="M 2597 2516 
Q 3050 2419 3304 2112 
Q 3559 1806 3559 1356 
Q 3559 666 3084 287 
Q 2609 -91 1734 -91 
Q 1441 -91 1130 -33 
Q 819 25 488 141 
L 488 750 
Q 750 597 1062 519 
Q 1375 441 1716 441 
Q 2309 441 2620 675 
Q 2931 909 2931 1356 
Q 2931 1769 2642 2001 
Q 2353 2234 1838 2234 
L 1294 2234 
L 1294 2753 
L 1863 2753 
Q 2328 2753 2575 2939 
Q 2822 3125 2822 3475 
Q 2822 3834 2567 4026 
Q 2313 4219 1838 4219 
Q 1578 4219 1281 4162 
Q 984 4106 628 3988 
L 628 4550 
Q 988 4650 1302 4700 
Q 1616 4750 1894 4750 
Q 2613 4750 3031 4423 
Q 3450 4097 3450 3541 
Q 3450 3153 3228 2886 
Q 3006 2619 2597 2516 
z
" transform="scale(0.015625)"/>
        <path id="DejaVuSans-38" d="M 2034 2216 
Q 1584 2216 1326 1975 
Q 1069 1734 1069 1313 
Q 1069 891 1326 650 
Q 1584 409 2034 409 
Q 2484 409 2743 651 
Q 3003 894 3003 1313 
Q 3003 1734 2745 1975 
Q 2488 2216 2034 2216 
z
M 1403 2484 
Q 997 2584 770 2862 
Q 544 3141 544 3541 
Q 544 4100 942 4425 
Q 1341 4750 2034 4750 
Q 2731 4750 3128 4425 
Q 3525 4100 3525 3541 
Q 3525 3141 3298 2862 
Q 3072 2584 2669 2484 
Q 3125 2378 3379 2068 
Q 3634 1759 3634 1313 
Q 3634 634 3220 271 
Q 2806 -91 2034 -91 
Q 1263 -91 848 271 
Q 434 634 434 1313 
Q 434 1759 690 2068 
Q 947 2378 1403 2484 
z
M 1172 3481 
Q 1172 3119 1398 2916 
Q 1625 2713 2034 2713 
Q 2441 2713 2670 2916 
Q 2900 3119 2900 3481 
Q 2900 3844 2670 4047 
Q 2441 4250 2034 4250 
Q 1625 4250 1398 4047 
Q 1172 3844 1172 3481 
z
" transform="scale(0.015625)"/>
        <path id="DejaVuSans-30" d="M 2034 4250 
Q 1547 4250 1301 3770 
Q 1056 3291 1056 2328 
Q 1056 1369 1301 889 
Q 1547 409 2034 409 
Q 2525 409 2770 889 
Q 3016 1369 3016 2328 
Q 3016 3291 2770 3770 
Q 2525 4250 2034 4250 
z
M 2034 4750 
Q 2819 4750 3233 4129 
Q 3647 3509 3647 2328 
Q 3647 1150 3233 529 
Q 2819 -91 2034 -91 
Q 1250 -91 836 529 
Q 422 1150 422 2328 
Q 422 3509 836 4129 
Q 1250 4750 2034 4750 
z
" transform="scale(0.015625)"/>
        <path id="DejaVuSansDisplay-2013" d="M 313 1978 
L 2888 1978 
L 2888 1528 
L 313 1528 
L 313 1978 
z
" transform="scale(0.015625)"/>
        <path id="DejaVuSans-32" d="M 1228 531 
L 3431 531 
L 3431 0 
L 469 0 
L 469 531 
Q 828 903 1448 1529 
Q 2069 2156 2228 2338 
Q 2531 2678 2651 2914 
Q 2772 3150 2772 3378 
Q 2772 3750 2511 3984 
Q 2250 4219 1831 4219 
Q 1534 4219 1204 4116 
Q 875 4013 500 3803 
L 500 4441 
Q 881 4594 1212 4672 
Q 1544 4750 1819 4750 
Q 2544 4750 2975 4387 
Q 3406 4025 3406 3419 
Q 3406 3131 3298 2873 
Q 3191 2616 2906 2266 
Q 2828 2175 2409 1742 
Q 1991 1309 1228 531 
z
" transform="scale(0.015625)"/>
        <path id="DejaVuSans-35" d="M 691 4666 
L 3169 4666 
L 3169 4134 
L 1269 4134 
L 1269 2991 
Q 1406 3038 1543 3061 
Q 1681 3084 1819 3084 
Q 2600 3084 3056 2656 
Q 3513 2228 3513 1497 
Q 3513 744 3044 326 
Q 2575 -91 1722 -91 
Q 1428 -91 1123 -41 
Q 819 9 494 109 
L 494 744 
Q 775 591 1075 516 
Q 1375 441 1709 441 
Q 2250 441 2565 725 
Q 2881 1009 2881 1497 
Q 2881 1984 2565 2268 
Q 2250 2553 1709 2553 
Q 1456 2553 1204 2497 
Q 953 2441 691 2322 
L 691 4666 
z
" transform="scale(0.015625)"/>
        <path id="DejaVuSans-39" d="M 703 97 
L 703 672 
Q 941 559 1184 500 
Q 1428 441 1663 441 
Q 2288 441 2617 861 
Q 2947 1281 2994 2138 
Q 2813 1869 2534 1725 
Q 2256 1581 1919 1581 
Q 1219 1581 811 2004 
Q 403 2428 403 3163 
Q 403 3881 828 4315 
Q 1253 4750 1959 4750 
Q 2769 4750 3195 4129 
Q 3622 3509 3622 2328 
Q 3622 1225 3098 567 
Q 2575 -91 1691 -91 
Q 1453 -91 1209 -44 
Q 966 3 703 97 
z
M 1959 2075 
Q 2384 2075 2632 2365 
Q 2881 2656 2881 3163 
Q 2881 3666 2632 3958 
Q 2384 4250 1959 4250 
Q 1534 4250 1286 3958 
Q 1038 3666 1038 3163 
Q 1038 2656 1286 2365 
Q 1534 2075 1959 2075 
z
" transform="scale(0.015625)"/>
        <path id="DejaVuSans-b1" d="M 2944 4013 
L 2944 2803 
L 4684 2803 
L 4684 2272 
L 2944 2272 
L 2944 1063 
L 2419 1063 
L 2419 2272 
L 678 2272 
L 678 2803 
L 2419 2803 
L 2419 4013 
L 2944 4013 
z
M 678 531 
L 4684 531 
L 4684 0 
L 678 0 
L 678 531 
z
" transform="scale(0.015625)"/>
       </defs>
       <use xlink:href="#DejaVuSans-Oblique-49" transform="translate(0 56.590625) scale(0.7)"/>
       <use xlink:href="#DejaVuSans-33" transform="translate(21.314453 45.15625) scale(0.49)"/>
       <use xlink:href="#DejaVuSans-38" transform="translate(52.489746 45.15625) scale(0.49)"/>
       <use xlink:href="#DejaVuSans-30" transform="translate(83.665039 45.15625) scale(0.49)"/>
       <use xlink:href="#DejaVuSans-30" transform="translate(114.840332 45.15625) scale(0.49)"/>
       <use xlink:href="#DejaVuSansDisplay-2013" transform="translate(146.015625 45.15625) scale(0.49)"/>
       <use xlink:href="#DejaVuSans-32" transform="translate(170.515625 45.15625) scale(0.49)"/>
       <use xlink:href="#DejaVuSans-35" transform="translate(201.690918 45.15625) scale(0.49)"/>
       <use xlink:href="#DejaVuSans-30" transform="translate(232.866211 45.15625) scale(0.49)"/>
       <use xlink:href="#DejaVuSans-30" transform="translate(264.041504 45.15625) scale(0.49)"/>
       <use xlink:href="#DejaVuSans-Oblique-49" transform="translate(14 -55.199844) scale(0.7)"/>
       <use xlink:href="#DejaVuSans-32" transform="translate(35.314453 -66.634219) scale(0.49)"/>
       <use xlink:href="#DejaVuSans-39" transform="translate(65.632246 -66.634219) scale(0.49)"/>
       <use xlink:href="#DejaVuSans-32" transform="translate(95.950039 -66.634219) scale(0.49)"/>
       <use xlink:href="#DejaVuSans-38" transform="translate(127.125332 -66.634219) scale(0.49)"/>
       <use xlink:href="#DejaVuSans-b1" transform="translate(167.847012 -66.634219) scale(0.49)"/>
       <use xlink:href="#DejaVuSans-33" transform="translate(218.450039 -66.634219) scale(0.49)"/>
       <use xlink:href="#DejaVuSans-32" transform="translate(249.625332 -66.634219) scale(0.49)"/>
       <path d="M 0 116.25 
L 0 120.625 
L 20.644531 120.625 
L 20.644531 116.25 
L 0 116.25 
z
"/>
       <path d="M 0 19.459531 
L 0 25.709531 
L 297.130859 25.709531 
L 297.130859 19.459531 
L 0 19.459531 
z
"/>
       <path d="M 14 4.459531 
L 14 8.834531 
L 34.644531 8.834531 
L 34.644531 4.459531 
L 14 4.459531 
z
"/>
      </g>
     </g>
    </g>
    <g id="xtick_2">
     <g id="line2d_2">
      <path d="M 199.946182 233.5064 
L 199.946182 12.96 
" clip-path="url(#pd3b60ed248)" style="fill: none; stroke: #ffffff; stroke-linecap: round"/>
     </g>
     <g id="text_2">
      <!-- $\frac{I_{1241}}{\overline{I}_{874 \pm 32}}$ -->
      <g style="fill: #262626" transform="translate(179.786182 260.1264) scale(0.16 -0.16)">
       <defs>
        <path id="DejaVuSans-31" d="M 794 531 
L 1825 531 
L 1825 4091 
L 703 3866 
L 703 4441 
L 1819 4666 
L 2450 4666 
L 2450 531 
L 3481 531 
L 3481 0 
L 794 0 
L 794 531 
z
" transform="scale(0.015625)"/>
        <path id="DejaVuSans-34" d="M 2419 4116 
L 825 1625 
L 2419 1625 
L 2419 4116 
z
M 2253 4666 
L 3047 4666 
L 3047 1625 
L 3713 1625 
L 3713 1100 
L 3047 1100 
L 3047 0 
L 2419 0 
L 2419 1100 
L 313 1100 
L 313 1709 
L 2253 4666 
z
" transform="scale(0.015625)"/>
        <path id="DejaVuSans-37" d="M 525 4666 
L 3525 4666 
L 3525 4397 
L 1831 0 
L 1172 0 
L 2766 4134 
L 525 4134 
L 525 4666 
z
" transform="scale(0.015625)"/>
       </defs>
       <use xlink:href="#DejaVuSans-Oblique-49" transform="translate(46 55.965625) scale(0.7)"/>
       <use xlink:href="#DejaVuSans-31" transform="translate(66.644531 44.48125) scale(0.49)"/>
       <use xlink:href="#DejaVuSans-32" transform="translate(97.819824 44.48125) scale(0.49)"/>
       <use xlink:href="#DejaVuSans-34" transform="translate(128.995117 44.48125) scale(0.49)"/>
       <use xlink:href="#DejaVuSans-31" transform="translate(160.17041 44.48125) scale(0.49)"/>
       <use xlink:href="#DejaVuSans-Oblique-49" transform="translate(0 -55.178125) scale(0.7)"/>
       <use xlink:href="#DejaVuSans-38" transform="translate(21.314453 -66.6125) scale(0.49)"/>
       <use xlink:href="#DejaVuSans-37" transform="translate(52.489746 -66.6125) scale(0.49)"/>
       <use xlink:href="#DejaVuSans-34" transform="translate(83.665039 -66.6125) scale(0.49)"/>
       <use xlink:href="#DejaVuSans-b1" transform="translate(124.386719 -66.6125) scale(0.49)"/>
       <use xlink:href="#DejaVuSans-33" transform="translate(174.989746 -66.6125) scale(0.49)"/>
       <use xlink:href="#DejaVuSans-32" transform="translate(206.165039 -66.6125) scale(0.49)"/>
       <path d="M 0 19.48125 
L 0 25.73125 
L 239.254395 25.73125 
L 239.254395 19.48125 
L 0 19.48125 
z
"/>
       <path d="M 0 4.48125 
L 0 8.85625 
L 20.644531 8.85625 
L 20.644531 4.48125 
L 0 4.48125 
z
"/>
      </g>
     </g>
    </g>
    <g id="xtick_3">
     <g id="line2d_3">
      <path d="M 313.413 233.5064 
L 313.413 12.96 
" clip-path="url(#pd3b60ed248)" style="fill: none; stroke: #ffffff; stroke-linecap: round"/>
     </g>
     <g id="text_3">
      <!-- $\log \Sigma I_{p,\ 3800\text{–}2500}$ -->
      <g style="fill: #262626" transform="translate(252.693 255.1664) scale(0.16 -0.16)">
       <defs>
        <path id="DejaVuSans-6c" d="M 603 4863 
L 1178 4863 
L 1178 0 
L 603 0 
L 603 4863 
z
" transform="scale(0.015625)"/>
        <path id="DejaVuSans-6f" d="M 1959 3097 
Q 1497 3097 1228 2736 
Q 959 2375 959 1747 
Q 959 1119 1226 758 
Q 1494 397 1959 397 
Q 2419 397 2687 759 
Q 2956 1122 2956 1747 
Q 2956 2369 2687 2733 
Q 2419 3097 1959 3097 
z
M 1959 3584 
Q 2709 3584 3137 3096 
Q 3566 2609 3566 1747 
Q 3566 888 3137 398 
Q 2709 -91 1959 -91 
Q 1206 -91 779 398 
Q 353 888 353 1747 
Q 353 2609 779 3096 
Q 1206 3584 1959 3584 
z
" transform="scale(0.015625)"/>
        <path id="DejaVuSans-67" d="M 2906 1791 
Q 2906 2416 2648 2759 
Q 2391 3103 1925 3103 
Q 1463 3103 1205 2759 
Q 947 2416 947 1791 
Q 947 1169 1205 825 
Q 1463 481 1925 481 
Q 2391 481 2648 825 
Q 2906 1169 2906 1791 
z
M 3481 434 
Q 3481 -459 3084 -895 
Q 2688 -1331 1869 -1331 
Q 1566 -1331 1297 -1286 
Q 1028 -1241 775 -1147 
L 775 -588 
Q 1028 -725 1275 -790 
Q 1522 -856 1778 -856 
Q 2344 -856 2625 -561 
Q 2906 -266 2906 331 
L 2906 616 
Q 2728 306 2450 153 
Q 2172 0 1784 0 
Q 1141 0 747 490 
Q 353 981 353 1791 
Q 353 2603 747 3093 
Q 1141 3584 1784 3584 
Q 2172 3584 2450 3431 
Q 2728 3278 2906 2969 
L 2906 3500 
L 3481 3500 
L 3481 434 
z
" transform="scale(0.015625)"/>
        <path id="DejaVuSans-3a3" d="M 1353 531 
L 3634 531 
L 3634 0 
L 628 0 
L 628 531 
L 2125 2481 
L 628 4134 
L 628 4666 
L 3578 4666 
L 3578 4134 
L 1353 4134 
L 2850 2494 
L 1353 531 
z
" transform="scale(0.015625)"/>
        <path id="DejaVuSans-Oblique-70" d="M 3175 2156 
Q 3175 2616 2975 2859 
Q 2775 3103 2400 3103 
Q 2144 3103 1911 2972 
Q 1678 2841 1497 2591 
Q 1319 2344 1212 1994 
Q 1106 1644 1106 1300 
Q 1106 863 1306 627 
Q 1506 391 1875 391 
Q 2147 391 2380 519 
Q 2613 647 2778 891 
Q 2956 1147 3065 1494 
Q 3175 1841 3175 2156 
z
M 1394 2969 
Q 1625 3272 1939 3428 
Q 2253 3584 2638 3584 
Q 3175 3584 3472 3232 
Q 3769 2881 3769 2247 
Q 3769 1728 3584 1258 
Q 3400 788 3053 416 
Q 2822 169 2531 39 
Q 2241 -91 1919 -91 
Q 1547 -91 1294 64 
Q 1041 219 916 525 
L 556 -1331 
L -19 -1331 
L 922 3500 
L 1497 3500 
L 1394 2969 
z
" transform="scale(0.015625)"/>
        <path id="DejaVuSans-2c" d="M 750 794 
L 1409 794 
L 1409 256 
L 897 -744 
L 494 -744 
L 750 256 
L 750 794 
z
" transform="scale(0.015625)"/>
       </defs>
       <use xlink:href="#DejaVuSans-6c" transform="translate(0 0.015625)"/>
       <use xlink:href="#DejaVuSans-6f" transform="translate(27.783203 0.015625)"/>
       <use xlink:href="#DejaVuSans-67" transform="translate(88.964844 0.015625)"/>
       <use xlink:href="#DejaVuSans-3a3" transform="translate(168.677083 0.015625)"/>
       <use xlink:href="#DejaVuSans-Oblique-49" transform="translate(231.860676 0.015625)"/>
       <use xlink:href="#DejaVuSans-Oblique-70" transform="translate(261.352864 -16.390625) scale(0.7)"/>
       <use xlink:href="#DejaVuSans-2c" transform="translate(305.786458 -16.390625) scale(0.7)"/>
       <use xlink:href="#DejaVuSans-33" transform="translate(364.404394 -16.390625) scale(0.7)"/>
       <use xlink:href="#DejaVuSans-38" transform="translate(408.940527 -16.390625) scale(0.7)"/>
       <use xlink:href="#DejaVuSans-30" transform="translate(453.47666 -16.390625) scale(0.7)"/>
       <use xlink:href="#DejaVuSans-30" transform="translate(498.012793 -16.390625) scale(0.7)"/>
       <use xlink:href="#DejaVuSansDisplay-2013" transform="translate(542.548926 -16.390625) scale(0.7)"/>
       <use xlink:href="#DejaVuSans-32" transform="translate(577.548926 -16.390625) scale(0.7)"/>
       <use xlink:href="#DejaVuSans-35" transform="translate(622.085058 -16.390625) scale(0.7)"/>
       <use xlink:href="#DejaVuSans-30" transform="translate(666.621191 -16.390625) scale(0.7)"/>
       <use xlink:href="#DejaVuSans-30" transform="translate(711.157324 -16.390625) scale(0.7)"/>
      </g>
     </g>
    </g>
    <g id="xtick_4">
     <g id="line2d_4">
      <path d="M 426.879818 233.5064 
L 426.879818 12.96 
" clip-path="url(#pd3b60ed248)" style="fill: none; stroke: #ffffff; stroke-linecap: round"/>
     </g>
     <g id="text_4">
      <!-- $\frac{\overline{I}_{1900\text{–}1500}}{\overline{I}_{1393 \pm 32}}$ -->
      <g style="fill: #262626" transform="translate(402.079818 263.0064) scale(0.16 -0.16)">
       <use xlink:href="#DejaVuSans-Oblique-49" transform="translate(0 56.590625) scale(0.7)"/>
       <use xlink:href="#DejaVuSans-31" transform="translate(21.314453 45.15625) scale(0.49)"/>
       <use xlink:href="#DejaVuSans-39" transform="translate(52.489746 45.15625) scale(0.49)"/>
       <use xlink:href="#DejaVuSans-30" transform="translate(83.665039 45.15625) scale(0.49)"/>
       <use xlink:href="#DejaVuSans-30" transform="translate(114.840332 45.15625) scale(0.49)"/>
       <use xlink:href="#DejaVuSansDisplay-2013" transform="translate(146.015625 45.15625) scale(0.49)"/>
       <use xlink:href="#DejaVuSans-31" transform="translate(170.515625 45.15625) scale(0.49)"/>
       <use xlink:href="#DejaVuSans-35" transform="translate(201.690918 45.15625) scale(0.49)"/>
       <use xlink:href="#DejaVuSans-30" transform="translate(232.866211 45.15625) scale(0.49)"/>
       <use xlink:href="#DejaVuSans-30" transform="translate(264.041504 45.15625) scale(0.49)"/>
       <use xlink:href="#DejaVuSans-Oblique-49" transform="translate(13 -55.199844) scale(0.7)"/>
       <use xlink:href="#DejaVuSans-31" transform="translate(34.314453 -66.634219) scale(0.49)"/>
       <use xlink:href="#DejaVuSans-33" transform="translate(65.489746 -66.634219) scale(0.49)"/>
       <use xlink:href="#DejaVuSans-39" transform="translate(96.665039 -66.634219) scale(0.49)"/>
       <use xlink:href="#DejaVuSans-33" transform="translate(127.840332 -66.634219) scale(0.49)"/>
       <use xlink:href="#DejaVuSans-b1" transform="translate(168.562012 -66.634219) scale(0.49)"/>
       <use xlink:href="#DejaVuSans-33" transform="translate(219.165039 -66.634219) scale(0.49)"/>
       <use xlink:href="#DejaVuSans-32" transform="translate(250.340332 -66.634219) scale(0.49)"/>
       <path d="M 0 116.25 
L 0 120.625 
L 20.644531 120.625 
L 20.644531 116.25 
L 0 116.25 
z
"/>
       <path d="M 0 19.459531 
L 0 25.709531 
L 297.130859 25.709531 
L 297.130859 19.459531 
L 0 19.459531 
z
"/>
       <path d="M 13 4.459531 
L 13 8.834531 
L 33.644531 8.834531 
L 33.644531 4.459531 
L 13 4.459531 
z
"/>
      </g>
     </g>
    </g>
    <g id="xtick_5">
     <g id="line2d_5">
      <path d="M 540.346636 233.5064 
L 540.346636 12.96 
" clip-path="url(#pd3b60ed248)" style="fill: none; stroke: #ffffff; stroke-linecap: round"/>
     </g>
     <g id="text_5">
      <!-- $\frac{I_{874}}{I_{1241}}$ -->
      <g style="fill: #262626" transform="translate(527.546636 260.2864) scale(0.16 -0.16)">
       <use xlink:href="#DejaVuSans-Oblique-49" transform="translate(16 56.965625) scale(0.7)"/>
       <use xlink:href="#DejaVuSans-38" transform="translate(36.644531 45.48125) scale(0.49)"/>
       <use xlink:href="#DejaVuSans-37" transform="translate(67.819824 45.48125) scale(0.49)"/>
       <use xlink:href="#DejaVuSans-34" transform="translate(98.995117 45.48125) scale(0.49)"/>
       <use xlink:href="#DejaVuSans-Oblique-49" transform="translate(0 -37.499844) scale(0.7)"/>
       <use xlink:href="#DejaVuSans-31" transform="translate(20.644531 -48.984219) scale(0.49)"/>
       <use xlink:href="#DejaVuSans-32" transform="translate(51.819824 -48.984219) scale(0.49)"/>
       <use xlink:href="#DejaVuSans-34" transform="translate(82.995117 -48.984219) scale(0.49)"/>
       <use xlink:href="#DejaVuSans-31" transform="translate(114.17041 -48.984219) scale(0.49)"/>
       <path d="M 0 19.784531 
L 0 26.034531 
L 147.259766 26.034531 
L 147.259766 19.784531 
L 0 19.784531 
z
"/>
      </g>
     </g>
    </g>
   </g>
   <g id="matplotlib.axis_2">
    <g id="ytick_1">
     <g id="line2d_6">
      <path d="M 63.786 221.853772 
L 563.04 221.853772 
" clip-path="url(#pd3b60ed248)" style="fill: none; stroke: #ffffff; stroke-linecap: round"/>
     </g>
     <g id="text_6">
      <!-- 0.72 -->
      <g style="fill: #262626" transform="translate(34.825062 225.432678) scale(0.1 -0.1)">
       <defs>
        <path id="ArialMT-30" d="M 266 2259 
Q 266 3072 433 3567 
Q 600 4063 929 4331 
Q 1259 4600 1759 4600 
Q 2128 4600 2406 4451 
Q 2684 4303 2865 4023 
Q 3047 3744 3150 3342 
Q 3253 2941 3253 2259 
Q 3253 1453 3087 958 
Q 2922 463 2592 192 
Q 2263 -78 1759 -78 
Q 1097 -78 719 397 
Q 266 969 266 2259 
z
M 844 2259 
Q 844 1131 1108 757 
Q 1372 384 1759 384 
Q 2147 384 2411 759 
Q 2675 1134 2675 2259 
Q 2675 3391 2411 3762 
Q 2147 4134 1753 4134 
Q 1366 4134 1134 3806 
Q 844 3388 844 2259 
z
" transform="scale(0.015625)"/>
        <path id="ArialMT-2e" d="M 581 0 
L 581 641 
L 1222 641 
L 1222 0 
L 581 0 
z
" transform="scale(0.015625)"/>
        <path id="ArialMT-37" d="M 303 3981 
L 303 4522 
L 3269 4522 
L 3269 4084 
Q 2831 3619 2401 2847 
Q 1972 2075 1738 1259 
Q 1569 684 1522 0 
L 944 0 
Q 953 541 1156 1306 
Q 1359 2072 1739 2783 
Q 2119 3494 2547 3981 
L 303 3981 
z
" transform="scale(0.015625)"/>
        <path id="ArialMT-32" d="M 3222 541 
L 3222 0 
L 194 0 
Q 188 203 259 391 
Q 375 700 629 1000 
Q 884 1300 1366 1694 
Q 2113 2306 2375 2664 
Q 2638 3022 2638 3341 
Q 2638 3675 2398 3904 
Q 2159 4134 1775 4134 
Q 1369 4134 1125 3890 
Q 881 3647 878 3216 
L 300 3275 
Q 359 3922 746 4261 
Q 1134 4600 1788 4600 
Q 2447 4600 2831 4234 
Q 3216 3869 3216 3328 
Q 3216 3053 3103 2787 
Q 2991 2522 2730 2228 
Q 2469 1934 1863 1422 
Q 1356 997 1212 845 
Q 1069 694 975 541 
L 3222 541 
z
" transform="scale(0.015625)"/>
       </defs>
       <use xlink:href="#ArialMT-30"/>
       <use xlink:href="#ArialMT-2e" transform="translate(55.615234 0)"/>
       <use xlink:href="#ArialMT-37" transform="translate(83.398438 0)"/>
       <use xlink:href="#ArialMT-32" transform="translate(139.013672 0)"/>
      </g>
     </g>
    </g>
    <g id="ytick_2">
     <g id="line2d_7">
      <path d="M 63.786 193.294431 
L 563.04 193.294431 
" clip-path="url(#pd3b60ed248)" style="fill: none; stroke: #ffffff; stroke-linecap: round"/>
     </g>
     <g id="text_7">
      <!-- 0.76 -->
      <g style="fill: #262626" transform="translate(34.825062 196.873337) scale(0.1 -0.1)">
       <defs>
        <path id="ArialMT-36" d="M 3184 3459 
L 2625 3416 
Q 2550 3747 2413 3897 
Q 2184 4138 1850 4138 
Q 1581 4138 1378 3988 
Q 1113 3794 959 3422 
Q 806 3050 800 2363 
Q 1003 2672 1297 2822 
Q 1591 2972 1913 2972 
Q 2475 2972 2870 2558 
Q 3266 2144 3266 1488 
Q 3266 1056 3080 686 
Q 2894 316 2569 119 
Q 2244 -78 1831 -78 
Q 1128 -78 684 439 
Q 241 956 241 2144 
Q 241 3472 731 4075 
Q 1159 4600 1884 4600 
Q 2425 4600 2770 4297 
Q 3116 3994 3184 3459 
z
M 888 1484 
Q 888 1194 1011 928 
Q 1134 663 1356 523 
Q 1578 384 1822 384 
Q 2178 384 2434 671 
Q 2691 959 2691 1453 
Q 2691 1928 2437 2201 
Q 2184 2475 1800 2475 
Q 1419 2475 1153 2201 
Q 888 1928 888 1484 
z
" transform="scale(0.015625)"/>
       </defs>
       <use xlink:href="#ArialMT-30"/>
       <use xlink:href="#ArialMT-2e" transform="translate(55.615234 0)"/>
       <use xlink:href="#ArialMT-37" transform="translate(83.398438 0)"/>
       <use xlink:href="#ArialMT-36" transform="translate(139.013672 0)"/>
      </g>
     </g>
    </g>
    <g id="ytick_3">
     <g id="line2d_8">
      <path d="M 63.786 164.735089 
L 563.04 164.735089 
" clip-path="url(#pd3b60ed248)" style="fill: none; stroke: #ffffff; stroke-linecap: round"/>
     </g>
     <g id="text_8">
      <!-- 0.80 -->
      <g style="fill: #262626" transform="translate(34.825062 168.313996) scale(0.1 -0.1)">
       <defs>
        <path id="ArialMT-38" d="M 1131 2484 
Q 781 2613 612 2850 
Q 444 3088 444 3419 
Q 444 3919 803 4259 
Q 1163 4600 1759 4600 
Q 2359 4600 2725 4251 
Q 3091 3903 3091 3403 
Q 3091 3084 2923 2848 
Q 2756 2613 2416 2484 
Q 2838 2347 3058 2040 
Q 3278 1734 3278 1309 
Q 3278 722 2862 322 
Q 2447 -78 1769 -78 
Q 1091 -78 675 323 
Q 259 725 259 1325 
Q 259 1772 486 2073 
Q 713 2375 1131 2484 
z
M 1019 3438 
Q 1019 3113 1228 2906 
Q 1438 2700 1772 2700 
Q 2097 2700 2305 2904 
Q 2513 3109 2513 3406 
Q 2513 3716 2298 3927 
Q 2084 4138 1766 4138 
Q 1444 4138 1231 3931 
Q 1019 3725 1019 3438 
z
M 838 1322 
Q 838 1081 952 856 
Q 1066 631 1291 507 
Q 1516 384 1775 384 
Q 2178 384 2440 643 
Q 2703 903 2703 1303 
Q 2703 1709 2433 1975 
Q 2163 2241 1756 2241 
Q 1359 2241 1098 1978 
Q 838 1716 838 1322 
z
" transform="scale(0.015625)"/>
       </defs>
       <use xlink:href="#ArialMT-30"/>
       <use xlink:href="#ArialMT-2e" transform="translate(55.615234 0)"/>
       <use xlink:href="#ArialMT-38" transform="translate(83.398438 0)"/>
       <use xlink:href="#ArialMT-30" transform="translate(139.013672 0)"/>
      </g>
     </g>
    </g>
    <g id="ytick_4">
     <g id="line2d_9">
      <path d="M 63.786 136.175748 
L 563.04 136.175748 
" clip-path="url(#pd3b60ed248)" style="fill: none; stroke: #ffffff; stroke-linecap: round"/>
     </g>
     <g id="text_9">
      <!-- 0.84 -->
      <g style="fill: #262626" transform="translate(34.825062 139.754655) scale(0.1 -0.1)">
       <defs>
        <path id="ArialMT-34" d="M 2069 0 
L 2069 1097 
L 81 1097 
L 81 1613 
L 2172 4581 
L 2631 4581 
L 2631 1613 
L 3250 1613 
L 3250 1097 
L 2631 1097 
L 2631 0 
L 2069 0 
z
M 2069 1613 
L 2069 3678 
L 634 1613 
L 2069 1613 
z
" transform="scale(0.015625)"/>
       </defs>
       <use xlink:href="#ArialMT-30"/>
       <use xlink:href="#ArialMT-2e" transform="translate(55.615234 0)"/>
       <use xlink:href="#ArialMT-38" transform="translate(83.398438 0)"/>
       <use xlink:href="#ArialMT-34" transform="translate(139.013672 0)"/>
      </g>
     </g>
    </g>
    <g id="ytick_5">
     <g id="line2d_10">
      <path d="M 63.786 107.616407 
L 563.04 107.616407 
" clip-path="url(#pd3b60ed248)" style="fill: none; stroke: #ffffff; stroke-linecap: round"/>
     </g>
     <g id="text_10">
      <!-- 0.88 -->
      <g style="fill: #262626" transform="translate(34.825062 111.195313) scale(0.1 -0.1)">
       <use xlink:href="#ArialMT-30"/>
       <use xlink:href="#ArialMT-2e" transform="translate(55.615234 0)"/>
       <use xlink:href="#ArialMT-38" transform="translate(83.398438 0)"/>
       <use xlink:href="#ArialMT-38" transform="translate(139.013672 0)"/>
      </g>
     </g>
    </g>
    <g id="ytick_6">
     <g id="line2d_11">
      <path d="M 63.786 79.057066 
L 563.04 79.057066 
" clip-path="url(#pd3b60ed248)" style="fill: none; stroke: #ffffff; stroke-linecap: round"/>
     </g>
     <g id="text_11">
      <!-- 0.92 -->
      <g style="fill: #262626" transform="translate(34.825062 82.635972) scale(0.1 -0.1)">
       <defs>
        <path id="ArialMT-39" d="M 350 1059 
L 891 1109 
Q 959 728 1153 556 
Q 1347 384 1650 384 
Q 1909 384 2104 503 
Q 2300 622 2425 820 
Q 2550 1019 2634 1356 
Q 2719 1694 2719 2044 
Q 2719 2081 2716 2156 
Q 2547 1888 2255 1720 
Q 1963 1553 1622 1553 
Q 1053 1553 659 1965 
Q 266 2378 266 3053 
Q 266 3750 677 4175 
Q 1088 4600 1706 4600 
Q 2153 4600 2523 4359 
Q 2894 4119 3086 3673 
Q 3278 3228 3278 2384 
Q 3278 1506 3087 986 
Q 2897 466 2520 194 
Q 2144 -78 1638 -78 
Q 1100 -78 759 220 
Q 419 519 350 1059 
z
M 2653 3081 
Q 2653 3566 2395 3850 
Q 2138 4134 1775 4134 
Q 1400 4134 1122 3828 
Q 844 3522 844 3034 
Q 844 2597 1108 2323 
Q 1372 2050 1759 2050 
Q 2150 2050 2401 2323 
Q 2653 2597 2653 3081 
z
" transform="scale(0.015625)"/>
       </defs>
       <use xlink:href="#ArialMT-30"/>
       <use xlink:href="#ArialMT-2e" transform="translate(55.615234 0)"/>
       <use xlink:href="#ArialMT-39" transform="translate(83.398438 0)"/>
       <use xlink:href="#ArialMT-32" transform="translate(139.013672 0)"/>
      </g>
     </g>
    </g>
    <g id="ytick_7">
     <g id="line2d_12">
      <path d="M 63.786 50.497725 
L 563.04 50.497725 
" clip-path="url(#pd3b60ed248)" style="fill: none; stroke: #ffffff; stroke-linecap: round"/>
     </g>
     <g id="text_12">
      <!-- 0.96 -->
      <g style="fill: #262626" transform="translate(34.825062 54.076631) scale(0.1 -0.1)">
       <use xlink:href="#ArialMT-30"/>
       <use xlink:href="#ArialMT-2e" transform="translate(55.615234 0)"/>
       <use xlink:href="#ArialMT-39" transform="translate(83.398438 0)"/>
       <use xlink:href="#ArialMT-36" transform="translate(139.013672 0)"/>
      </g>
     </g>
    </g>
    <g id="ytick_8">
     <g id="line2d_13">
      <path d="M 63.786 21.938384 
L 563.04 21.938384 
" clip-path="url(#pd3b60ed248)" style="fill: none; stroke: #ffffff; stroke-linecap: round"/>
     </g>
     <g id="text_13">
      <!-- 1.00 -->
      <g style="fill: #262626" transform="translate(34.825062 25.51729) scale(0.1 -0.1)">
       <defs>
        <path id="ArialMT-31" d="M 2384 0 
L 1822 0 
L 1822 3584 
Q 1619 3391 1289 3197 
Q 959 3003 697 2906 
L 697 3450 
Q 1169 3672 1522 3987 
Q 1875 4303 2022 4600 
L 2384 4600 
L 2384 0 
z
" transform="scale(0.015625)"/>
       </defs>
       <use xlink:href="#ArialMT-31"/>
       <use xlink:href="#ArialMT-2e" transform="translate(55.615234 0)"/>
       <use xlink:href="#ArialMT-30" transform="translate(83.398438 0)"/>
       <use xlink:href="#ArialMT-30" transform="translate(139.013672 0)"/>
      </g>
     </g>
    </g>
    <g id="text_14">
     <!-- $ROC-AUC_{ovr}$ -->
     <g style="fill: #262626" transform="translate(22.440062 163.3132) rotate(-90) scale(0.12 -0.12)">
      <defs>
       <path id="DejaVuSans-Oblique-52" d="M 1613 4147 
L 1294 2491 
L 2106 2491 
Q 2584 2491 2879 2755 
Q 3175 3019 3175 3444 
Q 3175 3784 2976 3965 
Q 2778 4147 2406 4147 
L 1613 4147 
z
M 2772 2241 
Q 2972 2194 3105 2009 
Q 3238 1825 3413 1275 
L 3809 0 
L 3144 0 
L 2778 1197 
Q 2638 1659 2453 1815 
Q 2269 1972 1888 1972 
L 1191 1972 
L 806 0 
L 172 0 
L 1081 4666 
L 2503 4666 
Q 3150 4666 3495 4373 
Q 3841 4081 3841 3531 
Q 3841 3044 3547 2687 
Q 3253 2331 2772 2241 
z
" transform="scale(0.015625)"/>
       <path id="DejaVuSans-Oblique-4f" d="M 2919 4238 
Q 2400 4238 2003 3986 
Q 1606 3734 1313 3219 
Q 1125 2891 1026 2522 
Q 928 2153 928 1778 
Q 928 1128 1239 775 
Q 1550 422 2119 422 
Q 2631 422 3032 676 
Q 3434 931 3719 1434 
Q 3909 1772 4009 2142 
Q 4109 2513 4109 2881 
Q 4109 3528 3796 3883 
Q 3484 4238 2919 4238 
z
M 2100 -91 
Q 1241 -91 748 418 
Q 256 928 256 1813 
Q 256 2319 448 2847 
Q 641 3375 978 3788 
Q 1375 4272 1862 4511 
Q 2350 4750 2938 4750 
Q 3794 4750 4287 4245 
Q 4781 3741 4781 2869 
Q 4781 2331 4593 1812 
Q 4406 1294 4056 872 
Q 3656 384 3173 146 
Q 2691 -91 2100 -91 
z
" transform="scale(0.015625)"/>
       <path id="DejaVuSans-Oblique-43" d="M 4447 4306 
L 4319 3641 
Q 4019 3944 3683 4091 
Q 3347 4238 2956 4238 
Q 2422 4238 2017 3981 
Q 1613 3725 1319 3200 
Q 1131 2863 1032 2486 
Q 934 2109 934 1728 
Q 934 1091 1264 756 
Q 1594 422 2222 422 
Q 2656 422 3056 561 
Q 3456 700 3834 978 
L 3688 231 
Q 3316 72 2936 -9 
Q 2556 -91 2175 -91 
Q 1278 -91 773 396 
Q 269 884 269 1753 
Q 269 2309 461 2846 
Q 653 3384 1013 3828 
Q 1394 4300 1883 4525 
Q 2372 4750 3022 4750 
Q 3422 4750 3780 4639 
Q 4138 4528 4447 4306 
z
" transform="scale(0.015625)"/>
       <path id="DejaVuSans-2212" d="M 678 2272 
L 4684 2272 
L 4684 1741 
L 678 1741 
L 678 2272 
z
" transform="scale(0.015625)"/>
       <path id="DejaVuSans-Oblique-41" d="M 2356 4666 
L 3072 4666 
L 3938 0 
L 3278 0 
L 3084 1197 
L 984 1197 
L 325 0 
L -341 0 
L 2356 4666 
z
M 2584 4044 
L 1275 1722 
L 2988 1722 
L 2584 4044 
z
" transform="scale(0.015625)"/>
       <path id="DejaVuSans-Oblique-55" d="M 991 4666 
L 1625 4666 
L 1075 1831 
Q 1041 1641 1027 1517 
Q 1013 1394 1013 1300 
Q 1013 869 1253 645 
Q 1494 422 1959 422 
Q 2563 422 2898 753 
Q 3234 1084 3378 1831 
L 3928 4666 
L 4563 4666 
L 4000 1753 
Q 3816 809 3300 359 
Q 2784 -91 1888 -91 
Q 1188 -91 780 261 
Q 372 613 372 1216 
Q 372 1325 387 1461 
Q 403 1597 434 1753 
L 991 4666 
z
" transform="scale(0.015625)"/>
       <path id="DejaVuSans-Oblique-6f" d="M 1625 -91 
Q 1009 -91 651 289 
Q 294 669 294 1325 
Q 294 1706 417 2101 
Q 541 2497 738 2766 
Q 1047 3184 1428 3384 
Q 1809 3584 2291 3584 
Q 2888 3584 3255 3212 
Q 3622 2841 3622 2241 
Q 3622 1825 3500 1412 
Q 3378 1000 3181 728 
Q 2875 309 2494 109 
Q 2113 -91 1625 -91 
z
M 891 1344 
Q 891 869 1089 633 
Q 1288 397 1691 397 
Q 2269 397 2648 901 
Q 3028 1406 3028 2181 
Q 3028 2634 2825 2865 
Q 2622 3097 2228 3097 
Q 1903 3097 1650 2945 
Q 1397 2794 1197 2484 
Q 1050 2253 970 1956 
Q 891 1659 891 1344 
z
" transform="scale(0.015625)"/>
       <path id="DejaVuSans-Oblique-76" d="M 459 3500 
L 1069 3500 
L 1581 525 
L 3256 3500 
L 3866 3500 
L 1875 0 
L 1100 0 
L 459 3500 
z
" transform="scale(0.015625)"/>
       <path id="DejaVuSans-Oblique-72" d="M 2853 2969 
Q 2766 3016 2653 3041 
Q 2541 3066 2413 3066 
Q 1953 3066 1609 2717 
Q 1266 2369 1153 1784 
L 800 0 
L 225 0 
L 909 3500 
L 1484 3500 
L 1375 2956 
Q 1603 3259 1920 3421 
Q 2238 3584 2597 3584 
Q 2691 3584 2781 3573 
Q 2872 3563 2963 3538 
L 2853 2969 
z
" transform="scale(0.015625)"/>
      </defs>
      <use xlink:href="#DejaVuSans-Oblique-52" transform="translate(0 0.78125)"/>
      <use xlink:href="#DejaVuSans-Oblique-4f" transform="translate(69.482422 0.78125)"/>
      <use xlink:href="#DejaVuSans-Oblique-43" transform="translate(148.193359 0.78125)"/>
      <use xlink:href="#DejaVuSans-2212" transform="translate(237.5 0.78125)"/>
      <use xlink:href="#DejaVuSans-Oblique-41" transform="translate(340.771484 0.78125)"/>
      <use xlink:href="#DejaVuSans-Oblique-55" transform="translate(409.179688 0.78125)"/>
      <use xlink:href="#DejaVuSans-Oblique-43" transform="translate(482.373047 0.78125)"/>
      <use xlink:href="#DejaVuSans-Oblique-6f" transform="translate(552.197266 -15.625) scale(0.7)"/>
      <use xlink:href="#DejaVuSans-Oblique-76" transform="translate(595.024414 -15.625) scale(0.7)"/>
      <use xlink:href="#DejaVuSans-Oblique-72" transform="translate(636.450195 -15.625) scale(0.7)"/>
     </g>
    </g>
   </g>
   <g id="FillBetweenPolyCollection_1">
    <defs>
     <path id="m5bc45ca663" d="M 86.479364 -233.441467 
L 86.479364 -167.086242 
L 199.946182 -187.301168 
L 313.413 -210.914148 
L 426.879818 -224.624733 
L 540.346636 -235.006325 
L 540.346636 -263.225014 
L 540.346636 -263.225014 
L 426.879818 -259.677286 
L 313.413 -254.4182 
L 199.946182 -241.77708 
L 86.479364 -233.441467 
z
" style="stroke: #08519c; stroke-opacity: 0.2"/>
    </defs>
    <g clip-path="url(#pd3b60ed248)">
     <use xlink:href="#m5bc45ca663" x="0" y="288" style="fill: #08519c; fill-opacity: 0.2; stroke: #08519c; stroke-opacity: 0.2"/>
    </g>
   </g>
   <g id="FillBetweenPolyCollection_2">
    <defs>
     <path id="m20e4fee585" d="M 86.479364 -100.204332 
L 86.479364 -67.727997 
L 199.946182 -66.308586 
L 313.413 -78.013871 
L 426.879818 -97.438423 
L 540.346636 -76.468074 
L 540.346636 -130.430023 
L 540.346636 -130.430023 
L 426.879818 -133.716058 
L 313.413 -116.862975 
L 199.946182 -99.786286 
L 86.479364 -100.204332 
z
" style="stroke: #1f77b4; stroke-opacity: 0.2"/>
    </defs>
    <g clip-path="url(#pd3b60ed248)">
     <use xlink:href="#m20e4fee585" x="0" y="288" style="fill: #1f77b4; fill-opacity: 0.2; stroke: #1f77b4; stroke-opacity: 0.2"/>
    </g>
   </g>
   <g id="line2d_14">
    <path d="M 86.479364 90.283452 
L 199.946182 71.768387 
L 313.413 54.188461 
L 426.879818 44.272983 
L 540.346636 37.434221 
" clip-path="url(#pd3b60ed248)" style="fill: none; stroke: #08519c; stroke-opacity: 0.7; stroke-width: 2; stroke-linecap: round"/>
    <defs>
     <path id="m51dbd204f9" d="M 0 3 
C 0.795609 3 1.55874 2.683901 2.12132 2.12132 
C 2.683901 1.55874 3 0.795609 3 0 
C 3 -0.795609 2.683901 -1.55874 2.12132 -2.12132 
C 1.55874 -2.683901 0.795609 -3 0 -3 
C -0.795609 -3 -1.55874 -2.683901 -2.12132 -2.12132 
C -2.683901 -1.55874 -3 -0.795609 -3 0 
C -3 0.795609 -2.683901 1.55874 -2.12132 2.12132 
C -1.55874 2.683901 -0.795609 3 0 3 
z
" style="stroke: #08519c; stroke-opacity: 0.7"/>
    </defs>
    <g clip-path="url(#pd3b60ed248)">
     <use xlink:href="#m51dbd204f9" x="86.479364" y="90.283452" style="fill: #08519c; fill-opacity: 0.7; stroke: #08519c; stroke-opacity: 0.7"/>
     <use xlink:href="#m51dbd204f9" x="199.946182" y="71.768387" style="fill: #08519c; fill-opacity: 0.7; stroke: #08519c; stroke-opacity: 0.7"/>
     <use xlink:href="#m51dbd204f9" x="313.413" y="54.188461" style="fill: #08519c; fill-opacity: 0.7; stroke: #08519c; stroke-opacity: 0.7"/>
     <use xlink:href="#m51dbd204f9" x="426.879818" y="44.272983" style="fill: #08519c; fill-opacity: 0.7; stroke: #08519c; stroke-opacity: 0.7"/>
     <use xlink:href="#m51dbd204f9" x="540.346636" y="37.434221" style="fill: #08519c; fill-opacity: 0.7; stroke: #08519c; stroke-opacity: 0.7"/>
    </g>
   </g>
   <g id="line2d_15">
    <path d="M 86.479364 193.94386 
L 199.946182 202.359221 
L 313.413 187.373734 
L 426.879818 171.266328 
L 540.346636 182.388293 
" clip-path="url(#pd3b60ed248)" style="fill: none; stroke: #1f77b4; stroke-opacity: 0.7; stroke-width: 2; stroke-linecap: round"/>
    <defs>
     <path id="mbb36ed6668" d="M -3 3 
L 3 3 
L 3 -3 
L -3 -3 
z
" style="stroke: #1f77b4; stroke-opacity: 0.7; stroke-linejoin: miter"/>
    </defs>
    <g clip-path="url(#pd3b60ed248)">
     <use xlink:href="#mbb36ed6668" x="86.479364" y="193.94386" style="fill: #1f77b4; fill-opacity: 0.7; stroke: #1f77b4; stroke-opacity: 0.7; stroke-linejoin: miter"/>
     <use xlink:href="#mbb36ed6668" x="199.946182" y="202.359221" style="fill: #1f77b4; fill-opacity: 0.7; stroke: #1f77b4; stroke-opacity: 0.7; stroke-linejoin: miter"/>
     <use xlink:href="#mbb36ed6668" x="313.413" y="187.373734" style="fill: #1f77b4; fill-opacity: 0.7; stroke: #1f77b4; stroke-opacity: 0.7; stroke-linejoin: miter"/>
     <use xlink:href="#mbb36ed6668" x="426.879818" y="171.266328" style="fill: #1f77b4; fill-opacity: 0.7; stroke: #1f77b4; stroke-opacity: 0.7; stroke-linejoin: miter"/>
     <use xlink:href="#mbb36ed6668" x="540.346636" y="182.388293" style="fill: #1f77b4; fill-opacity: 0.7; stroke: #1f77b4; stroke-opacity: 0.7; stroke-linejoin: miter"/>
    </g>
   </g>
   <g id="patch_3">
    <path d="M 63.786 233.5064 
L 63.786 12.96 
" style="fill: none; stroke: #ffffff; stroke-width: 1.25; stroke-linejoin: miter; stroke-linecap: square"/>
   </g>
   <g id="patch_4">
    <path d="M 563.04 233.5064 
L 563.04 12.96 
" style="fill: none; stroke: #ffffff; stroke-width: 1.25; stroke-linejoin: miter; stroke-linecap: square"/>
   </g>
   <g id="patch_5">
    <path d="M 63.786 233.5064 
L 563.04 233.5064 
" style="fill: none; stroke: #ffffff; stroke-width: 1.25; stroke-linejoin: miter; stroke-linecap: square"/>
   </g>
   <g id="patch_6">
    <path d="M 63.786 12.96 
L 563.04 12.96 
" style="fill: none; stroke: #ffffff; stroke-width: 1.25; stroke-linejoin: miter; stroke-linecap: square"/>
   </g>
   <g id="text_15">
    <!-- 0.904 -->
    <g transform="translate(76.470614 85.123534) scale(0.08 -0.08)">
     <use xlink:href="#ArialMT-30"/>
     <use xlink:href="#ArialMT-2e" transform="translate(55.615234 0)"/>
     <use xlink:href="#ArialMT-39" transform="translate(83.398438 0)"/>
     <use xlink:href="#ArialMT-30" transform="translate(139.013672 0)"/>
     <use xlink:href="#ArialMT-34" transform="translate(194.628906 0)"/>
    </g>
   </g>
   <g id="text_16">
    <!-- 0.930 -->
    <g transform="translate(189.937432 66.60847) scale(0.08 -0.08)">
     <defs>
      <path id="ArialMT-33" d="M 269 1209 
L 831 1284 
Q 928 806 1161 595 
Q 1394 384 1728 384 
Q 2125 384 2398 659 
Q 2672 934 2672 1341 
Q 2672 1728 2419 1979 
Q 2166 2231 1775 2231 
Q 1616 2231 1378 2169 
L 1441 2663 
Q 1497 2656 1531 2656 
Q 1891 2656 2178 2843 
Q 2466 3031 2466 3422 
Q 2466 3731 2256 3934 
Q 2047 4138 1716 4138 
Q 1388 4138 1169 3931 
Q 950 3725 888 3313 
L 325 3413 
Q 428 3978 793 4289 
Q 1159 4600 1703 4600 
Q 2078 4600 2393 4439 
Q 2709 4278 2876 4000 
Q 3044 3722 3044 3409 
Q 3044 3113 2884 2869 
Q 2725 2625 2413 2481 
Q 2819 2388 3044 2092 
Q 3269 1797 3269 1353 
Q 3269 753 2831 336 
Q 2394 -81 1725 -81 
Q 1122 -81 723 278 
Q 325 638 269 1209 
z
" transform="scale(0.015625)"/>
     </defs>
     <use xlink:href="#ArialMT-30"/>
     <use xlink:href="#ArialMT-2e" transform="translate(55.615234 0)"/>
     <use xlink:href="#ArialMT-39" transform="translate(83.398438 0)"/>
     <use xlink:href="#ArialMT-33" transform="translate(139.013672 0)"/>
     <use xlink:href="#ArialMT-30" transform="translate(194.628906 0)"/>
    </g>
   </g>
   <g id="text_17">
    <!-- 0.955 -->
    <g transform="translate(303.40425 49.028543) scale(0.08 -0.08)">
     <defs>
      <path id="ArialMT-35" d="M 266 1200 
L 856 1250 
Q 922 819 1161 601 
Q 1400 384 1738 384 
Q 2144 384 2425 690 
Q 2706 997 2706 1503 
Q 2706 1984 2436 2262 
Q 2166 2541 1728 2541 
Q 1456 2541 1237 2417 
Q 1019 2294 894 2097 
L 366 2166 
L 809 4519 
L 3088 4519 
L 3088 3981 
L 1259 3981 
L 1013 2750 
Q 1425 3038 1878 3038 
Q 2478 3038 2890 2622 
Q 3303 2206 3303 1553 
Q 3303 931 2941 478 
Q 2500 -78 1738 -78 
Q 1113 -78 717 272 
Q 322 622 266 1200 
z
" transform="scale(0.015625)"/>
     </defs>
     <use xlink:href="#ArialMT-30"/>
     <use xlink:href="#ArialMT-2e" transform="translate(55.615234 0)"/>
     <use xlink:href="#ArialMT-39" transform="translate(83.398438 0)"/>
     <use xlink:href="#ArialMT-35" transform="translate(139.013672 0)"/>
     <use xlink:href="#ArialMT-35" transform="translate(194.628906 0)"/>
    </g>
   </g>
   <g id="text_18">
    <!-- 0.969 -->
    <g transform="translate(416.871068 39.113066) scale(0.08 -0.08)">
     <use xlink:href="#ArialMT-30"/>
     <use xlink:href="#ArialMT-2e" transform="translate(55.615234 0)"/>
     <use xlink:href="#ArialMT-39" transform="translate(83.398438 0)"/>
     <use xlink:href="#ArialMT-36" transform="translate(139.013672 0)"/>
     <use xlink:href="#ArialMT-39" transform="translate(194.628906 0)"/>
    </g>
   </g>
   <g id="text_19">
    <!-- 0.978 -->
    <g transform="translate(530.337886 32.274303) scale(0.08 -0.08)">
     <use xlink:href="#ArialMT-30"/>
     <use xlink:href="#ArialMT-2e" transform="translate(55.615234 0)"/>
     <use xlink:href="#ArialMT-39" transform="translate(83.398438 0)"/>
     <use xlink:href="#ArialMT-37" transform="translate(139.013672 0)"/>
     <use xlink:href="#ArialMT-38" transform="translate(194.628906 0)"/>
    </g>
   </g>
   <g id="text_20">
    <!-- 0.759 -->
    <g transform="translate(76.470614 206.633531) scale(0.08 -0.08)">
     <use xlink:href="#ArialMT-30"/>
     <use xlink:href="#ArialMT-2e" transform="translate(55.615234 0)"/>
     <use xlink:href="#ArialMT-37" transform="translate(83.398438 0)"/>
     <use xlink:href="#ArialMT-35" transform="translate(139.013672 0)"/>
     <use xlink:href="#ArialMT-39" transform="translate(194.628906 0)"/>
    </g>
   </g>
   <g id="text_21">
    <!-- 0.747 -->
    <g transform="translate(189.937432 215.048892) scale(0.08 -0.08)">
     <use xlink:href="#ArialMT-30"/>
     <use xlink:href="#ArialMT-2e" transform="translate(55.615234 0)"/>
     <use xlink:href="#ArialMT-37" transform="translate(83.398438 0)"/>
     <use xlink:href="#ArialMT-34" transform="translate(139.013672 0)"/>
     <use xlink:href="#ArialMT-37" transform="translate(194.628906 0)"/>
    </g>
   </g>
   <g id="text_22">
    <!-- 0.768 -->
    <g transform="translate(303.40425 200.063404) scale(0.08 -0.08)">
     <use xlink:href="#ArialMT-30"/>
     <use xlink:href="#ArialMT-2e" transform="translate(55.615234 0)"/>
     <use xlink:href="#ArialMT-37" transform="translate(83.398438 0)"/>
     <use xlink:href="#ArialMT-36" transform="translate(139.013672 0)"/>
     <use xlink:href="#ArialMT-38" transform="translate(194.628906 0)"/>
    </g>
   </g>
   <g id="text_23">
    <!-- 0.791 -->
    <g transform="translate(416.871068 183.955998) scale(0.08 -0.08)">
     <use xlink:href="#ArialMT-30"/>
     <use xlink:href="#ArialMT-2e" transform="translate(55.615234 0)"/>
     <use xlink:href="#ArialMT-37" transform="translate(83.398438 0)"/>
     <use xlink:href="#ArialMT-39" transform="translate(139.013672 0)"/>
     <use xlink:href="#ArialMT-31" transform="translate(194.628906 0)"/>
    </g>
   </g>
   <g id="text_24">
    <!-- 0.775 -->
    <g transform="translate(530.337886 195.077964) scale(0.08 -0.08)">
     <use xlink:href="#ArialMT-30"/>
     <use xlink:href="#ArialMT-2e" transform="translate(55.615234 0)"/>
     <use xlink:href="#ArialMT-37" transform="translate(83.398438 0)"/>
     <use xlink:href="#ArialMT-37" transform="translate(139.013672 0)"/>
     <use xlink:href="#ArialMT-35" transform="translate(194.628906 0)"/>
    </g>
   </g>
   <g id="legend_1">
    <g id="patch_7">
     <path d="M 71.486 52.879688 
L 131.332875 52.879688 
Q 133.532875 52.879688 133.532875 50.679688 
L 133.532875 20.66 
Q 133.532875 18.46 131.332875 18.46 
L 71.486 18.46 
Q 69.286 18.46 69.286 20.66 
L 69.286 50.679688 
Q 69.286 52.879688 71.486 52.879688 
z
" style="fill: #eaeaf2; opacity: 0.8; stroke: #cccccc; stroke-linejoin: miter"/>
    </g>
    <g id="line2d_16">
     <path d="M 73.686 26.883594 
L 84.686 26.883594 
L 95.686 26.883594 
" style="fill: none; stroke: #08519c; stroke-opacity: 0.7; stroke-width: 2; stroke-linecap: round"/>
     <g>
      <use xlink:href="#m51dbd204f9" x="84.686" y="26.883594" style="fill: #08519c; fill-opacity: 0.7; stroke: #08519c; stroke-opacity: 0.7"/>
     </g>
    </g>
    <g id="text_25">
     <!-- Train -->
     <g style="fill: #262626" transform="translate(104.486 30.733594) scale(0.11 -0.11)">
      <defs>
       <path id="ArialMT-54" d="M 1659 0 
L 1659 4041 
L 150 4041 
L 150 4581 
L 3781 4581 
L 3781 4041 
L 2266 4041 
L 2266 0 
L 1659 0 
z
" transform="scale(0.015625)"/>
       <path id="ArialMT-72" d="M 416 0 
L 416 3319 
L 922 3319 
L 922 2816 
Q 1116 3169 1280 3281 
Q 1444 3394 1641 3394 
Q 1925 3394 2219 3213 
L 2025 2691 
Q 1819 2813 1613 2813 
Q 1428 2813 1281 2702 
Q 1134 2591 1072 2394 
Q 978 2094 978 1738 
L 978 0 
L 416 0 
z
" transform="scale(0.015625)"/>
       <path id="ArialMT-61" d="M 2588 409 
Q 2275 144 1986 34 
Q 1697 -75 1366 -75 
Q 819 -75 525 192 
Q 231 459 231 875 
Q 231 1119 342 1320 
Q 453 1522 633 1644 
Q 813 1766 1038 1828 
Q 1203 1872 1538 1913 
Q 2219 1994 2541 2106 
Q 2544 2222 2544 2253 
Q 2544 2597 2384 2738 
Q 2169 2928 1744 2928 
Q 1347 2928 1158 2789 
Q 969 2650 878 2297 
L 328 2372 
Q 403 2725 575 2942 
Q 747 3159 1072 3276 
Q 1397 3394 1825 3394 
Q 2250 3394 2515 3294 
Q 2781 3194 2906 3042 
Q 3031 2891 3081 2659 
Q 3109 2516 3109 2141 
L 3109 1391 
Q 3109 606 3145 398 
Q 3181 191 3288 0 
L 2700 0 
Q 2613 175 2588 409 
z
M 2541 1666 
Q 2234 1541 1622 1453 
Q 1275 1403 1131 1340 
Q 988 1278 909 1158 
Q 831 1038 831 891 
Q 831 666 1001 516 
Q 1172 366 1500 366 
Q 1825 366 2078 508 
Q 2331 650 2450 897 
Q 2541 1088 2541 1459 
L 2541 1666 
z
" transform="scale(0.015625)"/>
       <path id="ArialMT-69" d="M 425 3934 
L 425 4581 
L 988 4581 
L 988 3934 
L 425 3934 
z
M 425 0 
L 425 3319 
L 988 3319 
L 988 0 
L 425 0 
z
" transform="scale(0.015625)"/>
       <path id="ArialMT-6e" d="M 422 0 
L 422 3319 
L 928 3319 
L 928 2847 
Q 1294 3394 1984 3394 
Q 2284 3394 2536 3286 
Q 2788 3178 2913 3003 
Q 3038 2828 3088 2588 
Q 3119 2431 3119 2041 
L 3119 0 
L 2556 0 
L 2556 2019 
Q 2556 2363 2490 2533 
Q 2425 2703 2258 2804 
Q 2091 2906 1866 2906 
Q 1506 2906 1245 2678 
Q 984 2450 984 1813 
L 984 0 
L 422 0 
z
" transform="scale(0.015625)"/>
      </defs>
      <use xlink:href="#ArialMT-54"/>
      <use xlink:href="#ArialMT-72" transform="translate(57.333984 0)"/>
      <use xlink:href="#ArialMT-61" transform="translate(90.634766 0)"/>
      <use xlink:href="#ArialMT-69" transform="translate(146.25 0)"/>
      <use xlink:href="#ArialMT-6e" transform="translate(168.466797 0)"/>
     </g>
    </g>
    <g id="line2d_17">
     <path d="M 73.686 42.443438 
L 84.686 42.443438 
L 95.686 42.443438 
" style="fill: none; stroke: #1f77b4; stroke-opacity: 0.7; stroke-width: 2; stroke-linecap: round"/>
     <g>
      <use xlink:href="#mbb36ed6668" x="84.686" y="42.443438" style="fill: #1f77b4; fill-opacity: 0.7; stroke: #1f77b4; stroke-opacity: 0.7; stroke-linejoin: miter"/>
     </g>
    </g>
    <g id="text_26">
     <!-- Test -->
     <g style="fill: #262626" transform="translate(104.486 46.293438) scale(0.11 -0.11)">
      <defs>
       <path id="ArialMT-65" d="M 2694 1069 
L 3275 997 
Q 3138 488 2766 206 
Q 2394 -75 1816 -75 
Q 1088 -75 661 373 
Q 234 822 234 1631 
Q 234 2469 665 2931 
Q 1097 3394 1784 3394 
Q 2450 3394 2872 2941 
Q 3294 2488 3294 1666 
Q 3294 1616 3291 1516 
L 816 1516 
Q 847 969 1125 678 
Q 1403 388 1819 388 
Q 2128 388 2347 550 
Q 2566 713 2694 1069 
z
M 847 1978 
L 2700 1978 
Q 2663 2397 2488 2606 
Q 2219 2931 1791 2931 
Q 1403 2931 1139 2672 
Q 875 2413 847 1978 
z
" transform="scale(0.015625)"/>
       <path id="ArialMT-73" d="M 197 991 
L 753 1078 
Q 800 744 1014 566 
Q 1228 388 1613 388 
Q 2000 388 2187 545 
Q 2375 703 2375 916 
Q 2375 1106 2209 1216 
Q 2094 1291 1634 1406 
Q 1016 1563 777 1677 
Q 538 1791 414 1992 
Q 291 2194 291 2438 
Q 291 2659 392 2848 
Q 494 3038 669 3163 
Q 800 3259 1026 3326 
Q 1253 3394 1513 3394 
Q 1903 3394 2198 3281 
Q 2494 3169 2634 2976 
Q 2775 2784 2828 2463 
L 2278 2388 
Q 2241 2644 2061 2787 
Q 1881 2931 1553 2931 
Q 1166 2931 1000 2803 
Q 834 2675 834 2503 
Q 834 2394 903 2306 
Q 972 2216 1119 2156 
Q 1203 2125 1616 2013 
Q 2213 1853 2448 1751 
Q 2684 1650 2818 1456 
Q 2953 1263 2953 975 
Q 2953 694 2789 445 
Q 2625 197 2315 61 
Q 2006 -75 1616 -75 
Q 969 -75 630 194 
Q 291 463 197 991 
z
" transform="scale(0.015625)"/>
       <path id="ArialMT-74" d="M 1650 503 
L 1731 6 
Q 1494 -44 1306 -44 
Q 1000 -44 831 53 
Q 663 150 594 308 
Q 525 466 525 972 
L 525 2881 
L 113 2881 
L 113 3319 
L 525 3319 
L 525 4141 
L 1084 4478 
L 1084 3319 
L 1650 3319 
L 1650 2881 
L 1084 2881 
L 1084 941 
Q 1084 700 1114 631 
Q 1144 563 1211 522 
Q 1278 481 1403 481 
Q 1497 481 1650 503 
z
" transform="scale(0.015625)"/>
      </defs>
      <use xlink:href="#ArialMT-54"/>
      <use xlink:href="#ArialMT-65" transform="translate(49.958984 0)"/>
      <use xlink:href="#ArialMT-73" transform="translate(105.574219 0)"/>
      <use xlink:href="#ArialMT-74" transform="translate(155.574219 0)"/>
     </g>
    </g>
   </g>
  </g>
 </g>
 <defs>
  <clipPath id="pd3b60ed248">
   <rect x="63.786" y="12.96" width="499.254" height="220.5464"/>
  </clipPath>
 </defs>
</svg>
