<?xml version="1.0" encoding="utf-8" standalone="no"?>
<!DOCTYPE svg PUBLIC "-//W3C//DTD SVG 1.1//EN"
  "http://www.w3.org/Graphics/SVG/1.1/DTD/svg11.dtd">
<svg xmlns:xlink="http://www.w3.org/1999/xlink" width="576pt" height="432pt" viewBox="0 0 576 432" xmlns="http://www.w3.org/2000/svg" version="1.1">
 <metadata>
  <rdf:RDF xmlns:dc="http://purl.org/dc/elements/1.1/" xmlns:cc="http://creativecommons.org/ns#" xmlns:rdf="http://www.w3.org/1999/02/22-rdf-syntax-ns#">
   <cc:Work>
    <dc:type rdf:resource="http://purl.org/dc/dcmitype/StillImage"/>
    <dc:date>2025-08-20T00:22:24.496257</dc:date>
    <dc:format>image/svg+xml</dc:format>
    <dc:creator>
     <cc:Agent>
      <dc:title>Matplotlib v3.10.3, https://matplotlib.org/</dc:title>
     </cc:Agent>
    </dc:creator>
   </cc:Work>
  </rdf:RDF>
 </metadata>
 <defs>
  <style type="text/css">*{stroke-linejoin: round; stroke-linecap: butt}</style>
 </defs>
 <g id="figure_1">
  <g id="patch_1">
   <path d="M 0 432 
L 576 432 
L 576 0 
L 0 0 
z
" style="fill: #ffffff"/>
  </g>
  <g id="axes_1">
   <g id="patch_2">
    <path d="M 75.054 366.276 
L 563.04 366.276 
L 563.04 12.96 
L 75.054 12.96 
z
" style="fill: #eaeaf2"/>
   </g>
   <g id="matplotlib.axis_1">
    <g id="xtick_1">
     <g id="line2d_1">
      <path d="M 92.030269 366.276 
L 92.030269 12.96 
" clip-path="url(#peb6fa59e69)" style="fill: none; stroke: #ffffff; stroke-linecap: round"/>
     </g>
     <g id="text_1">
      <!-- −12 -->
      <g style="fill: #262626" transform="translate(81.852769 384.365375) scale(0.12 -0.12)">
       <defs>
        <path id="ArialMT-2212" d="M 3381 1997 
L 356 1997 
L 356 2522 
L 3381 2522 
L 3381 1997 
z
" transform="scale(0.015625)"/>
        <path id="ArialMT-31" d="M 2384 0 
L 1822 0 
L 1822 3584 
Q 1619 3391 1289 3197 
Q 959 3003 697 2906 
L 697 3450 
Q 1169 3672 1522 3987 
Q 1875 4303 2022 4600 
L 2384 4600 
L 2384 0 
z
" transform="scale(0.015625)"/>
        <path id="ArialMT-32" d="M 3222 541 
L 3222 0 
L 194 0 
Q 188 203 259 391 
Q 375 700 629 1000 
Q 884 1300 1366 1694 
Q 2113 2306 2375 2664 
Q 2638 3022 2638 3341 
Q 2638 3675 2398 3904 
Q 2159 4134 1775 4134 
Q 1369 4134 1125 3890 
Q 881 3647 878 3216 
L 300 3275 
Q 359 3922 746 4261 
Q 1134 4600 1788 4600 
Q 2447 4600 2831 4234 
Q 3216 3869 3216 3328 
Q 3216 3053 3103 2787 
Q 2991 2522 2730 2228 
Q 2469 1934 1863 1422 
Q 1356 997 1212 845 
Q 1069 694 975 541 
L 3222 541 
z
" transform="scale(0.015625)"/>
       </defs>
       <use xlink:href="#ArialMT-2212"/>
       <use xlink:href="#ArialMT-31" transform="translate(58.398438 0)"/>
       <use xlink:href="#ArialMT-32" transform="translate(114.013672 0)"/>
      </g>
     </g>
    </g>
    <g id="xtick_2">
     <g id="line2d_2">
      <path d="M 133.269807 366.276 
L 133.269807 12.96 
" clip-path="url(#peb6fa59e69)" style="fill: none; stroke: #ffffff; stroke-linecap: round"/>
     </g>
     <g id="text_2">
      <!-- −10 -->
      <g style="fill: #262626" transform="translate(123.092307 384.365375) scale(0.12 -0.12)">
       <defs>
        <path id="ArialMT-30" d="M 266 2259 
Q 266 3072 433 3567 
Q 600 4063 929 4331 
Q 1259 4600 1759 4600 
Q 2128 4600 2406 4451 
Q 2684 4303 2865 4023 
Q 3047 3744 3150 3342 
Q 3253 2941 3253 2259 
Q 3253 1453 3087 958 
Q 2922 463 2592 192 
Q 2263 -78 1759 -78 
Q 1097 -78 719 397 
Q 266 969 266 2259 
z
M 844 2259 
Q 844 1131 1108 757 
Q 1372 384 1759 384 
Q 2147 384 2411 759 
Q 2675 1134 2675 2259 
Q 2675 3391 2411 3762 
Q 2147 4134 1753 4134 
Q 1366 4134 1134 3806 
Q 844 3388 844 2259 
z
" transform="scale(0.015625)"/>
       </defs>
       <use xlink:href="#ArialMT-2212"/>
       <use xlink:href="#ArialMT-31" transform="translate(58.398438 0)"/>
       <use xlink:href="#ArialMT-30" transform="translate(114.013672 0)"/>
      </g>
     </g>
    </g>
    <g id="xtick_3">
     <g id="line2d_3">
      <path d="M 174.509345 366.276 
L 174.509345 12.96 
" clip-path="url(#peb6fa59e69)" style="fill: none; stroke: #ffffff; stroke-linecap: round"/>
     </g>
     <g id="text_3">
      <!-- −8 -->
      <g style="fill: #262626" transform="translate(167.668407 384.365375) scale(0.12 -0.12)">
       <defs>
        <path id="ArialMT-38" d="M 1131 2484 
Q 781 2613 612 2850 
Q 444 3088 444 3419 
Q 444 3919 803 4259 
Q 1163 4600 1759 4600 
Q 2359 4600 2725 4251 
Q 3091 3903 3091 3403 
Q 3091 3084 2923 2848 
Q 2756 2613 2416 2484 
Q 2838 2347 3058 2040 
Q 3278 1734 3278 1309 
Q 3278 722 2862 322 
Q 2447 -78 1769 -78 
Q 1091 -78 675 323 
Q 259 725 259 1325 
Q 259 1772 486 2073 
Q 713 2375 1131 2484 
z
M 1019 3438 
Q 1019 3113 1228 2906 
Q 1438 2700 1772 2700 
Q 2097 2700 2305 2904 
Q 2513 3109 2513 3406 
Q 2513 3716 2298 3927 
Q 2084 4138 1766 4138 
Q 1444 4138 1231 3931 
Q 1019 3725 1019 3438 
z
M 838 1322 
Q 838 1081 952 856 
Q 1066 631 1291 507 
Q 1516 384 1775 384 
Q 2178 384 2440 643 
Q 2703 903 2703 1303 
Q 2703 1709 2433 1975 
Q 2163 2241 1756 2241 
Q 1359 2241 1098 1978 
Q 838 1716 838 1322 
z
" transform="scale(0.015625)"/>
       </defs>
       <use xlink:href="#ArialMT-2212"/>
       <use xlink:href="#ArialMT-38" transform="translate(58.398438 0)"/>
      </g>
     </g>
    </g>
    <g id="xtick_4">
     <g id="line2d_4">
      <path d="M 215.748883 366.276 
L 215.748883 12.96 
" clip-path="url(#peb6fa59e69)" style="fill: none; stroke: #ffffff; stroke-linecap: round"/>
     </g>
     <g id="text_4">
      <!-- −6 -->
      <g style="fill: #262626" transform="translate(208.907946 384.365375) scale(0.12 -0.12)">
       <defs>
        <path id="ArialMT-36" d="M 3184 3459 
L 2625 3416 
Q 2550 3747 2413 3897 
Q 2184 4138 1850 4138 
Q 1581 4138 1378 3988 
Q 1113 3794 959 3422 
Q 806 3050 800 2363 
Q 1003 2672 1297 2822 
Q 1591 2972 1913 2972 
Q 2475 2972 2870 2558 
Q 3266 2144 3266 1488 
Q 3266 1056 3080 686 
Q 2894 316 2569 119 
Q 2244 -78 1831 -78 
Q 1128 -78 684 439 
Q 241 956 241 2144 
Q 241 3472 731 4075 
Q 1159 4600 1884 4600 
Q 2425 4600 2770 4297 
Q 3116 3994 3184 3459 
z
M 888 1484 
Q 888 1194 1011 928 
Q 1134 663 1356 523 
Q 1578 384 1822 384 
Q 2178 384 2434 671 
Q 2691 959 2691 1453 
Q 2691 1928 2437 2201 
Q 2184 2475 1800 2475 
Q 1419 2475 1153 2201 
Q 888 1928 888 1484 
z
" transform="scale(0.015625)"/>
       </defs>
       <use xlink:href="#ArialMT-2212"/>
       <use xlink:href="#ArialMT-36" transform="translate(58.398438 0)"/>
      </g>
     </g>
    </g>
    <g id="xtick_5">
     <g id="line2d_5">
      <path d="M 256.988421 366.276 
L 256.988421 12.96 
" clip-path="url(#peb6fa59e69)" style="fill: none; stroke: #ffffff; stroke-linecap: round"/>
     </g>
     <g id="text_5">
      <!-- −4 -->
      <g style="fill: #262626" transform="translate(250.147484 384.365375) scale(0.12 -0.12)">
       <defs>
        <path id="ArialMT-34" d="M 2069 0 
L 2069 1097 
L 81 1097 
L 81 1613 
L 2172 4581 
L 2631 4581 
L 2631 1613 
L 3250 1613 
L 3250 1097 
L 2631 1097 
L 2631 0 
L 2069 0 
z
M 2069 1613 
L 2069 3678 
L 634 1613 
L 2069 1613 
z
" transform="scale(0.015625)"/>
       </defs>
       <use xlink:href="#ArialMT-2212"/>
       <use xlink:href="#ArialMT-34" transform="translate(58.398438 0)"/>
      </g>
     </g>
    </g>
    <g id="xtick_6">
     <g id="line2d_6">
      <path d="M 298.22796 366.276 
L 298.22796 12.96 
" clip-path="url(#peb6fa59e69)" style="fill: none; stroke: #ffffff; stroke-linecap: round"/>
     </g>
     <g id="text_6">
      <!-- −2 -->
      <g style="fill: #262626" transform="translate(291.387022 384.365375) scale(0.12 -0.12)">
       <use xlink:href="#ArialMT-2212"/>
       <use xlink:href="#ArialMT-32" transform="translate(58.398438 0)"/>
      </g>
     </g>
    </g>
    <g id="xtick_7">
     <g id="line2d_7">
      <path d="M 339.467498 366.276 
L 339.467498 12.96 
" clip-path="url(#peb6fa59e69)" style="fill: none; stroke: #ffffff; stroke-linecap: round"/>
     </g>
     <g id="text_7">
      <!-- 0 -->
      <g style="fill: #262626" transform="translate(336.130935 384.365375) scale(0.12 -0.12)">
       <use xlink:href="#ArialMT-30"/>
      </g>
     </g>
    </g>
    <g id="xtick_8">
     <g id="line2d_8">
      <path d="M 380.707036 366.276 
L 380.707036 12.96 
" clip-path="url(#peb6fa59e69)" style="fill: none; stroke: #ffffff; stroke-linecap: round"/>
     </g>
     <g id="text_8">
      <!-- 2 -->
      <g style="fill: #262626" transform="translate(377.370474 384.365375) scale(0.12 -0.12)">
       <use xlink:href="#ArialMT-32"/>
      </g>
     </g>
    </g>
    <g id="xtick_9">
     <g id="line2d_9">
      <path d="M 421.946574 366.276 
L 421.946574 12.96 
" clip-path="url(#peb6fa59e69)" style="fill: none; stroke: #ffffff; stroke-linecap: round"/>
     </g>
     <g id="text_9">
      <!-- 4 -->
      <g style="fill: #262626" transform="translate(418.610012 384.365375) scale(0.12 -0.12)">
       <use xlink:href="#ArialMT-34"/>
      </g>
     </g>
    </g>
    <g id="xtick_10">
     <g id="line2d_10">
      <path d="M 463.186112 366.276 
L 463.186112 12.96 
" clip-path="url(#peb6fa59e69)" style="fill: none; stroke: #ffffff; stroke-linecap: round"/>
     </g>
     <g id="text_10">
      <!-- 6 -->
      <g style="fill: #262626" transform="translate(459.84955 384.365375) scale(0.12 -0.12)">
       <use xlink:href="#ArialMT-36"/>
      </g>
     </g>
    </g>
    <g id="xtick_11">
     <g id="line2d_11">
      <path d="M 504.425651 366.276 
L 504.425651 12.96 
" clip-path="url(#peb6fa59e69)" style="fill: none; stroke: #ffffff; stroke-linecap: round"/>
     </g>
     <g id="text_11">
      <!-- 8 -->
      <g style="fill: #262626" transform="translate(501.089088 384.365375) scale(0.12 -0.12)">
       <use xlink:href="#ArialMT-38"/>
      </g>
     </g>
    </g>
    <g id="xtick_12">
     <g id="line2d_12">
      <path d="M 545.665189 366.276 
L 545.665189 12.96 
" clip-path="url(#peb6fa59e69)" style="fill: none; stroke: #ffffff; stroke-linecap: round"/>
     </g>
     <g id="text_12">
      <!-- 10 -->
      <g style="fill: #262626" transform="translate(538.992064 384.365375) scale(0.12 -0.12)">
       <use xlink:href="#ArialMT-31"/>
       <use xlink:href="#ArialMT-30" transform="translate(55.615234 0)"/>
      </g>
     </g>
    </g>
    <g id="text_13">
     <!-- Principal component 1 -->
     <g style="fill: #262626" transform="translate(249.789656 400.812875) scale(0.14 -0.14)">
      <defs>
       <path id="ArialMT-50" d="M 494 0 
L 494 4581 
L 2222 4581 
Q 2678 4581 2919 4538 
Q 3256 4481 3484 4323 
Q 3713 4166 3852 3881 
Q 3991 3597 3991 3256 
Q 3991 2672 3619 2267 
Q 3247 1863 2275 1863 
L 1100 1863 
L 1100 0 
L 494 0 
z
M 1100 2403 
L 2284 2403 
Q 2872 2403 3119 2622 
Q 3366 2841 3366 3238 
Q 3366 3525 3220 3729 
Q 3075 3934 2838 4000 
Q 2684 4041 2272 4041 
L 1100 4041 
L 1100 2403 
z
" transform="scale(0.015625)"/>
       <path id="ArialMT-72" d="M 416 0 
L 416 3319 
L 922 3319 
L 922 2816 
Q 1116 3169 1280 3281 
Q 1444 3394 1641 3394 
Q 1925 3394 2219 3213 
L 2025 2691 
Q 1819 2813 1613 2813 
Q 1428 2813 1281 2702 
Q 1134 2591 1072 2394 
Q 978 2094 978 1738 
L 978 0 
L 416 0 
z
" transform="scale(0.015625)"/>
       <path id="ArialMT-69" d="M 425 3934 
L 425 4581 
L 988 4581 
L 988 3934 
L 425 3934 
z
M 425 0 
L 425 3319 
L 988 3319 
L 988 0 
L 425 0 
z
" transform="scale(0.015625)"/>
       <path id="ArialMT-6e" d="M 422 0 
L 422 3319 
L 928 3319 
L 928 2847 
Q 1294 3394 1984 3394 
Q 2284 3394 2536 3286 
Q 2788 3178 2913 3003 
Q 3038 2828 3088 2588 
Q 3119 2431 3119 2041 
L 3119 0 
L 2556 0 
L 2556 2019 
Q 2556 2363 2490 2533 
Q 2425 2703 2258 2804 
Q 2091 2906 1866 2906 
Q 1506 2906 1245 2678 
Q 984 2450 984 1813 
L 984 0 
L 422 0 
z
" transform="scale(0.015625)"/>
       <path id="ArialMT-63" d="M 2588 1216 
L 3141 1144 
Q 3050 572 2676 248 
Q 2303 -75 1759 -75 
Q 1078 -75 664 370 
Q 250 816 250 1647 
Q 250 2184 428 2587 
Q 606 2991 970 3192 
Q 1334 3394 1763 3394 
Q 2303 3394 2647 3120 
Q 2991 2847 3088 2344 
L 2541 2259 
Q 2463 2594 2264 2762 
Q 2066 2931 1784 2931 
Q 1359 2931 1093 2626 
Q 828 2322 828 1663 
Q 828 994 1084 691 
Q 1341 388 1753 388 
Q 2084 388 2306 591 
Q 2528 794 2588 1216 
z
" transform="scale(0.015625)"/>
       <path id="ArialMT-70" d="M 422 -1272 
L 422 3319 
L 934 3319 
L 934 2888 
Q 1116 3141 1344 3267 
Q 1572 3394 1897 3394 
Q 2322 3394 2647 3175 
Q 2972 2956 3137 2557 
Q 3303 2159 3303 1684 
Q 3303 1175 3120 767 
Q 2938 359 2589 142 
Q 2241 -75 1856 -75 
Q 1575 -75 1351 44 
Q 1128 163 984 344 
L 984 -1272 
L 422 -1272 
z
M 931 1641 
Q 931 1000 1190 694 
Q 1450 388 1819 388 
Q 2194 388 2461 705 
Q 2728 1022 2728 1688 
Q 2728 2322 2467 2637 
Q 2206 2953 1844 2953 
Q 1484 2953 1207 2617 
Q 931 2281 931 1641 
z
" transform="scale(0.015625)"/>
       <path id="ArialMT-61" d="M 2588 409 
Q 2275 144 1986 34 
Q 1697 -75 1366 -75 
Q 819 -75 525 192 
Q 231 459 231 875 
Q 231 1119 342 1320 
Q 453 1522 633 1644 
Q 813 1766 1038 1828 
Q 1203 1872 1538 1913 
Q 2219 1994 2541 2106 
Q 2544 2222 2544 2253 
Q 2544 2597 2384 2738 
Q 2169 2928 1744 2928 
Q 1347 2928 1158 2789 
Q 969 2650 878 2297 
L 328 2372 
Q 403 2725 575 2942 
Q 747 3159 1072 3276 
Q 1397 3394 1825 3394 
Q 2250 3394 2515 3294 
Q 2781 3194 2906 3042 
Q 3031 2891 3081 2659 
Q 3109 2516 3109 2141 
L 3109 1391 
Q 3109 606 3145 398 
Q 3181 191 3288 0 
L 2700 0 
Q 2613 175 2588 409 
z
M 2541 1666 
Q 2234 1541 1622 1453 
Q 1275 1403 1131 1340 
Q 988 1278 909 1158 
Q 831 1038 831 891 
Q 831 666 1001 516 
Q 1172 366 1500 366 
Q 1825 366 2078 508 
Q 2331 650 2450 897 
Q 2541 1088 2541 1459 
L 2541 1666 
z
" transform="scale(0.015625)"/>
       <path id="ArialMT-6c" d="M 409 0 
L 409 4581 
L 972 4581 
L 972 0 
L 409 0 
z
" transform="scale(0.015625)"/>
       <path id="ArialMT-20" transform="scale(0.015625)"/>
       <path id="ArialMT-6f" d="M 213 1659 
Q 213 2581 725 3025 
Q 1153 3394 1769 3394 
Q 2453 3394 2887 2945 
Q 3322 2497 3322 1706 
Q 3322 1066 3130 698 
Q 2938 331 2570 128 
Q 2203 -75 1769 -75 
Q 1072 -75 642 372 
Q 213 819 213 1659 
z
M 791 1659 
Q 791 1022 1069 705 
Q 1347 388 1769 388 
Q 2188 388 2466 706 
Q 2744 1025 2744 1678 
Q 2744 2294 2464 2611 
Q 2184 2928 1769 2928 
Q 1347 2928 1069 2612 
Q 791 2297 791 1659 
z
" transform="scale(0.015625)"/>
       <path id="ArialMT-6d" d="M 422 0 
L 422 3319 
L 925 3319 
L 925 2853 
Q 1081 3097 1340 3245 
Q 1600 3394 1931 3394 
Q 2300 3394 2536 3241 
Q 2772 3088 2869 2813 
Q 3263 3394 3894 3394 
Q 4388 3394 4653 3120 
Q 4919 2847 4919 2278 
L 4919 0 
L 4359 0 
L 4359 2091 
Q 4359 2428 4304 2576 
Q 4250 2725 4106 2815 
Q 3963 2906 3769 2906 
Q 3419 2906 3187 2673 
Q 2956 2441 2956 1928 
L 2956 0 
L 2394 0 
L 2394 2156 
Q 2394 2531 2256 2718 
Q 2119 2906 1806 2906 
Q 1569 2906 1367 2781 
Q 1166 2656 1075 2415 
Q 984 2175 984 1722 
L 984 0 
L 422 0 
z
" transform="scale(0.015625)"/>
       <path id="ArialMT-65" d="M 2694 1069 
L 3275 997 
Q 3138 488 2766 206 
Q 2394 -75 1816 -75 
Q 1088 -75 661 373 
Q 234 822 234 1631 
Q 234 2469 665 2931 
Q 1097 3394 1784 3394 
Q 2450 3394 2872 2941 
Q 3294 2488 3294 1666 
Q 3294 1616 3291 1516 
L 816 1516 
Q 847 969 1125 678 
Q 1403 388 1819 388 
Q 2128 388 2347 550 
Q 2566 713 2694 1069 
z
M 847 1978 
L 2700 1978 
Q 2663 2397 2488 2606 
Q 2219 2931 1791 2931 
Q 1403 2931 1139 2672 
Q 875 2413 847 1978 
z
" transform="scale(0.015625)"/>
       <path id="ArialMT-74" d="M 1650 503 
L 1731 6 
Q 1494 -44 1306 -44 
Q 1000 -44 831 53 
Q 663 150 594 308 
Q 525 466 525 972 
L 525 2881 
L 113 2881 
L 113 3319 
L 525 3319 
L 525 4141 
L 1084 4478 
L 1084 3319 
L 1650 3319 
L 1650 2881 
L 1084 2881 
L 1084 941 
Q 1084 700 1114 631 
Q 1144 563 1211 522 
Q 1278 481 1403 481 
Q 1497 481 1650 503 
z
" transform="scale(0.015625)"/>
      </defs>
      <use xlink:href="#ArialMT-50"/>
      <use xlink:href="#ArialMT-72" transform="translate(66.699219 0)"/>
      <use xlink:href="#ArialMT-69" transform="translate(100 0)"/>
      <use xlink:href="#ArialMT-6e" transform="translate(122.216797 0)"/>
      <use xlink:href="#ArialMT-63" transform="translate(177.832031 0)"/>
      <use xlink:href="#ArialMT-69" transform="translate(227.832031 0)"/>
      <use xlink:href="#ArialMT-70" transform="translate(250.048828 0)"/>
      <use xlink:href="#ArialMT-61" transform="translate(305.664062 0)"/>
      <use xlink:href="#ArialMT-6c" transform="translate(361.279297 0)"/>
      <use xlink:href="#ArialMT-20" transform="translate(383.496094 0)"/>
      <use xlink:href="#ArialMT-63" transform="translate(411.279297 0)"/>
      <use xlink:href="#ArialMT-6f" transform="translate(461.279297 0)"/>
      <use xlink:href="#ArialMT-6d" transform="translate(516.894531 0)"/>
      <use xlink:href="#ArialMT-70" transform="translate(600.195312 0)"/>
      <use xlink:href="#ArialMT-6f" transform="translate(655.810547 0)"/>
      <use xlink:href="#ArialMT-6e" transform="translate(711.425781 0)"/>
      <use xlink:href="#ArialMT-65" transform="translate(767.041016 0)"/>
      <use xlink:href="#ArialMT-6e" transform="translate(822.65625 0)"/>
      <use xlink:href="#ArialMT-74" transform="translate(878.271484 0)"/>
      <use xlink:href="#ArialMT-20" transform="translate(906.054688 0)"/>
      <use xlink:href="#ArialMT-31" transform="translate(933.837891 0)"/>
     </g>
     <!-- (EVR = 35.80%) -->
     <g style="fill: #262626" transform="translate(268.274031 415.82525) scale(0.14 -0.14)">
      <defs>
       <path id="ArialMT-28" d="M 1497 -1347 
Q 1031 -759 709 28 
Q 388 816 388 1659 
Q 388 2403 628 3084 
Q 909 3875 1497 4659 
L 1900 4659 
Q 1522 4009 1400 3731 
Q 1209 3300 1100 2831 
Q 966 2247 966 1656 
Q 966 153 1900 -1347 
L 1497 -1347 
z
" transform="scale(0.015625)"/>
       <path id="ArialMT-45" d="M 506 0 
L 506 4581 
L 3819 4581 
L 3819 4041 
L 1113 4041 
L 1113 2638 
L 3647 2638 
L 3647 2100 
L 1113 2100 
L 1113 541 
L 3925 541 
L 3925 0 
L 506 0 
z
" transform="scale(0.015625)"/>
       <path id="ArialMT-56" d="M 1803 0 
L 28 4581 
L 684 4581 
L 1875 1253 
Q 2019 853 2116 503 
Q 2222 878 2363 1253 
L 3600 4581 
L 4219 4581 
L 2425 0 
L 1803 0 
z
" transform="scale(0.015625)"/>
       <path id="ArialMT-52" d="M 503 0 
L 503 4581 
L 2534 4581 
Q 3147 4581 3465 4457 
Q 3784 4334 3975 4021 
Q 4166 3709 4166 3331 
Q 4166 2844 3850 2509 
Q 3534 2175 2875 2084 
Q 3116 1969 3241 1856 
Q 3506 1613 3744 1247 
L 4541 0 
L 3778 0 
L 3172 953 
Q 2906 1366 2734 1584 
Q 2563 1803 2427 1890 
Q 2291 1978 2150 2013 
Q 2047 2034 1813 2034 
L 1109 2034 
L 1109 0 
L 503 0 
z
M 1109 2559 
L 2413 2559 
Q 2828 2559 3062 2645 
Q 3297 2731 3419 2920 
Q 3541 3109 3541 3331 
Q 3541 3656 3305 3865 
Q 3069 4075 2559 4075 
L 1109 4075 
L 1109 2559 
z
" transform="scale(0.015625)"/>
       <path id="ArialMT-3d" d="M 3381 2694 
L 356 2694 
L 356 3219 
L 3381 3219 
L 3381 2694 
z
M 3381 1303 
L 356 1303 
L 356 1828 
L 3381 1828 
L 3381 1303 
z
" transform="scale(0.015625)"/>
       <path id="ArialMT-33" d="M 269 1209 
L 831 1284 
Q 928 806 1161 595 
Q 1394 384 1728 384 
Q 2125 384 2398 659 
Q 2672 934 2672 1341 
Q 2672 1728 2419 1979 
Q 2166 2231 1775 2231 
Q 1616 2231 1378 2169 
L 1441 2663 
Q 1497 2656 1531 2656 
Q 1891 2656 2178 2843 
Q 2466 3031 2466 3422 
Q 2466 3731 2256 3934 
Q 2047 4138 1716 4138 
Q 1388 4138 1169 3931 
Q 950 3725 888 3313 
L 325 3413 
Q 428 3978 793 4289 
Q 1159 4600 1703 4600 
Q 2078 4600 2393 4439 
Q 2709 4278 2876 4000 
Q 3044 3722 3044 3409 
Q 3044 3113 2884 2869 
Q 2725 2625 2413 2481 
Q 2819 2388 3044 2092 
Q 3269 1797 3269 1353 
Q 3269 753 2831 336 
Q 2394 -81 1725 -81 
Q 1122 -81 723 278 
Q 325 638 269 1209 
z
" transform="scale(0.015625)"/>
       <path id="ArialMT-35" d="M 266 1200 
L 856 1250 
Q 922 819 1161 601 
Q 1400 384 1738 384 
Q 2144 384 2425 690 
Q 2706 997 2706 1503 
Q 2706 1984 2436 2262 
Q 2166 2541 1728 2541 
Q 1456 2541 1237 2417 
Q 1019 2294 894 2097 
L 366 2166 
L 809 4519 
L 3088 4519 
L 3088 3981 
L 1259 3981 
L 1013 2750 
Q 1425 3038 1878 3038 
Q 2478 3038 2890 2622 
Q 3303 2206 3303 1553 
Q 3303 931 2941 478 
Q 2500 -78 1738 -78 
Q 1113 -78 717 272 
Q 322 622 266 1200 
z
" transform="scale(0.015625)"/>
       <path id="ArialMT-2e" d="M 581 0 
L 581 641 
L 1222 641 
L 1222 0 
L 581 0 
z
" transform="scale(0.015625)"/>
       <path id="ArialMT-25" d="M 372 3481 
Q 372 3972 619 4315 
Q 866 4659 1334 4659 
Q 1766 4659 2048 4351 
Q 2331 4044 2331 3447 
Q 2331 2866 2045 2552 
Q 1759 2238 1341 2238 
Q 925 2238 648 2547 
Q 372 2856 372 3481 
z
M 1350 4272 
Q 1141 4272 1002 4090 
Q 863 3909 863 3425 
Q 863 2984 1003 2804 
Q 1144 2625 1350 2625 
Q 1563 2625 1702 2806 
Q 1841 2988 1841 3469 
Q 1841 3913 1700 4092 
Q 1559 4272 1350 4272 
z
M 1353 -169 
L 3859 4659 
L 4316 4659 
L 1819 -169 
L 1353 -169 
z
M 3334 1075 
Q 3334 1569 3581 1911 
Q 3828 2253 4300 2253 
Q 4731 2253 5014 1945 
Q 5297 1638 5297 1041 
Q 5297 459 5011 145 
Q 4725 -169 4303 -169 
Q 3888 -169 3611 142 
Q 3334 453 3334 1075 
z
M 4316 1866 
Q 4103 1866 3964 1684 
Q 3825 1503 3825 1019 
Q 3825 581 3965 400 
Q 4106 219 4313 219 
Q 4528 219 4667 400 
Q 4806 581 4806 1063 
Q 4806 1506 4665 1686 
Q 4525 1866 4316 1866 
z
" transform="scale(0.015625)"/>
       <path id="ArialMT-29" d="M 791 -1347 
L 388 -1347 
Q 1322 153 1322 1656 
Q 1322 2244 1188 2822 
Q 1081 3291 891 3722 
Q 769 4003 388 4659 
L 791 4659 
Q 1378 3875 1659 3084 
Q 1900 2403 1900 1659 
Q 1900 816 1576 28 
Q 1253 -759 791 -1347 
z
" transform="scale(0.015625)"/>
      </defs>
      <use xlink:href="#ArialMT-28"/>
      <use xlink:href="#ArialMT-45" transform="translate(33.300781 0)"/>
      <use xlink:href="#ArialMT-56" transform="translate(100 0)"/>
      <use xlink:href="#ArialMT-52" transform="translate(166.699219 0)"/>
      <use xlink:href="#ArialMT-20" transform="translate(238.916016 0)"/>
      <use xlink:href="#ArialMT-3d" transform="translate(266.699219 0)"/>
      <use xlink:href="#ArialMT-20" transform="translate(325.097656 0)"/>
      <use xlink:href="#ArialMT-33" transform="translate(352.880859 0)"/>
      <use xlink:href="#ArialMT-35" transform="translate(408.496094 0)"/>
      <use xlink:href="#ArialMT-2e" transform="translate(464.111328 0)"/>
      <use xlink:href="#ArialMT-38" transform="translate(491.894531 0)"/>
      <use xlink:href="#ArialMT-30" transform="translate(547.509766 0)"/>
      <use xlink:href="#ArialMT-25" transform="translate(603.125 0)"/>
      <use xlink:href="#ArialMT-29" transform="translate(692.041016 0)"/>
     </g>
    </g>
   </g>
   <g id="matplotlib.axis_2">
    <g id="ytick_1">
     <g id="line2d_13">
      <path d="M 75.054 345.55768 
L 563.04 345.55768 
" clip-path="url(#peb6fa59e69)" style="fill: none; stroke: #ffffff; stroke-linecap: round"/>
     </g>
     <g id="text_14">
      <!-- −10 -->
      <g style="fill: #262626" transform="translate(45.199 349.852368) scale(0.12 -0.12)">
       <use xlink:href="#ArialMT-2212"/>
       <use xlink:href="#ArialMT-31" transform="translate(58.398438 0)"/>
       <use xlink:href="#ArialMT-30" transform="translate(114.013672 0)"/>
      </g>
     </g>
    </g>
    <g id="ytick_2">
     <g id="line2d_14">
      <path d="M 75.054 318.760171 
L 563.04 318.760171 
" clip-path="url(#peb6fa59e69)" style="fill: none; stroke: #ffffff; stroke-linecap: round"/>
     </g>
     <g id="text_15">
      <!-- −8 -->
      <g style="fill: #262626" transform="translate(51.872125 323.054859) scale(0.12 -0.12)">
       <use xlink:href="#ArialMT-2212"/>
       <use xlink:href="#ArialMT-38" transform="translate(58.398438 0)"/>
      </g>
     </g>
    </g>
    <g id="ytick_3">
     <g id="line2d_15">
      <path d="M 75.054 291.962663 
L 563.04 291.962663 
" clip-path="url(#peb6fa59e69)" style="fill: none; stroke: #ffffff; stroke-linecap: round"/>
     </g>
     <g id="text_16">
      <!-- −6 -->
      <g style="fill: #262626" transform="translate(51.872125 296.25735) scale(0.12 -0.12)">
       <use xlink:href="#ArialMT-2212"/>
       <use xlink:href="#ArialMT-36" transform="translate(58.398438 0)"/>
      </g>
     </g>
    </g>
    <g id="ytick_4">
     <g id="line2d_16">
      <path d="M 75.054 265.165154 
L 563.04 265.165154 
" clip-path="url(#peb6fa59e69)" style="fill: none; stroke: #ffffff; stroke-linecap: round"/>
     </g>
     <g id="text_17">
      <!-- −4 -->
      <g style="fill: #262626" transform="translate(51.872125 269.459841) scale(0.12 -0.12)">
       <use xlink:href="#ArialMT-2212"/>
       <use xlink:href="#ArialMT-34" transform="translate(58.398438 0)"/>
      </g>
     </g>
    </g>
    <g id="ytick_5">
     <g id="line2d_17">
      <path d="M 75.054 238.367645 
L 563.04 238.367645 
" clip-path="url(#peb6fa59e69)" style="fill: none; stroke: #ffffff; stroke-linecap: round"/>
     </g>
     <g id="text_18">
      <!-- −2 -->
      <g style="fill: #262626" transform="translate(51.872125 242.662332) scale(0.12 -0.12)">
       <use xlink:href="#ArialMT-2212"/>
       <use xlink:href="#ArialMT-32" transform="translate(58.398438 0)"/>
      </g>
     </g>
    </g>
    <g id="ytick_6">
     <g id="line2d_18">
      <path d="M 75.054 211.570136 
L 563.04 211.570136 
" clip-path="url(#peb6fa59e69)" style="fill: none; stroke: #ffffff; stroke-linecap: round"/>
     </g>
     <g id="text_19">
      <!-- 0 -->
      <g style="fill: #262626" transform="translate(58.880875 215.864824) scale(0.12 -0.12)">
       <use xlink:href="#ArialMT-30"/>
      </g>
     </g>
    </g>
    <g id="ytick_7">
     <g id="line2d_19">
      <path d="M 75.054 184.772627 
L 563.04 184.772627 
" clip-path="url(#peb6fa59e69)" style="fill: none; stroke: #ffffff; stroke-linecap: round"/>
     </g>
     <g id="text_20">
      <!-- 2 -->
      <g style="fill: #262626" transform="translate(58.880875 189.067315) scale(0.12 -0.12)">
       <use xlink:href="#ArialMT-32"/>
      </g>
     </g>
    </g>
    <g id="ytick_8">
     <g id="line2d_20">
      <path d="M 75.054 157.975118 
L 563.04 157.975118 
" clip-path="url(#peb6fa59e69)" style="fill: none; stroke: #ffffff; stroke-linecap: round"/>
     </g>
     <g id="text_21">
      <!-- 4 -->
      <g style="fill: #262626" transform="translate(58.880875 162.269806) scale(0.12 -0.12)">
       <use xlink:href="#ArialMT-34"/>
      </g>
     </g>
    </g>
    <g id="ytick_9">
     <g id="line2d_21">
      <path d="M 75.054 131.17761 
L 563.04 131.17761 
" clip-path="url(#peb6fa59e69)" style="fill: none; stroke: #ffffff; stroke-linecap: round"/>
     </g>
     <g id="text_22">
      <!-- 6 -->
      <g style="fill: #262626" transform="translate(58.880875 135.472297) scale(0.12 -0.12)">
       <use xlink:href="#ArialMT-36"/>
      </g>
     </g>
    </g>
    <g id="ytick_10">
     <g id="line2d_22">
      <path d="M 75.054 104.380101 
L 563.04 104.380101 
" clip-path="url(#peb6fa59e69)" style="fill: none; stroke: #ffffff; stroke-linecap: round"/>
     </g>
     <g id="text_23">
      <!-- 8 -->
      <g style="fill: #262626" transform="translate(58.880875 108.674788) scale(0.12 -0.12)">
       <use xlink:href="#ArialMT-38"/>
      </g>
     </g>
    </g>
    <g id="ytick_11">
     <g id="line2d_23">
      <path d="M 75.054 77.582592 
L 563.04 77.582592 
" clip-path="url(#peb6fa59e69)" style="fill: none; stroke: #ffffff; stroke-linecap: round"/>
     </g>
     <g id="text_24">
      <!-- 10 -->
      <g style="fill: #262626" transform="translate(52.20775 81.877279) scale(0.12 -0.12)">
       <use xlink:href="#ArialMT-31"/>
       <use xlink:href="#ArialMT-30" transform="translate(55.615234 0)"/>
      </g>
     </g>
    </g>
    <g id="ytick_12">
     <g id="line2d_24">
      <path d="M 75.054 50.785083 
L 563.04 50.785083 
" clip-path="url(#peb6fa59e69)" style="fill: none; stroke: #ffffff; stroke-linecap: round"/>
     </g>
     <g id="text_25">
      <!-- 12 -->
      <g style="fill: #262626" transform="translate(52.20775 55.079771) scale(0.12 -0.12)">
       <use xlink:href="#ArialMT-31"/>
       <use xlink:href="#ArialMT-32" transform="translate(55.615234 0)"/>
      </g>
     </g>
    </g>
    <g id="ytick_13">
     <g id="line2d_25">
      <path d="M 75.054 23.987574 
L 563.04 23.987574 
" clip-path="url(#peb6fa59e69)" style="fill: none; stroke: #ffffff; stroke-linecap: round"/>
     </g>
     <g id="text_26">
      <!-- 14 -->
      <g style="fill: #262626" transform="translate(52.20775 28.282262) scale(0.12 -0.12)">
       <use xlink:href="#ArialMT-31"/>
       <use xlink:href="#ArialMT-34" transform="translate(55.615234 0)"/>
      </g>
     </g>
    </g>
    <g id="text_27">
     <!-- Principal component 2 -->
     <g style="fill: #262626" transform="translate(23.240062 258.875344) rotate(-90) scale(0.14 -0.14)">
      <use xlink:href="#ArialMT-50"/>
      <use xlink:href="#ArialMT-72" transform="translate(66.699219 0)"/>
      <use xlink:href="#ArialMT-69" transform="translate(100 0)"/>
      <use xlink:href="#ArialMT-6e" transform="translate(122.216797 0)"/>
      <use xlink:href="#ArialMT-63" transform="translate(177.832031 0)"/>
      <use xlink:href="#ArialMT-69" transform="translate(227.832031 0)"/>
      <use xlink:href="#ArialMT-70" transform="translate(250.048828 0)"/>
      <use xlink:href="#ArialMT-61" transform="translate(305.664062 0)"/>
      <use xlink:href="#ArialMT-6c" transform="translate(361.279297 0)"/>
      <use xlink:href="#ArialMT-20" transform="translate(383.496094 0)"/>
      <use xlink:href="#ArialMT-63" transform="translate(411.279297 0)"/>
      <use xlink:href="#ArialMT-6f" transform="translate(461.279297 0)"/>
      <use xlink:href="#ArialMT-6d" transform="translate(516.894531 0)"/>
      <use xlink:href="#ArialMT-70" transform="translate(600.195312 0)"/>
      <use xlink:href="#ArialMT-6f" transform="translate(655.810547 0)"/>
      <use xlink:href="#ArialMT-6e" transform="translate(711.425781 0)"/>
      <use xlink:href="#ArialMT-65" transform="translate(767.041016 0)"/>
      <use xlink:href="#ArialMT-6e" transform="translate(822.65625 0)"/>
      <use xlink:href="#ArialMT-74" transform="translate(878.271484 0)"/>
      <use xlink:href="#ArialMT-20" transform="translate(906.054688 0)"/>
      <use xlink:href="#ArialMT-32" transform="translate(933.837891 0)"/>
     </g>
     <!-- (EVR = 22.50%) -->
     <g style="fill: #262626" transform="translate(38.252437 240.390969) rotate(-90) scale(0.14 -0.14)">
      <use xlink:href="#ArialMT-28"/>
      <use xlink:href="#ArialMT-45" transform="translate(33.300781 0)"/>
      <use xlink:href="#ArialMT-56" transform="translate(100 0)"/>
      <use xlink:href="#ArialMT-52" transform="translate(166.699219 0)"/>
      <use xlink:href="#ArialMT-20" transform="translate(238.916016 0)"/>
      <use xlink:href="#ArialMT-3d" transform="translate(266.699219 0)"/>
      <use xlink:href="#ArialMT-20" transform="translate(325.097656 0)"/>
      <use xlink:href="#ArialMT-32" transform="translate(352.880859 0)"/>
      <use xlink:href="#ArialMT-32" transform="translate(408.496094 0)"/>
      <use xlink:href="#ArialMT-2e" transform="translate(464.111328 0)"/>
      <use xlink:href="#ArialMT-35" transform="translate(491.894531 0)"/>
      <use xlink:href="#ArialMT-30" transform="translate(547.509766 0)"/>
      <use xlink:href="#ArialMT-25" transform="translate(603.125 0)"/>
      <use xlink:href="#ArialMT-29" transform="translate(692.041016 0)"/>
     </g>
    </g>
   </g>
   <g id="PathCollection_1">
    <path d="M 463.980419 245.418341 
C 466.102044 245.418341 468.137058 244.57541 469.637273 243.075195 
C 471.137489 241.57498 471.980419 239.539966 471.980419 237.418341 
C 471.980419 235.296716 471.137489 233.261702 469.637273 231.761487 
C 468.137058 230.261271 466.102044 229.418341 463.980419 229.418341 
C 461.858794 229.418341 459.82378 230.261271 458.323565 231.761487 
C 456.823349 233.261702 455.980419 235.296716 455.980419 237.418341 
C 455.980419 239.539966 456.823349 241.57498 458.323565 243.075195 
C 459.82378 244.57541 461.858794 245.418341 463.980419 245.418341 
z
" clip-path="url(#peb6fa59e69)" style="fill: #b2182b; stroke: #ffffff; stroke-width: 1.28"/>
    <path d="M 496.190916 242.70613 
C 498.312541 242.70613 500.347555 241.8632 501.84777 240.362984 
C 503.347985 238.862769 504.190916 236.827755 504.190916 234.70613 
C 504.190916 232.584505 503.347985 230.549491 501.84777 229.049276 
C 500.347555 227.54906 498.312541 226.70613 496.190916 226.70613 
C 494.069291 226.70613 492.034277 227.54906 490.534062 229.049276 
C 489.033846 230.549491 488.190916 232.584505 488.190916 234.70613 
C 488.190916 236.827755 489.033846 238.862769 490.534062 240.362984 
C 492.034277 241.8632 494.069291 242.70613 496.190916 242.70613 
z
" clip-path="url(#peb6fa59e69)" style="fill: #67a9cf; stroke: #ffffff; stroke-width: 1.28"/>
    <path d="M 450.843246 235.221475 
C 452.964871 235.221475 454.999885 234.378544 456.5001 232.878329 
C 458.000315 231.378114 458.843246 229.343099 458.843246 227.221475 
C 458.843246 225.09985 458.000315 223.064836 456.5001 221.56462 
C 454.999885 220.064405 452.964871 219.221475 450.843246 219.221475 
C 448.721621 219.221475 446.686607 220.064405 445.186392 221.56462 
C 443.686176 223.064836 442.843246 225.09985 442.843246 227.221475 
C 442.843246 229.343099 443.686176 231.378114 445.186392 232.878329 
C 446.686607 234.378544 448.721621 235.221475 450.843246 235.221475 
z
" clip-path="url(#peb6fa59e69)" style="fill: #67a9cf; stroke: #ffffff; stroke-width: 1.28"/>
    <path d="M 312.413553 216.518668 
C 314.535177 216.518668 316.570192 215.675738 318.070407 214.175523 
C 319.570622 212.675307 320.413553 210.640293 320.413553 208.518668 
C 320.413553 206.397044 319.570622 204.36203 318.070407 202.861814 
C 316.570192 201.361599 314.535177 200.518668 312.413553 200.518668 
C 310.291928 200.518668 308.256914 201.361599 306.756698 202.861814 
C 305.256483 204.36203 304.413553 206.397044 304.413553 208.518668 
C 304.413553 210.640293 305.256483 212.675307 306.756698 214.175523 
C 308.256914 215.675738 310.291928 216.518668 312.413553 216.518668 
z
" clip-path="url(#peb6fa59e69)" style="fill: #67a9cf; stroke: #ffffff; stroke-width: 1.28"/>
    <path d="M 320.322928 216.096895 
C 322.444553 216.096895 324.479567 215.253964 325.979783 213.753749 
C 327.479998 212.253534 328.322928 210.218519 328.322928 208.096895 
C 328.322928 205.97527 327.479998 203.940256 325.979783 202.44004 
C 324.479567 200.939825 322.444553 200.096895 320.322928 200.096895 
C 318.201304 200.096895 316.166289 200.939825 314.666074 202.44004 
C 313.165859 203.940256 312.322928 205.97527 312.322928 208.096895 
C 312.322928 210.218519 313.165859 212.253534 314.666074 213.753749 
C 316.166289 215.253964 318.201304 216.096895 320.322928 216.096895 
z
" clip-path="url(#peb6fa59e69)" style="fill: #2166ac; stroke: #ffffff; stroke-width: 1.28"/>
    <path d="M 318.708588 232.669104 
C 320.830213 232.669104 322.865227 231.826173 324.365442 230.325958 
C 325.865657 228.825743 326.708588 226.790728 326.708588 224.669104 
C 326.708588 222.547479 325.865657 220.512465 324.365442 219.012249 
C 322.865227 217.512034 320.830213 216.669104 318.708588 216.669104 
C 316.586963 216.669104 314.551949 217.512034 313.051734 219.012249 
C 311.551518 220.512465 310.708588 222.547479 310.708588 224.669104 
C 310.708588 226.790728 311.551518 228.825743 313.051734 230.325958 
C 314.551949 231.826173 316.586963 232.669104 318.708588 232.669104 
z
" clip-path="url(#peb6fa59e69)" style="fill: #2166ac; stroke: #ffffff; stroke-width: 1.28"/>
    <path d="M 529.985986 202.690153 
C 532.107611 202.690153 534.142625 201.847222 535.642841 200.347007 
C 537.143056 198.846792 537.985986 196.811777 537.985986 194.690153 
C 537.985986 192.568528 537.143056 190.533514 535.642841 189.033298 
C 534.142625 187.533083 532.107611 186.690153 529.985986 186.690153 
C 527.864362 186.690153 525.829347 187.533083 524.329132 189.033298 
C 522.828917 190.533514 521.985986 192.568528 521.985986 194.690153 
C 521.985986 196.811777 522.828917 198.846792 524.329132 200.347007 
C 525.829347 201.847222 527.864362 202.690153 529.985986 202.690153 
z
" clip-path="url(#peb6fa59e69)" style="fill: #b2182b; stroke: #ffffff; stroke-width: 1.28"/>
    <path d="M 532.169957 164.107889 
C 534.291581 164.107889 536.326596 163.264958 537.826811 161.764743 
C 539.327026 160.264528 540.169957 158.229514 540.169957 156.107889 
C 540.169957 153.986264 539.327026 151.95125 537.826811 150.451035 
C 536.326596 148.950819 534.291581 148.107889 532.169957 148.107889 
C 530.048332 148.107889 528.013318 148.950819 526.513102 150.451035 
C 525.012887 151.95125 524.169957 153.986264 524.169957 156.107889 
C 524.169957 158.229514 525.012887 160.264528 526.513102 161.764743 
C 528.013318 163.264958 530.048332 164.107889 532.169957 164.107889 
z
" clip-path="url(#peb6fa59e69)" style="fill: #67a9cf; stroke: #ffffff; stroke-width: 1.28"/>
    <path d="M 307.787351 72.79466 
C 309.908976 72.79466 311.94399 71.951729 313.444205 70.451514 
C 314.94442 68.951299 315.787351 66.916285 315.787351 64.79466 
C 315.787351 62.673035 314.94442 60.638021 313.444205 59.137806 
C 311.94399 57.63759 309.908976 56.79466 307.787351 56.79466 
C 305.665726 56.79466 303.630712 57.63759 302.130497 59.137806 
C 300.630281 60.638021 299.787351 62.673035 299.787351 64.79466 
C 299.787351 66.916285 300.630281 68.951299 302.130497 70.451514 
C 303.630712 71.951729 305.665726 72.79466 307.787351 72.79466 
z
" clip-path="url(#peb6fa59e69)" style="fill: #2166ac; stroke: #ffffff; stroke-width: 1.28"/>
    <path d="M 228.539881 37.019818 
C 230.661506 37.019818 232.69652 36.176888 234.196735 34.676672 
C 235.69695 33.176457 236.539881 31.141443 236.539881 29.019818 
C 236.539881 26.898193 235.69695 24.863179 234.196735 23.362964 
C 232.69652 21.862749 230.661506 21.019818 228.539881 21.019818 
C 226.418256 21.019818 224.383242 21.862749 222.883027 23.362964 
C 221.382811 24.863179 220.539881 26.898193 220.539881 29.019818 
C 220.539881 31.141443 221.382811 33.176457 222.883027 34.676672 
C 224.383242 36.176888 226.418256 37.019818 228.539881 37.019818 
z
" clip-path="url(#peb6fa59e69)" style="fill: #2166ac; stroke: #ffffff; stroke-width: 1.28"/>
    <path d="M 255.948617 101.201838 
C 258.070242 101.201838 260.105256 100.358907 261.605471 98.858692 
C 263.105686 97.358477 263.948617 95.323462 263.948617 93.201838 
C 263.948617 91.080213 263.105686 89.045199 261.605471 87.544983 
C 260.105256 86.044768 258.070242 85.201838 255.948617 85.201838 
C 253.826992 85.201838 251.791978 86.044768 250.291763 87.544983 
C 248.791547 89.045199 247.948617 91.080213 247.948617 93.201838 
C 247.948617 95.323462 248.791547 97.358477 250.291763 98.858692 
C 251.791978 100.358907 253.826992 101.201838 255.948617 101.201838 
z
" clip-path="url(#peb6fa59e69)" style="fill: #2166ac; stroke: #ffffff; stroke-width: 1.28"/>
    <path d="M 440.03755 270.64974 
C 442.159175 270.64974 444.194189 269.80681 445.694404 268.306594 
C 447.194619 266.806379 448.03755 264.771365 448.03755 262.64974 
C 448.03755 260.528115 447.194619 258.493101 445.694404 256.992886 
C 444.194189 255.492671 442.159175 254.64974 440.03755 254.64974 
C 437.915925 254.64974 435.880911 255.492671 434.380695 256.992886 
C 432.88048 258.493101 432.03755 260.528115 432.03755 262.64974 
C 432.03755 264.771365 432.88048 266.806379 434.380695 268.306594 
C 435.880911 269.80681 437.915925 270.64974 440.03755 270.64974 
z
" clip-path="url(#peb6fa59e69)" style="fill: #b2182b; stroke: #ffffff; stroke-width: 1.28"/>
    <path d="M 130.371161 256.564848 
C 132.492785 256.564848 134.5278 255.721918 136.028015 254.221702 
C 137.52823 252.721487 138.371161 250.686473 138.371161 248.564848 
C 138.371161 246.443223 137.52823 244.408209 136.028015 242.907994 
C 134.5278 241.407779 132.492785 240.564848 130.371161 240.564848 
C 128.249536 240.564848 126.214522 241.407779 124.714306 242.907994 
C 123.214091 244.408209 122.371161 246.443223 122.371161 248.564848 
C 122.371161 250.686473 123.214091 252.721487 124.714306 254.221702 
C 126.214522 255.721918 128.249536 256.564848 130.371161 256.564848 
z
" clip-path="url(#peb6fa59e69)" style="fill: #67a9cf; stroke: #ffffff; stroke-width: 1.28"/>
    <path d="M 136.07672 247.969404 
C 138.198345 247.969404 140.233359 247.126473 141.733574 245.626258 
C 143.233789 244.126043 144.07672 242.091029 144.07672 239.969404 
C 144.07672 237.847779 143.233789 235.812765 141.733574 234.31255 
C 140.233359 232.812334 138.198345 231.969404 136.07672 231.969404 
C 133.955095 231.969404 131.920081 232.812334 130.419866 234.31255 
C 128.91965 235.812765 128.07672 237.847779 128.07672 239.969404 
C 128.07672 242.091029 128.91965 244.126043 130.419866 245.626258 
C 131.920081 247.126473 133.955095 247.969404 136.07672 247.969404 
z
" clip-path="url(#peb6fa59e69)" style="fill: #67a9cf; stroke: #ffffff; stroke-width: 1.28"/>
    <path d="M 163.772987 271.372758 
C 165.894612 271.372758 167.929626 270.529828 169.429841 269.029613 
C 170.930056 267.529397 171.772987 265.494383 171.772987 263.372758 
C 171.772987 261.251134 170.930056 259.216119 169.429841 257.715904 
C 167.929626 256.215689 165.894612 255.372758 163.772987 255.372758 
C 161.651362 255.372758 159.616348 256.215689 158.116133 257.715904 
C 156.615917 259.216119 155.772987 261.251134 155.772987 263.372758 
C 155.772987 265.494383 156.615917 267.529397 158.116133 269.029613 
C 159.616348 270.529828 161.651362 271.372758 163.772987 271.372758 
z
" clip-path="url(#peb6fa59e69)" style="fill: #2166ac; stroke: #ffffff; stroke-width: 1.28"/>
    <path d="M 143.358393 276.272478 
C 145.480017 276.272478 147.515032 275.429547 149.015247 273.929332 
C 150.515462 272.429117 151.358393 270.394102 151.358393 268.272478 
C 151.358393 266.150853 150.515462 264.115839 149.015247 262.615623 
C 147.515032 261.115408 145.480017 260.272478 143.358393 260.272478 
C 141.236768 260.272478 139.201754 261.115408 137.701538 262.615623 
C 136.201323 264.115839 135.358393 266.150853 135.358393 268.272478 
C 135.358393 270.394102 136.201323 272.429117 137.701538 273.929332 
C 139.201754 275.429547 141.236768 276.272478 143.358393 276.272478 
z
" clip-path="url(#peb6fa59e69)" style="fill: #2166ac; stroke: #ffffff; stroke-width: 1.28"/>
    <path d="M 540.858818 156.225694 
C 542.980443 156.225694 545.015457 155.382764 546.515672 153.882549 
C 548.015888 152.382333 548.858818 150.347319 548.858818 148.225694 
C 548.858818 146.104069 548.015888 144.069055 546.515672 142.56884 
C 545.015457 141.068625 542.980443 140.225694 540.858818 140.225694 
C 538.737193 140.225694 536.702179 141.068625 535.201964 142.56884 
C 533.701749 144.069055 532.858818 146.104069 532.858818 148.225694 
C 532.858818 150.347319 533.701749 152.382333 535.201964 153.882549 
C 536.702179 155.382764 538.737193 156.225694 540.858818 156.225694 
z
" clip-path="url(#peb6fa59e69)" style="fill: #b2182b; stroke: #ffffff; stroke-width: 1.28"/>
    <path d="M 539.9165 141.836554 
C 542.038125 141.836554 544.073139 140.993623 545.573355 139.493408 
C 547.07357 137.993193 547.9165 135.958179 547.9165 133.836554 
C 547.9165 131.714929 547.07357 129.679915 545.573355 128.1797 
C 544.073139 126.679484 542.038125 125.836554 539.9165 125.836554 
C 537.794876 125.836554 535.759862 126.679484 534.259646 128.1797 
C 532.759431 129.679915 531.9165 131.714929 531.9165 133.836554 
C 531.9165 135.958179 532.759431 137.993193 534.259646 139.493408 
C 535.759862 140.993623 537.794876 141.836554 539.9165 141.836554 
z
" clip-path="url(#peb6fa59e69)" style="fill: #67a9cf; stroke: #ffffff; stroke-width: 1.28"/>
    <path d="M 397.744108 192.672334 
C 399.865733 192.672334 401.900747 191.829403 403.400963 190.329188 
C 404.901178 188.828973 405.744108 186.793959 405.744108 184.672334 
C 405.744108 182.550709 404.901178 180.515695 403.400963 179.01548 
C 401.900747 177.515264 399.865733 176.672334 397.744108 176.672334 
C 395.622484 176.672334 393.587469 177.515264 392.087254 179.01548 
C 390.587039 180.515695 389.744108 182.550709 389.744108 184.672334 
C 389.744108 186.793959 390.587039 188.828973 392.087254 190.329188 
C 393.587469 191.829403 395.622484 192.672334 397.744108 192.672334 
z
" clip-path="url(#peb6fa59e69)" style="fill: #67a9cf; stroke: #ffffff; stroke-width: 1.28"/>
    <path d="M 457.568006 160.559164 
C 459.689631 160.559164 461.724645 159.716234 463.22486 158.216018 
C 464.725076 156.715803 465.568006 154.680789 465.568006 152.559164 
C 465.568006 150.437539 464.725076 148.402525 463.22486 146.90231 
C 461.724645 145.402095 459.689631 144.559164 457.568006 144.559164 
C 455.446381 144.559164 453.411367 145.402095 451.911152 146.90231 
C 450.410937 148.402525 449.568006 150.437539 449.568006 152.559164 
C 449.568006 154.680789 450.410937 156.715803 451.911152 158.216018 
C 453.411367 159.716234 455.446381 160.559164 457.568006 160.559164 
z
" clip-path="url(#peb6fa59e69)" style="fill: #67a9cf; stroke: #ffffff; stroke-width: 1.28"/>
    <path d="M 317.675026 122.929429 
C 319.796651 122.929429 321.831665 122.086499 323.33188 120.586284 
C 324.832096 119.086068 325.675026 117.051054 325.675026 114.929429 
C 325.675026 112.807805 324.832096 110.77279 323.33188 109.272575 
C 321.831665 107.77236 319.796651 106.929429 317.675026 106.929429 
C 315.553401 106.929429 313.518387 107.77236 312.018172 109.272575 
C 310.517957 110.77279 309.675026 112.807805 309.675026 114.929429 
C 309.675026 117.051054 310.517957 119.086068 312.018172 120.586284 
C 313.518387 122.086499 315.553401 122.929429 317.675026 122.929429 
z
" clip-path="url(#peb6fa59e69)" style="fill: #2166ac; stroke: #ffffff; stroke-width: 1.28"/>
    <path d="M 273.515347 98.496148 
C 275.636971 98.496148 277.671986 97.653217 279.172201 96.153002 
C 280.672416 94.652787 281.515347 92.617773 281.515347 90.496148 
C 281.515347 88.374523 280.672416 86.339509 279.172201 84.839294 
C 277.671986 83.339078 275.636971 82.496148 273.515347 82.496148 
C 271.393722 82.496148 269.358708 83.339078 267.858492 84.839294 
C 266.358277 86.339509 265.515347 88.374523 265.515347 90.496148 
C 265.515347 92.617773 266.358277 94.652787 267.858492 96.153002 
C 269.358708 97.653217 271.393722 98.496148 273.515347 98.496148 
z
" clip-path="url(#peb6fa59e69)" style="fill: #2166ac; stroke: #ffffff; stroke-width: 1.28"/>
    <path d="M 188.517476 88.523402 
C 190.6391 88.523402 192.674115 87.680472 194.17433 86.180256 
C 195.674545 84.680041 196.517476 82.645027 196.517476 80.523402 
C 196.517476 78.401777 195.674545 76.366763 194.17433 74.866548 
C 192.674115 73.366333 190.6391 72.523402 188.517476 72.523402 
C 186.395851 72.523402 184.360837 73.366333 182.860621 74.866548 
C 181.360406 76.366763 180.517476 78.401777 180.517476 80.523402 
C 180.517476 82.645027 181.360406 84.680041 182.860621 86.180256 
C 184.360837 87.680472 186.395851 88.523402 188.517476 88.523402 
z
" clip-path="url(#peb6fa59e69)" style="fill: #2166ac; stroke: #ffffff; stroke-width: 1.28"/>
    <path d="M 490.257692 224.509871 
C 492.379317 224.509871 494.414331 223.666941 495.914546 222.166726 
C 497.414762 220.66651 498.257692 218.631496 498.257692 216.509871 
C 498.257692 214.388247 497.414762 212.353232 495.914546 210.853017 
C 494.414331 209.352802 492.379317 208.509871 490.257692 208.509871 
C 488.136067 208.509871 486.101053 209.352802 484.600838 210.853017 
C 483.100623 212.353232 482.257692 214.388247 482.257692 216.509871 
C 482.257692 218.631496 483.100623 220.66651 484.600838 222.166726 
C 486.101053 223.666941 488.136067 224.509871 490.257692 224.509871 
z
" clip-path="url(#peb6fa59e69)" style="fill: #b2182b; stroke: #ffffff; stroke-width: 1.28"/>
    <path d="M 472.063952 227.889579 
C 474.185577 227.889579 476.220591 227.046649 477.720806 225.546433 
C 479.221022 224.046218 480.063952 222.011204 480.063952 219.889579 
C 480.063952 217.767954 479.221022 215.73294 477.720806 214.232725 
C 476.220591 212.73251 474.185577 211.889579 472.063952 211.889579 
C 469.942327 211.889579 467.907313 212.73251 466.407098 214.232725 
C 464.906883 215.73294 464.063952 217.767954 464.063952 219.889579 
C 464.063952 222.011204 464.906883 224.046218 466.407098 225.546433 
C 467.907313 227.046649 469.942327 227.889579 472.063952 227.889579 
z
" clip-path="url(#peb6fa59e69)" style="fill: #b2182b; stroke: #ffffff; stroke-width: 1.28"/>
    <path d="M 475.294994 233.128885 
C 477.416618 233.128885 479.451633 232.285955 480.951848 230.785739 
C 482.452063 229.285524 483.294994 227.25051 483.294994 225.128885 
C 483.294994 223.00726 482.452063 220.972246 480.951848 219.472031 
C 479.451633 217.971816 477.416618 217.128885 475.294994 217.128885 
C 473.173369 217.128885 471.138355 217.971816 469.638139 219.472031 
C 468.137924 220.972246 467.294994 223.00726 467.294994 225.128885 
C 467.294994 227.25051 468.137924 229.285524 469.638139 230.785739 
C 471.138355 232.285955 473.173369 233.128885 475.294994 233.128885 
z
" clip-path="url(#peb6fa59e69)" style="fill: #b2182b; stroke: #ffffff; stroke-width: 1.28"/>
    <path d="M 272.916158 169.574849 
C 275.037783 169.574849 277.072797 168.731918 278.573012 167.231703 
C 280.073227 165.731488 280.916158 163.696474 280.916158 161.574849 
C 280.916158 159.453224 280.073227 157.41821 278.573012 155.917995 
C 277.072797 154.417779 275.037783 153.574849 272.916158 153.574849 
C 270.794533 153.574849 268.759519 154.417779 267.259304 155.917995 
C 265.759088 157.41821 264.916158 159.453224 264.916158 161.574849 
C 264.916158 163.696474 265.759088 165.731488 267.259304 167.231703 
C 268.759519 168.731918 270.794533 169.574849 272.916158 169.574849 
z
" clip-path="url(#peb6fa59e69)" style="fill: #67a9cf; stroke: #ffffff; stroke-width: 1.28"/>
    <path d="M 187.892059 143.326425 
C 190.013683 143.326425 192.048698 142.483495 193.548913 140.98328 
C 195.049128 139.483064 195.892059 137.44805 195.892059 135.326425 
C 195.892059 133.2048 195.049128 131.169786 193.548913 129.669571 
C 192.048698 128.169356 190.013683 127.326425 187.892059 127.326425 
C 185.770434 127.326425 183.73542 128.169356 182.235204 129.669571 
C 180.734989 131.169786 179.892059 133.2048 179.892059 135.326425 
C 179.892059 137.44805 180.734989 139.483064 182.235204 140.98328 
C 183.73542 142.483495 185.770434 143.326425 187.892059 143.326425 
z
" clip-path="url(#peb6fa59e69)" style="fill: #67a9cf; stroke: #ffffff; stroke-width: 1.28"/>
    <path d="M 501.866031 222.740852 
C 503.987656 222.740852 506.02267 221.897922 507.522886 220.397707 
C 509.023101 218.897491 509.866031 216.862477 509.866031 214.740852 
C 509.866031 212.619228 509.023101 210.584213 507.522886 209.083998 
C 506.02267 207.583783 503.987656 206.740852 501.866031 206.740852 
C 499.744407 206.740852 497.709392 207.583783 496.209177 209.083998 
C 494.708962 210.584213 493.866031 212.619228 493.866031 214.740852 
C 493.866031 216.862477 494.708962 218.897491 496.209177 220.397707 
C 497.709392 221.897922 499.744407 222.740852 501.866031 222.740852 
z
" clip-path="url(#peb6fa59e69)" style="fill: #b2182b; stroke: #ffffff; stroke-width: 1.28"/>
    <path d="M 337.265141 165.989934 
C 339.386766 165.989934 341.42178 165.147003 342.921995 163.646788 
C 344.422211 162.146573 345.265141 160.111558 345.265141 157.989934 
C 345.265141 155.868309 344.422211 153.833295 342.921995 152.333079 
C 341.42178 150.832864 339.386766 149.989934 337.265141 149.989934 
C 335.143516 149.989934 333.108502 150.832864 331.608287 152.333079 
C 330.108072 153.833295 329.265141 155.868309 329.265141 157.989934 
C 329.265141 160.111558 330.108072 162.146573 331.608287 163.646788 
C 333.108502 165.147003 335.143516 165.989934 337.265141 165.989934 
z
" clip-path="url(#peb6fa59e69)" style="fill: #67a9cf; stroke: #ffffff; stroke-width: 1.28"/>
    <path d="M 475.727692 237.81883 
C 477.849316 237.81883 479.88433 236.9759 481.384546 235.475685 
C 482.884761 233.975469 483.727692 231.940455 483.727692 229.81883 
C 483.727692 227.697206 482.884761 225.662191 481.384546 224.161976 
C 479.88433 222.661761 477.849316 221.81883 475.727692 221.81883 
C 473.606067 221.81883 471.571053 222.661761 470.070837 224.161976 
C 468.570622 225.662191 467.727692 227.697206 467.727692 229.81883 
C 467.727692 231.940455 468.570622 233.975469 470.070837 235.475685 
C 471.571053 236.9759 473.606067 237.81883 475.727692 237.81883 
z
" clip-path="url(#peb6fa59e69)" style="fill: #b2182b; stroke: #ffffff; stroke-width: 1.28"/>
    <path d="M 479.782269 231.042083 
C 481.903894 231.042083 483.938908 230.199152 485.439123 228.698937 
C 486.939339 227.198722 487.782269 225.163708 487.782269 223.042083 
C 487.782269 220.920458 486.939339 218.885444 485.439123 217.385229 
C 483.938908 215.885013 481.903894 215.042083 479.782269 215.042083 
C 477.660644 215.042083 475.62563 215.885013 474.125415 217.385229 
C 472.625199 218.885444 471.782269 220.920458 471.782269 223.042083 
C 471.782269 225.163708 472.625199 227.198722 474.125415 228.698937 
C 475.62563 230.199152 477.660644 231.042083 479.782269 231.042083 
z
" clip-path="url(#peb6fa59e69)" style="fill: #b2182b; stroke: #ffffff; stroke-width: 1.28"/>
    <path d="M 246.661688 215.825041 
C 248.783313 215.825041 250.818327 214.982111 252.318543 213.481895 
C 253.818758 211.98168 254.661688 209.946666 254.661688 207.825041 
C 254.661688 205.703416 253.818758 203.668402 252.318543 202.168187 
C 250.818327 200.667972 248.783313 199.825041 246.661688 199.825041 
C 244.540064 199.825041 242.505049 200.667972 241.004834 202.168187 
C 239.504619 203.668402 238.661688 205.703416 238.661688 207.825041 
C 238.661688 209.946666 239.504619 211.98168 241.004834 213.481895 
C 242.505049 214.982111 244.540064 215.825041 246.661688 215.825041 
z
" clip-path="url(#peb6fa59e69)" style="fill: #67a9cf; stroke: #ffffff; stroke-width: 1.28"/>
    <path d="M 221.702638 189.965377 
C 223.824263 189.965377 225.859277 189.122446 227.359492 187.622231 
C 228.859707 186.122016 229.702638 184.087001 229.702638 181.965377 
C 229.702638 179.843752 228.859707 177.808738 227.359492 176.308522 
C 225.859277 174.808307 223.824263 173.965377 221.702638 173.965377 
C 219.581013 173.965377 217.545999 174.808307 216.045784 176.308522 
C 214.545568 177.808738 213.702638 179.843752 213.702638 181.965377 
C 213.702638 184.087001 214.545568 186.122016 216.045784 187.622231 
C 217.545999 189.122446 219.581013 189.965377 221.702638 189.965377 
z
" clip-path="url(#peb6fa59e69)" style="fill: #67a9cf; stroke: #ffffff; stroke-width: 1.28"/>
    <path d="M 201.74897 226.670282 
C 203.870594 226.670282 205.905609 225.827351 207.405824 224.327136 
C 208.906039 222.826921 209.74897 220.791906 209.74897 218.670282 
C 209.74897 216.548657 208.906039 214.513643 207.405824 213.013427 
C 205.905609 211.513212 203.870594 210.670282 201.74897 210.670282 
C 199.627345 210.670282 197.592331 211.513212 196.092115 213.013427 
C 194.5919 214.513643 193.74897 216.548657 193.74897 218.670282 
C 193.74897 220.791906 194.5919 222.826921 196.092115 224.327136 
C 197.592331 225.827351 199.627345 226.670282 201.74897 226.670282 
z
" clip-path="url(#peb6fa59e69)" style="fill: #2166ac; stroke: #ffffff; stroke-width: 1.28"/>
    <path d="M 206.602769 250.595682 
C 208.724394 250.595682 210.759408 249.752751 212.259624 248.252536 
C 213.759839 246.752321 214.602769 244.717306 214.602769 242.595682 
C 214.602769 240.474057 213.759839 238.439043 212.259624 236.938827 
C 210.759408 235.438612 208.724394 234.595682 206.602769 234.595682 
C 204.481145 234.595682 202.44613 235.438612 200.945915 236.938827 
C 199.4457 238.439043 198.602769 240.474057 198.602769 242.595682 
C 198.602769 244.717306 199.4457 246.752321 200.945915 248.252536 
C 202.44613 249.752751 204.481145 250.595682 206.602769 250.595682 
z
" clip-path="url(#peb6fa59e69)" style="fill: #2166ac; stroke: #ffffff; stroke-width: 1.28"/>
    <path d="M 456.326091 248.344335 
C 458.447716 248.344335 460.48273 247.501405 461.982946 246.001189 
C 463.483161 244.500974 464.326091 242.46596 464.326091 240.344335 
C 464.326091 238.22271 463.483161 236.187696 461.982946 234.687481 
C 460.48273 233.187266 458.447716 232.344335 456.326091 232.344335 
C 454.204467 232.344335 452.169452 233.187266 450.669237 234.687481 
C 449.169022 236.187696 448.326091 238.22271 448.326091 240.344335 
C 448.326091 242.46596 449.169022 244.500974 450.669237 246.001189 
C 452.169452 247.501405 454.204467 248.344335 456.326091 248.344335 
z
" clip-path="url(#peb6fa59e69)" style="fill: #b2182b; stroke: #ffffff; stroke-width: 1.28"/>
    <path d="M 478.829955 232.058045 
C 480.95158 232.058045 482.986594 231.215114 484.486809 229.714899 
C 485.987024 228.214684 486.829955 226.179669 486.829955 224.058045 
C 486.829955 221.93642 485.987024 219.901406 484.486809 218.40119 
C 482.986594 216.900975 480.95158 216.058045 478.829955 216.058045 
C 476.70833 216.058045 474.673316 216.900975 473.173101 218.40119 
C 471.672885 219.901406 470.829955 221.93642 470.829955 224.058045 
C 470.829955 226.179669 471.672885 228.214684 473.173101 229.714899 
C 474.673316 231.215114 476.70833 232.058045 478.829955 232.058045 
z
" clip-path="url(#peb6fa59e69)" style="fill: #b2182b; stroke: #ffffff; stroke-width: 1.28"/>
    <path d="M 292.084681 347.820997 
C 294.206306 347.820997 296.24132 346.978067 297.741535 345.477851 
C 299.24175 343.977636 300.084681 341.942622 300.084681 339.820997 
C 300.084681 337.699372 299.24175 335.664358 297.741535 334.164143 
C 296.24132 332.663928 294.206306 331.820997 292.084681 331.820997 
C 289.963056 331.820997 287.928042 332.663928 286.427827 334.164143 
C 284.927611 335.664358 284.084681 337.699372 284.084681 339.820997 
C 284.084681 341.942622 284.927611 343.977636 286.427827 345.477851 
C 287.928042 346.978067 289.963056 347.820997 292.084681 347.820997 
z
" clip-path="url(#peb6fa59e69)" style="fill: #67a9cf; stroke: #ffffff; stroke-width: 1.28"/>
    <path d="M 212.024295 265.383353 
C 214.14592 265.383353 216.180934 264.540422 217.681149 263.040207 
C 219.181364 261.539992 220.024295 259.504977 220.024295 257.383353 
C 220.024295 255.261728 219.181364 253.226714 217.681149 251.726498 
C 216.180934 250.226283 214.14592 249.383353 212.024295 249.383353 
C 209.90267 249.383353 207.867656 250.226283 206.36744 251.726498 
C 204.867225 253.226714 204.024295 255.261728 204.024295 257.383353 
C 204.024295 259.504977 204.867225 261.539992 206.36744 263.040207 
C 207.867656 264.540422 209.90267 265.383353 212.024295 265.383353 
z
" clip-path="url(#peb6fa59e69)" style="fill: #67a9cf; stroke: #ffffff; stroke-width: 1.28"/>
    <path d="M 201.062623 243.89125 
C 203.184248 243.89125 205.219262 243.04832 206.719477 241.548104 
C 208.219693 240.047889 209.062623 238.012875 209.062623 235.89125 
C 209.062623 233.769625 208.219693 231.734611 206.719477 230.234396 
C 205.219262 228.734181 203.184248 227.89125 201.062623 227.89125 
C 198.940998 227.89125 196.905984 228.734181 195.405769 230.234396 
C 193.905554 231.734611 193.062623 233.769625 193.062623 235.89125 
C 193.062623 238.012875 193.905554 240.047889 195.405769 241.548104 
C 196.905984 243.04832 198.940998 243.89125 201.062623 243.89125 
z
" clip-path="url(#peb6fa59e69)" style="fill: #2166ac; stroke: #ffffff; stroke-width: 1.28"/>
    <path d="M 116.070715 231.921652 
C 118.192339 231.921652 120.227354 231.078721 121.727569 229.578506 
C 123.227784 228.078291 124.070715 226.043277 124.070715 223.921652 
C 124.070715 221.800027 123.227784 219.765013 121.727569 218.264798 
C 120.227354 216.764582 118.192339 215.921652 116.070715 215.921652 
C 113.94909 215.921652 111.914076 216.764582 110.41386 218.264798 
C 108.913645 219.765013 108.070715 221.800027 108.070715 223.921652 
C 108.070715 226.043277 108.913645 228.078291 110.41386 229.578506 
C 111.914076 231.078721 113.94909 231.921652 116.070715 231.921652 
z
" clip-path="url(#peb6fa59e69)" style="fill: #2166ac; stroke: #ffffff; stroke-width: 1.28"/>
    <path d="M 120.491393 170.114626 
C 122.613017 170.114626 124.648032 169.271695 126.148247 167.77148 
C 127.648462 166.271265 128.491393 164.23625 128.491393 162.114626 
C 128.491393 159.993001 127.648462 157.957987 126.148247 156.457771 
C 124.648032 154.957556 122.613017 154.114626 120.491393 154.114626 
C 118.369768 154.114626 116.334754 154.957556 114.834538 156.457771 
C 113.334323 157.957987 112.491393 159.993001 112.491393 162.114626 
C 112.491393 164.23625 113.334323 166.271265 114.834538 167.77148 
C 116.334754 169.271695 118.369768 170.114626 120.491393 170.114626 
z
" clip-path="url(#peb6fa59e69)" style="fill: #2166ac; stroke: #ffffff; stroke-width: 1.28"/>
    <path d="M 393.607672 342.873533 
C 395.729297 342.873533 397.764311 342.030603 399.264526 340.530387 
C 400.764742 339.030172 401.607672 336.995158 401.607672 334.873533 
C 401.607672 332.751908 400.764742 330.716894 399.264526 329.216679 
C 397.764311 327.716464 395.729297 326.873533 393.607672 326.873533 
C 391.486047 326.873533 389.451033 327.716464 387.950818 329.216679 
C 386.450603 330.716894 385.607672 332.751908 385.607672 334.873533 
C 385.607672 336.995158 386.450603 339.030172 387.950818 340.530387 
C 389.451033 342.030603 391.486047 342.873533 393.607672 342.873533 
z
" clip-path="url(#peb6fa59e69)" style="fill: #b2182b; stroke: #ffffff; stroke-width: 1.28"/>
    <path d="M 424.344174 309.829536 
C 426.465799 309.829536 428.500813 308.986606 430.001028 307.486391 
C 431.501243 305.986175 432.344174 303.951161 432.344174 301.829536 
C 432.344174 299.707912 431.501243 297.672897 430.001028 296.172682 
C 428.500813 294.672467 426.465799 293.829536 424.344174 293.829536 
C 422.222549 293.829536 420.187535 294.672467 418.68732 296.172682 
C 417.187104 297.672897 416.344174 299.707912 416.344174 301.829536 
C 416.344174 303.951161 417.187104 305.986175 418.68732 307.486391 
C 420.187535 308.986606 422.222549 309.829536 424.344174 309.829536 
z
" clip-path="url(#peb6fa59e69)" style="fill: #b2182b; stroke: #ffffff; stroke-width: 1.28"/>
    <path d="M 294.708831 358.216182 
C 296.830455 358.216182 298.86547 357.373251 300.365685 355.873036 
C 301.8659 354.372821 302.708831 352.337807 302.708831 350.216182 
C 302.708831 348.094557 301.8659 346.059543 300.365685 344.559328 
C 298.86547 343.059112 296.830455 342.216182 294.708831 342.216182 
C 292.587206 342.216182 290.552192 343.059112 289.051976 344.559328 
C 287.551761 346.059543 286.708831 348.094557 286.708831 350.216182 
C 286.708831 352.337807 287.551761 354.372821 289.051976 355.873036 
C 290.552192 357.373251 292.587206 358.216182 294.708831 358.216182 
z
" clip-path="url(#peb6fa59e69)" style="fill: #67a9cf; stroke: #ffffff; stroke-width: 1.28"/>
    <path d="M 289.38454 345.897604 
C 291.506165 345.897604 293.541179 345.054673 295.041395 343.554458 
C 296.54161 342.054243 297.38454 340.019228 297.38454 337.897604 
C 297.38454 335.775979 296.54161 333.740965 295.041395 332.240749 
C 293.541179 330.740534 291.506165 329.897604 289.38454 329.897604 
C 287.262916 329.897604 285.227901 330.740534 283.727686 332.240749 
C 282.227471 333.740965 281.38454 335.775979 281.38454 337.897604 
C 281.38454 340.019228 282.227471 342.054243 283.727686 343.554458 
C 285.227901 345.054673 287.262916 345.897604 289.38454 345.897604 
z
" clip-path="url(#peb6fa59e69)" style="fill: #67a9cf; stroke: #ffffff; stroke-width: 1.28"/>
    <path d="M 246.949928 340.092631 
C 249.071553 340.092631 251.106567 339.249701 252.606782 337.749485 
C 254.106998 336.24927 254.949928 334.214256 254.949928 332.092631 
C 254.949928 329.971006 254.106998 327.935992 252.606782 326.435777 
C 251.106567 324.935561 249.071553 324.092631 246.949928 324.092631 
C 244.828303 324.092631 242.793289 324.935561 241.293074 326.435777 
C 239.792859 327.935992 238.949928 329.971006 238.949928 332.092631 
C 238.949928 334.214256 239.792859 336.24927 241.293074 337.749485 
C 242.793289 339.249701 244.828303 340.092631 246.949928 340.092631 
z
" clip-path="url(#peb6fa59e69)" style="fill: #67a9cf; stroke: #ffffff; stroke-width: 1.28"/>
    <path d="M 302.237078 335.457839 
C 304.358703 335.457839 306.393717 334.614909 307.893932 333.114693 
C 309.394148 331.614478 310.237078 329.579464 310.237078 327.457839 
C 310.237078 325.336214 309.394148 323.3012 307.893932 321.800985 
C 306.393717 320.30077 304.358703 319.457839 302.237078 319.457839 
C 300.115453 319.457839 298.080439 320.30077 296.580224 321.800985 
C 295.080009 323.3012 294.237078 325.336214 294.237078 327.457839 
C 294.237078 329.579464 295.080009 331.614478 296.580224 333.114693 
C 298.080439 334.614909 300.115453 335.457839 302.237078 335.457839 
z
" clip-path="url(#peb6fa59e69)" style="fill: #2166ac; stroke: #ffffff; stroke-width: 1.28"/>
    <path d="M 261.421791 229.769919 
C 263.543415 229.769919 265.578429 228.926989 267.078645 227.426773 
C 268.57886 225.926558 269.421791 223.891544 269.421791 221.769919 
C 269.421791 219.648294 268.57886 217.61328 267.078645 216.113065 
C 265.578429 214.61285 263.543415 213.769919 261.421791 213.769919 
C 259.300166 213.769919 257.265152 214.61285 255.764936 216.113065 
C 254.264721 217.61328 253.421791 219.648294 253.421791 221.769919 
C 253.421791 223.891544 254.264721 225.926558 255.764936 227.426773 
C 257.265152 228.926989 259.300166 229.769919 261.421791 229.769919 
z
" clip-path="url(#peb6fa59e69)" style="fill: #2166ac; stroke: #ffffff; stroke-width: 1.28"/>
    <path d="M 504.697339 219.496243 
C 506.818964 219.496243 508.853978 218.653313 510.354194 217.153098 
C 511.854409 215.652882 512.697339 213.617868 512.697339 211.496243 
C 512.697339 209.374619 511.854409 207.339605 510.354194 205.839389 
C 508.853978 204.339174 506.818964 203.496243 504.697339 203.496243 
C 502.575715 203.496243 500.5407 204.339174 499.040485 205.839389 
C 497.54027 207.339605 496.697339 209.374619 496.697339 211.496243 
C 496.697339 213.617868 497.54027 215.652882 499.040485 217.153098 
C 500.5407 218.653313 502.575715 219.496243 504.697339 219.496243 
z
" clip-path="url(#peb6fa59e69)" style="fill: #b2182b; stroke: #ffffff; stroke-width: 1.28"/>
    <path d="M 521.045363 201.939752 
C 523.166988 201.939752 525.202002 201.096821 526.702217 199.596606 
C 528.202433 198.096391 529.045363 196.061377 529.045363 193.939752 
C 529.045363 191.818127 528.202433 189.783113 526.702217 188.282898 
C 525.202002 186.782682 523.166988 185.939752 521.045363 185.939752 
C 518.923738 185.939752 516.888724 186.782682 515.388509 188.282898 
C 513.888294 189.783113 513.045363 191.818127 513.045363 193.939752 
C 513.045363 196.061377 513.888294 198.096391 515.388509 199.596606 
C 516.888724 201.096821 518.923738 201.939752 521.045363 201.939752 
z
" clip-path="url(#peb6fa59e69)" style="fill: #b2182b; stroke: #ffffff; stroke-width: 1.28"/>
    <path d="M 503.837725 217.908713 
C 505.95935 217.908713 507.994364 217.065783 509.49458 215.565568 
C 510.994795 214.065352 511.837725 212.030338 511.837725 209.908713 
C 511.837725 207.787088 510.994795 205.752074 509.49458 204.251859 
C 507.994364 202.751644 505.95935 201.908713 503.837725 201.908713 
C 501.716101 201.908713 499.681086 202.751644 498.180871 204.251859 
C 496.680656 205.752074 495.837725 207.787088 495.837725 209.908713 
C 495.837725 212.030338 496.680656 214.065352 498.180871 215.565568 
C 499.681086 217.065783 501.716101 217.908713 503.837725 217.908713 
z
" clip-path="url(#peb6fa59e69)" style="fill: #b2182b; stroke: #ffffff; stroke-width: 1.28"/>
    <path d="M 506.400881 213.903604 
C 508.522506 213.903604 510.55752 213.060674 512.057735 211.560458 
C 513.55795 210.060243 514.400881 208.025229 514.400881 205.903604 
C 514.400881 203.781979 513.55795 201.746965 512.057735 200.24675 
C 510.55752 198.746535 508.522506 197.903604 506.400881 197.903604 
C 504.279256 197.903604 502.244242 198.746535 500.744027 200.24675 
C 499.243811 201.746965 498.400881 203.781979 498.400881 205.903604 
C 498.400881 208.025229 499.243811 210.060243 500.744027 211.560458 
C 502.244242 213.060674 504.279256 213.903604 506.400881 213.903604 
z
" clip-path="url(#peb6fa59e69)" style="fill: #b2182b; stroke: #ffffff; stroke-width: 1.28"/>
    <path d="M 372.753392 240.194982 
C 374.875017 240.194982 376.910031 239.352052 378.410247 237.851837 
C 379.910462 236.351621 380.753392 234.316607 380.753392 232.194982 
C 380.753392 230.073358 379.910462 228.038343 378.410247 226.538128 
C 376.910031 225.037913 374.875017 224.194982 372.753392 224.194982 
C 370.631767 224.194982 368.596753 225.037913 367.096538 226.538128 
C 365.596323 228.038343 364.753392 230.073358 364.753392 232.194982 
C 364.753392 234.316607 365.596323 236.351621 367.096538 237.851837 
C 368.596753 239.352052 370.631767 240.194982 372.753392 240.194982 
z
" clip-path="url(#peb6fa59e69)" style="fill: #67a9cf; stroke: #ffffff; stroke-width: 1.28"/>
    <path d="M 338.922597 234.09134 
C 341.044222 234.09134 343.079236 233.24841 344.579451 231.748195 
C 346.079666 230.247979 346.922597 228.212965 346.922597 226.09134 
C 346.922597 223.969715 346.079666 221.934701 344.579451 220.434486 
C 343.079236 218.934271 341.044222 218.09134 338.922597 218.09134 
C 336.800972 218.09134 334.765958 218.934271 333.265743 220.434486 
C 331.765527 221.934701 330.922597 223.969715 330.922597 226.09134 
C 330.922597 228.212965 331.765527 230.247979 333.265743 231.748195 
C 334.765958 233.24841 336.800972 234.09134 338.922597 234.09134 
z
" clip-path="url(#peb6fa59e69)" style="fill: #67a9cf; stroke: #ffffff; stroke-width: 1.28"/>
    <path d="M 256.656341 269.866221 
C 258.777966 269.866221 260.81298 269.023291 262.313195 267.523075 
C 263.81341 266.02286 264.656341 263.987846 264.656341 261.866221 
C 264.656341 259.744596 263.81341 257.709582 262.313195 256.209367 
C 260.81298 254.709152 258.777966 253.866221 256.656341 253.866221 
C 254.534716 253.866221 252.499702 254.709152 250.999487 256.209367 
C 249.499271 257.709582 248.656341 259.744596 248.656341 261.866221 
C 248.656341 263.987846 249.499271 266.02286 250.999487 267.523075 
C 252.499702 269.023291 254.534716 269.866221 256.656341 269.866221 
z
" clip-path="url(#peb6fa59e69)" style="fill: #67a9cf; stroke: #ffffff; stroke-width: 1.28"/>
    <path d="M 276.781251 202.507467 
C 278.902876 202.507467 280.93789 201.664537 282.438106 200.164321 
C 283.938321 198.664106 284.781251 196.629092 284.781251 194.507467 
C 284.781251 192.385842 283.938321 190.350828 282.438106 188.850613 
C 280.93789 187.350397 278.902876 186.507467 276.781251 186.507467 
C 274.659627 186.507467 272.624613 187.350397 271.124397 188.850613 
C 269.624182 190.350828 268.781251 192.385842 268.781251 194.507467 
C 268.781251 196.629092 269.624182 198.664106 271.124397 200.164321 
C 272.624613 201.664537 274.659627 202.507467 276.781251 202.507467 
z
" clip-path="url(#peb6fa59e69)" style="fill: #2166ac; stroke: #ffffff; stroke-width: 1.28"/>
    <path d="M 97.235182 147.147176 
C 99.356807 147.147176 101.391821 146.304246 102.892036 144.80403 
C 104.392251 143.303815 105.235182 141.268801 105.235182 139.147176 
C 105.235182 137.025551 104.392251 134.990537 102.892036 133.490322 
C 101.391821 131.990107 99.356807 131.147176 97.235182 131.147176 
C 95.113557 131.147176 93.078543 131.990107 91.578328 133.490322 
C 90.078112 134.990537 89.235182 137.025551 89.235182 139.147176 
C 89.235182 141.268801 90.078112 143.303815 91.578328 144.80403 
C 93.078543 146.304246 95.113557 147.147176 97.235182 147.147176 
z
" clip-path="url(#peb6fa59e69)" style="fill: #2166ac; stroke: #ffffff; stroke-width: 1.28"/>
   </g>
   <g id="PathCollection_2">
    <path d="M 297.735873 147.26386 
L 309.049582 135.950152 
L 297.735873 124.636443 
L 286.422165 135.950152 
z
" clip-path="url(#peb6fa59e69)" style="fill: #2166ac; fill-opacity: 0.75; stroke: #ffffff; stroke-opacity: 0.75; stroke-width: 1.28"/>
    <path d="M 352.245977 101.146975 
L 363.559685 89.833266 
L 352.245977 78.519558 
L 340.932268 89.833266 
z
" clip-path="url(#peb6fa59e69)" style="fill: #67a9cf; fill-opacity: 0.75; stroke: #ffffff; stroke-opacity: 0.75; stroke-width: 1.28"/>
    <path d="M 256.275357 77.586902 
L 267.589065 66.273193 
L 256.275357 54.959485 
L 244.961648 66.273193 
z
" clip-path="url(#peb6fa59e69)" style="fill: #67a9cf; fill-opacity: 0.75; stroke: #ffffff; stroke-opacity: 0.75; stroke-width: 1.28"/>
    <path d="M 140.531116 276.780255 
L 151.844825 265.466546 
L 140.531116 254.152838 
L 129.217408 265.466546 
z
" clip-path="url(#peb6fa59e69)" style="fill: #2166ac; fill-opacity: 0.75; stroke: #ffffff; stroke-opacity: 0.75; stroke-width: 1.28"/>
    <path d="M 504.963538 241.081306 
L 516.277246 229.767597 
L 504.963538 218.453889 
L 493.649829 229.767597 
z
" clip-path="url(#peb6fa59e69)" style="fill: #b2182b; fill-opacity: 0.75; stroke: #ffffff; stroke-opacity: 0.75; stroke-width: 1.28"/>
    <path d="M 494.544201 253.111066 
L 505.85791 241.797357 
L 494.544201 230.483649 
L 483.230493 241.797357 
z
" clip-path="url(#peb6fa59e69)" style="fill: #b2182b; fill-opacity: 0.75; stroke: #ffffff; stroke-opacity: 0.75; stroke-width: 1.28"/>
    <path d="M 475.602853 210.154366 
L 486.916561 198.840658 
L 475.602853 187.526949 
L 464.289144 198.840658 
z
" clip-path="url(#peb6fa59e69)" style="fill: #67a9cf; fill-opacity: 0.75; stroke: #ffffff; stroke-opacity: 0.75; stroke-width: 1.28"/>
    <path d="M 475.381237 238.464843 
L 486.694946 227.151134 
L 475.381237 215.837426 
L 464.067529 227.151134 
z
" clip-path="url(#peb6fa59e69)" style="fill: #b2182b; fill-opacity: 0.75; stroke: #ffffff; stroke-opacity: 0.75; stroke-width: 1.28"/>
    <path d="M 215.249478 247.898459 
L 226.563186 236.584751 
L 215.249478 225.271042 
L 203.935769 236.584751 
z
" clip-path="url(#peb6fa59e69)" style="fill: #67a9cf; fill-opacity: 0.75; stroke: #ffffff; stroke-opacity: 0.75; stroke-width: 1.28"/>
    <path d="M 470.32984 230.65629 
L 481.643548 219.342582 
L 470.32984 208.028873 
L 459.016131 219.342582 
z
" clip-path="url(#peb6fa59e69)" style="fill: #b2182b; fill-opacity: 0.75; stroke: #ffffff; stroke-opacity: 0.75; stroke-width: 1.28"/>
    <path d="M 197.998072 222.638826 
L 209.311781 211.325118 
L 197.998072 200.011409 
L 186.684364 211.325118 
z
" clip-path="url(#peb6fa59e69)" style="fill: #67a9cf; fill-opacity: 0.75; stroke: #ffffff; stroke-opacity: 0.75; stroke-width: 1.28"/>
    <path d="M 507.780982 205.435987 
L 519.094691 194.122278 
L 507.780982 182.80857 
L 496.467274 194.122278 
z
" clip-path="url(#peb6fa59e69)" style="fill: #b2182b; fill-opacity: 0.75; stroke: #ffffff; stroke-opacity: 0.75; stroke-width: 1.28"/>
    <path d="M 288.457268 332.413602 
L 299.770976 321.099893 
L 288.457268 309.786185 
L 277.143559 321.099893 
z
" clip-path="url(#peb6fa59e69)" style="fill: #2166ac; fill-opacity: 0.75; stroke: #ffffff; stroke-opacity: 0.75; stroke-width: 1.28"/>
    <path d="M 296.168979 315.983698 
L 307.482687 304.66999 
L 296.168979 293.356281 
L 284.85527 304.66999 
z
" clip-path="url(#peb6fa59e69)" style="fill: #67a9cf; fill-opacity: 0.75; stroke: #ffffff; stroke-opacity: 0.75; stroke-width: 1.28"/>
    <path d="M 163.370644 258.957644 
L 174.684353 247.643935 
L 163.370644 236.330227 
L 152.056936 247.643935 
z
" clip-path="url(#peb6fa59e69)" style="fill: #2166ac; fill-opacity: 0.75; stroke: #ffffff; stroke-opacity: 0.75; stroke-width: 1.28"/>
   </g>
   <g id="patch_3">
    <path d="M 75.054 366.276 
L 75.054 12.96 
" style="fill: none; stroke: #ffffff; stroke-width: 1.25; stroke-linejoin: miter; stroke-linecap: square"/>
   </g>
   <g id="patch_4">
    <path d="M 563.04 366.276 
L 563.04 12.96 
" style="fill: none; stroke: #ffffff; stroke-width: 1.25; stroke-linejoin: miter; stroke-linecap: square"/>
   </g>
   <g id="patch_5">
    <path d="M 75.054 366.276 
L 563.04 366.276 
" style="fill: none; stroke: #ffffff; stroke-width: 1.25; stroke-linejoin: miter; stroke-linecap: square"/>
   </g>
   <g id="patch_6">
    <path d="M 75.054 12.96 
L 563.04 12.96 
" style="fill: none; stroke: #ffffff; stroke-width: 1.25; stroke-linejoin: miter; stroke-linecap: square"/>
   </g>
   <g id="legend_1">
    <g id="patch_7">
     <path d="M 83.454 90.4575 
L 174.414 90.4575 
Q 176.814 90.4575 176.814 88.0575 
L 176.814 21.36 
Q 176.814 18.96 174.414 18.96 
L 83.454 18.96 
Q 81.054 18.96 81.054 21.36 
L 81.054 88.0575 
Q 81.054 90.4575 83.454 90.4575 
z
" style="fill: #eaeaf2; opacity: 0.8; stroke: #cccccc; stroke-linejoin: miter"/>
    </g>
    <g id="text_28">
     <!-- $GO$ fraction size -->
     <g style="fill: #262626" transform="translate(85.854 32.349375) scale(0.12 -0.12)">
      <defs>
       <path id="DejaVuSans-Oblique-47" d="M 3494 697 
L 3738 1919 
L 2700 1919 
L 2797 2438 
L 4453 2438 
L 4050 384 
Q 3634 156 3143 32 
Q 2653 -91 2156 -91 
Q 1278 -91 783 396 
Q 288 884 288 1753 
Q 288 2475 589 3126 
Q 891 3778 1422 4213 
Q 1756 4484 2153 4617 
Q 2550 4750 3034 4750 
Q 3472 4750 3873 4639 
Q 4275 4528 4641 4306 
L 4513 3634 
Q 4231 3928 3853 4083 
Q 3475 4238 3047 4238 
Q 2550 4238 2172 4048 
Q 1794 3859 1497 3463 
Q 1244 3125 1098 2667 
Q 953 2209 953 1734 
Q 953 1081 1287 751 
Q 1622 422 2284 422 
Q 2616 422 2925 492 
Q 3234 563 3494 697 
z
" transform="scale(0.015625)"/>
       <path id="DejaVuSans-Oblique-4f" d="M 2919 4238 
Q 2400 4238 2003 3986 
Q 1606 3734 1313 3219 
Q 1125 2891 1026 2522 
Q 928 2153 928 1778 
Q 928 1128 1239 775 
Q 1550 422 2119 422 
Q 2631 422 3032 676 
Q 3434 931 3719 1434 
Q 3909 1772 4009 2142 
Q 4109 2513 4109 2881 
Q 4109 3528 3796 3883 
Q 3484 4238 2919 4238 
z
M 2100 -91 
Q 1241 -91 748 418 
Q 256 928 256 1813 
Q 256 2319 448 2847 
Q 641 3375 978 3788 
Q 1375 4272 1862 4511 
Q 2350 4750 2938 4750 
Q 3794 4750 4287 4245 
Q 4781 3741 4781 2869 
Q 4781 2331 4593 1812 
Q 4406 1294 4056 872 
Q 3656 384 3173 146 
Q 2691 -91 2100 -91 
z
" transform="scale(0.015625)"/>
       <path id="ArialMT-66" d="M 556 0 
L 556 2881 
L 59 2881 
L 59 3319 
L 556 3319 
L 556 3672 
Q 556 4006 616 4169 
Q 697 4388 901 4523 
Q 1106 4659 1475 4659 
Q 1713 4659 2000 4603 
L 1916 4113 
Q 1741 4144 1584 4144 
Q 1328 4144 1222 4034 
Q 1116 3925 1116 3625 
L 1116 3319 
L 1763 3319 
L 1763 2881 
L 1116 2881 
L 1116 0 
L 556 0 
z
" transform="scale(0.015625)"/>
       <path id="ArialMT-73" d="M 197 991 
L 753 1078 
Q 800 744 1014 566 
Q 1228 388 1613 388 
Q 2000 388 2187 545 
Q 2375 703 2375 916 
Q 2375 1106 2209 1216 
Q 2094 1291 1634 1406 
Q 1016 1563 777 1677 
Q 538 1791 414 1992 
Q 291 2194 291 2438 
Q 291 2659 392 2848 
Q 494 3038 669 3163 
Q 800 3259 1026 3326 
Q 1253 3394 1513 3394 
Q 1903 3394 2198 3281 
Q 2494 3169 2634 2976 
Q 2775 2784 2828 2463 
L 2278 2388 
Q 2241 2644 2061 2787 
Q 1881 2931 1553 2931 
Q 1166 2931 1000 2803 
Q 834 2675 834 2503 
Q 834 2394 903 2306 
Q 972 2216 1119 2156 
Q 1203 2125 1616 2013 
Q 2213 1853 2448 1751 
Q 2684 1650 2818 1456 
Q 2953 1263 2953 975 
Q 2953 694 2789 445 
Q 2625 197 2315 61 
Q 2006 -75 1616 -75 
Q 969 -75 630 194 
Q 291 463 197 991 
z
" transform="scale(0.015625)"/>
       <path id="ArialMT-7a" d="M 125 0 
L 125 456 
L 2238 2881 
Q 1878 2863 1603 2863 
L 250 2863 
L 250 3319 
L 2963 3319 
L 2963 2947 
L 1166 841 
L 819 456 
Q 1197 484 1528 484 
L 3063 484 
L 3063 0 
L 125 0 
z
" transform="scale(0.015625)"/>
      </defs>
      <use xlink:href="#DejaVuSans-Oblique-47" transform="translate(0 0.78125)"/>
      <use xlink:href="#DejaVuSans-Oblique-4f" transform="translate(77.490234 0.78125)"/>
      <use xlink:href="#ArialMT-20" transform="translate(156.201172 0.78125)"/>
      <use xlink:href="#ArialMT-66" transform="translate(183.984375 0.78125)"/>
      <use xlink:href="#ArialMT-72" transform="translate(211.767578 0.78125)"/>
      <use xlink:href="#ArialMT-61" transform="translate(245.068359 0.78125)"/>
      <use xlink:href="#ArialMT-63" transform="translate(300.683594 0.78125)"/>
      <use xlink:href="#ArialMT-74" transform="translate(350.683594 0.78125)"/>
      <use xlink:href="#ArialMT-69" transform="translate(378.466797 0.78125)"/>
      <use xlink:href="#ArialMT-6f" transform="translate(400.683594 0.78125)"/>
      <use xlink:href="#ArialMT-6e" transform="translate(456.298828 0.78125)"/>
      <use xlink:href="#ArialMT-20" transform="translate(511.914062 0.78125)"/>
      <use xlink:href="#ArialMT-73" transform="translate(539.697266 0.78125)"/>
      <use xlink:href="#ArialMT-69" transform="translate(589.697266 0.78125)"/>
      <use xlink:href="#ArialMT-7a" transform="translate(611.914062 0.78125)"/>
      <use xlink:href="#ArialMT-65" transform="translate(661.914062 0.78125)"/>
     </g>
    </g>
    <g id="line2d_26">
     <defs>
      <path id="m0acb8fbbd7" d="M 0 5 
C 1.326016 5 2.597899 4.473168 3.535534 3.535534 
C 4.473168 2.597899 5 1.326016 5 0 
C 5 -1.326016 4.473168 -2.597899 3.535534 -3.535534 
C 2.597899 -4.473168 1.326016 -5 0 -5 
C -1.326016 -5 -2.597899 -4.473168 -3.535534 -3.535534 
C -4.473168 -2.597899 -5 -1.326016 -5 0 
C -5 1.326016 -4.473168 2.597899 -3.535534 3.535534 
C -2.597899 4.473168 -1.326016 5 0 5 
z
" style="stroke: #2166ac"/>
     </defs>
     <g>
      <use xlink:href="#m0acb8fbbd7" x="97.914" y="45.12375" style="fill: #2166ac; stroke: #2166ac"/>
     </g>
    </g>
    <g id="text_29">
     <!-- $d \leq 2$ -->
     <g style="fill: #262626" transform="translate(119.514 49.32375) scale(0.12 -0.12)">
      <defs>
       <path id="DejaVuSans-Oblique-64" d="M 2675 525 
Q 2444 222 2128 65 
Q 1813 -91 1428 -91 
Q 903 -91 598 267 
Q 294 625 294 1247 
Q 294 1766 478 2236 
Q 663 2706 1013 3078 
Q 1244 3325 1534 3454 
Q 1825 3584 2144 3584 
Q 2481 3584 2739 3421 
Q 2997 3259 3138 2956 
L 3513 4863 
L 4091 4863 
L 3144 0 
L 2566 0 
L 2675 525 
z
M 891 1350 
Q 891 897 1095 644 
Q 1300 391 1663 391 
Q 1931 391 2161 520 
Q 2391 650 2566 903 
Q 2750 1166 2856 1509 
Q 2963 1853 2963 2188 
Q 2963 2622 2758 2865 
Q 2553 3109 2194 3109 
Q 1922 3109 1687 2981 
Q 1453 2853 1288 2613 
Q 1106 2353 998 2009 
Q 891 1666 891 1350 
z
" transform="scale(0.015625)"/>
       <path id="DejaVuSans-2264" d="M 4684 3175 
L 1684 2309 
L 4684 1453 
L 4684 897 
L 678 2047 
L 678 2578 
L 4684 3725 
L 4684 3175 
z
M 678 531 
L 4684 531 
L 4684 0 
L 678 0 
L 678 531 
z
" transform="scale(0.015625)"/>
       <path id="DejaVuSans-32" d="M 1228 531 
L 3431 531 
L 3431 0 
L 469 0 
L 469 531 
Q 828 903 1448 1529 
Q 2069 2156 2228 2338 
Q 2531 2678 2651 2914 
Q 2772 3150 2772 3378 
Q 2772 3750 2511 3984 
Q 2250 4219 1831 4219 
Q 1534 4219 1204 4116 
Q 875 4013 500 3803 
L 500 4441 
Q 881 4594 1212 4672 
Q 1544 4750 1819 4750 
Q 2544 4750 2975 4387 
Q 3406 4025 3406 3419 
Q 3406 3131 3298 2873 
Q 3191 2616 2906 2266 
Q 2828 2175 2409 1742 
Q 1991 1309 1228 531 
z
" transform="scale(0.015625)"/>
      </defs>
      <use xlink:href="#DejaVuSans-Oblique-64" transform="translate(0 0.015625)"/>
      <use xlink:href="#DejaVuSans-2264" transform="translate(82.958984 0.015625)"/>
      <use xlink:href="#DejaVuSans-32" transform="translate(186.230469 0.015625)"/>
     </g>
    </g>
    <g id="line2d_27">
     <defs>
      <path id="mee2f359290" d="M 0 5 
C 1.326016 5 2.597899 4.473168 3.535534 3.535534 
C 4.473168 2.597899 5 1.326016 5 0 
C 5 -1.326016 4.473168 -2.597899 3.535534 -3.535534 
C 2.597899 -4.473168 1.326016 -5 0 -5 
C -1.326016 -5 -2.597899 -4.473168 -3.535534 -3.535534 
C -4.473168 -2.597899 -5 -1.326016 -5 0 
C -5 1.326016 -4.473168 2.597899 -3.535534 3.535534 
C -2.597899 4.473168 -1.326016 5 0 5 
z
" style="stroke: #67a9cf"/>
     </defs>
     <g>
      <use xlink:href="#mee2f359290" x="97.914" y="62.098125" style="fill: #67a9cf; stroke: #67a9cf"/>
     </g>
    </g>
    <g id="text_30">
     <!-- $2 &lt; d \leq 5$ -->
     <g style="fill: #262626" transform="translate(119.514 66.298125) scale(0.12 -0.12)">
      <defs>
       <path id="DejaVuSans-3c" d="M 4684 3150 
L 1459 2003 
L 4684 863 
L 4684 294 
L 678 1747 
L 678 2266 
L 4684 3719 
L 4684 3150 
z
" transform="scale(0.015625)"/>
       <path id="DejaVuSans-35" d="M 691 4666 
L 3169 4666 
L 3169 4134 
L 1269 4134 
L 1269 2991 
Q 1406 3038 1543 3061 
Q 1681 3084 1819 3084 
Q 2600 3084 3056 2656 
Q 3513 2228 3513 1497 
Q 3513 744 3044 326 
Q 2575 -91 1722 -91 
Q 1428 -91 1123 -41 
Q 819 9 494 109 
L 494 744 
Q 775 591 1075 516 
Q 1375 441 1709 441 
Q 2250 441 2565 725 
Q 2881 1009 2881 1497 
Q 2881 1984 2565 2268 
Q 2250 2553 1709 2553 
Q 1456 2553 1204 2497 
Q 953 2441 691 2322 
L 691 4666 
z
" transform="scale(0.015625)"/>
      </defs>
      <use xlink:href="#DejaVuSans-32" transform="translate(0 0.015625)"/>
      <use xlink:href="#DejaVuSans-3c" transform="translate(83.105469 0.015625)"/>
      <use xlink:href="#DejaVuSans-Oblique-64" transform="translate(186.376953 0.015625)"/>
      <use xlink:href="#DejaVuSans-2264" transform="translate(269.335938 0.015625)"/>
      <use xlink:href="#DejaVuSans-35" transform="translate(372.607422 0.015625)"/>
     </g>
    </g>
    <g id="line2d_28">
     <defs>
      <path id="m1d7b360697" d="M 0 5 
C 1.326016 5 2.597899 4.473168 3.535534 3.535534 
C 4.473168 2.597899 5 1.326016 5 0 
C 5 -1.326016 4.473168 -2.597899 3.535534 -3.535534 
C 2.597899 -4.473168 1.326016 -5 0 -5 
C -1.326016 -5 -2.597899 -4.473168 -3.535534 -3.535534 
C -4.473168 -2.597899 -5 -1.326016 -5 0 
C -5 1.326016 -4.473168 2.597899 -3.535534 3.535534 
C -2.597899 4.473168 -1.326016 5 0 5 
z
" style="stroke: #b2182b"/>
     </defs>
     <g>
      <use xlink:href="#m1d7b360697" x="97.914" y="79.0725" style="fill: #b2182b; stroke: #b2182b"/>
     </g>
    </g>
    <g id="text_31">
     <!-- $d &gt; 5$ -->
     <g style="fill: #262626" transform="translate(119.514 83.2725) scale(0.12 -0.12)">
      <defs>
       <path id="DejaVuSans-3e" d="M 678 3150 
L 678 3719 
L 4684 2266 
L 4684 1747 
L 678 294 
L 678 863 
L 3897 2003 
L 678 3150 
z
" transform="scale(0.015625)"/>
      </defs>
      <use xlink:href="#DejaVuSans-Oblique-64" transform="translate(0 0.015625)"/>
      <use xlink:href="#DejaVuSans-3e" transform="translate(82.958984 0.015625)"/>
      <use xlink:href="#DejaVuSans-35" transform="translate(186.230469 0.015625)"/>
     </g>
    </g>
   </g>
   <g id="legend_2">
    <g id="patch_8">
     <path d="M 483.81375 73.483125 
L 554.64 73.483125 
Q 557.04 73.483125 557.04 71.083125 
L 557.04 21.36 
Q 557.04 18.96 554.64 18.96 
L 483.81375 18.96 
Q 481.41375 18.96 481.41375 21.36 
L 481.41375 71.083125 
Q 481.41375 73.483125 483.81375 73.483125 
z
" style="fill: #eaeaf2; opacity: 0.8; stroke: #cccccc; stroke-linejoin: miter"/>
    </g>
    <g id="text_32">
     <!-- Dataset split -->
     <g style="fill: #262626" transform="translate(486.21375 32.349375) scale(0.12 -0.12)">
      <defs>
       <path id="ArialMT-44" d="M 494 0 
L 494 4581 
L 2072 4581 
Q 2606 4581 2888 4516 
Q 3281 4425 3559 4188 
Q 3922 3881 4101 3404 
Q 4281 2928 4281 2316 
Q 4281 1794 4159 1391 
Q 4038 988 3847 723 
Q 3656 459 3429 307 
Q 3203 156 2883 78 
Q 2563 0 2147 0 
L 494 0 
z
M 1100 541 
L 2078 541 
Q 2531 541 2789 625 
Q 3047 709 3200 863 
Q 3416 1078 3536 1442 
Q 3656 1806 3656 2325 
Q 3656 3044 3420 3430 
Q 3184 3816 2847 3947 
Q 2603 4041 2063 4041 
L 1100 4041 
L 1100 541 
z
" transform="scale(0.015625)"/>
      </defs>
      <use xlink:href="#ArialMT-44"/>
      <use xlink:href="#ArialMT-61" transform="translate(72.216797 0)"/>
      <use xlink:href="#ArialMT-74" transform="translate(127.832031 0)"/>
      <use xlink:href="#ArialMT-61" transform="translate(155.615234 0)"/>
      <use xlink:href="#ArialMT-73" transform="translate(211.230469 0)"/>
      <use xlink:href="#ArialMT-65" transform="translate(261.230469 0)"/>
      <use xlink:href="#ArialMT-74" transform="translate(316.845703 0)"/>
      <use xlink:href="#ArialMT-20" transform="translate(344.628906 0)"/>
      <use xlink:href="#ArialMT-73" transform="translate(372.412109 0)"/>
      <use xlink:href="#ArialMT-70" transform="translate(422.412109 0)"/>
      <use xlink:href="#ArialMT-6c" transform="translate(478.027344 0)"/>
      <use xlink:href="#ArialMT-69" transform="translate(500.244141 0)"/>
      <use xlink:href="#ArialMT-74" transform="translate(522.460938 0)"/>
     </g>
    </g>
    <g id="line2d_29">
     <defs>
      <path id="mcceee620b4" d="M 0 5 
C 1.326016 5 2.597899 4.473168 3.535534 3.535534 
C 4.473168 2.597899 5 1.326016 5 0 
C 5 -1.326016 4.473168 -2.597899 3.535534 -3.535534 
C 2.597899 -4.473168 1.326016 -5 0 -5 
C -1.326016 -5 -2.597899 -4.473168 -3.535534 -3.535534 
C -4.473168 -2.597899 -5 -1.326016 -5 0 
C -5 1.326016 -4.473168 2.597899 -3.535534 3.535534 
C -2.597899 4.473168 -1.326016 5 0 5 
z
" style="stroke: #808080"/>
     </defs>
     <g>
      <use xlink:href="#mcceee620b4" x="500.983125" y="45.12375" style="fill: #808080; stroke: #808080"/>
     </g>
    </g>
    <g id="text_33">
     <!-- Train -->
     <g style="fill: #262626" transform="translate(522.583125 49.32375) scale(0.12 -0.12)">
      <defs>
       <path id="ArialMT-54" d="M 1659 0 
L 1659 4041 
L 150 4041 
L 150 4581 
L 3781 4581 
L 3781 4041 
L 2266 4041 
L 2266 0 
L 1659 0 
z
" transform="scale(0.015625)"/>
      </defs>
      <use xlink:href="#ArialMT-54"/>
      <use xlink:href="#ArialMT-72" transform="translate(57.333984 0)"/>
      <use xlink:href="#ArialMT-61" transform="translate(90.634766 0)"/>
      <use xlink:href="#ArialMT-69" transform="translate(146.25 0)"/>
      <use xlink:href="#ArialMT-6e" transform="translate(168.466797 0)"/>
     </g>
    </g>
    <g id="line2d_30">
     <defs>
      <path id="m076dd492c6" d="M -0 7.071068 
L 7.071068 0 
L 0 -7.071068 
L -7.071068 -0 
z
" style="stroke: #808080; stroke-linejoin: miter"/>
     </defs>
     <g>
      <use xlink:href="#m076dd492c6" x="500.983125" y="62.098125" style="fill: #808080; stroke: #808080; stroke-linejoin: miter"/>
     </g>
    </g>
    <g id="text_34">
     <!-- Test -->
     <g style="fill: #262626" transform="translate(522.583125 66.298125) scale(0.12 -0.12)">
      <use xlink:href="#ArialMT-54"/>
      <use xlink:href="#ArialMT-65" transform="translate(49.958984 0)"/>
      <use xlink:href="#ArialMT-73" transform="translate(105.574219 0)"/>
      <use xlink:href="#ArialMT-74" transform="translate(155.574219 0)"/>
     </g>
    </g>
   </g>
   <g id="legend_3">
    <g id="patch_9">
     <path d="M 483.81375 73.483125 
L 554.64 73.483125 
Q 557.04 73.483125 557.04 71.083125 
L 557.04 21.36 
Q 557.04 18.96 554.64 18.96 
L 483.81375 18.96 
Q 481.41375 18.96 481.41375 21.36 
L 481.41375 71.083125 
Q 481.41375 73.483125 483.81375 73.483125 
z
" style="fill: #eaeaf2; opacity: 0.8; stroke: #cccccc; stroke-linejoin: miter"/>
    </g>
    <g id="text_35">
     <!-- Dataset split -->
     <g style="fill: #262626" transform="translate(486.21375 32.349375) scale(0.12 -0.12)">
      <use xlink:href="#ArialMT-44"/>
      <use xlink:href="#ArialMT-61" transform="translate(72.216797 0)"/>
      <use xlink:href="#ArialMT-74" transform="translate(127.832031 0)"/>
      <use xlink:href="#ArialMT-61" transform="translate(155.615234 0)"/>
      <use xlink:href="#ArialMT-73" transform="translate(211.230469 0)"/>
      <use xlink:href="#ArialMT-65" transform="translate(261.230469 0)"/>
      <use xlink:href="#ArialMT-74" transform="translate(316.845703 0)"/>
      <use xlink:href="#ArialMT-20" transform="translate(344.628906 0)"/>
      <use xlink:href="#ArialMT-73" transform="translate(372.412109 0)"/>
      <use xlink:href="#ArialMT-70" transform="translate(422.412109 0)"/>
      <use xlink:href="#ArialMT-6c" transform="translate(478.027344 0)"/>
      <use xlink:href="#ArialMT-69" transform="translate(500.244141 0)"/>
      <use xlink:href="#ArialMT-74" transform="translate(522.460938 0)"/>
     </g>
    </g>
    <g id="line2d_31">
     <g>
      <use xlink:href="#mcceee620b4" x="500.983125" y="45.12375" style="fill: #808080; stroke: #808080"/>
     </g>
    </g>
    <g id="text_36">
     <!-- Train -->
     <g style="fill: #262626" transform="translate(522.583125 49.32375) scale(0.12 -0.12)">
      <use xlink:href="#ArialMT-54"/>
      <use xlink:href="#ArialMT-72" transform="translate(57.333984 0)"/>
      <use xlink:href="#ArialMT-61" transform="translate(90.634766 0)"/>
      <use xlink:href="#ArialMT-69" transform="translate(146.25 0)"/>
      <use xlink:href="#ArialMT-6e" transform="translate(168.466797 0)"/>
     </g>
    </g>
    <g id="line2d_32">
     <g>
      <use xlink:href="#m076dd492c6" x="500.983125" y="62.098125" style="fill: #808080; stroke: #808080; stroke-linejoin: miter"/>
     </g>
    </g>
    <g id="text_37">
     <!-- Test -->
     <g style="fill: #262626" transform="translate(522.583125 66.298125) scale(0.12 -0.12)">
      <use xlink:href="#ArialMT-54"/>
      <use xlink:href="#ArialMT-65" transform="translate(49.958984 0)"/>
      <use xlink:href="#ArialMT-73" transform="translate(105.574219 0)"/>
      <use xlink:href="#ArialMT-74" transform="translate(155.574219 0)"/>
     </g>
    </g>
   </g>
  </g>
 </g>
 <defs>
  <clipPath id="peb6fa59e69">
   <rect x="75.054" y="12.96" width="487.986" height="353.316"/>
  </clipPath>
 </defs>
</svg>
